%TF.GenerationSoftware,KiCad,Pcbnew,8.0.7*%
%TF.CreationDate,2024-12-21T11:05:05+01:00*%
%TF.ProjectId,circuit,63697263-7569-4742-9e6b-696361645f70,rev?*%
%TF.SameCoordinates,PX5f5e100PY5f5e100*%
%TF.FileFunction,Copper,L1,Top*%
%TF.FilePolarity,Positive*%
%FSLAX46Y46*%
G04 Gerber Fmt 4.6, Leading zero omitted, Abs format (unit mm)*
G04 Created by KiCad (PCBNEW 8.0.7) date 2024-12-21 11:05:05*
%MOMM*%
%LPD*%
G01*
G04 APERTURE LIST*
G04 Aperture macros list*
%AMRoundRect*
0 Rectangle with rounded corners*
0 $1 Rounding radius*
0 $2 $3 $4 $5 $6 $7 $8 $9 X,Y pos of 4 corners*
0 Add a 4 corners polygon primitive as box body*
4,1,4,$2,$3,$4,$5,$6,$7,$8,$9,$2,$3,0*
0 Add four circle primitives for the rounded corners*
1,1,$1+$1,$2,$3*
1,1,$1+$1,$4,$5*
1,1,$1+$1,$6,$7*
1,1,$1+$1,$8,$9*
0 Add four rect primitives between the rounded corners*
20,1,$1+$1,$2,$3,$4,$5,0*
20,1,$1+$1,$4,$5,$6,$7,0*
20,1,$1+$1,$6,$7,$8,$9,0*
20,1,$1+$1,$8,$9,$2,$3,0*%
G04 Aperture macros list end*
%TA.AperFunction,SMDPad,CuDef*%
%ADD10R,1.000000X1.900000*%
%TD*%
%TA.AperFunction,SMDPad,CuDef*%
%ADD11R,5.000000X0.760000*%
%TD*%
%TA.AperFunction,SMDPad,CuDef*%
%ADD12R,4.500000X8.800000*%
%TD*%
%TA.AperFunction,SMDPad,CuDef*%
%ADD13RoundRect,0.250000X0.450000X-0.350000X0.450000X0.350000X-0.450000X0.350000X-0.450000X-0.350000X0*%
%TD*%
%TA.AperFunction,SMDPad,CuDef*%
%ADD14R,1.000000X2.510000*%
%TD*%
%TA.AperFunction,SMDPad,CuDef*%
%ADD15R,1.550000X1.300000*%
%TD*%
%TA.AperFunction,ViaPad*%
%ADD16C,0.600000*%
%TD*%
%TA.AperFunction,Conductor*%
%ADD17C,0.200000*%
%TD*%
%TA.AperFunction,Conductor*%
%ADD18C,0.600000*%
%TD*%
%TA.AperFunction,Conductor*%
%ADD19C,0.400000*%
%TD*%
G04 APERTURE END LIST*
D10*
%TO.P,J1.2,1,Pin_1*%
%TO.N,/\u002AD13*%
X2680000Y17240000D03*
%TO.P,J1.2,2,Pin_2*%
%TO.N,+3V3*%
X5220000Y20540000D03*
%TO.P,J1.2,3,Pin_3*%
%TO.N,/AREF*%
X7760000Y17240000D03*
%TO.P,J1.2,4,Pin_4*%
%TO.N,/A0*%
X10300000Y20540000D03*
%TO.P,J1.2,5,Pin_5*%
%TO.N,/A1*%
X12840000Y17240000D03*
%TO.P,J1.2,6,Pin_6*%
%TO.N,/A2*%
X15380000Y20540000D03*
%TO.P,J1.2,7,Pin_7*%
%TO.N,/A3*%
X17920000Y17240000D03*
%TO.P,J1.2,8,Pin_8*%
%TO.N,/A4*%
X20460000Y20540000D03*
%TO.P,J1.2,9,Pin_9*%
%TO.N,/A5*%
X23000000Y17240000D03*
%TO.P,J1.2,10,Pin_10*%
%TO.N,unconnected-(J1.2-Pin_10-Pad10)*%
X25540000Y20540000D03*
%TO.P,J1.2,11,Pin_11*%
%TO.N,unconnected-(J1.2-Pin_11-Pad11)*%
X28080000Y17240000D03*
%TO.P,J1.2,12,Pin_12*%
%TO.N,+5V*%
X30620000Y20540000D03*
%TO.P,J1.2,13,Pin_13*%
%TO.N,/~{RESET}*%
X33160000Y17240000D03*
%TO.P,J1.2,14,Pin_14*%
%TO.N,GND*%
X35700000Y20540000D03*
%TO.P,J1.2,15,Pin_15*%
%TO.N,VCC*%
X38240000Y17240000D03*
%TO.P,J1.2,16,Pin_16*%
%TO.N,/D14{slash}MISO*%
X40780000Y20540000D03*
%TO.P,J1.2,17,Pin_17*%
%TO.N,/D15{slash}SCK*%
X43320000Y17240000D03*
%TD*%
%TO.P,J1.1,1,Pin_1*%
%TO.N,/D12*%
X2680000Y2000000D03*
%TO.P,J1.1,2,Pin_2*%
%TO.N,/\u002AD11*%
X5220000Y5300000D03*
%TO.P,J1.1,3,Pin_3*%
%TO.N,/\u002AD10*%
X7760000Y2000000D03*
%TO.P,J1.1,4,Pin_4*%
%TO.N,/\u002AD9*%
X10300000Y5300000D03*
%TO.P,J1.1,5,Pin_5*%
%TO.N,/D8*%
X12840000Y2000000D03*
%TO.P,J1.1,6,Pin_6*%
%TO.N,/D7*%
X15380000Y5300000D03*
%TO.P,J1.1,7,Pin_7*%
%TO.N,/\u002AD6*%
X17920000Y2000000D03*
%TO.P,J1.1,8,Pin_8*%
%TO.N,/\u002AD5*%
X20460000Y5300000D03*
%TO.P,J1.1,9,Pin_9*%
%TO.N,/D4*%
X23000000Y2000000D03*
%TO.P,J1.1,10,Pin_10*%
%TO.N,/\u002AD3{slash}SCL*%
X25540000Y5300000D03*
%TO.P,J1.1,11,Pin_11*%
%TO.N,/D2{slash}SDA*%
X28080000Y2000000D03*
%TO.P,J1.1,12,Pin_12*%
%TO.N,GND*%
X30620000Y5300000D03*
%TO.P,J1.1,13,Pin_13*%
%TO.N,unconnected-(J1.1-Pin_13-Pad13)*%
X33160000Y2000000D03*
%TO.P,J1.1,14,Pin_14*%
%TO.N,/A*%
X35700000Y5300000D03*
%TO.P,J1.1,15,Pin_15*%
%TO.N,/B*%
X38240000Y2000000D03*
%TO.P,J1.1,16,Pin_16*%
%TO.N,/D17{slash}SS*%
X40780000Y5300000D03*
%TO.P,J1.1,17,Pin_17*%
%TO.N,/D16{slash}MOSI*%
X43320000Y2000000D03*
%TD*%
D11*
%TO.P,J6,1*%
%TO.N,GND*%
X49470000Y4555000D03*
%TO.P,J6,2*%
X49470000Y5825000D03*
%TO.P,J6,3*%
%TO.N,+5V*%
X49470000Y7095000D03*
%TO.P,J6,4*%
X49470000Y8365000D03*
%TO.P,J6,5*%
%TO.N,/D2{slash}SDA*%
X49470000Y9635000D03*
%TO.P,J6,6*%
X49470000Y10905000D03*
%TO.P,J6,7*%
%TO.N,/\u002AD3{slash}SCL*%
X49470000Y12175000D03*
%TO.P,J6,8*%
X49470000Y13445000D03*
D12*
%TO.P,J6,L*%
%TO.N,N/C*%
X65400000Y9000000D03*
%TD*%
D13*
%TO.P,R2,1*%
%TO.N,+5V*%
X2790000Y24810000D03*
%TO.P,R2,2*%
%TO.N,/B*%
X2790000Y26810000D03*
%TD*%
D14*
%TO.P,J2,1,Pin_1*%
%TO.N,GND*%
X13830000Y27320000D03*
%TO.P,J2,2,Pin_2*%
%TO.N,+5V*%
X11290000Y24010000D03*
%TO.P,J2,3,Pin_3*%
%TO.N,/A3*%
X8750000Y27320000D03*
%TD*%
%TO.P,J3,1,Pin_1*%
%TO.N,GND*%
X13870000Y34810000D03*
%TO.P,J3,2,Pin_2*%
%TO.N,+5V*%
X11330000Y31500000D03*
%TO.P,J3,3,Pin_3*%
%TO.N,/A*%
X8790000Y34810000D03*
%TO.P,J3,4,Pin_4*%
%TO.N,/B*%
X6250000Y31500000D03*
%TO.P,J3,5,Pin_5*%
%TO.N,/Z*%
X3710000Y34810000D03*
%TD*%
D10*
%TO.P,J7.1.2,1,Pin_1*%
%TO.N,Net-(J7.1.1-Pin_1)*%
X57550000Y43250000D03*
%TO.P,J7.1.2,2,Pin_2*%
%TO.N,Net-(J7.1.1-Pin_2)*%
X55010000Y39950000D03*
%TO.P,J7.1.2,3,Pin_3*%
%TO.N,Net-(J7.1.1-Pin_3)*%
X52470000Y43250000D03*
%TO.P,J7.1.2,4,Pin_4*%
%TO.N,Net-(J7.1.1-Pin_4)*%
X49930000Y39950000D03*
%TO.P,J7.1.2,5,Pin_5*%
%TO.N,Net-(J7.1.1-Pin_5)*%
X47390000Y43250000D03*
%TO.P,J7.1.2,6,Pin_6*%
%TO.N,Net-(J7.1.1-Pin_6)*%
X44850000Y39950000D03*
%TO.P,J7.1.2,7,Pin_7*%
%TO.N,Net-(J7.1.1-Pin_7)*%
X42310000Y43250000D03*
%TO.P,J7.1.2,8,Pin_8*%
%TO.N,Net-(J7.1.1-Pin_8)*%
X39770000Y39950000D03*
%TO.P,J7.1.2,9,Pin_9*%
%TO.N,Net-(J7.1.1-Pin_9)*%
X37230000Y43250000D03*
%TO.P,J7.1.2,10,Pin_10*%
%TO.N,Net-(J7.1.1-Pin_10)*%
X34690000Y39950000D03*
%TO.P,J7.1.2,11,Pin_11*%
%TO.N,Net-(J7.1.1-Pin_11)*%
X32150000Y43250000D03*
%TO.P,J7.1.2,12,Pin_12*%
%TO.N,Net-(J7.1.1-Pin_12)*%
X29610000Y39950000D03*
%TO.P,J7.1.2,13,Pin_13*%
%TO.N,Net-(J7.1.1-Pin_13)*%
X27070000Y43250000D03*
%TO.P,J7.1.2,14,Pin_14*%
%TO.N,Net-(J7.1.1-Pin_14)*%
X24530000Y39950000D03*
%TO.P,J7.1.2,15,Pin_15*%
%TO.N,Net-(J7.1.1-Pin_15)*%
X21990000Y43250000D03*
%TO.P,J7.1.2,16,Pin_16*%
%TO.N,Net-(J7.1.1-Pin_16)*%
X19450000Y39950000D03*
%TD*%
%TO.P,J7.1.1,1,Pin_1*%
%TO.N,Net-(J7.1.1-Pin_1)*%
X57550000Y51500000D03*
%TO.P,J7.1.1,2,Pin_2*%
%TO.N,Net-(J7.1.1-Pin_2)*%
X55010000Y48200000D03*
%TO.P,J7.1.1,3,Pin_3*%
%TO.N,Net-(J7.1.1-Pin_3)*%
X52470000Y51500000D03*
%TO.P,J7.1.1,4,Pin_4*%
%TO.N,Net-(J7.1.1-Pin_4)*%
X49930000Y48200000D03*
%TO.P,J7.1.1,5,Pin_5*%
%TO.N,Net-(J7.1.1-Pin_5)*%
X47390000Y51500000D03*
%TO.P,J7.1.1,6,Pin_6*%
%TO.N,Net-(J7.1.1-Pin_6)*%
X44850000Y48200000D03*
%TO.P,J7.1.1,7,Pin_7*%
%TO.N,Net-(J7.1.1-Pin_7)*%
X42310000Y51500000D03*
%TO.P,J7.1.1,8,Pin_8*%
%TO.N,Net-(J7.1.1-Pin_8)*%
X39770000Y48200000D03*
%TO.P,J7.1.1,9,Pin_9*%
%TO.N,Net-(J7.1.1-Pin_9)*%
X37230000Y51500000D03*
%TO.P,J7.1.1,10,Pin_10*%
%TO.N,Net-(J7.1.1-Pin_10)*%
X34690000Y48200000D03*
%TO.P,J7.1.1,11,Pin_11*%
%TO.N,Net-(J7.1.1-Pin_11)*%
X32150000Y51500000D03*
%TO.P,J7.1.1,12,Pin_12*%
%TO.N,Net-(J7.1.1-Pin_12)*%
X29610000Y48200000D03*
%TO.P,J7.1.1,13,Pin_13*%
%TO.N,Net-(J7.1.1-Pin_13)*%
X27070000Y51500000D03*
%TO.P,J7.1.1,14,Pin_14*%
%TO.N,Net-(J7.1.1-Pin_14)*%
X24530000Y48200000D03*
%TO.P,J7.1.1,15,Pin_15*%
%TO.N,Net-(J7.1.1-Pin_15)*%
X21990000Y51500000D03*
%TO.P,J7.1.1,16,Pin_16*%
%TO.N,Net-(J7.1.1-Pin_16)*%
X19450000Y48200000D03*
%TD*%
D13*
%TO.P,R1,1*%
%TO.N,+5V*%
X4790000Y24810000D03*
%TO.P,R1,2*%
%TO.N,/A*%
X4790000Y26810000D03*
%TD*%
D14*
%TO.P,J7.2,1,Pin_1*%
%TO.N,GND*%
X35720000Y23800000D03*
%TO.P,J7.2,2,Pin_2*%
%TO.N,+5V*%
X38260000Y27110000D03*
%TO.P,J7.2,3,Pin_3*%
%TO.N,/D2{slash}SDA*%
X40800000Y23800000D03*
%TO.P,J7.2,4,Pin_4*%
%TO.N,/\u002AD3{slash}SCL*%
X43340000Y27110000D03*
%TD*%
%TO.P,J4,1,Pin_1*%
%TO.N,GND*%
X13870000Y41800000D03*
%TO.P,J4,2,Pin_2*%
%TO.N,+5V*%
X11330000Y38490000D03*
%TO.P,J4,3,Pin_3*%
%TO.N,/A4*%
X8790000Y41800000D03*
%TO.P,J4,4,Pin_4*%
%TO.N,/A5*%
X6250000Y38490000D03*
%TO.P,J4,5,Pin_5*%
%TO.N,/\u002AD11*%
X3710000Y41800000D03*
%TD*%
D11*
%TO.P,J8,1*%
%TO.N,GND*%
X49470000Y23755000D03*
%TO.P,J8,2*%
X49470000Y25025000D03*
%TO.P,J8,3*%
%TO.N,+5V*%
X49470000Y26295000D03*
%TO.P,J8,4*%
X49470000Y27565000D03*
%TO.P,J8,5*%
%TO.N,/D2{slash}SDA*%
X49470000Y28835000D03*
%TO.P,J8,6*%
X49470000Y30105000D03*
%TO.P,J8,7*%
%TO.N,/\u002AD3{slash}SCL*%
X49470000Y31375000D03*
%TO.P,J8,8*%
X49470000Y32645000D03*
D12*
%TO.P,J8,L*%
%TO.N,N/C*%
X65400000Y28200000D03*
%TD*%
D14*
%TO.P,J5,1,Pin_1*%
%TO.N,GND*%
X13870000Y48810000D03*
%TO.P,J5,2,Pin_2*%
%TO.N,+5V*%
X11330000Y45500000D03*
%TO.P,J5,3,Pin_3*%
%TO.N,/A0*%
X8790000Y48810000D03*
%TO.P,J5,4,Pin_4*%
%TO.N,/A1*%
X6250000Y45500000D03*
%TO.P,J5,5,Pin_5*%
%TO.N,/A2*%
X3710000Y48810000D03*
%TD*%
D15*
%TO.P,SW1,1,1*%
%TO.N,GND*%
X30400000Y23400000D03*
X22450000Y23400000D03*
%TO.P,SW1,2,2*%
%TO.N,/~{RESET}*%
X30400000Y27900000D03*
X22450000Y27900000D03*
%TD*%
D16*
%TO.N,GND*%
X16600000Y25600000D03*
X49470000Y5825000D03*
X41000000Y26200000D03*
X55200000Y5800000D03*
X16600000Y33200000D03*
X22200000Y25600000D03*
X43400000Y19800000D03*
%TO.N,+5V*%
X11330000Y31500000D03*
X11330000Y45500000D03*
X30620000Y20540000D03*
X49470000Y27565000D03*
X49470000Y8365000D03*
X11330000Y38490000D03*
X4790000Y24810000D03*
X11290000Y24010000D03*
X38260000Y27110000D03*
%TD*%
D17*
%TO.N,/~{RESET}*%
X33160000Y26640000D02*
X33160000Y17240000D01*
X31900000Y27900000D02*
X33160000Y26640000D01*
X30400000Y27900000D02*
X31900000Y27900000D01*
X22450000Y27900000D02*
X30400000Y27900000D01*
%TO.N,/\u002AD11*%
X2600000Y29565686D02*
X1390000Y28355686D01*
X4300000Y5300000D02*
X5220000Y5300000D01*
X1390000Y28355686D02*
X1390000Y8210000D01*
X1390000Y8210000D02*
X4300000Y5300000D01*
X2600000Y38900000D02*
X2600000Y29565686D01*
X3710000Y40010000D02*
X2600000Y38900000D01*
X3710000Y41800000D02*
X3710000Y40010000D01*
%TO.N,/\u002AD3{slash}SCL*%
X29860000Y750000D02*
X32710000Y3600000D01*
X49550000Y750000D02*
X52600000Y3800000D01*
X49470000Y32645000D02*
X49470000Y31375000D01*
X45175000Y31375000D02*
X43340000Y29540000D01*
X32710000Y3600000D02*
X33610000Y3600000D01*
X25540000Y2260000D02*
X27050000Y750000D01*
X25540000Y5300000D02*
X25540000Y2260000D01*
X33610000Y3600000D02*
X36860000Y350000D01*
X52225000Y12175000D02*
X49470000Y12175000D01*
X39915686Y350000D02*
X40315686Y750000D01*
X52245000Y13445000D02*
X49470000Y13445000D01*
X52625000Y31375000D02*
X54200000Y29800000D01*
X52600000Y11800000D02*
X52225000Y12175000D01*
X54200000Y29800000D02*
X54200000Y15400000D01*
X49470000Y31375000D02*
X52625000Y31375000D01*
X36860000Y350000D02*
X39915686Y350000D01*
X49470000Y31375000D02*
X45175000Y31375000D01*
X54200000Y15400000D02*
X52245000Y13445000D01*
X27050000Y750000D02*
X29860000Y750000D01*
X52600000Y3800000D02*
X52600000Y11800000D01*
X43340000Y29540000D02*
X43340000Y27110000D01*
X49470000Y13445000D02*
X49470000Y12175000D01*
X40315686Y750000D02*
X49550000Y750000D01*
D18*
%TO.N,+5V*%
X49470000Y27565000D02*
X49470000Y26295000D01*
X2790000Y24810000D02*
X4790000Y24810000D01*
X49470000Y7095000D02*
X49470000Y8365000D01*
D17*
%TO.N,/A5*%
X12600000Y34600000D02*
X12600000Y33600000D01*
X18800000Y28400000D02*
X18800000Y19200000D01*
X20760000Y17240000D02*
X23000000Y17240000D01*
X8710000Y38490000D02*
X12600000Y34600000D01*
X14400000Y32800000D02*
X18800000Y28400000D01*
X6250000Y38490000D02*
X8710000Y38490000D01*
X12600000Y33600000D02*
X13400000Y32800000D01*
X13400000Y32800000D02*
X14400000Y32800000D01*
X18800000Y19200000D02*
X20760000Y17240000D01*
%TO.N,/A4*%
X20460000Y31715000D02*
X20460000Y20540000D01*
X8790000Y41800000D02*
X10375000Y41800000D01*
X10375000Y41800000D02*
X20460000Y31715000D01*
%TO.N,/A3*%
X8750000Y27320000D02*
X10650000Y27320000D01*
X10650000Y27320000D02*
X17920000Y20050000D01*
X17920000Y20050000D02*
X17920000Y17240000D01*
%TO.N,/A2*%
X3710000Y48810000D02*
X3710000Y45690000D01*
X10000000Y31490686D02*
X7400000Y28890686D01*
X5800000Y43600000D02*
X5800000Y40960686D01*
X15380000Y17580000D02*
X15380000Y20540000D01*
X7400000Y25800000D02*
X9800000Y23400000D01*
X4800000Y37019314D02*
X5419314Y36400000D01*
X12230000Y15800000D02*
X13600000Y15800000D01*
X5800000Y40960686D02*
X4800000Y39960686D01*
X11400000Y21800000D02*
X11800000Y21400000D01*
X9600000Y36400000D02*
X10000000Y36000000D01*
X3710000Y45690000D02*
X5800000Y43600000D01*
X11800000Y16230000D02*
X12230000Y15800000D01*
X5419314Y36400000D02*
X9600000Y36400000D01*
X10400000Y21800000D02*
X11400000Y21800000D01*
X4800000Y39960686D02*
X4800000Y37019314D01*
X10000000Y36000000D02*
X10000000Y31490686D01*
X11800000Y21400000D02*
X11800000Y16230000D01*
X9800000Y22400000D02*
X10400000Y21800000D01*
X13600000Y15800000D02*
X15380000Y17580000D01*
X9800000Y23400000D02*
X9800000Y22400000D01*
X7400000Y28890686D02*
X7400000Y25800000D01*
%TO.N,/A1*%
X12840000Y20960000D02*
X12840000Y17240000D01*
X10600000Y22200000D02*
X11600000Y22200000D01*
X9800000Y36800000D02*
X10400000Y36200000D01*
X5200000Y39795000D02*
X5200000Y37185000D01*
X10400000Y31325000D02*
X7800000Y28725000D01*
X5585000Y36800000D02*
X9800000Y36800000D01*
X10400000Y36200000D02*
X10400000Y31325000D01*
X10200000Y22600000D02*
X10600000Y22200000D01*
X7800000Y28725000D02*
X7800000Y26000000D01*
X6200000Y40795000D02*
X5200000Y39795000D01*
X5200000Y37185000D02*
X5585000Y36800000D01*
X10200000Y23600000D02*
X10200000Y22600000D01*
X7800000Y26000000D02*
X10200000Y23600000D01*
X6250000Y45500000D02*
X6200000Y45450000D01*
X11600000Y22200000D02*
X12840000Y20960000D01*
X6200000Y45450000D02*
X6200000Y40795000D01*
%TO.N,/A0*%
X25200000Y15800000D02*
X25200000Y18000000D01*
X16600000Y36600000D02*
X16600000Y43200000D01*
X16600000Y43200000D02*
X10990000Y48810000D01*
X21000000Y22200000D02*
X21000000Y32200000D01*
X10300000Y17164314D02*
X12064314Y15400000D01*
X10300000Y20540000D02*
X10300000Y17164314D01*
X24800000Y15400000D02*
X25200000Y15800000D01*
X12064314Y15400000D02*
X24800000Y15400000D01*
X10990000Y48810000D02*
X8790000Y48810000D01*
X25200000Y18000000D02*
X21000000Y22200000D01*
X21000000Y32200000D02*
X16600000Y36600000D01*
%TO.N,/D2{slash}SDA*%
X41800000Y2800000D02*
X41800000Y5200000D01*
X46295000Y10905000D02*
X42000000Y15200000D01*
X42000000Y15200000D02*
X42000000Y23500000D01*
X30544314Y2000000D02*
X32544314Y4000000D01*
X46235000Y9635000D02*
X49470000Y9635000D01*
X45400000Y28400000D02*
X45400000Y24200000D01*
X37025686Y750000D02*
X39750000Y750000D01*
X49470000Y10905000D02*
X49470000Y9635000D01*
X41800000Y5200000D02*
X46235000Y9635000D01*
X45400000Y24200000D02*
X45000000Y23800000D01*
X45000000Y23800000D02*
X40800000Y23800000D01*
X49470000Y28835000D02*
X45835000Y28835000D01*
X42000000Y23500000D02*
X41700000Y23800000D01*
X28080000Y2000000D02*
X30544314Y2000000D01*
X33775686Y4000000D02*
X37025686Y750000D01*
X45835000Y28835000D02*
X45400000Y28400000D01*
X32544314Y4000000D02*
X33775686Y4000000D01*
X41700000Y23800000D02*
X40800000Y23800000D01*
X39750000Y750000D02*
X41800000Y2800000D01*
X49470000Y30105000D02*
X49470000Y28835000D01*
X49470000Y10905000D02*
X46295000Y10905000D01*
%TO.N,/B*%
X26541372Y11800000D02*
X4600000Y11800000D01*
X4200000Y12200000D02*
X4200000Y21815256D01*
X2010000Y26810000D02*
X2790000Y26810000D01*
X1790000Y24225256D02*
X1790000Y26590000D01*
X4600000Y11800000D02*
X4200000Y12200000D01*
X6250000Y31500000D02*
X5100000Y31500000D01*
X38240000Y2000000D02*
X36341372Y2000000D01*
X2790000Y29190000D02*
X2790000Y26810000D01*
X1790000Y26590000D02*
X2010000Y26810000D01*
X5100000Y31500000D02*
X2790000Y29190000D01*
X4200000Y21815256D02*
X1790000Y24225256D01*
X36341372Y2000000D02*
X26541372Y11800000D01*
%TO.N,/A*%
X28200000Y14200000D02*
X11200000Y14200000D01*
X35700000Y6700000D02*
X28200000Y14200000D01*
X9000000Y19200000D02*
X6400000Y21800000D01*
X11200000Y14200000D02*
X9000000Y16400000D01*
X8790000Y34810000D02*
X8790000Y31390000D01*
X6400000Y21800000D02*
X6400000Y26200000D01*
X35700000Y5300000D02*
X35700000Y6700000D01*
X9000000Y16400000D02*
X9000000Y19200000D01*
X5790000Y26810000D02*
X4790000Y26810000D01*
X8790000Y31390000D02*
X5800000Y28400000D01*
X4790000Y27990000D02*
X4790000Y26810000D01*
X5800000Y28400000D02*
X5200000Y28400000D01*
X6400000Y26200000D02*
X5790000Y26810000D01*
X5200000Y28400000D02*
X4790000Y27990000D01*
D19*
%TO.N,Net-(J7.1.1-Pin_2)*%
X55010000Y48200000D02*
X55010000Y39950000D01*
%TO.N,Net-(J7.1.1-Pin_15)*%
X21990000Y51500000D02*
X21990000Y43250000D01*
%TO.N,Net-(J7.1.1-Pin_10)*%
X34690000Y48200000D02*
X34690000Y39950000D01*
%TO.N,Net-(J7.1.1-Pin_5)*%
X47390000Y51500000D02*
X47390000Y43250000D01*
%TO.N,Net-(J7.1.1-Pin_12)*%
X29610000Y48200000D02*
X29610000Y39950000D01*
%TO.N,Net-(J7.1.1-Pin_16)*%
X19450000Y48200000D02*
X19450000Y39950000D01*
%TO.N,Net-(J7.1.1-Pin_11)*%
X32150000Y51500000D02*
X32150000Y43250000D01*
%TO.N,Net-(J7.1.1-Pin_6)*%
X44850000Y48200000D02*
X44850000Y39950000D01*
%TO.N,Net-(J7.1.1-Pin_4)*%
X49930000Y48200000D02*
X49930000Y39950000D01*
%TO.N,Net-(J7.1.1-Pin_1)*%
X57550000Y51500000D02*
X57550000Y43250000D01*
%TO.N,Net-(J7.1.1-Pin_14)*%
X24530000Y48200000D02*
X24530000Y39950000D01*
%TO.N,Net-(J7.1.1-Pin_13)*%
X27070000Y51500000D02*
X27070000Y43250000D01*
%TO.N,Net-(J7.1.1-Pin_8)*%
X39770000Y48200000D02*
X39770000Y39950000D01*
%TO.N,Net-(J7.1.1-Pin_7)*%
X42310000Y51500000D02*
X42310000Y43250000D01*
%TO.N,Net-(J7.1.1-Pin_9)*%
X37230000Y51500000D02*
X37230000Y43250000D01*
%TO.N,Net-(J7.1.1-Pin_3)*%
X52470000Y51500000D02*
X52470000Y43250000D01*
%TD*%
%TA.AperFunction,Conductor*%
%TO.N,GND*%
G36*
X21085849Y52980315D02*
G01*
X21131604Y52927511D01*
X21141548Y52858353D01*
X21118077Y52801692D01*
X21079550Y52750225D01*
X21039111Y52696205D01*
X20988011Y52559205D01*
X20988011Y52559203D01*
X20981500Y52498655D01*
X20981500Y50501346D01*
X20988011Y50440798D01*
X20988011Y50440796D01*
X21039111Y50303796D01*
X21126739Y50186739D01*
X21231811Y50108083D01*
X21273682Y50052149D01*
X21281500Y50008816D01*
X21281500Y44741184D01*
X21261815Y44674145D01*
X21231811Y44641917D01*
X21126739Y44563261D01*
X21039111Y44446205D01*
X20988011Y44309205D01*
X20988011Y44309203D01*
X20981500Y44248655D01*
X20981500Y42251346D01*
X20988011Y42190798D01*
X20988011Y42190796D01*
X21039111Y42053796D01*
X21126739Y41936739D01*
X21243796Y41849111D01*
X21380799Y41798011D01*
X21408050Y41795082D01*
X21441345Y41791501D01*
X21441362Y41791500D01*
X22538638Y41791500D01*
X22538654Y41791501D01*
X22565692Y41794409D01*
X22599201Y41798011D01*
X22736204Y41849111D01*
X22853261Y41936739D01*
X22940889Y42053796D01*
X22991989Y42190799D01*
X22995591Y42224308D01*
X22998499Y42251346D01*
X22998500Y42251363D01*
X22998500Y44248638D01*
X22998499Y44248655D01*
X22995157Y44279730D01*
X22991989Y44309201D01*
X22940889Y44446204D01*
X22853261Y44563261D01*
X22748188Y44641918D01*
X22706318Y44697851D01*
X22698500Y44741184D01*
X22698500Y49198655D01*
X23521500Y49198655D01*
X23521500Y47201346D01*
X23528011Y47140798D01*
X23528011Y47140796D01*
X23567959Y47033695D01*
X23579111Y47003796D01*
X23666739Y46886739D01*
X23771811Y46808083D01*
X23813682Y46752149D01*
X23821500Y46708816D01*
X23821500Y41441184D01*
X23801815Y41374145D01*
X23771811Y41341917D01*
X23666739Y41263261D01*
X23579111Y41146205D01*
X23528011Y41009205D01*
X23528011Y41009203D01*
X23521500Y40948655D01*
X23521500Y38951346D01*
X23528011Y38890798D01*
X23528011Y38890796D01*
X23575204Y38764270D01*
X23579111Y38753796D01*
X23666739Y38636739D01*
X23783796Y38549111D01*
X23920799Y38498011D01*
X23948050Y38495082D01*
X23981345Y38491501D01*
X23981362Y38491500D01*
X25078638Y38491500D01*
X25078654Y38491501D01*
X25105692Y38494409D01*
X25139201Y38498011D01*
X25276204Y38549111D01*
X25393261Y38636739D01*
X25480889Y38753796D01*
X25531989Y38890799D01*
X25535591Y38924308D01*
X25538499Y38951346D01*
X25538500Y38951363D01*
X25538500Y40948638D01*
X25538499Y40948655D01*
X25535157Y40979730D01*
X25531989Y41009201D01*
X25520838Y41039097D01*
X25509522Y41069436D01*
X25480889Y41146204D01*
X25393261Y41263261D01*
X25288188Y41341918D01*
X25246318Y41397851D01*
X25238500Y41441184D01*
X25238500Y46708816D01*
X25258185Y46775855D01*
X25288189Y46808083D01*
X25393261Y46886739D01*
X25480889Y47003796D01*
X25531989Y47140799D01*
X25535591Y47174308D01*
X25538499Y47201346D01*
X25538500Y47201363D01*
X25538500Y49198638D01*
X25538499Y49198655D01*
X25535157Y49229730D01*
X25531989Y49259201D01*
X25517920Y49296920D01*
X25488040Y49377031D01*
X25480889Y49396204D01*
X25393261Y49513261D01*
X25276204Y49600889D01*
X25139203Y49651989D01*
X25078654Y49658500D01*
X25078638Y49658500D01*
X23981362Y49658500D01*
X23981345Y49658500D01*
X23920797Y49651989D01*
X23920795Y49651989D01*
X23783795Y49600889D01*
X23666739Y49513261D01*
X23579111Y49396205D01*
X23528011Y49259205D01*
X23528011Y49259203D01*
X23521500Y49198655D01*
X22698500Y49198655D01*
X22698500Y50008816D01*
X22718185Y50075855D01*
X22748189Y50108083D01*
X22853261Y50186739D01*
X22940889Y50303796D01*
X22991989Y50440799D01*
X22995591Y50474308D01*
X22998499Y50501346D01*
X22998500Y50501363D01*
X22998500Y52498638D01*
X22998499Y52498655D01*
X22995157Y52529730D01*
X22991989Y52559201D01*
X22940889Y52696204D01*
X22861922Y52801691D01*
X22837506Y52867153D01*
X22852357Y52935426D01*
X22901763Y52984832D01*
X22961190Y53000000D01*
X26098810Y53000000D01*
X26165849Y52980315D01*
X26211604Y52927511D01*
X26221548Y52858353D01*
X26198077Y52801692D01*
X26159550Y52750225D01*
X26119111Y52696205D01*
X26068011Y52559205D01*
X26068011Y52559203D01*
X26061500Y52498655D01*
X26061500Y50501346D01*
X26068011Y50440798D01*
X26068011Y50440796D01*
X26119111Y50303796D01*
X26206739Y50186739D01*
X26311811Y50108083D01*
X26353682Y50052149D01*
X26361500Y50008816D01*
X26361500Y44741184D01*
X26341815Y44674145D01*
X26311811Y44641917D01*
X26206739Y44563261D01*
X26119111Y44446205D01*
X26068011Y44309205D01*
X26068011Y44309203D01*
X26061500Y44248655D01*
X26061500Y42251346D01*
X26068011Y42190798D01*
X26068011Y42190796D01*
X26119111Y42053796D01*
X26206739Y41936739D01*
X26323796Y41849111D01*
X26460799Y41798011D01*
X26488050Y41795082D01*
X26521345Y41791501D01*
X26521362Y41791500D01*
X27618638Y41791500D01*
X27618654Y41791501D01*
X27645692Y41794409D01*
X27679201Y41798011D01*
X27816204Y41849111D01*
X27933261Y41936739D01*
X28020889Y42053796D01*
X28071989Y42190799D01*
X28075591Y42224308D01*
X28078499Y42251346D01*
X28078500Y42251363D01*
X28078500Y44248638D01*
X28078499Y44248655D01*
X28075157Y44279730D01*
X28071989Y44309201D01*
X28020889Y44446204D01*
X27933261Y44563261D01*
X27828188Y44641918D01*
X27786318Y44697851D01*
X27778500Y44741184D01*
X27778500Y49198655D01*
X28601500Y49198655D01*
X28601500Y47201346D01*
X28608011Y47140798D01*
X28608011Y47140796D01*
X28647959Y47033695D01*
X28659111Y47003796D01*
X28746739Y46886739D01*
X28851811Y46808083D01*
X28893682Y46752149D01*
X28901500Y46708816D01*
X28901500Y41441184D01*
X28881815Y41374145D01*
X28851811Y41341917D01*
X28746739Y41263261D01*
X28659111Y41146205D01*
X28608011Y41009205D01*
X28608011Y41009203D01*
X28601500Y40948655D01*
X28601500Y38951346D01*
X28608011Y38890798D01*
X28608011Y38890796D01*
X28655204Y38764270D01*
X28659111Y38753796D01*
X28746739Y38636739D01*
X28863796Y38549111D01*
X29000799Y38498011D01*
X29028050Y38495082D01*
X29061345Y38491501D01*
X29061362Y38491500D01*
X30158638Y38491500D01*
X30158654Y38491501D01*
X30185692Y38494409D01*
X30219201Y38498011D01*
X30356204Y38549111D01*
X30473261Y38636739D01*
X30560889Y38753796D01*
X30611989Y38890799D01*
X30615591Y38924308D01*
X30618499Y38951346D01*
X30618500Y38951363D01*
X30618500Y40948638D01*
X30618499Y40948655D01*
X30615157Y40979730D01*
X30611989Y41009201D01*
X30600838Y41039097D01*
X30589522Y41069436D01*
X30560889Y41146204D01*
X30473261Y41263261D01*
X30368188Y41341918D01*
X30326318Y41397851D01*
X30318500Y41441184D01*
X30318500Y46708816D01*
X30338185Y46775855D01*
X30368189Y46808083D01*
X30473261Y46886739D01*
X30560889Y47003796D01*
X30611989Y47140799D01*
X30615591Y47174308D01*
X30618499Y47201346D01*
X30618500Y47201363D01*
X30618500Y49198638D01*
X30618499Y49198655D01*
X30615157Y49229730D01*
X30611989Y49259201D01*
X30597920Y49296920D01*
X30568040Y49377031D01*
X30560889Y49396204D01*
X30473261Y49513261D01*
X30356204Y49600889D01*
X30219203Y49651989D01*
X30158654Y49658500D01*
X30158638Y49658500D01*
X29061362Y49658500D01*
X29061345Y49658500D01*
X29000797Y49651989D01*
X29000795Y49651989D01*
X28863795Y49600889D01*
X28746739Y49513261D01*
X28659111Y49396205D01*
X28608011Y49259205D01*
X28608011Y49259203D01*
X28601500Y49198655D01*
X27778500Y49198655D01*
X27778500Y50008816D01*
X27798185Y50075855D01*
X27828189Y50108083D01*
X27933261Y50186739D01*
X28020889Y50303796D01*
X28071989Y50440799D01*
X28075591Y50474308D01*
X28078499Y50501346D01*
X28078500Y50501363D01*
X28078500Y52498638D01*
X28078499Y52498655D01*
X28075157Y52529730D01*
X28071989Y52559201D01*
X28020889Y52696204D01*
X27941922Y52801691D01*
X27917506Y52867153D01*
X27932357Y52935426D01*
X27981763Y52984832D01*
X28041190Y53000000D01*
X31178810Y53000000D01*
X31245849Y52980315D01*
X31291604Y52927511D01*
X31301548Y52858353D01*
X31278077Y52801692D01*
X31239550Y52750225D01*
X31199111Y52696205D01*
X31148011Y52559205D01*
X31148011Y52559203D01*
X31141500Y52498655D01*
X31141500Y50501346D01*
X31148011Y50440798D01*
X31148011Y50440796D01*
X31199111Y50303796D01*
X31286739Y50186739D01*
X31391811Y50108083D01*
X31433682Y50052149D01*
X31441500Y50008816D01*
X31441500Y44741184D01*
X31421815Y44674145D01*
X31391811Y44641917D01*
X31286739Y44563261D01*
X31199111Y44446205D01*
X31148011Y44309205D01*
X31148011Y44309203D01*
X31141500Y44248655D01*
X31141500Y42251346D01*
X31148011Y42190798D01*
X31148011Y42190796D01*
X31199111Y42053796D01*
X31286739Y41936739D01*
X31403796Y41849111D01*
X31540799Y41798011D01*
X31568050Y41795082D01*
X31601345Y41791501D01*
X31601362Y41791500D01*
X32698638Y41791500D01*
X32698654Y41791501D01*
X32725692Y41794409D01*
X32759201Y41798011D01*
X32896204Y41849111D01*
X33013261Y41936739D01*
X33100889Y42053796D01*
X33151989Y42190799D01*
X33155591Y42224308D01*
X33158499Y42251346D01*
X33158500Y42251363D01*
X33158500Y44248638D01*
X33158499Y44248655D01*
X33155157Y44279730D01*
X33151989Y44309201D01*
X33100889Y44446204D01*
X33013261Y44563261D01*
X32908188Y44641918D01*
X32866318Y44697851D01*
X32858500Y44741184D01*
X32858500Y49198655D01*
X33681500Y49198655D01*
X33681500Y47201346D01*
X33688011Y47140798D01*
X33688011Y47140796D01*
X33727959Y47033695D01*
X33739111Y47003796D01*
X33826739Y46886739D01*
X33931811Y46808083D01*
X33973682Y46752149D01*
X33981500Y46708816D01*
X33981500Y41441184D01*
X33961815Y41374145D01*
X33931811Y41341917D01*
X33826739Y41263261D01*
X33739111Y41146205D01*
X33688011Y41009205D01*
X33688011Y41009203D01*
X33681500Y40948655D01*
X33681500Y38951346D01*
X33688011Y38890798D01*
X33688011Y38890796D01*
X33735204Y38764270D01*
X33739111Y38753796D01*
X33826739Y38636739D01*
X33943796Y38549111D01*
X34080799Y38498011D01*
X34108050Y38495082D01*
X34141345Y38491501D01*
X34141362Y38491500D01*
X35238638Y38491500D01*
X35238654Y38491501D01*
X35265692Y38494409D01*
X35299201Y38498011D01*
X35436204Y38549111D01*
X35553261Y38636739D01*
X35640889Y38753796D01*
X35691989Y38890799D01*
X35695591Y38924308D01*
X35698499Y38951346D01*
X35698500Y38951363D01*
X35698500Y40948638D01*
X35698499Y40948655D01*
X35695157Y40979730D01*
X35691989Y41009201D01*
X35680838Y41039097D01*
X35669522Y41069436D01*
X35640889Y41146204D01*
X35553261Y41263261D01*
X35448188Y41341918D01*
X35406318Y41397851D01*
X35398500Y41441184D01*
X35398500Y46708816D01*
X35418185Y46775855D01*
X35448189Y46808083D01*
X35553261Y46886739D01*
X35640889Y47003796D01*
X35691989Y47140799D01*
X35695591Y47174308D01*
X35698499Y47201346D01*
X35698500Y47201363D01*
X35698500Y49198638D01*
X35698499Y49198655D01*
X35695157Y49229730D01*
X35691989Y49259201D01*
X35677920Y49296920D01*
X35648040Y49377031D01*
X35640889Y49396204D01*
X35553261Y49513261D01*
X35436204Y49600889D01*
X35299203Y49651989D01*
X35238654Y49658500D01*
X35238638Y49658500D01*
X34141362Y49658500D01*
X34141345Y49658500D01*
X34080797Y49651989D01*
X34080795Y49651989D01*
X33943795Y49600889D01*
X33826739Y49513261D01*
X33739111Y49396205D01*
X33688011Y49259205D01*
X33688011Y49259203D01*
X33681500Y49198655D01*
X32858500Y49198655D01*
X32858500Y50008816D01*
X32878185Y50075855D01*
X32908189Y50108083D01*
X33013261Y50186739D01*
X33100889Y50303796D01*
X33151989Y50440799D01*
X33155591Y50474308D01*
X33158499Y50501346D01*
X33158500Y50501363D01*
X33158500Y52498638D01*
X33158499Y52498655D01*
X33155157Y52529730D01*
X33151989Y52559201D01*
X33100889Y52696204D01*
X33021922Y52801691D01*
X32997506Y52867153D01*
X33012357Y52935426D01*
X33061763Y52984832D01*
X33121190Y53000000D01*
X36258810Y53000000D01*
X36325849Y52980315D01*
X36371604Y52927511D01*
X36381548Y52858353D01*
X36358077Y52801692D01*
X36319550Y52750225D01*
X36279111Y52696205D01*
X36228011Y52559205D01*
X36228011Y52559203D01*
X36221500Y52498655D01*
X36221500Y50501346D01*
X36228011Y50440798D01*
X36228011Y50440796D01*
X36279111Y50303796D01*
X36366739Y50186739D01*
X36471811Y50108083D01*
X36513682Y50052149D01*
X36521500Y50008816D01*
X36521500Y44741184D01*
X36501815Y44674145D01*
X36471811Y44641917D01*
X36366739Y44563261D01*
X36279111Y44446205D01*
X36228011Y44309205D01*
X36228011Y44309203D01*
X36221500Y44248655D01*
X36221500Y42251346D01*
X36228011Y42190798D01*
X36228011Y42190796D01*
X36279111Y42053796D01*
X36366739Y41936739D01*
X36483796Y41849111D01*
X36620799Y41798011D01*
X36648050Y41795082D01*
X36681345Y41791501D01*
X36681362Y41791500D01*
X37778638Y41791500D01*
X37778654Y41791501D01*
X37805692Y41794409D01*
X37839201Y41798011D01*
X37976204Y41849111D01*
X38093261Y41936739D01*
X38180889Y42053796D01*
X38231989Y42190799D01*
X38235591Y42224308D01*
X38238499Y42251346D01*
X38238500Y42251363D01*
X38238500Y44248638D01*
X38238499Y44248655D01*
X38235157Y44279730D01*
X38231989Y44309201D01*
X38180889Y44446204D01*
X38093261Y44563261D01*
X37988188Y44641918D01*
X37946318Y44697851D01*
X37938500Y44741184D01*
X37938500Y49198655D01*
X38761500Y49198655D01*
X38761500Y47201346D01*
X38768011Y47140798D01*
X38768011Y47140796D01*
X38807959Y47033695D01*
X38819111Y47003796D01*
X38906739Y46886739D01*
X39011811Y46808083D01*
X39053682Y46752149D01*
X39061500Y46708816D01*
X39061500Y41441184D01*
X39041815Y41374145D01*
X39011811Y41341917D01*
X38906739Y41263261D01*
X38819111Y41146205D01*
X38768011Y41009205D01*
X38768011Y41009203D01*
X38761500Y40948655D01*
X38761500Y38951346D01*
X38768011Y38890798D01*
X38768011Y38890796D01*
X38815204Y38764270D01*
X38819111Y38753796D01*
X38906739Y38636739D01*
X39023796Y38549111D01*
X39160799Y38498011D01*
X39188050Y38495082D01*
X39221345Y38491501D01*
X39221362Y38491500D01*
X40318638Y38491500D01*
X40318654Y38491501D01*
X40345692Y38494409D01*
X40379201Y38498011D01*
X40516204Y38549111D01*
X40633261Y38636739D01*
X40720889Y38753796D01*
X40771989Y38890799D01*
X40775591Y38924308D01*
X40778499Y38951346D01*
X40778500Y38951363D01*
X40778500Y40948638D01*
X40778499Y40948655D01*
X40775157Y40979730D01*
X40771989Y41009201D01*
X40760838Y41039097D01*
X40749522Y41069436D01*
X40720889Y41146204D01*
X40633261Y41263261D01*
X40528188Y41341918D01*
X40486318Y41397851D01*
X40478500Y41441184D01*
X40478500Y46708816D01*
X40498185Y46775855D01*
X40528189Y46808083D01*
X40633261Y46886739D01*
X40720889Y47003796D01*
X40771989Y47140799D01*
X40775591Y47174308D01*
X40778499Y47201346D01*
X40778500Y47201363D01*
X40778500Y49198638D01*
X40778499Y49198655D01*
X40775157Y49229730D01*
X40771989Y49259201D01*
X40757920Y49296920D01*
X40728040Y49377031D01*
X40720889Y49396204D01*
X40633261Y49513261D01*
X40516204Y49600889D01*
X40379203Y49651989D01*
X40318654Y49658500D01*
X40318638Y49658500D01*
X39221362Y49658500D01*
X39221345Y49658500D01*
X39160797Y49651989D01*
X39160795Y49651989D01*
X39023795Y49600889D01*
X38906739Y49513261D01*
X38819111Y49396205D01*
X38768011Y49259205D01*
X38768011Y49259203D01*
X38761500Y49198655D01*
X37938500Y49198655D01*
X37938500Y50008816D01*
X37958185Y50075855D01*
X37988189Y50108083D01*
X38093261Y50186739D01*
X38180889Y50303796D01*
X38231989Y50440799D01*
X38235591Y50474308D01*
X38238499Y50501346D01*
X38238500Y50501363D01*
X38238500Y52498638D01*
X38238499Y52498655D01*
X38235157Y52529730D01*
X38231989Y52559201D01*
X38180889Y52696204D01*
X38101922Y52801691D01*
X38077506Y52867153D01*
X38092357Y52935426D01*
X38141763Y52984832D01*
X38201190Y53000000D01*
X41338810Y53000000D01*
X41405849Y52980315D01*
X41451604Y52927511D01*
X41461548Y52858353D01*
X41438077Y52801692D01*
X41399550Y52750225D01*
X41359111Y52696205D01*
X41308011Y52559205D01*
X41308011Y52559203D01*
X41301500Y52498655D01*
X41301500Y50501346D01*
X41308011Y50440798D01*
X41308011Y50440796D01*
X41359111Y50303796D01*
X41446739Y50186739D01*
X41551811Y50108083D01*
X41593682Y50052149D01*
X41601500Y50008816D01*
X41601500Y44741184D01*
X41581815Y44674145D01*
X41551811Y44641917D01*
X41446739Y44563261D01*
X41359111Y44446205D01*
X41308011Y44309205D01*
X41308011Y44309203D01*
X41301500Y44248655D01*
X41301500Y42251346D01*
X41308011Y42190798D01*
X41308011Y42190796D01*
X41359111Y42053796D01*
X41446739Y41936739D01*
X41563796Y41849111D01*
X41700799Y41798011D01*
X41728050Y41795082D01*
X41761345Y41791501D01*
X41761362Y41791500D01*
X42858638Y41791500D01*
X42858654Y41791501D01*
X42885692Y41794409D01*
X42919201Y41798011D01*
X43056204Y41849111D01*
X43173261Y41936739D01*
X43260889Y42053796D01*
X43311989Y42190799D01*
X43315591Y42224308D01*
X43318499Y42251346D01*
X43318500Y42251363D01*
X43318500Y44248638D01*
X43318499Y44248655D01*
X43315157Y44279730D01*
X43311989Y44309201D01*
X43260889Y44446204D01*
X43173261Y44563261D01*
X43068188Y44641918D01*
X43026318Y44697851D01*
X43018500Y44741184D01*
X43018500Y49198655D01*
X43841500Y49198655D01*
X43841500Y47201346D01*
X43848011Y47140798D01*
X43848011Y47140796D01*
X43887959Y47033695D01*
X43899111Y47003796D01*
X43986739Y46886739D01*
X44091811Y46808083D01*
X44133682Y46752149D01*
X44141500Y46708816D01*
X44141500Y41441184D01*
X44121815Y41374145D01*
X44091811Y41341917D01*
X43986739Y41263261D01*
X43899111Y41146205D01*
X43848011Y41009205D01*
X43848011Y41009203D01*
X43841500Y40948655D01*
X43841500Y38951346D01*
X43848011Y38890798D01*
X43848011Y38890796D01*
X43895204Y38764270D01*
X43899111Y38753796D01*
X43986739Y38636739D01*
X44103796Y38549111D01*
X44240799Y38498011D01*
X44268050Y38495082D01*
X44301345Y38491501D01*
X44301362Y38491500D01*
X45398638Y38491500D01*
X45398654Y38491501D01*
X45425692Y38494409D01*
X45459201Y38498011D01*
X45596204Y38549111D01*
X45713261Y38636739D01*
X45800889Y38753796D01*
X45851989Y38890799D01*
X45855591Y38924308D01*
X45858499Y38951346D01*
X45858500Y38951363D01*
X45858500Y40948638D01*
X45858499Y40948655D01*
X45855157Y40979730D01*
X45851989Y41009201D01*
X45840838Y41039097D01*
X45829522Y41069436D01*
X45800889Y41146204D01*
X45713261Y41263261D01*
X45608188Y41341918D01*
X45566318Y41397851D01*
X45558500Y41441184D01*
X45558500Y46708816D01*
X45578185Y46775855D01*
X45608189Y46808083D01*
X45713261Y46886739D01*
X45800889Y47003796D01*
X45851989Y47140799D01*
X45855591Y47174308D01*
X45858499Y47201346D01*
X45858500Y47201363D01*
X45858500Y49198638D01*
X45858499Y49198655D01*
X45855157Y49229730D01*
X45851989Y49259201D01*
X45837920Y49296920D01*
X45808040Y49377031D01*
X45800889Y49396204D01*
X45713261Y49513261D01*
X45596204Y49600889D01*
X45459203Y49651989D01*
X45398654Y49658500D01*
X45398638Y49658500D01*
X44301362Y49658500D01*
X44301345Y49658500D01*
X44240797Y49651989D01*
X44240795Y49651989D01*
X44103795Y49600889D01*
X43986739Y49513261D01*
X43899111Y49396205D01*
X43848011Y49259205D01*
X43848011Y49259203D01*
X43841500Y49198655D01*
X43018500Y49198655D01*
X43018500Y50008816D01*
X43038185Y50075855D01*
X43068189Y50108083D01*
X43173261Y50186739D01*
X43260889Y50303796D01*
X43311989Y50440799D01*
X43315591Y50474308D01*
X43318499Y50501346D01*
X43318500Y50501363D01*
X43318500Y52498638D01*
X43318499Y52498655D01*
X43315157Y52529730D01*
X43311989Y52559201D01*
X43260889Y52696204D01*
X43181922Y52801691D01*
X43157506Y52867153D01*
X43172357Y52935426D01*
X43221763Y52984832D01*
X43281190Y53000000D01*
X46418810Y53000000D01*
X46485849Y52980315D01*
X46531604Y52927511D01*
X46541548Y52858353D01*
X46518077Y52801692D01*
X46479550Y52750225D01*
X46439111Y52696205D01*
X46388011Y52559205D01*
X46388011Y52559203D01*
X46381500Y52498655D01*
X46381500Y50501346D01*
X46388011Y50440798D01*
X46388011Y50440796D01*
X46439111Y50303796D01*
X46526739Y50186739D01*
X46631811Y50108083D01*
X46673682Y50052149D01*
X46681500Y50008816D01*
X46681500Y44741184D01*
X46661815Y44674145D01*
X46631811Y44641917D01*
X46526739Y44563261D01*
X46439111Y44446205D01*
X46388011Y44309205D01*
X46388011Y44309203D01*
X46381500Y44248655D01*
X46381500Y42251346D01*
X46388011Y42190798D01*
X46388011Y42190796D01*
X46439111Y42053796D01*
X46526739Y41936739D01*
X46643796Y41849111D01*
X46780799Y41798011D01*
X46808050Y41795082D01*
X46841345Y41791501D01*
X46841362Y41791500D01*
X47938638Y41791500D01*
X47938654Y41791501D01*
X47965692Y41794409D01*
X47999201Y41798011D01*
X48136204Y41849111D01*
X48253261Y41936739D01*
X48340889Y42053796D01*
X48391989Y42190799D01*
X48395591Y42224308D01*
X48398499Y42251346D01*
X48398500Y42251363D01*
X48398500Y44248638D01*
X48398499Y44248655D01*
X48395157Y44279730D01*
X48391989Y44309201D01*
X48340889Y44446204D01*
X48253261Y44563261D01*
X48148188Y44641918D01*
X48106318Y44697851D01*
X48098500Y44741184D01*
X48098500Y49198655D01*
X48921500Y49198655D01*
X48921500Y47201346D01*
X48928011Y47140798D01*
X48928011Y47140796D01*
X48967959Y47033695D01*
X48979111Y47003796D01*
X49066739Y46886739D01*
X49171811Y46808083D01*
X49213682Y46752149D01*
X49221500Y46708816D01*
X49221500Y41441184D01*
X49201815Y41374145D01*
X49171811Y41341917D01*
X49066739Y41263261D01*
X48979111Y41146205D01*
X48928011Y41009205D01*
X48928011Y41009203D01*
X48921500Y40948655D01*
X48921500Y38951346D01*
X48928011Y38890798D01*
X48928011Y38890796D01*
X48975204Y38764270D01*
X48979111Y38753796D01*
X49066739Y38636739D01*
X49183796Y38549111D01*
X49320799Y38498011D01*
X49348050Y38495082D01*
X49381345Y38491501D01*
X49381362Y38491500D01*
X50478638Y38491500D01*
X50478654Y38491501D01*
X50505692Y38494409D01*
X50539201Y38498011D01*
X50676204Y38549111D01*
X50793261Y38636739D01*
X50880889Y38753796D01*
X50931989Y38890799D01*
X50935591Y38924308D01*
X50938499Y38951346D01*
X50938500Y38951363D01*
X50938500Y40948638D01*
X50938499Y40948655D01*
X50935157Y40979730D01*
X50931989Y41009201D01*
X50920838Y41039097D01*
X50909522Y41069436D01*
X50880889Y41146204D01*
X50793261Y41263261D01*
X50688188Y41341918D01*
X50646318Y41397851D01*
X50638500Y41441184D01*
X50638500Y46708816D01*
X50658185Y46775855D01*
X50688189Y46808083D01*
X50793261Y46886739D01*
X50880889Y47003796D01*
X50931989Y47140799D01*
X50935591Y47174308D01*
X50938499Y47201346D01*
X50938500Y47201363D01*
X50938500Y49198638D01*
X50938499Y49198655D01*
X50935157Y49229730D01*
X50931989Y49259201D01*
X50917920Y49296920D01*
X50888040Y49377031D01*
X50880889Y49396204D01*
X50793261Y49513261D01*
X50676204Y49600889D01*
X50539203Y49651989D01*
X50478654Y49658500D01*
X50478638Y49658500D01*
X49381362Y49658500D01*
X49381345Y49658500D01*
X49320797Y49651989D01*
X49320795Y49651989D01*
X49183795Y49600889D01*
X49066739Y49513261D01*
X48979111Y49396205D01*
X48928011Y49259205D01*
X48928011Y49259203D01*
X48921500Y49198655D01*
X48098500Y49198655D01*
X48098500Y50008816D01*
X48118185Y50075855D01*
X48148189Y50108083D01*
X48253261Y50186739D01*
X48340889Y50303796D01*
X48391989Y50440799D01*
X48395591Y50474308D01*
X48398499Y50501346D01*
X48398500Y50501363D01*
X48398500Y52498638D01*
X48398499Y52498655D01*
X48395157Y52529730D01*
X48391989Y52559201D01*
X48340889Y52696204D01*
X48261922Y52801691D01*
X48237506Y52867153D01*
X48252357Y52935426D01*
X48301763Y52984832D01*
X48361190Y53000000D01*
X51498810Y53000000D01*
X51565849Y52980315D01*
X51611604Y52927511D01*
X51621548Y52858353D01*
X51598077Y52801692D01*
X51559550Y52750225D01*
X51519111Y52696205D01*
X51468011Y52559205D01*
X51468011Y52559203D01*
X51461500Y52498655D01*
X51461500Y50501346D01*
X51468011Y50440798D01*
X51468011Y50440796D01*
X51519111Y50303796D01*
X51606739Y50186739D01*
X51711811Y50108083D01*
X51753682Y50052149D01*
X51761500Y50008816D01*
X51761500Y44741184D01*
X51741815Y44674145D01*
X51711811Y44641917D01*
X51606739Y44563261D01*
X51519111Y44446205D01*
X51468011Y44309205D01*
X51468011Y44309203D01*
X51461500Y44248655D01*
X51461500Y42251346D01*
X51468011Y42190798D01*
X51468011Y42190796D01*
X51519111Y42053796D01*
X51606739Y41936739D01*
X51723796Y41849111D01*
X51860799Y41798011D01*
X51888050Y41795082D01*
X51921345Y41791501D01*
X51921362Y41791500D01*
X53018638Y41791500D01*
X53018654Y41791501D01*
X53045692Y41794409D01*
X53079201Y41798011D01*
X53216204Y41849111D01*
X53333261Y41936739D01*
X53420889Y42053796D01*
X53471989Y42190799D01*
X53475591Y42224308D01*
X53478499Y42251346D01*
X53478500Y42251363D01*
X53478500Y44248638D01*
X53478499Y44248655D01*
X53475157Y44279730D01*
X53471989Y44309201D01*
X53420889Y44446204D01*
X53333261Y44563261D01*
X53228188Y44641918D01*
X53186318Y44697851D01*
X53178500Y44741184D01*
X53178500Y49198655D01*
X54001500Y49198655D01*
X54001500Y47201346D01*
X54008011Y47140798D01*
X54008011Y47140796D01*
X54047959Y47033695D01*
X54059111Y47003796D01*
X54146739Y46886739D01*
X54251811Y46808083D01*
X54293682Y46752149D01*
X54301500Y46708816D01*
X54301500Y41441184D01*
X54281815Y41374145D01*
X54251811Y41341917D01*
X54146739Y41263261D01*
X54059111Y41146205D01*
X54008011Y41009205D01*
X54008011Y41009203D01*
X54001500Y40948655D01*
X54001500Y38951346D01*
X54008011Y38890798D01*
X54008011Y38890796D01*
X54055204Y38764270D01*
X54059111Y38753796D01*
X54146739Y38636739D01*
X54263796Y38549111D01*
X54400799Y38498011D01*
X54428050Y38495082D01*
X54461345Y38491501D01*
X54461362Y38491500D01*
X55558638Y38491500D01*
X55558654Y38491501D01*
X55585692Y38494409D01*
X55619201Y38498011D01*
X55756204Y38549111D01*
X55873261Y38636739D01*
X55960889Y38753796D01*
X56011989Y38890799D01*
X56015591Y38924308D01*
X56018499Y38951346D01*
X56018500Y38951363D01*
X56018500Y40948638D01*
X56018499Y40948655D01*
X56015157Y40979730D01*
X56011989Y41009201D01*
X56000838Y41039097D01*
X55989522Y41069436D01*
X55960889Y41146204D01*
X55873261Y41263261D01*
X55768188Y41341918D01*
X55726318Y41397851D01*
X55718500Y41441184D01*
X55718500Y46708816D01*
X55738185Y46775855D01*
X55768189Y46808083D01*
X55873261Y46886739D01*
X55960889Y47003796D01*
X56011989Y47140799D01*
X56015591Y47174308D01*
X56018499Y47201346D01*
X56018500Y47201363D01*
X56018500Y49198638D01*
X56018499Y49198655D01*
X56015157Y49229730D01*
X56011989Y49259201D01*
X55997920Y49296920D01*
X55968040Y49377031D01*
X55960889Y49396204D01*
X55873261Y49513261D01*
X55756204Y49600889D01*
X55619203Y49651989D01*
X55558654Y49658500D01*
X55558638Y49658500D01*
X54461362Y49658500D01*
X54461345Y49658500D01*
X54400797Y49651989D01*
X54400795Y49651989D01*
X54263795Y49600889D01*
X54146739Y49513261D01*
X54059111Y49396205D01*
X54008011Y49259205D01*
X54008011Y49259203D01*
X54001500Y49198655D01*
X53178500Y49198655D01*
X53178500Y50008816D01*
X53198185Y50075855D01*
X53228189Y50108083D01*
X53333261Y50186739D01*
X53420889Y50303796D01*
X53471989Y50440799D01*
X53475591Y50474308D01*
X53478499Y50501346D01*
X53478500Y50501363D01*
X53478500Y52498638D01*
X53478499Y52498655D01*
X53475157Y52529730D01*
X53471989Y52559201D01*
X53420889Y52696204D01*
X53341922Y52801691D01*
X53317506Y52867153D01*
X53332357Y52935426D01*
X53381763Y52984832D01*
X53441190Y53000000D01*
X56578810Y53000000D01*
X56645849Y52980315D01*
X56691604Y52927511D01*
X56701548Y52858353D01*
X56678077Y52801692D01*
X56639550Y52750225D01*
X56599111Y52696205D01*
X56548011Y52559205D01*
X56548011Y52559203D01*
X56541500Y52498655D01*
X56541500Y50501346D01*
X56548011Y50440798D01*
X56548011Y50440796D01*
X56599111Y50303796D01*
X56686739Y50186739D01*
X56791811Y50108083D01*
X56833682Y50052149D01*
X56841500Y50008816D01*
X56841500Y44741184D01*
X56821815Y44674145D01*
X56791811Y44641917D01*
X56686739Y44563261D01*
X56599111Y44446205D01*
X56548011Y44309205D01*
X56548011Y44309203D01*
X56541500Y44248655D01*
X56541500Y42251346D01*
X56548011Y42190798D01*
X56548011Y42190796D01*
X56599111Y42053796D01*
X56686739Y41936739D01*
X56803796Y41849111D01*
X56940799Y41798011D01*
X56968050Y41795082D01*
X57001345Y41791501D01*
X57001362Y41791500D01*
X58098638Y41791500D01*
X58098654Y41791501D01*
X58125692Y41794409D01*
X58159201Y41798011D01*
X58296204Y41849111D01*
X58413261Y41936739D01*
X58500889Y42053796D01*
X58551989Y42190799D01*
X58555591Y42224308D01*
X58558499Y42251346D01*
X58558500Y42251363D01*
X58558500Y44248638D01*
X58558499Y44248655D01*
X58555157Y44279730D01*
X58551989Y44309201D01*
X58500889Y44446204D01*
X58413261Y44563261D01*
X58308188Y44641918D01*
X58266318Y44697851D01*
X58258500Y44741184D01*
X58258500Y50008816D01*
X58278185Y50075855D01*
X58308189Y50108083D01*
X58413261Y50186739D01*
X58500889Y50303796D01*
X58551989Y50440799D01*
X58555591Y50474308D01*
X58558499Y50501346D01*
X58558500Y50501363D01*
X58558500Y52498638D01*
X58558499Y52498655D01*
X58555157Y52529730D01*
X58551989Y52559201D01*
X58500889Y52696204D01*
X58421922Y52801691D01*
X58397506Y52867153D01*
X58412357Y52935426D01*
X58461763Y52984832D01*
X58521190Y53000000D01*
X68076000Y53000000D01*
X68143039Y52980315D01*
X68188794Y52927511D01*
X68200000Y52876000D01*
X68200000Y33071191D01*
X68180315Y33004152D01*
X68127511Y32958397D01*
X68058353Y32948453D01*
X68001690Y32971924D01*
X67896206Y33050888D01*
X67896206Y33050889D01*
X67759203Y33101989D01*
X67698654Y33108500D01*
X67698638Y33108500D01*
X63101362Y33108500D01*
X63101345Y33108500D01*
X63040797Y33101989D01*
X63040795Y33101989D01*
X62903795Y33050889D01*
X62786739Y32963261D01*
X62699111Y32846205D01*
X62648011Y32709205D01*
X62648011Y32709203D01*
X62641500Y32648655D01*
X62641500Y23751346D01*
X62648011Y23690798D01*
X62648011Y23690796D01*
X62691629Y23573856D01*
X62699111Y23553796D01*
X62786739Y23436739D01*
X62903796Y23349111D01*
X63040799Y23298011D01*
X63068050Y23295082D01*
X63101345Y23291501D01*
X63101362Y23291500D01*
X67698638Y23291500D01*
X67698654Y23291501D01*
X67725692Y23294409D01*
X67759201Y23298011D01*
X67896204Y23349111D01*
X68001690Y23428078D01*
X68067153Y23452494D01*
X68135426Y23437643D01*
X68184832Y23388237D01*
X68200000Y23328810D01*
X68200000Y13871191D01*
X68180315Y13804152D01*
X68127511Y13758397D01*
X68058353Y13748453D01*
X68001690Y13771924D01*
X67896206Y13850888D01*
X67896206Y13850889D01*
X67759203Y13901989D01*
X67698654Y13908500D01*
X67698638Y13908500D01*
X63101362Y13908500D01*
X63101345Y13908500D01*
X63040797Y13901989D01*
X63040795Y13901989D01*
X62903795Y13850889D01*
X62786739Y13763261D01*
X62699111Y13646205D01*
X62648011Y13509205D01*
X62648011Y13509203D01*
X62641500Y13448655D01*
X62641500Y4551346D01*
X62648011Y4490798D01*
X62648011Y4490796D01*
X62699111Y4353796D01*
X62786739Y4236739D01*
X62903796Y4149111D01*
X63040799Y4098011D01*
X63068050Y4095082D01*
X63101345Y4091501D01*
X63101362Y4091500D01*
X67698638Y4091500D01*
X67698654Y4091501D01*
X67725692Y4094409D01*
X67759201Y4098011D01*
X67896204Y4149111D01*
X68001690Y4228078D01*
X68067153Y4252494D01*
X68135426Y4237643D01*
X68184832Y4188237D01*
X68200000Y4128810D01*
X68200000Y524000D01*
X68180315Y456961D01*
X68127511Y411206D01*
X68076000Y400000D01*
X50359911Y400000D01*
X50292872Y419685D01*
X50247117Y472489D01*
X50237173Y541647D01*
X50266198Y605203D01*
X50272230Y611681D01*
X51664877Y2004328D01*
X53086921Y3426372D01*
X53140913Y3519889D01*
X53167032Y3565128D01*
X53208500Y3719889D01*
X53208500Y11880111D01*
X53167032Y12034872D01*
X53167032Y12034873D01*
X53086921Y12173628D01*
X52598627Y12661922D01*
X52538146Y12696841D01*
X52489932Y12747407D01*
X52476710Y12816015D01*
X52502678Y12880879D01*
X52538145Y12911612D01*
X52618627Y12958078D01*
X54686922Y15026373D01*
X54767032Y15165128D01*
X54808500Y15319890D01*
X54808500Y15480111D01*
X54808500Y29880111D01*
X54793740Y29935196D01*
X54776699Y29998798D01*
X54776699Y29998799D01*
X54767033Y30034870D01*
X54767032Y30034873D01*
X54686921Y30173628D01*
X52998627Y31861922D01*
X52859873Y31942032D01*
X52773680Y31965127D01*
X52773677Y31965128D01*
X52744697Y31972893D01*
X52705111Y31983500D01*
X52705110Y31983500D01*
X52586319Y31983500D01*
X52519280Y32003185D01*
X52473525Y32055989D01*
X52463581Y32125147D01*
X52470138Y32150836D01*
X52471989Y32155799D01*
X52478499Y32216346D01*
X52478500Y32216363D01*
X52478500Y33073638D01*
X52478499Y33073655D01*
X52474752Y33108500D01*
X52471989Y33134201D01*
X52420889Y33271204D01*
X52333261Y33388261D01*
X52216204Y33475889D01*
X52079203Y33526989D01*
X52018654Y33533500D01*
X52018638Y33533500D01*
X46921362Y33533500D01*
X46921345Y33533500D01*
X46860797Y33526989D01*
X46860795Y33526989D01*
X46723795Y33475889D01*
X46606739Y33388261D01*
X46519111Y33271205D01*
X46468011Y33134205D01*
X46468011Y33134203D01*
X46461500Y33073655D01*
X46461500Y32216346D01*
X46468010Y32155799D01*
X46469862Y32150836D01*
X46474848Y32081145D01*
X46441364Y32019821D01*
X46380042Y31986334D01*
X46353681Y31983500D01*
X45094889Y31983500D01*
X45026319Y31965128D01*
X45026320Y31965127D01*
X44940127Y31942032D01*
X44940125Y31942032D01*
X44940125Y31942031D01*
X44801373Y31861922D01*
X44801370Y31861920D01*
X42853080Y29913630D01*
X42853076Y29913624D01*
X42772967Y29774874D01*
X42772968Y29774874D01*
X42772968Y29774873D01*
X42731500Y29620111D01*
X42731500Y28953345D01*
X42711815Y28886306D01*
X42659011Y28840551D01*
X42650835Y28837164D01*
X42593795Y28815889D01*
X42476739Y28728261D01*
X42389111Y28611205D01*
X42338011Y28474205D01*
X42338011Y28474203D01*
X42331500Y28413655D01*
X42331500Y25806346D01*
X42338011Y25745798D01*
X42338011Y25745796D01*
X42381851Y25628261D01*
X42389111Y25608796D01*
X42476739Y25491739D01*
X42593796Y25404111D01*
X42730799Y25353011D01*
X42758050Y25350082D01*
X42791345Y25346501D01*
X42791362Y25346500D01*
X43888638Y25346500D01*
X43888654Y25346501D01*
X43915692Y25349409D01*
X43949201Y25353011D01*
X44086204Y25404111D01*
X44203261Y25491739D01*
X44290889Y25608796D01*
X44341989Y25745799D01*
X44345591Y25779308D01*
X44348499Y25806346D01*
X44348500Y25806363D01*
X44348500Y28413638D01*
X44348499Y28413655D01*
X44345157Y28444730D01*
X44341989Y28474201D01*
X44339785Y28480109D01*
X44311966Y28554694D01*
X44290889Y28611204D01*
X44203261Y28728261D01*
X44086204Y28815889D01*
X44071954Y28821204D01*
X44029165Y28837164D01*
X43973232Y28879036D01*
X43948816Y28944500D01*
X43948500Y28953345D01*
X43948500Y29236589D01*
X43968185Y29303628D01*
X43984819Y29324270D01*
X45390730Y30730181D01*
X45452053Y30763666D01*
X45478411Y30766500D01*
X46353681Y30766500D01*
X46420720Y30746815D01*
X46466475Y30694011D01*
X46476419Y30624853D01*
X46469862Y30599164D01*
X46468010Y30594202D01*
X46461500Y30533655D01*
X46461500Y29676346D01*
X46468010Y29615799D01*
X46469862Y29610836D01*
X46474848Y29541145D01*
X46441364Y29479821D01*
X46380042Y29446334D01*
X46353681Y29443500D01*
X45754889Y29443500D01*
X45690970Y29426374D01*
X45690970Y29426373D01*
X45600127Y29402032D01*
X45600125Y29402032D01*
X45600125Y29402031D01*
X45461373Y29321922D01*
X45461370Y29321920D01*
X44913080Y28773630D01*
X44913076Y28773624D01*
X44832967Y28634874D01*
X44832968Y28634874D01*
X44832968Y28634873D01*
X44791500Y28480111D01*
X44791500Y24532500D01*
X44771815Y24465461D01*
X44719011Y24419706D01*
X44667500Y24408500D01*
X41932500Y24408500D01*
X41865461Y24428185D01*
X41819706Y24480989D01*
X41808500Y24532500D01*
X41808500Y25103638D01*
X41808499Y25103655D01*
X41805157Y25134730D01*
X41801989Y25164201D01*
X41750889Y25301204D01*
X41663261Y25418261D01*
X41546204Y25505889D01*
X41531954Y25511204D01*
X41409203Y25556989D01*
X41348654Y25563500D01*
X41348638Y25563500D01*
X40251362Y25563500D01*
X40251345Y25563500D01*
X40190797Y25556989D01*
X40190795Y25556989D01*
X40053795Y25505889D01*
X39936739Y25418261D01*
X39849111Y25301205D01*
X39798011Y25164205D01*
X39798011Y25164203D01*
X39791500Y25103655D01*
X39791500Y22496346D01*
X39798011Y22435798D01*
X39798011Y22435796D01*
X39846182Y22306650D01*
X39849111Y22298796D01*
X39936739Y22181739D01*
X40007864Y22128496D01*
X40013531Y22124253D01*
X40055402Y22068319D01*
X40060386Y21998627D01*
X40026901Y21937304D01*
X40013531Y21925719D01*
X39916739Y21853261D01*
X39829111Y21736205D01*
X39778011Y21599205D01*
X39778011Y21599203D01*
X39771500Y21538655D01*
X39771500Y19541346D01*
X39778011Y19480798D01*
X39778011Y19480796D01*
X39824565Y19355984D01*
X39829111Y19343796D01*
X39916739Y19226739D01*
X40033796Y19139111D01*
X40132245Y19102391D01*
X40168498Y19088869D01*
X40170799Y19088011D01*
X40198050Y19085082D01*
X40231345Y19081501D01*
X40231362Y19081500D01*
X41267500Y19081500D01*
X41334539Y19061815D01*
X41380294Y19009011D01*
X41391500Y18957500D01*
X41391500Y15119891D01*
X41432968Y14965126D01*
X41473023Y14895750D01*
X41513078Y14826373D01*
X45921372Y10418079D01*
X45961852Y10394708D01*
X46010067Y10344140D01*
X46023289Y10275533D01*
X45997321Y10210669D01*
X45961852Y10179934D01*
X45861372Y10121921D01*
X45861369Y10121919D01*
X41995994Y6256544D01*
X41934671Y6223059D01*
X41864979Y6228043D01*
X41809046Y6269915D01*
X41785024Y6330968D01*
X41781989Y6359201D01*
X41730889Y6496204D01*
X41643261Y6613261D01*
X41526204Y6700889D01*
X41389203Y6751989D01*
X41328654Y6758500D01*
X41328638Y6758500D01*
X40231362Y6758500D01*
X40231345Y6758500D01*
X40170797Y6751989D01*
X40170795Y6751989D01*
X40033795Y6700889D01*
X39916739Y6613261D01*
X39829111Y6496205D01*
X39778011Y6359205D01*
X39778011Y6359203D01*
X39771500Y6298655D01*
X39771500Y4301346D01*
X39778011Y4240798D01*
X39778011Y4240796D01*
X39812209Y4149111D01*
X39829111Y4103796D01*
X39916739Y3986739D01*
X40033796Y3899111D01*
X40148015Y3856509D01*
X40165463Y3850001D01*
X40170799Y3848011D01*
X40198050Y3845082D01*
X40231345Y3841501D01*
X40231362Y3841500D01*
X41067500Y3841500D01*
X41134539Y3821815D01*
X41180294Y3769011D01*
X41191500Y3717500D01*
X41191500Y3103411D01*
X41171815Y3036372D01*
X41155181Y3015730D01*
X39534270Y1394819D01*
X39472947Y1361334D01*
X39446589Y1358500D01*
X39372500Y1358500D01*
X39305461Y1378185D01*
X39259706Y1430989D01*
X39248500Y1482500D01*
X39248500Y2998638D01*
X39248499Y2998655D01*
X39244443Y3036372D01*
X39241989Y3059201D01*
X39190889Y3196204D01*
X39103261Y3313261D01*
X38986204Y3400889D01*
X38984166Y3401649D01*
X38849203Y3451989D01*
X38788654Y3458500D01*
X38788638Y3458500D01*
X37691362Y3458500D01*
X37691345Y3458500D01*
X37630797Y3451989D01*
X37630795Y3451989D01*
X37493795Y3400889D01*
X37376739Y3313261D01*
X37289111Y3196205D01*
X37238011Y3059205D01*
X37238011Y3059203D01*
X37231500Y2998655D01*
X37231500Y2732500D01*
X37211815Y2665461D01*
X37159011Y2619706D01*
X37107500Y2608500D01*
X36644783Y2608500D01*
X36577744Y2628185D01*
X36557102Y2644819D01*
X35572102Y3629819D01*
X35538617Y3691142D01*
X35543601Y3760834D01*
X35585473Y3816767D01*
X35650937Y3841184D01*
X35659783Y3841500D01*
X36248638Y3841500D01*
X36248654Y3841501D01*
X36275692Y3844409D01*
X36309201Y3848011D01*
X36314537Y3850001D01*
X36331985Y3856509D01*
X36446204Y3899111D01*
X36563261Y3986739D01*
X36650889Y4103796D01*
X36701989Y4240799D01*
X36705591Y4274308D01*
X36708499Y4301346D01*
X36708500Y4301363D01*
X36708500Y6298638D01*
X36708499Y6298655D01*
X36702791Y6351739D01*
X36701989Y6359201D01*
X36696222Y6374662D01*
X36678759Y6421483D01*
X36650889Y6496204D01*
X36563261Y6613261D01*
X36446204Y6700889D01*
X36376688Y6726818D01*
X36320755Y6768690D01*
X36300249Y6810904D01*
X36267032Y6934872D01*
X36186922Y7073627D01*
X28573627Y14686922D01*
X28434873Y14767032D01*
X28343556Y14791500D01*
X28343555Y14791501D01*
X28297110Y14803946D01*
X28280111Y14808500D01*
X28280110Y14808500D01*
X25368411Y14808500D01*
X25301372Y14828185D01*
X25255617Y14880989D01*
X25245673Y14950147D01*
X25274698Y15013703D01*
X25280730Y15020181D01*
X25425678Y15165129D01*
X25686921Y15426372D01*
X25767031Y15565127D01*
X25767032Y15565128D01*
X25808500Y15719889D01*
X25808500Y18080111D01*
X25767032Y18234872D01*
X25767032Y18234873D01*
X25767032Y18234874D01*
X25764849Y18238655D01*
X27071500Y18238655D01*
X27071500Y16241346D01*
X27078011Y16180798D01*
X27078011Y16180796D01*
X27121030Y16065461D01*
X27129111Y16043796D01*
X27216739Y15926739D01*
X27333796Y15839111D01*
X27470799Y15788011D01*
X27498050Y15785082D01*
X27531345Y15781501D01*
X27531362Y15781500D01*
X28628638Y15781500D01*
X28628654Y15781501D01*
X28655692Y15784409D01*
X28689201Y15788011D01*
X28826204Y15839111D01*
X28943261Y15926739D01*
X29030889Y16043796D01*
X29081989Y16180799D01*
X29086223Y16220181D01*
X29088499Y16241346D01*
X29088500Y16241363D01*
X29088500Y18238638D01*
X29088499Y18238655D01*
X29085157Y18269730D01*
X29081989Y18299201D01*
X29030889Y18436204D01*
X28943261Y18553261D01*
X28826204Y18640889D01*
X28815083Y18645037D01*
X28689203Y18691989D01*
X28628654Y18698500D01*
X28628638Y18698500D01*
X27531362Y18698500D01*
X27531345Y18698500D01*
X27470797Y18691989D01*
X27470795Y18691989D01*
X27333795Y18640889D01*
X27216739Y18553261D01*
X27129111Y18436205D01*
X27078011Y18299205D01*
X27078011Y18299203D01*
X27071500Y18238655D01*
X25764849Y18238655D01*
X25694661Y18360222D01*
X25686922Y18373627D01*
X25190730Y18869819D01*
X25157245Y18931142D01*
X25162229Y19000834D01*
X25204101Y19056767D01*
X25269565Y19081184D01*
X25278411Y19081500D01*
X26088638Y19081500D01*
X26088654Y19081501D01*
X26115692Y19084409D01*
X26149201Y19088011D01*
X26151502Y19088869D01*
X26171703Y19096404D01*
X26286204Y19139111D01*
X26403261Y19226739D01*
X26490889Y19343796D01*
X26541989Y19480799D01*
X26547017Y19527566D01*
X26548499Y19541346D01*
X26548500Y19541363D01*
X26548500Y21538638D01*
X26548499Y21538655D01*
X29611500Y21538655D01*
X29611500Y19541346D01*
X29618011Y19480798D01*
X29618011Y19480796D01*
X29664565Y19355984D01*
X29669111Y19343796D01*
X29756739Y19226739D01*
X29873796Y19139111D01*
X29972245Y19102391D01*
X30008498Y19088869D01*
X30010799Y19088011D01*
X30038050Y19085082D01*
X30071345Y19081501D01*
X30071362Y19081500D01*
X31168638Y19081500D01*
X31168654Y19081501D01*
X31195692Y19084409D01*
X31229201Y19088011D01*
X31231502Y19088869D01*
X31251703Y19096404D01*
X31366204Y19139111D01*
X31483261Y19226739D01*
X31570889Y19343796D01*
X31621989Y19480799D01*
X31627017Y19527566D01*
X31628499Y19541346D01*
X31628500Y19541363D01*
X31628500Y21538638D01*
X31628499Y21538655D01*
X31625157Y21569730D01*
X31621989Y21599201D01*
X31570889Y21736204D01*
X31483261Y21853261D01*
X31366204Y21940889D01*
X31314784Y21960068D01*
X31229203Y21991989D01*
X31168654Y21998500D01*
X31168638Y21998500D01*
X30071362Y21998500D01*
X30071345Y21998500D01*
X30010797Y21991989D01*
X30010795Y21991989D01*
X29873795Y21940889D01*
X29756739Y21853261D01*
X29669111Y21736205D01*
X29618011Y21599205D01*
X29618011Y21599203D01*
X29611500Y21538655D01*
X26548499Y21538655D01*
X26545157Y21569730D01*
X26541989Y21599201D01*
X26490889Y21736204D01*
X26403261Y21853261D01*
X26286204Y21940889D01*
X26234784Y21960068D01*
X26149203Y21991989D01*
X26088654Y21998500D01*
X26088638Y21998500D01*
X24991362Y21998500D01*
X24991345Y21998500D01*
X24930797Y21991989D01*
X24930795Y21991989D01*
X24793795Y21940889D01*
X24676739Y21853261D01*
X24589111Y21736205D01*
X24538011Y21599205D01*
X24538011Y21599203D01*
X24531500Y21538655D01*
X24531500Y19828411D01*
X24511815Y19761372D01*
X24459011Y19715617D01*
X24389853Y19705673D01*
X24326297Y19734698D01*
X24319819Y19740730D01*
X22022230Y22038319D01*
X21988745Y22099642D01*
X21993729Y22169334D01*
X22035601Y22225267D01*
X22101065Y22249684D01*
X22109911Y22250000D01*
X22200000Y22250000D01*
X22700000Y22250000D01*
X23272828Y22250000D01*
X23272844Y22250001D01*
X23332372Y22256402D01*
X23332379Y22256404D01*
X23467086Y22306646D01*
X23467093Y22306650D01*
X23582187Y22392810D01*
X23582190Y22392813D01*
X23668350Y22507907D01*
X23668354Y22507914D01*
X23718596Y22642621D01*
X23718598Y22642628D01*
X23724999Y22702156D01*
X29125000Y22702156D01*
X29131401Y22642628D01*
X29131403Y22642621D01*
X29181645Y22507914D01*
X29181649Y22507907D01*
X29267809Y22392813D01*
X29267812Y22392810D01*
X29382906Y22306650D01*
X29382913Y22306646D01*
X29517620Y22256404D01*
X29517627Y22256402D01*
X29577155Y22250001D01*
X29577172Y22250000D01*
X30150000Y22250000D01*
X30650000Y22250000D01*
X31222828Y22250000D01*
X31222844Y22250001D01*
X31282372Y22256402D01*
X31282379Y22256404D01*
X31417086Y22306646D01*
X31417093Y22306650D01*
X31532187Y22392810D01*
X31532190Y22392813D01*
X31618350Y22507907D01*
X31618354Y22507914D01*
X31668596Y22642621D01*
X31668598Y22642628D01*
X31674999Y22702156D01*
X31675000Y22702173D01*
X31675000Y23150000D01*
X30650000Y23150000D01*
X30650000Y22250000D01*
X30150000Y22250000D01*
X30150000Y23150000D01*
X29125000Y23150000D01*
X29125000Y22702156D01*
X23724999Y22702156D01*
X23725000Y22702173D01*
X23725000Y23150000D01*
X22700000Y23150000D01*
X22700000Y22250000D01*
X22200000Y22250000D01*
X22200000Y23650000D01*
X22700000Y23650000D01*
X23725000Y23650000D01*
X23725000Y24097828D01*
X23724999Y24097845D01*
X29125000Y24097845D01*
X29125000Y23650000D01*
X30150000Y23650000D01*
X30650000Y23650000D01*
X31675000Y23650000D01*
X31675000Y24097828D01*
X31674999Y24097845D01*
X31668598Y24157373D01*
X31668596Y24157380D01*
X31618354Y24292087D01*
X31618350Y24292094D01*
X31532190Y24407188D01*
X31532187Y24407191D01*
X31417093Y24493351D01*
X31417086Y24493355D01*
X31282379Y24543597D01*
X31282372Y24543599D01*
X31222844Y24550000D01*
X30650000Y24550000D01*
X30650000Y23650000D01*
X30150000Y23650000D01*
X30150000Y24550000D01*
X29577155Y24550000D01*
X29517627Y24543599D01*
X29517620Y24543597D01*
X29382913Y24493355D01*
X29382906Y24493351D01*
X29267812Y24407191D01*
X29267809Y24407188D01*
X29181649Y24292094D01*
X29181645Y24292087D01*
X29131403Y24157380D01*
X29131401Y24157373D01*
X29125000Y24097845D01*
X23724999Y24097845D01*
X23718598Y24157373D01*
X23718596Y24157380D01*
X23668354Y24292087D01*
X23668350Y24292094D01*
X23582190Y24407188D01*
X23582187Y24407191D01*
X23467093Y24493351D01*
X23467086Y24493355D01*
X23332379Y24543597D01*
X23332372Y24543599D01*
X23272844Y24550000D01*
X22700000Y24550000D01*
X22700000Y23650000D01*
X22200000Y23650000D01*
X22200000Y24550000D01*
X21732500Y24550000D01*
X21665461Y24569685D01*
X21619706Y24622489D01*
X21608500Y24674000D01*
X21608500Y26617500D01*
X21628185Y26684539D01*
X21680989Y26730294D01*
X21732500Y26741500D01*
X23273638Y26741500D01*
X23273654Y26741501D01*
X23300692Y26744409D01*
X23334201Y26748011D01*
X23471204Y26799111D01*
X23588261Y26886739D01*
X23675889Y27003796D01*
X23725334Y27136362D01*
X23726988Y27140796D01*
X23726989Y27140799D01*
X23731285Y27180755D01*
X23758023Y27245306D01*
X23815415Y27285155D01*
X23854574Y27291500D01*
X28995426Y27291500D01*
X29062465Y27271815D01*
X29108220Y27219011D01*
X29118715Y27180755D01*
X29123010Y27140799D01*
X29123011Y27140796D01*
X29157389Y27048629D01*
X29174111Y27003796D01*
X29261739Y26886739D01*
X29378796Y26799111D01*
X29515799Y26748011D01*
X29543050Y26745082D01*
X29576345Y26741501D01*
X29576362Y26741500D01*
X31223638Y26741500D01*
X31223654Y26741501D01*
X31250692Y26744409D01*
X31284201Y26748011D01*
X31421204Y26799111D01*
X31538261Y26886739D01*
X31625889Y27003796D01*
X31642612Y27048632D01*
X31684480Y27104563D01*
X31749945Y27128981D01*
X31818218Y27114130D01*
X31846473Y27092978D01*
X32515181Y26424270D01*
X32548666Y26362947D01*
X32551500Y26336589D01*
X32551500Y18778345D01*
X32531815Y18711306D01*
X32479011Y18665551D01*
X32470835Y18662164D01*
X32413795Y18640889D01*
X32296739Y18553261D01*
X32209111Y18436205D01*
X32158011Y18299205D01*
X32158011Y18299203D01*
X32151500Y18238655D01*
X32151500Y16241346D01*
X32158011Y16180798D01*
X32158011Y16180796D01*
X32201030Y16065461D01*
X32209111Y16043796D01*
X32296739Y15926739D01*
X32413796Y15839111D01*
X32550799Y15788011D01*
X32578050Y15785082D01*
X32611345Y15781501D01*
X32611362Y15781500D01*
X33708638Y15781500D01*
X33708654Y15781501D01*
X33735692Y15784409D01*
X33769201Y15788011D01*
X33906204Y15839111D01*
X34023261Y15926739D01*
X34110889Y16043796D01*
X34161989Y16180799D01*
X34166223Y16220181D01*
X34168499Y16241346D01*
X34168500Y16241363D01*
X34168500Y18238638D01*
X34168499Y18238655D01*
X37231500Y18238655D01*
X37231500Y16241346D01*
X37238011Y16180798D01*
X37238011Y16180796D01*
X37281030Y16065461D01*
X37289111Y16043796D01*
X37376739Y15926739D01*
X37493796Y15839111D01*
X37630799Y15788011D01*
X37658050Y15785082D01*
X37691345Y15781501D01*
X37691362Y15781500D01*
X38788638Y15781500D01*
X38788654Y15781501D01*
X38815692Y15784409D01*
X38849201Y15788011D01*
X38986204Y15839111D01*
X39103261Y15926739D01*
X39190889Y16043796D01*
X39241989Y16180799D01*
X39246223Y16220181D01*
X39248499Y16241346D01*
X39248500Y16241363D01*
X39248500Y18238638D01*
X39248499Y18238655D01*
X39245157Y18269730D01*
X39241989Y18299201D01*
X39190889Y18436204D01*
X39103261Y18553261D01*
X38986204Y18640889D01*
X38975083Y18645037D01*
X38849203Y18691989D01*
X38788654Y18698500D01*
X38788638Y18698500D01*
X37691362Y18698500D01*
X37691345Y18698500D01*
X37630797Y18691989D01*
X37630795Y18691989D01*
X37493795Y18640889D01*
X37376739Y18553261D01*
X37289111Y18436205D01*
X37238011Y18299205D01*
X37238011Y18299203D01*
X37231500Y18238655D01*
X34168499Y18238655D01*
X34165157Y18269730D01*
X34161989Y18299201D01*
X34110889Y18436204D01*
X34023261Y18553261D01*
X33906204Y18640889D01*
X33895083Y18645037D01*
X33849165Y18662164D01*
X33793232Y18704036D01*
X33768816Y18769500D01*
X33768500Y18778345D01*
X33768500Y19542156D01*
X34700000Y19542156D01*
X34706401Y19482628D01*
X34706403Y19482621D01*
X34756645Y19347914D01*
X34756649Y19347907D01*
X34842809Y19232813D01*
X34842812Y19232810D01*
X34957906Y19146650D01*
X34957913Y19146646D01*
X35092620Y19096404D01*
X35092627Y19096402D01*
X35152155Y19090001D01*
X35152172Y19090000D01*
X35450000Y19090000D01*
X35950000Y19090000D01*
X36247828Y19090000D01*
X36247844Y19090001D01*
X36307372Y19096402D01*
X36307379Y19096404D01*
X36442086Y19146646D01*
X36442093Y19146650D01*
X36557187Y19232810D01*
X36557190Y19232813D01*
X36643350Y19347907D01*
X36643354Y19347914D01*
X36693596Y19482621D01*
X36693598Y19482628D01*
X36699999Y19542156D01*
X36700000Y19542173D01*
X36700000Y20290000D01*
X35950000Y20290000D01*
X35950000Y19090000D01*
X35450000Y19090000D01*
X35450000Y20290000D01*
X34700000Y20290000D01*
X34700000Y19542156D01*
X33768500Y19542156D01*
X33768500Y21537845D01*
X34700000Y21537845D01*
X34700000Y20790000D01*
X35450000Y20790000D01*
X35450000Y21918933D01*
X35950000Y21918933D01*
X35950000Y20790000D01*
X36700000Y20790000D01*
X36700000Y21537828D01*
X36699999Y21537845D01*
X36693598Y21597373D01*
X36693596Y21597380D01*
X36643354Y21732087D01*
X36643350Y21732094D01*
X36557190Y21847187D01*
X36472286Y21910747D01*
X36430415Y21966681D01*
X36425431Y22036373D01*
X36458916Y22097696D01*
X36472286Y22109281D01*
X36577190Y22187814D01*
X36663350Y22302907D01*
X36663354Y22302914D01*
X36713596Y22437621D01*
X36713598Y22437628D01*
X36719999Y22497156D01*
X36720000Y22497173D01*
X36720000Y23550000D01*
X35970000Y23550000D01*
X35970000Y21986362D01*
X35950315Y21919323D01*
X35950000Y21918933D01*
X35450000Y21918933D01*
X35450000Y22048638D01*
X35469685Y22115677D01*
X35470000Y22116068D01*
X35470000Y23550000D01*
X34720000Y23550000D01*
X34720000Y22497156D01*
X34726401Y22437628D01*
X34726403Y22437621D01*
X34776645Y22302914D01*
X34776649Y22302907D01*
X34862809Y22187814D01*
X34947713Y22124254D01*
X34989584Y22068320D01*
X34994568Y21998628D01*
X34961083Y21937305D01*
X34947714Y21925721D01*
X34842809Y21847188D01*
X34756649Y21732094D01*
X34756645Y21732087D01*
X34706403Y21597380D01*
X34706401Y21597373D01*
X34700000Y21537845D01*
X33768500Y21537845D01*
X33768500Y25102845D01*
X34720000Y25102845D01*
X34720000Y24050000D01*
X35470000Y24050000D01*
X35970000Y24050000D01*
X36720000Y24050000D01*
X36720000Y25102828D01*
X36719999Y25102845D01*
X36713598Y25162373D01*
X36713596Y25162380D01*
X36663354Y25297087D01*
X36663350Y25297094D01*
X36577190Y25412188D01*
X36577187Y25412191D01*
X36462093Y25498351D01*
X36462086Y25498355D01*
X36327379Y25548597D01*
X36327372Y25548599D01*
X36267844Y25555000D01*
X35970000Y25555000D01*
X35970000Y24050000D01*
X35470000Y24050000D01*
X35470000Y25555000D01*
X35172155Y25555000D01*
X35112627Y25548599D01*
X35112620Y25548597D01*
X34977913Y25498355D01*
X34977906Y25498351D01*
X34862812Y25412191D01*
X34862809Y25412188D01*
X34776649Y25297094D01*
X34776645Y25297087D01*
X34726403Y25162380D01*
X34726401Y25162373D01*
X34720000Y25102845D01*
X33768500Y25102845D01*
X33768500Y26720109D01*
X33768500Y26720111D01*
X33741269Y26821739D01*
X33727032Y26874873D01*
X33646921Y27013628D01*
X32273627Y28386922D01*
X32227324Y28413655D01*
X37251500Y28413655D01*
X37251500Y25806346D01*
X37258011Y25745798D01*
X37258011Y25745796D01*
X37301851Y25628261D01*
X37309111Y25608796D01*
X37396739Y25491739D01*
X37513796Y25404111D01*
X37650799Y25353011D01*
X37678050Y25350082D01*
X37711345Y25346501D01*
X37711362Y25346500D01*
X38808638Y25346500D01*
X38808654Y25346501D01*
X38835692Y25349409D01*
X38869201Y25353011D01*
X39006204Y25404111D01*
X39123261Y25491739D01*
X39210889Y25608796D01*
X39261989Y25745799D01*
X39265591Y25779308D01*
X39268499Y25806346D01*
X39268500Y25806363D01*
X39268500Y28413638D01*
X39268499Y28413655D01*
X39265157Y28444730D01*
X39261989Y28474201D01*
X39259785Y28480109D01*
X39231966Y28554694D01*
X39210889Y28611204D01*
X39123261Y28728261D01*
X39006204Y28815889D01*
X38991954Y28821204D01*
X38869203Y28866989D01*
X38808654Y28873500D01*
X38808638Y28873500D01*
X37711362Y28873500D01*
X37711345Y28873500D01*
X37650797Y28866989D01*
X37650795Y28866989D01*
X37513795Y28815889D01*
X37396739Y28728261D01*
X37309111Y28611205D01*
X37258011Y28474205D01*
X37258011Y28474203D01*
X37251500Y28413655D01*
X32227324Y28413655D01*
X32134873Y28467032D01*
X32048680Y28490127D01*
X32048677Y28490128D01*
X32019697Y28497893D01*
X31980111Y28508500D01*
X31980110Y28508500D01*
X31804574Y28508500D01*
X31737535Y28528185D01*
X31691780Y28580989D01*
X31681285Y28619245D01*
X31676989Y28659202D01*
X31676988Y28659205D01*
X31634310Y28773626D01*
X31625889Y28796204D01*
X31538261Y28913261D01*
X31421204Y29000889D01*
X31284203Y29051989D01*
X31223654Y29058500D01*
X31223638Y29058500D01*
X29576362Y29058500D01*
X29576345Y29058500D01*
X29515797Y29051989D01*
X29515795Y29051989D01*
X29378795Y29000889D01*
X29261739Y28913261D01*
X29174111Y28796205D01*
X29123011Y28659205D01*
X29123010Y28659202D01*
X29118715Y28619245D01*
X29091977Y28554694D01*
X29034585Y28514845D01*
X28995426Y28508500D01*
X23854574Y28508500D01*
X23787535Y28528185D01*
X23741780Y28580989D01*
X23731285Y28619245D01*
X23726989Y28659202D01*
X23726988Y28659205D01*
X23684310Y28773626D01*
X23675889Y28796204D01*
X23588261Y28913261D01*
X23471204Y29000889D01*
X23334203Y29051989D01*
X23273654Y29058500D01*
X23273638Y29058500D01*
X21732500Y29058500D01*
X21665461Y29078185D01*
X21619706Y29130989D01*
X21608500Y29182500D01*
X21608500Y32280109D01*
X21608500Y32280111D01*
X21567032Y32434872D01*
X21491829Y32565127D01*
X21486922Y32573627D01*
X17244819Y36815730D01*
X17211334Y36877053D01*
X17208500Y36903411D01*
X17208500Y43280109D01*
X17208500Y43280111D01*
X17167032Y43434872D01*
X17167032Y43434873D01*
X17086921Y43573628D01*
X13656319Y47004230D01*
X13628596Y47055000D01*
X14120000Y47055000D01*
X14417828Y47055000D01*
X14417844Y47055001D01*
X14477372Y47061402D01*
X14477379Y47061404D01*
X14612086Y47111646D01*
X14612093Y47111650D01*
X14727187Y47197810D01*
X14727190Y47197813D01*
X14813350Y47312907D01*
X14813354Y47312914D01*
X14863596Y47447621D01*
X14863598Y47447628D01*
X14869999Y47507156D01*
X14870000Y47507173D01*
X14870000Y48560000D01*
X14120000Y48560000D01*
X14120000Y47055000D01*
X13628596Y47055000D01*
X13622834Y47065553D01*
X13620000Y47091911D01*
X13620000Y48560000D01*
X12870000Y48560000D01*
X12870000Y48089911D01*
X12850315Y48022872D01*
X12797511Y47977117D01*
X12728353Y47967173D01*
X12664797Y47996198D01*
X12658319Y48002230D01*
X11363629Y49296920D01*
X11363627Y49296922D01*
X11224873Y49377032D01*
X11147491Y49397766D01*
X11147490Y49397767D01*
X11090844Y49412945D01*
X11070111Y49418500D01*
X11070110Y49418500D01*
X9922500Y49418500D01*
X9855461Y49438185D01*
X9809706Y49490989D01*
X9798500Y49542500D01*
X9798500Y50112845D01*
X12870000Y50112845D01*
X12870000Y49060000D01*
X13620000Y49060000D01*
X14120000Y49060000D01*
X14870000Y49060000D01*
X14870000Y49198655D01*
X18441500Y49198655D01*
X18441500Y47201346D01*
X18448011Y47140798D01*
X18448011Y47140796D01*
X18487959Y47033695D01*
X18499111Y47003796D01*
X18586739Y46886739D01*
X18691811Y46808083D01*
X18733682Y46752149D01*
X18741500Y46708816D01*
X18741500Y41441184D01*
X18721815Y41374145D01*
X18691811Y41341917D01*
X18586739Y41263261D01*
X18499111Y41146205D01*
X18448011Y41009205D01*
X18448011Y41009203D01*
X18441500Y40948655D01*
X18441500Y38951346D01*
X18448011Y38890798D01*
X18448011Y38890796D01*
X18495204Y38764270D01*
X18499111Y38753796D01*
X18586739Y38636739D01*
X18703796Y38549111D01*
X18840799Y38498011D01*
X18868050Y38495082D01*
X18901345Y38491501D01*
X18901362Y38491500D01*
X19998638Y38491500D01*
X19998654Y38491501D01*
X20025692Y38494409D01*
X20059201Y38498011D01*
X20196204Y38549111D01*
X20313261Y38636739D01*
X20400889Y38753796D01*
X20451989Y38890799D01*
X20455591Y38924308D01*
X20458499Y38951346D01*
X20458500Y38951363D01*
X20458500Y40948638D01*
X20458499Y40948655D01*
X20455157Y40979730D01*
X20451989Y41009201D01*
X20440838Y41039097D01*
X20429522Y41069436D01*
X20400889Y41146204D01*
X20313261Y41263261D01*
X20208188Y41341918D01*
X20166318Y41397851D01*
X20158500Y41441184D01*
X20158500Y46708816D01*
X20178185Y46775855D01*
X20208189Y46808083D01*
X20313261Y46886739D01*
X20400889Y47003796D01*
X20451989Y47140799D01*
X20455591Y47174308D01*
X20458499Y47201346D01*
X20458500Y47201363D01*
X20458500Y49198638D01*
X20458499Y49198655D01*
X20455157Y49229730D01*
X20451989Y49259201D01*
X20437920Y49296920D01*
X20408040Y49377031D01*
X20400889Y49396204D01*
X20313261Y49513261D01*
X20196204Y49600889D01*
X20059203Y49651989D01*
X19998654Y49658500D01*
X19998638Y49658500D01*
X18901362Y49658500D01*
X18901345Y49658500D01*
X18840797Y49651989D01*
X18840795Y49651989D01*
X18703795Y49600889D01*
X18586739Y49513261D01*
X18499111Y49396205D01*
X18448011Y49259205D01*
X18448011Y49259203D01*
X18441500Y49198655D01*
X14870000Y49198655D01*
X14870000Y50112828D01*
X14869999Y50112845D01*
X14863598Y50172373D01*
X14863596Y50172380D01*
X14813354Y50307087D01*
X14813350Y50307094D01*
X14727190Y50422188D01*
X14727187Y50422191D01*
X14612093Y50508351D01*
X14612086Y50508355D01*
X14477379Y50558597D01*
X14477372Y50558599D01*
X14417844Y50565000D01*
X14120000Y50565000D01*
X14120000Y49060000D01*
X13620000Y49060000D01*
X13620000Y50565000D01*
X13322155Y50565000D01*
X13262627Y50558599D01*
X13262620Y50558597D01*
X13127913Y50508355D01*
X13127906Y50508351D01*
X13012812Y50422191D01*
X13012809Y50422188D01*
X12926649Y50307094D01*
X12926645Y50307087D01*
X12876403Y50172380D01*
X12876401Y50172373D01*
X12870000Y50112845D01*
X9798500Y50112845D01*
X9798500Y50113638D01*
X9798499Y50113655D01*
X9795157Y50144730D01*
X9791989Y50174201D01*
X9787312Y50186740D01*
X9743652Y50303796D01*
X9740889Y50311204D01*
X9653261Y50428261D01*
X9536204Y50515889D01*
X9399203Y50566989D01*
X9338654Y50573500D01*
X9338638Y50573500D01*
X8241362Y50573500D01*
X8241345Y50573500D01*
X8180797Y50566989D01*
X8180795Y50566989D01*
X8043795Y50515889D01*
X7926739Y50428261D01*
X7839111Y50311205D01*
X7788011Y50174205D01*
X7788011Y50174203D01*
X7781500Y50113655D01*
X7781500Y47506346D01*
X7788011Y47445798D01*
X7788011Y47445796D01*
X7837575Y47312914D01*
X7839111Y47308796D01*
X7926739Y47191739D01*
X8043796Y47104111D01*
X8147173Y47065553D01*
X8175463Y47055001D01*
X8180799Y47053011D01*
X8208050Y47050082D01*
X8241345Y47046501D01*
X8241362Y47046500D01*
X9338638Y47046500D01*
X9338654Y47046501D01*
X9365692Y47049409D01*
X9399201Y47053011D01*
X9404537Y47055001D01*
X9432827Y47065553D01*
X9536204Y47104111D01*
X9653261Y47191739D01*
X9740889Y47308796D01*
X9791989Y47445799D01*
X9795591Y47479308D01*
X9798499Y47506346D01*
X9798500Y47506363D01*
X9798500Y48077500D01*
X9818185Y48144539D01*
X9870989Y48190294D01*
X9922500Y48201500D01*
X10686589Y48201500D01*
X10753628Y48181815D01*
X10774270Y48165181D01*
X11464270Y47475181D01*
X11497755Y47413858D01*
X11492771Y47344166D01*
X11450899Y47288233D01*
X11385435Y47263816D01*
X11376589Y47263500D01*
X10781345Y47263500D01*
X10720797Y47256989D01*
X10720795Y47256989D01*
X10583795Y47205889D01*
X10466739Y47118261D01*
X10379111Y47001205D01*
X10328011Y46864205D01*
X10328011Y46864203D01*
X10321500Y46803655D01*
X10321500Y44196346D01*
X10328011Y44135798D01*
X10328011Y44135796D01*
X10379111Y43998796D01*
X10466739Y43881739D01*
X10583796Y43794111D01*
X10720799Y43743011D01*
X10748050Y43740082D01*
X10781345Y43736501D01*
X10781362Y43736500D01*
X11878638Y43736500D01*
X11878654Y43736501D01*
X11905692Y43739409D01*
X11939201Y43743011D01*
X12076204Y43794111D01*
X12193261Y43881739D01*
X12280889Y43998796D01*
X12331989Y44135799D01*
X12335591Y44169308D01*
X12338499Y44196346D01*
X12338500Y44196363D01*
X12338500Y46301589D01*
X12358185Y46368628D01*
X12410989Y46414383D01*
X12480147Y46424327D01*
X12543703Y46395302D01*
X12550181Y46389270D01*
X15955181Y42984270D01*
X15988666Y42922947D01*
X15991500Y42896589D01*
X15991500Y37343411D01*
X15971815Y37276372D01*
X15919011Y37230617D01*
X15849853Y37220673D01*
X15786297Y37249698D01*
X15779819Y37255730D01*
X13199144Y39836405D01*
X13165659Y39897728D01*
X13170643Y39967420D01*
X13212515Y40023353D01*
X13277979Y40047770D01*
X13300084Y40047375D01*
X13322163Y40045001D01*
X13322172Y40045000D01*
X13620000Y40045000D01*
X14120000Y40045000D01*
X14417828Y40045000D01*
X14417844Y40045001D01*
X14477372Y40051402D01*
X14477379Y40051404D01*
X14612086Y40101646D01*
X14612093Y40101650D01*
X14727187Y40187810D01*
X14727190Y40187813D01*
X14813350Y40302907D01*
X14813354Y40302914D01*
X14863596Y40437621D01*
X14863598Y40437628D01*
X14869999Y40497156D01*
X14870000Y40497173D01*
X14870000Y41550000D01*
X14120000Y41550000D01*
X14120000Y40045000D01*
X13620000Y40045000D01*
X13620000Y41550000D01*
X12870000Y41550000D01*
X12870000Y40497172D01*
X12872375Y40475081D01*
X12859969Y40406321D01*
X12812358Y40355184D01*
X12744659Y40337905D01*
X12678365Y40359970D01*
X12661404Y40374145D01*
X10748629Y42286920D01*
X10748627Y42286922D01*
X10609873Y42367032D01*
X10532491Y42387766D01*
X10532490Y42387767D01*
X10475844Y42402945D01*
X10455111Y42408500D01*
X10455110Y42408500D01*
X9922500Y42408500D01*
X9855461Y42428185D01*
X9809706Y42480989D01*
X9798500Y42532500D01*
X9798500Y43102845D01*
X12870000Y43102845D01*
X12870000Y42050000D01*
X13620000Y42050000D01*
X14120000Y42050000D01*
X14870000Y42050000D01*
X14870000Y43102828D01*
X14869999Y43102845D01*
X14863598Y43162373D01*
X14863596Y43162380D01*
X14813354Y43297087D01*
X14813350Y43297094D01*
X14727190Y43412188D01*
X14727187Y43412191D01*
X14612093Y43498351D01*
X14612086Y43498355D01*
X14477379Y43548597D01*
X14477372Y43548599D01*
X14417844Y43555000D01*
X14120000Y43555000D01*
X14120000Y42050000D01*
X13620000Y42050000D01*
X13620000Y43555000D01*
X13322155Y43555000D01*
X13262627Y43548599D01*
X13262620Y43548597D01*
X13127913Y43498355D01*
X13127906Y43498351D01*
X13012812Y43412191D01*
X13012809Y43412188D01*
X12926649Y43297094D01*
X12926645Y43297087D01*
X12876403Y43162380D01*
X12876401Y43162373D01*
X12870000Y43102845D01*
X9798500Y43102845D01*
X9798500Y43103638D01*
X9798499Y43103655D01*
X9795157Y43134730D01*
X9791989Y43164201D01*
X9740889Y43301204D01*
X9653261Y43418261D01*
X9536204Y43505889D01*
X9399203Y43556989D01*
X9338654Y43563500D01*
X9338638Y43563500D01*
X8241362Y43563500D01*
X8241345Y43563500D01*
X8180797Y43556989D01*
X8180795Y43556989D01*
X8043795Y43505889D01*
X7926739Y43418261D01*
X7839111Y43301205D01*
X7788011Y43164205D01*
X7788011Y43164203D01*
X7781500Y43103655D01*
X7781500Y40496346D01*
X7788011Y40435798D01*
X7788011Y40435796D01*
X7837575Y40302914D01*
X7839111Y40298796D01*
X7926739Y40181739D01*
X8043796Y40094111D01*
X8158297Y40051404D01*
X8175463Y40045001D01*
X8180799Y40043011D01*
X8208050Y40040082D01*
X8241345Y40036501D01*
X8241362Y40036500D01*
X9338638Y40036500D01*
X9338654Y40036501D01*
X9365692Y40039409D01*
X9399201Y40043011D01*
X9404537Y40045001D01*
X9421703Y40051404D01*
X9536204Y40094111D01*
X9653261Y40181739D01*
X9740889Y40298796D01*
X9791989Y40435799D01*
X9796212Y40475081D01*
X9798499Y40496346D01*
X9798500Y40496363D01*
X9798500Y41067500D01*
X9818185Y41134539D01*
X9870989Y41180294D01*
X9922500Y41191500D01*
X10071589Y41191500D01*
X10138628Y41171815D01*
X10159270Y41155181D01*
X10850543Y40463908D01*
X10884028Y40402585D01*
X10879044Y40332893D01*
X10837172Y40276960D01*
X10776120Y40252938D01*
X10720796Y40246989D01*
X10720795Y40246989D01*
X10583795Y40195889D01*
X10466739Y40108261D01*
X10379111Y39991205D01*
X10328011Y39854205D01*
X10328011Y39854203D01*
X10321500Y39793655D01*
X10321500Y38038411D01*
X10301815Y37971372D01*
X10249011Y37925617D01*
X10179853Y37915673D01*
X10116297Y37944698D01*
X10109819Y37950730D01*
X9083629Y38976920D01*
X9083627Y38976922D01*
X8944873Y39057032D01*
X8867491Y39077766D01*
X8867490Y39077767D01*
X8810844Y39092945D01*
X8790111Y39098500D01*
X8790110Y39098500D01*
X7382500Y39098500D01*
X7315461Y39118185D01*
X7269706Y39170989D01*
X7258500Y39222500D01*
X7258500Y39793638D01*
X7258499Y39793655D01*
X7253902Y39836405D01*
X7251989Y39854201D01*
X7200889Y39991204D01*
X7113261Y40108261D01*
X6996204Y40195889D01*
X6859203Y40246989D01*
X6798638Y40253501D01*
X6798056Y40253532D01*
X6797927Y40253578D01*
X6795335Y40253856D01*
X6795400Y40254469D01*
X6732166Y40276775D01*
X6689301Y40331951D01*
X6683072Y40401542D01*
X6697303Y40439354D01*
X6767032Y40560128D01*
X6808500Y40714890D01*
X6808500Y40875111D01*
X6808500Y43638006D01*
X6828185Y43705045D01*
X6880989Y43750800D01*
X6889153Y43754183D01*
X6996204Y43794111D01*
X7113261Y43881739D01*
X7200889Y43998796D01*
X7251989Y44135799D01*
X7255591Y44169308D01*
X7258499Y44196346D01*
X7258500Y44196363D01*
X7258500Y46803638D01*
X7258499Y46803655D01*
X7255157Y46834730D01*
X7251989Y46864201D01*
X7243582Y46886740D01*
X7210475Y46975502D01*
X7200889Y47001204D01*
X7113261Y47118261D01*
X6996204Y47205889D01*
X6859203Y47256989D01*
X6798654Y47263500D01*
X6798638Y47263500D01*
X5701362Y47263500D01*
X5701345Y47263500D01*
X5640797Y47256989D01*
X5640795Y47256989D01*
X5503795Y47205889D01*
X5386739Y47118261D01*
X5299111Y47001205D01*
X5248011Y46864205D01*
X5248011Y46864203D01*
X5241500Y46803655D01*
X5241500Y45318411D01*
X5221815Y45251372D01*
X5169011Y45205617D01*
X5099853Y45195673D01*
X5036297Y45224698D01*
X5029819Y45230730D01*
X4354819Y45905730D01*
X4321334Y45967053D01*
X4318500Y45993411D01*
X4318500Y46966656D01*
X4338185Y47033695D01*
X4390989Y47079450D01*
X4399144Y47082829D01*
X4456204Y47104111D01*
X4573261Y47191739D01*
X4660889Y47308796D01*
X4711989Y47445799D01*
X4715591Y47479308D01*
X4718499Y47506346D01*
X4718500Y47506363D01*
X4718500Y50113638D01*
X4718499Y50113655D01*
X4715157Y50144730D01*
X4711989Y50174201D01*
X4707312Y50186740D01*
X4663652Y50303796D01*
X4660889Y50311204D01*
X4573261Y50428261D01*
X4456204Y50515889D01*
X4319203Y50566989D01*
X4258654Y50573500D01*
X4258638Y50573500D01*
X3161362Y50573500D01*
X3161345Y50573500D01*
X3100797Y50566989D01*
X3100795Y50566989D01*
X2963795Y50515889D01*
X2846739Y50428261D01*
X2759111Y50311205D01*
X2708011Y50174205D01*
X2708011Y50174203D01*
X2701500Y50113655D01*
X2701500Y47506346D01*
X2708011Y47445798D01*
X2708011Y47445796D01*
X2757575Y47312914D01*
X2759111Y47308796D01*
X2846739Y47191739D01*
X2963796Y47104111D01*
X3020835Y47082837D01*
X3076767Y47040967D01*
X3101184Y46975502D01*
X3101500Y46966656D01*
X3101500Y45609891D01*
X3142968Y45455126D01*
X3183023Y45385750D01*
X3223078Y45316373D01*
X3223080Y45316371D01*
X5155181Y43384270D01*
X5188666Y43322947D01*
X5191500Y43296589D01*
X5191500Y41264097D01*
X5171815Y41197058D01*
X5155181Y41176416D01*
X4930181Y40951416D01*
X4868858Y40917931D01*
X4799166Y40922915D01*
X4743233Y40964787D01*
X4718816Y41030251D01*
X4718500Y41039097D01*
X4718500Y43103638D01*
X4718499Y43103655D01*
X4715157Y43134730D01*
X4711989Y43164201D01*
X4660889Y43301204D01*
X4573261Y43418261D01*
X4456204Y43505889D01*
X4319203Y43556989D01*
X4258654Y43563500D01*
X4258638Y43563500D01*
X3161362Y43563500D01*
X3161345Y43563500D01*
X3100797Y43556989D01*
X3100795Y43556989D01*
X2963795Y43505889D01*
X2846739Y43418261D01*
X2759111Y43301205D01*
X2708011Y43164205D01*
X2708011Y43164203D01*
X2701500Y43103655D01*
X2701500Y40496346D01*
X2708011Y40435798D01*
X2708011Y40435796D01*
X2757575Y40302914D01*
X2759111Y40298796D01*
X2846739Y40181739D01*
X2846740Y40181738D01*
X2852054Y40174640D01*
X2850885Y40173766D01*
X2879768Y40120872D01*
X2874784Y40051180D01*
X2846283Y40006833D01*
X2113080Y39273630D01*
X2113078Y39273627D01*
X2032968Y39134873D01*
X2023222Y39098500D01*
X1991500Y38980111D01*
X1991500Y29869097D01*
X1971815Y29802058D01*
X1955181Y29781416D01*
X903080Y28729316D01*
X903076Y28729310D01*
X822967Y28590560D01*
X822968Y28590560D01*
X822968Y28590559D01*
X781500Y28435797D01*
X781500Y8129891D01*
X822968Y7975126D01*
X845349Y7936362D01*
X903078Y7836373D01*
X3813078Y4926373D01*
X3813079Y4926372D01*
X3926372Y4813079D01*
X3926373Y4813078D01*
X3926375Y4813077D01*
X4065124Y4732970D01*
X4065125Y4732970D01*
X4065128Y4732968D01*
X4119595Y4718374D01*
X4179253Y4682011D01*
X4209783Y4619164D01*
X4211500Y4598600D01*
X4211500Y4301346D01*
X4218011Y4240798D01*
X4218011Y4240796D01*
X4252209Y4149111D01*
X4269111Y4103796D01*
X4356739Y3986739D01*
X4473796Y3899111D01*
X4588015Y3856509D01*
X4605463Y3850001D01*
X4610799Y3848011D01*
X4638050Y3845082D01*
X4671345Y3841501D01*
X4671362Y3841500D01*
X5768638Y3841500D01*
X5768654Y3841501D01*
X5795692Y3844409D01*
X5829201Y3848011D01*
X5834537Y3850001D01*
X5851985Y3856509D01*
X5966204Y3899111D01*
X6083261Y3986739D01*
X6170889Y4103796D01*
X6221989Y4240799D01*
X6225591Y4274308D01*
X6228499Y4301346D01*
X6228500Y4301363D01*
X6228500Y6298638D01*
X6228499Y6298655D01*
X9291500Y6298655D01*
X9291500Y4301346D01*
X9298011Y4240798D01*
X9298011Y4240796D01*
X9332209Y4149111D01*
X9349111Y4103796D01*
X9436739Y3986739D01*
X9553796Y3899111D01*
X9668015Y3856509D01*
X9685463Y3850001D01*
X9690799Y3848011D01*
X9718050Y3845082D01*
X9751345Y3841501D01*
X9751362Y3841500D01*
X10848638Y3841500D01*
X10848654Y3841501D01*
X10875692Y3844409D01*
X10909201Y3848011D01*
X10914537Y3850001D01*
X10931985Y3856509D01*
X11046204Y3899111D01*
X11163261Y3986739D01*
X11250889Y4103796D01*
X11301989Y4240799D01*
X11305591Y4274308D01*
X11308499Y4301346D01*
X11308500Y4301363D01*
X11308500Y6298638D01*
X11308499Y6298655D01*
X14371500Y6298655D01*
X14371500Y4301346D01*
X14378011Y4240798D01*
X14378011Y4240796D01*
X14412209Y4149111D01*
X14429111Y4103796D01*
X14516739Y3986739D01*
X14633796Y3899111D01*
X14748015Y3856509D01*
X14765463Y3850001D01*
X14770799Y3848011D01*
X14798050Y3845082D01*
X14831345Y3841501D01*
X14831362Y3841500D01*
X15928638Y3841500D01*
X15928654Y3841501D01*
X15955692Y3844409D01*
X15989201Y3848011D01*
X15994537Y3850001D01*
X16011985Y3856509D01*
X16126204Y3899111D01*
X16243261Y3986739D01*
X16330889Y4103796D01*
X16381989Y4240799D01*
X16385591Y4274308D01*
X16388499Y4301346D01*
X16388500Y4301363D01*
X16388500Y6298638D01*
X16388499Y6298655D01*
X19451500Y6298655D01*
X19451500Y4301346D01*
X19458011Y4240798D01*
X19458011Y4240796D01*
X19492209Y4149111D01*
X19509111Y4103796D01*
X19596739Y3986739D01*
X19713796Y3899111D01*
X19828015Y3856509D01*
X19845463Y3850001D01*
X19850799Y3848011D01*
X19878050Y3845082D01*
X19911345Y3841501D01*
X19911362Y3841500D01*
X21008638Y3841500D01*
X21008654Y3841501D01*
X21035692Y3844409D01*
X21069201Y3848011D01*
X21074537Y3850001D01*
X21091985Y3856509D01*
X21206204Y3899111D01*
X21323261Y3986739D01*
X21410889Y4103796D01*
X21461989Y4240799D01*
X21465591Y4274308D01*
X21468499Y4301346D01*
X21468500Y4301363D01*
X21468500Y6298638D01*
X21468499Y6298655D01*
X21462791Y6351739D01*
X21461989Y6359201D01*
X21456222Y6374662D01*
X21438759Y6421483D01*
X21410889Y6496204D01*
X21323261Y6613261D01*
X21206204Y6700889D01*
X21069203Y6751989D01*
X21008654Y6758500D01*
X21008638Y6758500D01*
X19911362Y6758500D01*
X19911345Y6758500D01*
X19850797Y6751989D01*
X19850795Y6751989D01*
X19713795Y6700889D01*
X19596739Y6613261D01*
X19509111Y6496205D01*
X19458011Y6359205D01*
X19458011Y6359203D01*
X19451500Y6298655D01*
X16388499Y6298655D01*
X16382791Y6351739D01*
X16381989Y6359201D01*
X16376222Y6374662D01*
X16358759Y6421483D01*
X16330889Y6496204D01*
X16243261Y6613261D01*
X16126204Y6700889D01*
X15989203Y6751989D01*
X15928654Y6758500D01*
X15928638Y6758500D01*
X14831362Y6758500D01*
X14831345Y6758500D01*
X14770797Y6751989D01*
X14770795Y6751989D01*
X14633795Y6700889D01*
X14516739Y6613261D01*
X14429111Y6496205D01*
X14378011Y6359205D01*
X14378011Y6359203D01*
X14371500Y6298655D01*
X11308499Y6298655D01*
X11302791Y6351739D01*
X11301989Y6359201D01*
X11296222Y6374662D01*
X11278759Y6421483D01*
X11250889Y6496204D01*
X11163261Y6613261D01*
X11046204Y6700889D01*
X10909203Y6751989D01*
X10848654Y6758500D01*
X10848638Y6758500D01*
X9751362Y6758500D01*
X9751345Y6758500D01*
X9690797Y6751989D01*
X9690795Y6751989D01*
X9553795Y6700889D01*
X9436739Y6613261D01*
X9349111Y6496205D01*
X9298011Y6359205D01*
X9298011Y6359203D01*
X9291500Y6298655D01*
X6228499Y6298655D01*
X6222791Y6351739D01*
X6221989Y6359201D01*
X6216222Y6374662D01*
X6198759Y6421483D01*
X6170889Y6496204D01*
X6083261Y6613261D01*
X5966204Y6700889D01*
X5829203Y6751989D01*
X5768654Y6758500D01*
X5768638Y6758500D01*
X4671362Y6758500D01*
X4671345Y6758500D01*
X4610797Y6751989D01*
X4610795Y6751989D01*
X4473795Y6700889D01*
X4356739Y6613261D01*
X4269111Y6496206D01*
X4253746Y6455010D01*
X4211874Y6399077D01*
X4146409Y6374662D01*
X4078136Y6389515D01*
X4049884Y6410665D01*
X2034819Y8425730D01*
X2001334Y8487053D01*
X1998500Y8513411D01*
X1998500Y15657797D01*
X2018185Y15724836D01*
X2070989Y15770591D01*
X2128041Y15781412D01*
X2128041Y15781500D01*
X2128510Y15781500D01*
X2129137Y15781619D01*
X2131357Y15781500D01*
X2131362Y15781500D01*
X3228638Y15781500D01*
X3228654Y15781501D01*
X3255692Y15784409D01*
X3289201Y15788011D01*
X3424166Y15838352D01*
X3493857Y15843337D01*
X3555180Y15809852D01*
X3588666Y15748529D01*
X3591500Y15722170D01*
X3591500Y12119887D01*
X3598198Y12094892D01*
X3598198Y12094889D01*
X3598199Y12094889D01*
X3632968Y11965126D01*
X3671487Y11898411D01*
X3713078Y11826373D01*
X4113078Y11426373D01*
X4113079Y11426372D01*
X4226372Y11313079D01*
X4365128Y11232968D01*
X4519889Y11191500D01*
X4680110Y11191500D01*
X26237961Y11191500D01*
X26305000Y11171815D01*
X26325642Y11155181D01*
X30519142Y6961681D01*
X30552627Y6900358D01*
X30547643Y6830666D01*
X30505771Y6774733D01*
X30440307Y6750316D01*
X30431461Y6750000D01*
X30072155Y6750000D01*
X30012627Y6743599D01*
X30012620Y6743597D01*
X29877913Y6693355D01*
X29877906Y6693351D01*
X29762812Y6607191D01*
X29762809Y6607188D01*
X29676649Y6492094D01*
X29676645Y6492087D01*
X29626403Y6357380D01*
X29626401Y6357373D01*
X29620000Y6297845D01*
X29620000Y5550000D01*
X31620000Y5550000D01*
X31620000Y5561461D01*
X31639685Y5628500D01*
X31692489Y5674255D01*
X31761647Y5684199D01*
X31825203Y5655174D01*
X31831681Y5649142D01*
X32660642Y4820181D01*
X32694127Y4758858D01*
X32689143Y4689166D01*
X32647271Y4633233D01*
X32581807Y4608816D01*
X32572961Y4608500D01*
X32464203Y4608500D01*
X32400758Y4591501D01*
X32400758Y4591500D01*
X32309441Y4567032D01*
X32309439Y4567032D01*
X32309439Y4567031D01*
X32170686Y4486921D01*
X32170683Y4486919D01*
X31824461Y4140697D01*
X31763138Y4107212D01*
X31693446Y4112196D01*
X31637513Y4154068D01*
X31613096Y4219532D01*
X31613491Y4241636D01*
X31619999Y4302161D01*
X31620000Y4302173D01*
X31620000Y5050000D01*
X30870000Y5050000D01*
X30870000Y3850000D01*
X31167828Y3850000D01*
X31167839Y3850001D01*
X31228364Y3856509D01*
X31297124Y3844105D01*
X31348262Y3796496D01*
X31365543Y3728797D01*
X31343480Y3662502D01*
X31329303Y3645539D01*
X30328584Y2644819D01*
X30267261Y2611334D01*
X30240903Y2608500D01*
X29212500Y2608500D01*
X29145461Y2628185D01*
X29099706Y2680989D01*
X29088500Y2732500D01*
X29088500Y2998638D01*
X29088499Y2998655D01*
X29084443Y3036372D01*
X29081989Y3059201D01*
X29030889Y3196204D01*
X28943261Y3313261D01*
X28826204Y3400889D01*
X28824166Y3401649D01*
X28689203Y3451989D01*
X28628654Y3458500D01*
X28628638Y3458500D01*
X27531362Y3458500D01*
X27531345Y3458500D01*
X27470797Y3451989D01*
X27470795Y3451989D01*
X27333795Y3400889D01*
X27216739Y3313261D01*
X27129111Y3196205D01*
X27078011Y3059205D01*
X27078011Y3059203D01*
X27071500Y2998655D01*
X27071500Y1888411D01*
X27051815Y1821372D01*
X26999011Y1775617D01*
X26929853Y1765673D01*
X26866297Y1794698D01*
X26859819Y1800730D01*
X26184819Y2475730D01*
X26151334Y2537053D01*
X26148500Y2563411D01*
X26148500Y3761656D01*
X26168185Y3828695D01*
X26220989Y3874450D01*
X26229144Y3877829D01*
X26286204Y3899111D01*
X26403261Y3986739D01*
X26490889Y4103796D01*
X26541989Y4240799D01*
X26545591Y4274308D01*
X26548499Y4301346D01*
X26548500Y4301363D01*
X26548500Y4302156D01*
X29620000Y4302156D01*
X29626401Y4242628D01*
X29626403Y4242621D01*
X29676645Y4107914D01*
X29676649Y4107907D01*
X29762809Y3992813D01*
X29762812Y3992810D01*
X29877906Y3906650D01*
X29877913Y3906646D01*
X30012620Y3856404D01*
X30012627Y3856402D01*
X30072155Y3850001D01*
X30072172Y3850000D01*
X30370000Y3850000D01*
X30370000Y5050000D01*
X29620000Y5050000D01*
X29620000Y4302156D01*
X26548500Y4302156D01*
X26548500Y6298638D01*
X26548499Y6298655D01*
X26542791Y6351739D01*
X26541989Y6359201D01*
X26536222Y6374662D01*
X26518759Y6421483D01*
X26490889Y6496204D01*
X26403261Y6613261D01*
X26286204Y6700889D01*
X26149203Y6751989D01*
X26088654Y6758500D01*
X26088638Y6758500D01*
X24991362Y6758500D01*
X24991345Y6758500D01*
X24930797Y6751989D01*
X24930795Y6751989D01*
X24793795Y6700889D01*
X24676739Y6613261D01*
X24589111Y6496205D01*
X24538011Y6359205D01*
X24538011Y6359203D01*
X24531500Y6298655D01*
X24531500Y4301346D01*
X24538011Y4240798D01*
X24538011Y4240796D01*
X24572209Y4149111D01*
X24589111Y4103796D01*
X24676739Y3986739D01*
X24793796Y3899111D01*
X24850835Y3877837D01*
X24906767Y3835967D01*
X24931184Y3770502D01*
X24931500Y3761656D01*
X24931500Y2179891D01*
X24972968Y2025126D01*
X25001734Y1975303D01*
X25053078Y1886373D01*
X25053080Y1886371D01*
X26327770Y611681D01*
X26361255Y550358D01*
X26356271Y480666D01*
X26314399Y424733D01*
X26248935Y400316D01*
X26240089Y400000D01*
X23852783Y400000D01*
X23785744Y419685D01*
X23739989Y472489D01*
X23730045Y541647D01*
X23759070Y605203D01*
X23778469Y623265D01*
X23863261Y686739D01*
X23950889Y803796D01*
X24001989Y940799D01*
X24005591Y974308D01*
X24008499Y1001346D01*
X24008500Y1001363D01*
X24008500Y2998638D01*
X24008499Y2998655D01*
X24004443Y3036372D01*
X24001989Y3059201D01*
X23950889Y3196204D01*
X23863261Y3313261D01*
X23746204Y3400889D01*
X23744166Y3401649D01*
X23609203Y3451989D01*
X23548654Y3458500D01*
X23548638Y3458500D01*
X22451362Y3458500D01*
X22451345Y3458500D01*
X22390797Y3451989D01*
X22390795Y3451989D01*
X22253795Y3400889D01*
X22136739Y3313261D01*
X22049111Y3196205D01*
X21998011Y3059205D01*
X21998011Y3059203D01*
X21991500Y2998655D01*
X21991500Y1001346D01*
X21998011Y940798D01*
X21998011Y940796D01*
X22049111Y803796D01*
X22136739Y686739D01*
X22221528Y623267D01*
X22263399Y567333D01*
X22268383Y497641D01*
X22234898Y436318D01*
X22173575Y402834D01*
X22147217Y400000D01*
X18772783Y400000D01*
X18705744Y419685D01*
X18659989Y472489D01*
X18650045Y541647D01*
X18679070Y605203D01*
X18698469Y623265D01*
X18783261Y686739D01*
X18870889Y803796D01*
X18921989Y940799D01*
X18925591Y974308D01*
X18928499Y1001346D01*
X18928500Y1001363D01*
X18928500Y2998638D01*
X18928499Y2998655D01*
X18924443Y3036372D01*
X18921989Y3059201D01*
X18870889Y3196204D01*
X18783261Y3313261D01*
X18666204Y3400889D01*
X18664166Y3401649D01*
X18529203Y3451989D01*
X18468654Y3458500D01*
X18468638Y3458500D01*
X17371362Y3458500D01*
X17371345Y3458500D01*
X17310797Y3451989D01*
X17310795Y3451989D01*
X17173795Y3400889D01*
X17056739Y3313261D01*
X16969111Y3196205D01*
X16918011Y3059205D01*
X16918011Y3059203D01*
X16911500Y2998655D01*
X16911500Y1001346D01*
X16918011Y940798D01*
X16918011Y940796D01*
X16969111Y803796D01*
X17056739Y686739D01*
X17141528Y623267D01*
X17183399Y567333D01*
X17188383Y497641D01*
X17154898Y436318D01*
X17093575Y402834D01*
X17067217Y400000D01*
X13692783Y400000D01*
X13625744Y419685D01*
X13579989Y472489D01*
X13570045Y541647D01*
X13599070Y605203D01*
X13618469Y623265D01*
X13703261Y686739D01*
X13790889Y803796D01*
X13841989Y940799D01*
X13845591Y974308D01*
X13848499Y1001346D01*
X13848500Y1001363D01*
X13848500Y2998638D01*
X13848499Y2998655D01*
X13844443Y3036372D01*
X13841989Y3059201D01*
X13790889Y3196204D01*
X13703261Y3313261D01*
X13586204Y3400889D01*
X13584166Y3401649D01*
X13449203Y3451989D01*
X13388654Y3458500D01*
X13388638Y3458500D01*
X12291362Y3458500D01*
X12291345Y3458500D01*
X12230797Y3451989D01*
X12230795Y3451989D01*
X12093795Y3400889D01*
X11976739Y3313261D01*
X11889111Y3196205D01*
X11838011Y3059205D01*
X11838011Y3059203D01*
X11831500Y2998655D01*
X11831500Y1001346D01*
X11838011Y940798D01*
X11838011Y940796D01*
X11889111Y803796D01*
X11976739Y686739D01*
X12061528Y623267D01*
X12103399Y567333D01*
X12108383Y497641D01*
X12074898Y436318D01*
X12013575Y402834D01*
X11987217Y400000D01*
X8612783Y400000D01*
X8545744Y419685D01*
X8499989Y472489D01*
X8490045Y541647D01*
X8519070Y605203D01*
X8538469Y623265D01*
X8623261Y686739D01*
X8710889Y803796D01*
X8761989Y940799D01*
X8765591Y974308D01*
X8768499Y1001346D01*
X8768500Y1001363D01*
X8768500Y2998638D01*
X8768499Y2998655D01*
X8764443Y3036372D01*
X8761989Y3059201D01*
X8710889Y3196204D01*
X8623261Y3313261D01*
X8506204Y3400889D01*
X8504166Y3401649D01*
X8369203Y3451989D01*
X8308654Y3458500D01*
X8308638Y3458500D01*
X7211362Y3458500D01*
X7211345Y3458500D01*
X7150797Y3451989D01*
X7150795Y3451989D01*
X7013795Y3400889D01*
X6896739Y3313261D01*
X6809111Y3196205D01*
X6758011Y3059205D01*
X6758011Y3059203D01*
X6751500Y2998655D01*
X6751500Y1001346D01*
X6758011Y940798D01*
X6758011Y940796D01*
X6809111Y803796D01*
X6896739Y686739D01*
X6981528Y623267D01*
X7023399Y567333D01*
X7028383Y497641D01*
X6994898Y436318D01*
X6933575Y402834D01*
X6907217Y400000D01*
X3532783Y400000D01*
X3465744Y419685D01*
X3419989Y472489D01*
X3410045Y541647D01*
X3439070Y605203D01*
X3458469Y623265D01*
X3543261Y686739D01*
X3630889Y803796D01*
X3681989Y940799D01*
X3685591Y974308D01*
X3688499Y1001346D01*
X3688500Y1001363D01*
X3688500Y2998638D01*
X3688499Y2998655D01*
X3684443Y3036372D01*
X3681989Y3059201D01*
X3630889Y3196204D01*
X3543261Y3313261D01*
X3426204Y3400889D01*
X3424166Y3401649D01*
X3289203Y3451989D01*
X3228654Y3458500D01*
X3228638Y3458500D01*
X2131362Y3458500D01*
X2131345Y3458500D01*
X2070797Y3451989D01*
X2070795Y3451989D01*
X1933795Y3400889D01*
X1816739Y3313261D01*
X1729111Y3196205D01*
X1678011Y3059205D01*
X1678011Y3059203D01*
X1671500Y2998655D01*
X1671500Y1001346D01*
X1678011Y940798D01*
X1678011Y940796D01*
X1729111Y803796D01*
X1816739Y686739D01*
X1901528Y623267D01*
X1943399Y567333D01*
X1948383Y497641D01*
X1914898Y436318D01*
X1853575Y402834D01*
X1827217Y400000D01*
X524000Y400000D01*
X456961Y419685D01*
X411206Y472489D01*
X400000Y524000D01*
X400000Y52876000D01*
X419685Y52943039D01*
X472489Y52988794D01*
X524000Y53000000D01*
X21018810Y53000000D01*
X21085849Y52980315D01*
G37*
%TD.AperFunction*%
%TA.AperFunction,Conductor*%
G36*
X46380834Y8817771D02*
G01*
X46436767Y8775899D01*
X46461184Y8710435D01*
X46461500Y8701589D01*
X46461500Y7936346D01*
X46468011Y7875798D01*
X46468011Y7875797D01*
X46506228Y7773333D01*
X46511212Y7703642D01*
X46506228Y7686667D01*
X46468011Y7584204D01*
X46468011Y7584203D01*
X46461500Y7523655D01*
X46461500Y6666346D01*
X46468011Y6605798D01*
X46468011Y6605796D01*
X46510764Y6491175D01*
X46515749Y6421483D01*
X46510765Y6404506D01*
X46476402Y6312377D01*
X46476401Y6312373D01*
X46470000Y6252845D01*
X46470000Y6075000D01*
X49346000Y6075000D01*
X49413039Y6055315D01*
X49458794Y6002511D01*
X49470000Y5951000D01*
X49470000Y5825000D01*
X49596000Y5825000D01*
X49663039Y5805315D01*
X49708794Y5752511D01*
X49720000Y5701000D01*
X49720000Y3675000D01*
X51315089Y3675000D01*
X51382128Y3655315D01*
X51427883Y3602511D01*
X51437827Y3533353D01*
X51408802Y3469797D01*
X51402770Y3463319D01*
X49334270Y1394819D01*
X49272947Y1361334D01*
X49246589Y1358500D01*
X44452500Y1358500D01*
X44385461Y1378185D01*
X44339706Y1430989D01*
X44328500Y1482500D01*
X44328500Y2998638D01*
X44328499Y2998655D01*
X44324443Y3036372D01*
X44321989Y3059201D01*
X44270889Y3196204D01*
X44183261Y3313261D01*
X44066204Y3400889D01*
X44064166Y3401649D01*
X43929203Y3451989D01*
X43868654Y3458500D01*
X43868638Y3458500D01*
X42771362Y3458500D01*
X42771345Y3458500D01*
X42710798Y3451990D01*
X42575834Y3401649D01*
X42506143Y3396665D01*
X42444819Y3430149D01*
X42411334Y3491472D01*
X42408500Y3517831D01*
X42408500Y4127156D01*
X46470000Y4127156D01*
X46476401Y4067628D01*
X46476403Y4067621D01*
X46526645Y3932914D01*
X46526649Y3932907D01*
X46612809Y3817813D01*
X46612812Y3817810D01*
X46727906Y3731650D01*
X46727913Y3731646D01*
X46862620Y3681404D01*
X46862627Y3681402D01*
X46922155Y3675001D01*
X46922172Y3675000D01*
X49220000Y3675000D01*
X49220000Y4305000D01*
X46470000Y4305000D01*
X46470000Y4127156D01*
X42408500Y4127156D01*
X42408500Y4896589D01*
X42428185Y4963628D01*
X42444819Y4984270D01*
X42857705Y5397156D01*
X46470000Y5397156D01*
X46476401Y5337628D01*
X46476403Y5337618D01*
X46515299Y5233332D01*
X46520283Y5163641D01*
X46515299Y5146668D01*
X46476403Y5042383D01*
X46476401Y5042373D01*
X46470000Y4982845D01*
X46470000Y4805000D01*
X49220000Y4805000D01*
X49220000Y5575000D01*
X46470000Y5575000D01*
X46470000Y5397156D01*
X42857705Y5397156D01*
X46249819Y8789270D01*
X46311142Y8822755D01*
X46380834Y8817771D01*
G37*
%TD.AperFunction*%
%TA.AperFunction,Conductor*%
G36*
X52683703Y30455302D02*
G01*
X52690181Y30449270D01*
X53555181Y29584270D01*
X53588666Y29522947D01*
X53591500Y29496589D01*
X53591500Y15703412D01*
X53571815Y15636373D01*
X53555181Y15615731D01*
X52271923Y14332474D01*
X52210600Y14298989D01*
X52140908Y14303973D01*
X52140907Y14303974D01*
X52079203Y14326989D01*
X52018654Y14333500D01*
X52018638Y14333500D01*
X46921362Y14333500D01*
X46921345Y14333500D01*
X46860797Y14326989D01*
X46860795Y14326989D01*
X46723795Y14275889D01*
X46606739Y14188261D01*
X46519111Y14071205D01*
X46468011Y13934205D01*
X46468011Y13934203D01*
X46461500Y13873655D01*
X46461500Y13016346D01*
X46468011Y12955798D01*
X46468011Y12955797D01*
X46506228Y12853333D01*
X46511212Y12783642D01*
X46506228Y12766667D01*
X46468011Y12664204D01*
X46468011Y12664203D01*
X46461500Y12603655D01*
X46461500Y11898411D01*
X46441815Y11831372D01*
X46389011Y11785617D01*
X46319853Y11775673D01*
X46256297Y11804698D01*
X46249819Y11810730D01*
X42644819Y15415730D01*
X42611334Y15477053D01*
X42608500Y15503411D01*
X42608500Y15660964D01*
X42628185Y15728003D01*
X42680989Y15773758D01*
X42745757Y15784253D01*
X42771362Y15781500D01*
X43868638Y15781500D01*
X43868654Y15781501D01*
X43895692Y15784409D01*
X43929201Y15788011D01*
X44066204Y15839111D01*
X44183261Y15926739D01*
X44270889Y16043796D01*
X44321989Y16180799D01*
X44326223Y16220181D01*
X44328499Y16241346D01*
X44328500Y16241363D01*
X44328500Y18238638D01*
X44328499Y18238655D01*
X44325157Y18269730D01*
X44321989Y18299201D01*
X44270889Y18436204D01*
X44183261Y18553261D01*
X44066204Y18640889D01*
X44055083Y18645037D01*
X43929203Y18691989D01*
X43868654Y18698500D01*
X43868638Y18698500D01*
X42771362Y18698500D01*
X42745755Y18695747D01*
X42676995Y18708153D01*
X42625858Y18755764D01*
X42608500Y18819037D01*
X42608500Y23067500D01*
X42628185Y23134539D01*
X42680989Y23180294D01*
X42732500Y23191500D01*
X45080109Y23191500D01*
X45080110Y23191500D01*
X45080111Y23191500D01*
X45174469Y23216783D01*
X45234873Y23232968D01*
X45373627Y23313078D01*
X45387705Y23327156D01*
X46470000Y23327156D01*
X46476401Y23267628D01*
X46476403Y23267621D01*
X46526645Y23132914D01*
X46526649Y23132907D01*
X46612809Y23017813D01*
X46612812Y23017810D01*
X46727906Y22931650D01*
X46727913Y22931646D01*
X46862620Y22881404D01*
X46862627Y22881402D01*
X46922155Y22875001D01*
X46922172Y22875000D01*
X49220000Y22875000D01*
X49720000Y22875000D01*
X52017828Y22875000D01*
X52017844Y22875001D01*
X52077372Y22881402D01*
X52077379Y22881404D01*
X52212086Y22931646D01*
X52212093Y22931650D01*
X52327187Y23017810D01*
X52327190Y23017813D01*
X52413350Y23132907D01*
X52413354Y23132914D01*
X52463596Y23267621D01*
X52463598Y23267628D01*
X52469999Y23327156D01*
X52470000Y23327173D01*
X52470000Y23505000D01*
X49720000Y23505000D01*
X49720000Y22875000D01*
X49220000Y22875000D01*
X49220000Y23505000D01*
X46470000Y23505000D01*
X46470000Y23327156D01*
X45387705Y23327156D01*
X45886921Y23826372D01*
X45967031Y23965127D01*
X45967032Y23965128D01*
X46008500Y24119889D01*
X46008500Y24597156D01*
X46470000Y24597156D01*
X46476401Y24537628D01*
X46476403Y24537618D01*
X46515299Y24433332D01*
X46520283Y24363641D01*
X46515299Y24346668D01*
X46476403Y24242383D01*
X46476401Y24242373D01*
X46470000Y24182845D01*
X46470000Y24005000D01*
X49220000Y24005000D01*
X49720000Y24005000D01*
X52470000Y24005000D01*
X52470000Y24182828D01*
X52469999Y24182845D01*
X52463598Y24242373D01*
X52463597Y24242377D01*
X52424699Y24346666D01*
X52419715Y24416357D01*
X52424699Y24433334D01*
X52463597Y24537624D01*
X52463598Y24537628D01*
X52469999Y24597156D01*
X52470000Y24597173D01*
X52470000Y24775000D01*
X49720000Y24775000D01*
X49720000Y24005000D01*
X49220000Y24005000D01*
X49220000Y24775000D01*
X46470000Y24775000D01*
X46470000Y24597156D01*
X46008500Y24597156D01*
X46008500Y28096589D01*
X46028185Y28163628D01*
X46044819Y28184270D01*
X46050730Y28190181D01*
X46112053Y28223666D01*
X46138411Y28226500D01*
X46353681Y28226500D01*
X46420720Y28206815D01*
X46466475Y28154011D01*
X46476419Y28084853D01*
X46469862Y28059164D01*
X46468010Y28054202D01*
X46461500Y27993655D01*
X46461500Y27136346D01*
X46468011Y27075798D01*
X46468011Y27075797D01*
X46506228Y26973333D01*
X46511212Y26903642D01*
X46506228Y26886667D01*
X46468011Y26784204D01*
X46468011Y26784203D01*
X46461500Y26723655D01*
X46461500Y25866346D01*
X46468011Y25805798D01*
X46468011Y25805796D01*
X46510764Y25691175D01*
X46515749Y25621483D01*
X46510765Y25604506D01*
X46476402Y25512377D01*
X46476401Y25512373D01*
X46470000Y25452845D01*
X46470000Y25275000D01*
X52470000Y25275000D01*
X52470000Y25452828D01*
X52469999Y25452845D01*
X52463598Y25512373D01*
X52463597Y25512377D01*
X52429235Y25604506D01*
X52424251Y25674198D01*
X52429236Y25691175D01*
X52471988Y25805796D01*
X52471988Y25805797D01*
X52471989Y25805799D01*
X52477189Y25854166D01*
X52478499Y25866346D01*
X52478500Y25866363D01*
X52478500Y26723638D01*
X52478499Y26723655D01*
X52475157Y26754730D01*
X52471989Y26784201D01*
X52466427Y26799112D01*
X52438235Y26874698D01*
X52433770Y26886667D01*
X52428785Y26956356D01*
X52433769Y26973329D01*
X52471989Y27075799D01*
X52476110Y27114130D01*
X52478499Y27136346D01*
X52478500Y27136363D01*
X52478500Y27993638D01*
X52478499Y27993655D01*
X52475157Y28024730D01*
X52471989Y28054201D01*
X52433770Y28156667D01*
X52428785Y28226356D01*
X52433769Y28243329D01*
X52471989Y28345799D01*
X52476410Y28386922D01*
X52478499Y28406346D01*
X52478500Y28406363D01*
X52478500Y29263638D01*
X52478499Y29263655D01*
X52472234Y29321920D01*
X52471989Y29324201D01*
X52471963Y29324270D01*
X52453276Y29374372D01*
X52433770Y29426667D01*
X52428785Y29496356D01*
X52433769Y29513329D01*
X52471989Y29615799D01*
X52475591Y29649308D01*
X52478499Y29676346D01*
X52478500Y29676363D01*
X52478500Y30361589D01*
X52498185Y30428628D01*
X52550989Y30474383D01*
X52620147Y30484327D01*
X52683703Y30455302D01*
G37*
%TD.AperFunction*%
%TA.AperFunction,Conductor*%
G36*
X12543703Y32795302D02*
G01*
X12550181Y32789270D01*
X13026373Y32313078D01*
X13026374Y32313077D01*
X13026376Y32313076D01*
X13083477Y32280109D01*
X13164998Y32233043D01*
X13165128Y32232968D01*
X13319889Y32191500D01*
X13319890Y32191500D01*
X13480110Y32191500D01*
X14096589Y32191500D01*
X14163628Y32171815D01*
X14184270Y32155181D01*
X18155181Y28184270D01*
X18188666Y28122947D01*
X18191500Y28096589D01*
X18191500Y20938411D01*
X18171815Y20871372D01*
X18119011Y20825617D01*
X18049853Y20815673D01*
X17986297Y20844698D01*
X17979819Y20850730D01*
X13477230Y25353319D01*
X13443745Y25414642D01*
X13448729Y25484334D01*
X13490601Y25540267D01*
X13556065Y25564684D01*
X13564911Y25565000D01*
X13580000Y25565000D01*
X14080000Y25565000D01*
X14377828Y25565000D01*
X14377844Y25565001D01*
X14437372Y25571402D01*
X14437379Y25571404D01*
X14572086Y25621646D01*
X14572093Y25621650D01*
X14687187Y25707810D01*
X14687190Y25707813D01*
X14773350Y25822907D01*
X14773354Y25822914D01*
X14823596Y25957621D01*
X14823598Y25957628D01*
X14829999Y26017156D01*
X14830000Y26017173D01*
X14830000Y27070000D01*
X14080000Y27070000D01*
X14080000Y25565000D01*
X13580000Y25565000D01*
X13580000Y27070000D01*
X12830000Y27070000D01*
X12830000Y26299911D01*
X12810315Y26232872D01*
X12757511Y26187117D01*
X12688353Y26177173D01*
X12624797Y26206198D01*
X12618319Y26212230D01*
X11023629Y27806920D01*
X11023627Y27806922D01*
X10884873Y27887032D01*
X10787663Y27913079D01*
X10787661Y27913080D01*
X10787659Y27913081D01*
X10730112Y27928500D01*
X10730111Y27928500D01*
X9882500Y27928500D01*
X9815461Y27948185D01*
X9769706Y28000989D01*
X9758500Y28052500D01*
X9758500Y28622845D01*
X12830000Y28622845D01*
X12830000Y27570000D01*
X13580000Y27570000D01*
X14080000Y27570000D01*
X14830000Y27570000D01*
X14830000Y28622828D01*
X14829999Y28622845D01*
X14823598Y28682373D01*
X14823596Y28682380D01*
X14773354Y28817087D01*
X14773350Y28817094D01*
X14687190Y28932188D01*
X14687187Y28932191D01*
X14572093Y29018351D01*
X14572086Y29018355D01*
X14437379Y29068597D01*
X14437372Y29068599D01*
X14377844Y29075000D01*
X14080000Y29075000D01*
X14080000Y27570000D01*
X13580000Y27570000D01*
X13580000Y29075000D01*
X13282155Y29075000D01*
X13222627Y29068599D01*
X13222620Y29068597D01*
X13087913Y29018355D01*
X13087906Y29018351D01*
X12972812Y28932191D01*
X12972809Y28932188D01*
X12886649Y28817094D01*
X12886645Y28817087D01*
X12836403Y28682380D01*
X12836401Y28682373D01*
X12830000Y28622845D01*
X9758500Y28622845D01*
X9758500Y28623638D01*
X9758499Y28623655D01*
X9754677Y28659201D01*
X9751989Y28684201D01*
X9700889Y28821204D01*
X9613261Y28938261D01*
X9496204Y29025889D01*
X9359203Y29076989D01*
X9303879Y29082938D01*
X9239329Y29109677D01*
X9199482Y29167071D01*
X9196989Y29236896D01*
X9229454Y29293906D01*
X10121853Y30186305D01*
X10183174Y30219788D01*
X10252866Y30214804D01*
X10308799Y30172932D01*
X10325713Y30141957D01*
X10379110Y29998799D01*
X10379111Y29998796D01*
X10466739Y29881739D01*
X10583796Y29794111D01*
X10720799Y29743011D01*
X10748050Y29740082D01*
X10781345Y29736501D01*
X10781362Y29736500D01*
X11878638Y29736500D01*
X11878654Y29736501D01*
X11905692Y29739409D01*
X11939201Y29743011D01*
X12076204Y29794111D01*
X12193261Y29881739D01*
X12280889Y29998796D01*
X12331989Y30135799D01*
X12337419Y30186303D01*
X12338499Y30196346D01*
X12338500Y30196363D01*
X12338500Y32701589D01*
X12358185Y32768628D01*
X12410989Y32814383D01*
X12480147Y32824327D01*
X12543703Y32795302D01*
G37*
%TD.AperFunction*%
%TA.AperFunction,Conductor*%
G36*
X12543703Y38770302D02*
G01*
X12550181Y38764270D01*
X14540855Y36773596D01*
X14574340Y36712273D01*
X14569356Y36642581D01*
X14527484Y36586648D01*
X14462020Y36562231D01*
X14439919Y36562625D01*
X14417828Y36565000D01*
X14120000Y36565000D01*
X14120000Y35060000D01*
X14870000Y35060000D01*
X14870000Y36112828D01*
X14869999Y36112837D01*
X14867625Y36134916D01*
X14880028Y36203676D01*
X14927637Y36254815D01*
X14995336Y36272096D01*
X15061631Y36250034D01*
X15078595Y36235856D01*
X19815181Y31499270D01*
X19848666Y31437947D01*
X19851500Y31411589D01*
X19851500Y22078345D01*
X19831815Y22011306D01*
X19779011Y21965551D01*
X19770835Y21962164D01*
X19713793Y21940889D01*
X19713793Y21940888D01*
X19606810Y21860801D01*
X19541346Y21836384D01*
X19473073Y21851236D01*
X19423668Y21900641D01*
X19408500Y21960068D01*
X19408500Y28480109D01*
X19408500Y28480111D01*
X19367032Y28634872D01*
X19313114Y28728261D01*
X19286922Y28773627D01*
X14851850Y33208699D01*
X14818365Y33270022D01*
X14823349Y33339714D01*
X14863597Y33447624D01*
X14863598Y33447628D01*
X14869999Y33507156D01*
X14870000Y33507173D01*
X14870000Y34560000D01*
X13994000Y34560000D01*
X13926961Y34579685D01*
X13881206Y34632489D01*
X13870000Y34684000D01*
X13870000Y34810000D01*
X13744000Y34810000D01*
X13676961Y34829685D01*
X13631206Y34882489D01*
X13620000Y34934000D01*
X13620000Y36565000D01*
X13322155Y36565000D01*
X13262627Y36558599D01*
X13262620Y36558597D01*
X13127913Y36508355D01*
X13127906Y36508351D01*
X13012812Y36422191D01*
X13012809Y36422188D01*
X12926649Y36307094D01*
X12926645Y36307087D01*
X12876403Y36172380D01*
X12876401Y36172373D01*
X12870000Y36112845D01*
X12870000Y35489911D01*
X12850315Y35422872D01*
X12797511Y35377117D01*
X12728353Y35367173D01*
X12664797Y35396198D01*
X12658319Y35402230D01*
X11545730Y36514819D01*
X11512245Y36576142D01*
X11517229Y36645834D01*
X11559101Y36701767D01*
X11624565Y36726184D01*
X11633411Y36726500D01*
X11878638Y36726500D01*
X11878654Y36726501D01*
X11905692Y36729409D01*
X11939201Y36733011D01*
X12076204Y36784111D01*
X12193261Y36871739D01*
X12280889Y36988796D01*
X12331989Y37125799D01*
X12335591Y37159308D01*
X12338499Y37186346D01*
X12338500Y37186363D01*
X12338500Y38676589D01*
X12358185Y38743628D01*
X12410989Y38789383D01*
X12480147Y38799327D01*
X12543703Y38770302D01*
G37*
%TD.AperFunction*%
%TD*%
M02*
