%TF.GenerationSoftware,KiCad,Pcbnew,8.0.7*%
%TF.CreationDate,2024-12-21T11:05:05+01:00*%
%TF.ProjectId,circuit,63697263-7569-4742-9e6b-696361645f70,rev?*%
%TF.SameCoordinates,PX5f5e100PY5f5e100*%
%TF.FileFunction,Legend,Top*%
%TF.FilePolarity,Positive*%
%FSLAX46Y46*%
G04 Gerber Fmt 4.6, Leading zero omitted, Abs format (unit mm)*
G04 Created by KiCad (PCBNEW 8.0.7) date 2024-12-21 11:05:05*
%MOMM*%
%LPD*%
G01*
G04 APERTURE LIST*
%ADD10C,0.300000*%
%ADD11C,0.150000*%
%ADD12C,0.120000*%
G04 APERTURE END LIST*
D10*
X2197368Y11599172D02*
X2197368Y10384886D01*
X2197368Y10384886D02*
X2125939Y10242029D01*
X2125939Y10242029D02*
X2054510Y10170600D01*
X2054510Y10170600D02*
X1911653Y10099172D01*
X1911653Y10099172D02*
X1697368Y10099172D01*
X1697368Y10099172D02*
X1554510Y10170600D01*
X2197368Y10670600D02*
X2054510Y10599172D01*
X2054510Y10599172D02*
X1768796Y10599172D01*
X1768796Y10599172D02*
X1625939Y10670600D01*
X1625939Y10670600D02*
X1554510Y10742029D01*
X1554510Y10742029D02*
X1483082Y10884886D01*
X1483082Y10884886D02*
X1483082Y11313458D01*
X1483082Y11313458D02*
X1554510Y11456315D01*
X1554510Y11456315D02*
X1625939Y11527743D01*
X1625939Y11527743D02*
X1768796Y11599172D01*
X1768796Y11599172D02*
X2054510Y11599172D01*
X2054510Y11599172D02*
X2197368Y11527743D01*
X2911653Y10599172D02*
X2911653Y11599172D01*
X2911653Y12099172D02*
X2840225Y12027743D01*
X2840225Y12027743D02*
X2911653Y11956315D01*
X2911653Y11956315D02*
X2983082Y12027743D01*
X2983082Y12027743D02*
X2911653Y12099172D01*
X2911653Y12099172D02*
X2911653Y11956315D01*
X3411654Y11599172D02*
X3983082Y11599172D01*
X3625939Y12099172D02*
X3625939Y10813458D01*
X3625939Y10813458D02*
X3697368Y10670600D01*
X3697368Y10670600D02*
X3840225Y10599172D01*
X3840225Y10599172D02*
X3983082Y10599172D01*
X4483082Y10599172D02*
X4483082Y12099172D01*
X5125940Y10599172D02*
X5125940Y11384886D01*
X5125940Y11384886D02*
X5054511Y11527743D01*
X5054511Y11527743D02*
X4911654Y11599172D01*
X4911654Y11599172D02*
X4697368Y11599172D01*
X4697368Y11599172D02*
X4554511Y11527743D01*
X4554511Y11527743D02*
X4483082Y11456315D01*
X6483083Y11599172D02*
X6483083Y10599172D01*
X5840225Y11599172D02*
X5840225Y10813458D01*
X5840225Y10813458D02*
X5911654Y10670600D01*
X5911654Y10670600D02*
X6054511Y10599172D01*
X6054511Y10599172D02*
X6268797Y10599172D01*
X6268797Y10599172D02*
X6411654Y10670600D01*
X6411654Y10670600D02*
X6483083Y10742029D01*
X7197368Y10599172D02*
X7197368Y12099172D01*
X7197368Y11527743D02*
X7340226Y11599172D01*
X7340226Y11599172D02*
X7625940Y11599172D01*
X7625940Y11599172D02*
X7768797Y11527743D01*
X7768797Y11527743D02*
X7840226Y11456315D01*
X7840226Y11456315D02*
X7911654Y11313458D01*
X7911654Y11313458D02*
X7911654Y10884886D01*
X7911654Y10884886D02*
X7840226Y10742029D01*
X7840226Y10742029D02*
X7768797Y10670600D01*
X7768797Y10670600D02*
X7625940Y10599172D01*
X7625940Y10599172D02*
X7340226Y10599172D01*
X7340226Y10599172D02*
X7197368Y10670600D01*
X8554511Y10742029D02*
X8625940Y10670600D01*
X8625940Y10670600D02*
X8554511Y10599172D01*
X8554511Y10599172D02*
X8483083Y10670600D01*
X8483083Y10670600D02*
X8554511Y10742029D01*
X8554511Y10742029D02*
X8554511Y10599172D01*
X9911655Y10670600D02*
X9768797Y10599172D01*
X9768797Y10599172D02*
X9483083Y10599172D01*
X9483083Y10599172D02*
X9340226Y10670600D01*
X9340226Y10670600D02*
X9268797Y10742029D01*
X9268797Y10742029D02*
X9197369Y10884886D01*
X9197369Y10884886D02*
X9197369Y11313458D01*
X9197369Y11313458D02*
X9268797Y11456315D01*
X9268797Y11456315D02*
X9340226Y11527743D01*
X9340226Y11527743D02*
X9483083Y11599172D01*
X9483083Y11599172D02*
X9768797Y11599172D01*
X9768797Y11599172D02*
X9911655Y11527743D01*
X10768797Y10599172D02*
X10625940Y10670600D01*
X10625940Y10670600D02*
X10554511Y10742029D01*
X10554511Y10742029D02*
X10483083Y10884886D01*
X10483083Y10884886D02*
X10483083Y11313458D01*
X10483083Y11313458D02*
X10554511Y11456315D01*
X10554511Y11456315D02*
X10625940Y11527743D01*
X10625940Y11527743D02*
X10768797Y11599172D01*
X10768797Y11599172D02*
X10983083Y11599172D01*
X10983083Y11599172D02*
X11125940Y11527743D01*
X11125940Y11527743D02*
X11197369Y11456315D01*
X11197369Y11456315D02*
X11268797Y11313458D01*
X11268797Y11313458D02*
X11268797Y10884886D01*
X11268797Y10884886D02*
X11197369Y10742029D01*
X11197369Y10742029D02*
X11125940Y10670600D01*
X11125940Y10670600D02*
X10983083Y10599172D01*
X10983083Y10599172D02*
X10768797Y10599172D01*
X11911654Y10599172D02*
X11911654Y11599172D01*
X11911654Y11456315D02*
X11983083Y11527743D01*
X11983083Y11527743D02*
X12125940Y11599172D01*
X12125940Y11599172D02*
X12340226Y11599172D01*
X12340226Y11599172D02*
X12483083Y11527743D01*
X12483083Y11527743D02*
X12554512Y11384886D01*
X12554512Y11384886D02*
X12554512Y10599172D01*
X12554512Y11384886D02*
X12625940Y11527743D01*
X12625940Y11527743D02*
X12768797Y11599172D01*
X12768797Y11599172D02*
X12983083Y11599172D01*
X12983083Y11599172D02*
X13125940Y11527743D01*
X13125940Y11527743D02*
X13197369Y11384886D01*
X13197369Y11384886D02*
X13197369Y10599172D01*
X14983083Y12170600D02*
X13697369Y10242029D01*
X15697369Y10599172D02*
X15554512Y10670600D01*
X15554512Y10670600D02*
X15483083Y10813458D01*
X15483083Y10813458D02*
X15483083Y12099172D01*
X16911655Y11599172D02*
X16911655Y10599172D01*
X16268797Y11599172D02*
X16268797Y10813458D01*
X16268797Y10813458D02*
X16340226Y10670600D01*
X16340226Y10670600D02*
X16483083Y10599172D01*
X16483083Y10599172D02*
X16697369Y10599172D01*
X16697369Y10599172D02*
X16840226Y10670600D01*
X16840226Y10670600D02*
X16911655Y10742029D01*
X17554512Y10670600D02*
X17697369Y10599172D01*
X17697369Y10599172D02*
X17983083Y10599172D01*
X17983083Y10599172D02*
X18125940Y10670600D01*
X18125940Y10670600D02*
X18197369Y10813458D01*
X18197369Y10813458D02*
X18197369Y10884886D01*
X18197369Y10884886D02*
X18125940Y11027743D01*
X18125940Y11027743D02*
X17983083Y11099172D01*
X17983083Y11099172D02*
X17768798Y11099172D01*
X17768798Y11099172D02*
X17625940Y11170600D01*
X17625940Y11170600D02*
X17554512Y11313458D01*
X17554512Y11313458D02*
X17554512Y11384886D01*
X17554512Y11384886D02*
X17625940Y11527743D01*
X17625940Y11527743D02*
X17768798Y11599172D01*
X17768798Y11599172D02*
X17983083Y11599172D01*
X17983083Y11599172D02*
X18125940Y11527743D01*
X18840226Y10599172D02*
X18840226Y11599172D01*
X18840226Y11456315D02*
X18911655Y11527743D01*
X18911655Y11527743D02*
X19054512Y11599172D01*
X19054512Y11599172D02*
X19268798Y11599172D01*
X19268798Y11599172D02*
X19411655Y11527743D01*
X19411655Y11527743D02*
X19483084Y11384886D01*
X19483084Y11384886D02*
X19483084Y10599172D01*
X19483084Y11384886D02*
X19554512Y11527743D01*
X19554512Y11527743D02*
X19697369Y11599172D01*
X19697369Y11599172D02*
X19911655Y11599172D01*
X19911655Y11599172D02*
X20054512Y11527743D01*
X20054512Y11527743D02*
X20125941Y11384886D01*
X20125941Y11384886D02*
X20125941Y10599172D01*
X21483084Y10599172D02*
X21483084Y12099172D01*
X21483084Y10670600D02*
X21340226Y10599172D01*
X21340226Y10599172D02*
X21054512Y10599172D01*
X21054512Y10599172D02*
X20911655Y10670600D01*
X20911655Y10670600D02*
X20840226Y10742029D01*
X20840226Y10742029D02*
X20768798Y10884886D01*
X20768798Y10884886D02*
X20768798Y11313458D01*
X20768798Y11313458D02*
X20840226Y11456315D01*
X20840226Y11456315D02*
X20911655Y11527743D01*
X20911655Y11527743D02*
X21054512Y11599172D01*
X21054512Y11599172D02*
X21340226Y11599172D01*
X21340226Y11599172D02*
X21483084Y11527743D01*
X22411655Y10599172D02*
X22268798Y10670600D01*
X22268798Y10670600D02*
X22197369Y10813458D01*
X22197369Y10813458D02*
X22197369Y12099172D01*
X24054512Y12170600D02*
X22768798Y10242029D01*
X24554512Y10599172D02*
X24554512Y12099172D01*
X24554512Y12099172D02*
X25054512Y11027743D01*
X25054512Y11027743D02*
X25554512Y12099172D01*
X25554512Y12099172D02*
X25554512Y10599172D01*
X26125941Y11599172D02*
X26483084Y10599172D01*
X26840227Y11599172D02*
X26483084Y10599172D01*
X26483084Y10599172D02*
X26340227Y10242029D01*
X26340227Y10242029D02*
X26268798Y10170600D01*
X26268798Y10170600D02*
X26125941Y10099172D01*
X27340227Y10670600D02*
X27554513Y10599172D01*
X27554513Y10599172D02*
X27911655Y10599172D01*
X27911655Y10599172D02*
X28054513Y10670600D01*
X28054513Y10670600D02*
X28125941Y10742029D01*
X28125941Y10742029D02*
X28197370Y10884886D01*
X28197370Y10884886D02*
X28197370Y11027743D01*
X28197370Y11027743D02*
X28125941Y11170600D01*
X28125941Y11170600D02*
X28054513Y11242029D01*
X28054513Y11242029D02*
X27911655Y11313458D01*
X27911655Y11313458D02*
X27625941Y11384886D01*
X27625941Y11384886D02*
X27483084Y11456315D01*
X27483084Y11456315D02*
X27411655Y11527743D01*
X27411655Y11527743D02*
X27340227Y11670600D01*
X27340227Y11670600D02*
X27340227Y11813458D01*
X27340227Y11813458D02*
X27411655Y11956315D01*
X27411655Y11956315D02*
X27483084Y12027743D01*
X27483084Y12027743D02*
X27625941Y12099172D01*
X27625941Y12099172D02*
X27983084Y12099172D01*
X27983084Y12099172D02*
X28197370Y12027743D01*
X28840226Y10599172D02*
X28840226Y11599172D01*
X28840226Y12099172D02*
X28768798Y12027743D01*
X28768798Y12027743D02*
X28840226Y11956315D01*
X28840226Y11956315D02*
X28911655Y12027743D01*
X28911655Y12027743D02*
X28840226Y12099172D01*
X28840226Y12099172D02*
X28840226Y11956315D01*
X29554512Y10599172D02*
X29554512Y11599172D01*
X29554512Y11456315D02*
X29625941Y11527743D01*
X29625941Y11527743D02*
X29768798Y11599172D01*
X29768798Y11599172D02*
X29983084Y11599172D01*
X29983084Y11599172D02*
X30125941Y11527743D01*
X30125941Y11527743D02*
X30197370Y11384886D01*
X30197370Y11384886D02*
X30197370Y10599172D01*
X30197370Y11384886D02*
X30268798Y11527743D01*
X30268798Y11527743D02*
X30411655Y11599172D01*
X30411655Y11599172D02*
X30625941Y11599172D01*
X30625941Y11599172D02*
X30768798Y11527743D01*
X30768798Y11527743D02*
X30840227Y11384886D01*
X30840227Y11384886D02*
X30840227Y10599172D01*
X32411655Y10599172D02*
X31911655Y11313458D01*
X31554512Y10599172D02*
X31554512Y12099172D01*
X31554512Y12099172D02*
X32125941Y12099172D01*
X32125941Y12099172D02*
X32268798Y12027743D01*
X32268798Y12027743D02*
X32340227Y11956315D01*
X32340227Y11956315D02*
X32411655Y11813458D01*
X32411655Y11813458D02*
X32411655Y11599172D01*
X32411655Y11599172D02*
X32340227Y11456315D01*
X32340227Y11456315D02*
X32268798Y11384886D01*
X32268798Y11384886D02*
X32125941Y11313458D01*
X32125941Y11313458D02*
X31554512Y11313458D01*
X33697370Y10599172D02*
X33697370Y11384886D01*
X33697370Y11384886D02*
X33625941Y11527743D01*
X33625941Y11527743D02*
X33483084Y11599172D01*
X33483084Y11599172D02*
X33197370Y11599172D01*
X33197370Y11599172D02*
X33054512Y11527743D01*
X33697370Y10670600D02*
X33554512Y10599172D01*
X33554512Y10599172D02*
X33197370Y10599172D01*
X33197370Y10599172D02*
X33054512Y10670600D01*
X33054512Y10670600D02*
X32983084Y10813458D01*
X32983084Y10813458D02*
X32983084Y10956315D01*
X32983084Y10956315D02*
X33054512Y11099172D01*
X33054512Y11099172D02*
X33197370Y11170600D01*
X33197370Y11170600D02*
X33554512Y11170600D01*
X33554512Y11170600D02*
X33697370Y11242029D01*
X35054513Y10670600D02*
X34911655Y10599172D01*
X34911655Y10599172D02*
X34625941Y10599172D01*
X34625941Y10599172D02*
X34483084Y10670600D01*
X34483084Y10670600D02*
X34411655Y10742029D01*
X34411655Y10742029D02*
X34340227Y10884886D01*
X34340227Y10884886D02*
X34340227Y11313458D01*
X34340227Y11313458D02*
X34411655Y11456315D01*
X34411655Y11456315D02*
X34483084Y11527743D01*
X34483084Y11527743D02*
X34625941Y11599172D01*
X34625941Y11599172D02*
X34911655Y11599172D01*
X34911655Y11599172D02*
X35054513Y11527743D01*
X35697369Y10599172D02*
X35697369Y11599172D01*
X35697369Y12099172D02*
X35625941Y12027743D01*
X35625941Y12027743D02*
X35697369Y11956315D01*
X35697369Y11956315D02*
X35768798Y12027743D01*
X35768798Y12027743D02*
X35697369Y12099172D01*
X35697369Y12099172D02*
X35697369Y11956315D01*
X36411655Y11599172D02*
X36411655Y10599172D01*
X36411655Y11456315D02*
X36483084Y11527743D01*
X36483084Y11527743D02*
X36625941Y11599172D01*
X36625941Y11599172D02*
X36840227Y11599172D01*
X36840227Y11599172D02*
X36983084Y11527743D01*
X36983084Y11527743D02*
X37054513Y11384886D01*
X37054513Y11384886D02*
X37054513Y10599172D01*
X38411656Y11599172D02*
X38411656Y10384886D01*
X38411656Y10384886D02*
X38340227Y10242029D01*
X38340227Y10242029D02*
X38268798Y10170600D01*
X38268798Y10170600D02*
X38125941Y10099172D01*
X38125941Y10099172D02*
X37911656Y10099172D01*
X37911656Y10099172D02*
X37768798Y10170600D01*
X38411656Y10670600D02*
X38268798Y10599172D01*
X38268798Y10599172D02*
X37983084Y10599172D01*
X37983084Y10599172D02*
X37840227Y10670600D01*
X37840227Y10670600D02*
X37768798Y10742029D01*
X37768798Y10742029D02*
X37697370Y10884886D01*
X37697370Y10884886D02*
X37697370Y11313458D01*
X37697370Y11313458D02*
X37768798Y11456315D01*
X37768798Y11456315D02*
X37840227Y11527743D01*
X37840227Y11527743D02*
X37983084Y11599172D01*
X37983084Y11599172D02*
X38268798Y11599172D01*
X38268798Y11599172D02*
X38411656Y11527743D01*
X39983084Y10742029D02*
X39911656Y10670600D01*
X39911656Y10670600D02*
X39697370Y10599172D01*
X39697370Y10599172D02*
X39554513Y10599172D01*
X39554513Y10599172D02*
X39340227Y10670600D01*
X39340227Y10670600D02*
X39197370Y10813458D01*
X39197370Y10813458D02*
X39125941Y10956315D01*
X39125941Y10956315D02*
X39054513Y11242029D01*
X39054513Y11242029D02*
X39054513Y11456315D01*
X39054513Y11456315D02*
X39125941Y11742029D01*
X39125941Y11742029D02*
X39197370Y11884886D01*
X39197370Y11884886D02*
X39340227Y12027743D01*
X39340227Y12027743D02*
X39554513Y12099172D01*
X39554513Y12099172D02*
X39697370Y12099172D01*
X39697370Y12099172D02*
X39911656Y12027743D01*
X39911656Y12027743D02*
X39983084Y11956315D01*
X40840227Y10599172D02*
X40697370Y10670600D01*
X40697370Y10670600D02*
X40625941Y10742029D01*
X40625941Y10742029D02*
X40554513Y10884886D01*
X40554513Y10884886D02*
X40554513Y11313458D01*
X40554513Y11313458D02*
X40625941Y11456315D01*
X40625941Y11456315D02*
X40697370Y11527743D01*
X40697370Y11527743D02*
X40840227Y11599172D01*
X40840227Y11599172D02*
X41054513Y11599172D01*
X41054513Y11599172D02*
X41197370Y11527743D01*
X41197370Y11527743D02*
X41268799Y11456315D01*
X41268799Y11456315D02*
X41340227Y11313458D01*
X41340227Y11313458D02*
X41340227Y10884886D01*
X41340227Y10884886D02*
X41268799Y10742029D01*
X41268799Y10742029D02*
X41197370Y10670600D01*
X41197370Y10670600D02*
X41054513Y10599172D01*
X41054513Y10599172D02*
X40840227Y10599172D01*
X41983084Y10599172D02*
X41983084Y11599172D01*
X41983084Y11313458D02*
X42054513Y11456315D01*
X42054513Y11456315D02*
X42125942Y11527743D01*
X42125942Y11527743D02*
X42268799Y11599172D01*
X42268799Y11599172D02*
X42411656Y11599172D01*
X43483084Y10670600D02*
X43340227Y10599172D01*
X43340227Y10599172D02*
X43054513Y10599172D01*
X43054513Y10599172D02*
X42911655Y10670600D01*
X42911655Y10670600D02*
X42840227Y10813458D01*
X42840227Y10813458D02*
X42840227Y11384886D01*
X42840227Y11384886D02*
X42911655Y11527743D01*
X42911655Y11527743D02*
X43054513Y11599172D01*
X43054513Y11599172D02*
X43340227Y11599172D01*
X43340227Y11599172D02*
X43483084Y11527743D01*
X43483084Y11527743D02*
X43554513Y11384886D01*
X43554513Y11384886D02*
X43554513Y11242029D01*
X43554513Y11242029D02*
X42840227Y11099172D01*
D11*
X1222381Y15545181D02*
X1222381Y14830896D01*
X1222381Y14830896D02*
X1174762Y14688039D01*
X1174762Y14688039D02*
X1079524Y14592800D01*
X1079524Y14592800D02*
X936667Y14545181D01*
X936667Y14545181D02*
X841429Y14545181D01*
X2222381Y14545181D02*
X1650953Y14545181D01*
X1936667Y14545181D02*
X1936667Y15545181D01*
X1936667Y15545181D02*
X1841429Y15402324D01*
X1841429Y15402324D02*
X1746191Y15307086D01*
X1746191Y15307086D02*
X1650953Y15259467D01*
X2650953Y14640420D02*
X2698572Y14592800D01*
X2698572Y14592800D02*
X2650953Y14545181D01*
X2650953Y14545181D02*
X2603334Y14592800D01*
X2603334Y14592800D02*
X2650953Y14640420D01*
X2650953Y14640420D02*
X2650953Y14545181D01*
X3079524Y15449943D02*
X3127143Y15497562D01*
X3127143Y15497562D02*
X3222381Y15545181D01*
X3222381Y15545181D02*
X3460476Y15545181D01*
X3460476Y15545181D02*
X3555714Y15497562D01*
X3555714Y15497562D02*
X3603333Y15449943D01*
X3603333Y15449943D02*
X3650952Y15354705D01*
X3650952Y15354705D02*
X3650952Y15259467D01*
X3650952Y15259467D02*
X3603333Y15116610D01*
X3603333Y15116610D02*
X3031905Y14545181D01*
X3031905Y14545181D02*
X3650952Y14545181D01*
X40560476Y14630896D02*
X41036666Y14630896D01*
X40465238Y14345181D02*
X40798571Y15345181D01*
X40798571Y15345181D02*
X41131904Y14345181D01*
X41465238Y15011848D02*
X41465238Y14345181D01*
X41465238Y14916610D02*
X41512857Y14964229D01*
X41512857Y14964229D02*
X41608095Y15011848D01*
X41608095Y15011848D02*
X41750952Y15011848D01*
X41750952Y15011848D02*
X41846190Y14964229D01*
X41846190Y14964229D02*
X41893809Y14868991D01*
X41893809Y14868991D02*
X41893809Y14345181D01*
X42798571Y14345181D02*
X42798571Y14868991D01*
X42798571Y14868991D02*
X42750952Y14964229D01*
X42750952Y14964229D02*
X42655714Y15011848D01*
X42655714Y15011848D02*
X42465238Y15011848D01*
X42465238Y15011848D02*
X42370000Y14964229D01*
X42798571Y14392800D02*
X42703333Y14345181D01*
X42703333Y14345181D02*
X42465238Y14345181D01*
X42465238Y14345181D02*
X42370000Y14392800D01*
X42370000Y14392800D02*
X42322381Y14488039D01*
X42322381Y14488039D02*
X42322381Y14583277D01*
X42322381Y14583277D02*
X42370000Y14678515D01*
X42370000Y14678515D02*
X42465238Y14726134D01*
X42465238Y14726134D02*
X42703333Y14726134D01*
X42703333Y14726134D02*
X42798571Y14773753D01*
X43417619Y14345181D02*
X43322381Y14392800D01*
X43322381Y14392800D02*
X43274762Y14488039D01*
X43274762Y14488039D02*
X43274762Y15345181D01*
X43941429Y14345181D02*
X43846191Y14392800D01*
X43846191Y14392800D02*
X43798572Y14440420D01*
X43798572Y14440420D02*
X43750953Y14535658D01*
X43750953Y14535658D02*
X43750953Y14821372D01*
X43750953Y14821372D02*
X43798572Y14916610D01*
X43798572Y14916610D02*
X43846191Y14964229D01*
X43846191Y14964229D02*
X43941429Y15011848D01*
X43941429Y15011848D02*
X44084286Y15011848D01*
X44084286Y15011848D02*
X44179524Y14964229D01*
X44179524Y14964229D02*
X44227143Y14916610D01*
X44227143Y14916610D02*
X44274762Y14821372D01*
X44274762Y14821372D02*
X44274762Y14535658D01*
X44274762Y14535658D02*
X44227143Y14440420D01*
X44227143Y14440420D02*
X44179524Y14392800D01*
X44179524Y14392800D02*
X44084286Y14345181D01*
X44084286Y14345181D02*
X43941429Y14345181D01*
X45131905Y15011848D02*
X45131905Y14202324D01*
X45131905Y14202324D02*
X45084286Y14107086D01*
X45084286Y14107086D02*
X45036667Y14059467D01*
X45036667Y14059467D02*
X44941429Y14011848D01*
X44941429Y14011848D02*
X44798572Y14011848D01*
X44798572Y14011848D02*
X44703334Y14059467D01*
X45131905Y14392800D02*
X45036667Y14345181D01*
X45036667Y14345181D02*
X44846191Y14345181D01*
X44846191Y14345181D02*
X44750953Y14392800D01*
X44750953Y14392800D02*
X44703334Y14440420D01*
X44703334Y14440420D02*
X44655715Y14535658D01*
X44655715Y14535658D02*
X44655715Y14821372D01*
X44655715Y14821372D02*
X44703334Y14916610D01*
X44703334Y14916610D02*
X44750953Y14964229D01*
X44750953Y14964229D02*
X44846191Y15011848D01*
X44846191Y15011848D02*
X45036667Y15011848D01*
X45036667Y15011848D02*
X45131905Y14964229D01*
X1222381Y7945181D02*
X1222381Y7230896D01*
X1222381Y7230896D02*
X1174762Y7088039D01*
X1174762Y7088039D02*
X1079524Y6992800D01*
X1079524Y6992800D02*
X936667Y6945181D01*
X936667Y6945181D02*
X841429Y6945181D01*
X2222381Y6945181D02*
X1650953Y6945181D01*
X1936667Y6945181D02*
X1936667Y7945181D01*
X1936667Y7945181D02*
X1841429Y7802324D01*
X1841429Y7802324D02*
X1746191Y7707086D01*
X1746191Y7707086D02*
X1650953Y7659467D01*
X2650953Y7040420D02*
X2698572Y6992800D01*
X2698572Y6992800D02*
X2650953Y6945181D01*
X2650953Y6945181D02*
X2603334Y6992800D01*
X2603334Y6992800D02*
X2650953Y7040420D01*
X2650953Y7040420D02*
X2650953Y6945181D01*
X3650952Y6945181D02*
X3079524Y6945181D01*
X3365238Y6945181D02*
X3365238Y7945181D01*
X3365238Y7945181D02*
X3270000Y7802324D01*
X3270000Y7802324D02*
X3174762Y7707086D01*
X3174762Y7707086D02*
X3079524Y7659467D01*
X40579524Y7145181D02*
X40579524Y8145181D01*
X40579524Y8145181D02*
X40817619Y8145181D01*
X40817619Y8145181D02*
X40960476Y8097562D01*
X40960476Y8097562D02*
X41055714Y8002324D01*
X41055714Y8002324D02*
X41103333Y7907086D01*
X41103333Y7907086D02*
X41150952Y7716610D01*
X41150952Y7716610D02*
X41150952Y7573753D01*
X41150952Y7573753D02*
X41103333Y7383277D01*
X41103333Y7383277D02*
X41055714Y7288039D01*
X41055714Y7288039D02*
X40960476Y7192800D01*
X40960476Y7192800D02*
X40817619Y7145181D01*
X40817619Y7145181D02*
X40579524Y7145181D01*
X41579524Y7145181D02*
X41579524Y7811848D01*
X41579524Y8145181D02*
X41531905Y8097562D01*
X41531905Y8097562D02*
X41579524Y8049943D01*
X41579524Y8049943D02*
X41627143Y8097562D01*
X41627143Y8097562D02*
X41579524Y8145181D01*
X41579524Y8145181D02*
X41579524Y8049943D01*
X42484285Y7811848D02*
X42484285Y7002324D01*
X42484285Y7002324D02*
X42436666Y6907086D01*
X42436666Y6907086D02*
X42389047Y6859467D01*
X42389047Y6859467D02*
X42293809Y6811848D01*
X42293809Y6811848D02*
X42150952Y6811848D01*
X42150952Y6811848D02*
X42055714Y6859467D01*
X42484285Y7192800D02*
X42389047Y7145181D01*
X42389047Y7145181D02*
X42198571Y7145181D01*
X42198571Y7145181D02*
X42103333Y7192800D01*
X42103333Y7192800D02*
X42055714Y7240420D01*
X42055714Y7240420D02*
X42008095Y7335658D01*
X42008095Y7335658D02*
X42008095Y7621372D01*
X42008095Y7621372D02*
X42055714Y7716610D01*
X42055714Y7716610D02*
X42103333Y7764229D01*
X42103333Y7764229D02*
X42198571Y7811848D01*
X42198571Y7811848D02*
X42389047Y7811848D01*
X42389047Y7811848D02*
X42484285Y7764229D01*
X42960476Y7145181D02*
X42960476Y7811848D01*
X42960476Y8145181D02*
X42912857Y8097562D01*
X42912857Y8097562D02*
X42960476Y8049943D01*
X42960476Y8049943D02*
X43008095Y8097562D01*
X43008095Y8097562D02*
X42960476Y8145181D01*
X42960476Y8145181D02*
X42960476Y8049943D01*
X43293809Y7811848D02*
X43674761Y7811848D01*
X43436666Y8145181D02*
X43436666Y7288039D01*
X43436666Y7288039D02*
X43484285Y7192800D01*
X43484285Y7192800D02*
X43579523Y7145181D01*
X43579523Y7145181D02*
X43674761Y7145181D01*
X44436666Y7145181D02*
X44436666Y7668991D01*
X44436666Y7668991D02*
X44389047Y7764229D01*
X44389047Y7764229D02*
X44293809Y7811848D01*
X44293809Y7811848D02*
X44103333Y7811848D01*
X44103333Y7811848D02*
X44008095Y7764229D01*
X44436666Y7192800D02*
X44341428Y7145181D01*
X44341428Y7145181D02*
X44103333Y7145181D01*
X44103333Y7145181D02*
X44008095Y7192800D01*
X44008095Y7192800D02*
X43960476Y7288039D01*
X43960476Y7288039D02*
X43960476Y7383277D01*
X43960476Y7383277D02*
X44008095Y7478515D01*
X44008095Y7478515D02*
X44103333Y7526134D01*
X44103333Y7526134D02*
X44341428Y7526134D01*
X44341428Y7526134D02*
X44436666Y7573753D01*
X45055714Y7145181D02*
X44960476Y7192800D01*
X44960476Y7192800D02*
X44912857Y7288039D01*
X44912857Y7288039D02*
X44912857Y8145181D01*
X47866666Y3345181D02*
X47866666Y2630896D01*
X47866666Y2630896D02*
X47819047Y2488039D01*
X47819047Y2488039D02*
X47723809Y2392800D01*
X47723809Y2392800D02*
X47580952Y2345181D01*
X47580952Y2345181D02*
X47485714Y2345181D01*
X48771428Y3345181D02*
X48580952Y3345181D01*
X48580952Y3345181D02*
X48485714Y3297562D01*
X48485714Y3297562D02*
X48438095Y3249943D01*
X48438095Y3249943D02*
X48342857Y3107086D01*
X48342857Y3107086D02*
X48295238Y2916610D01*
X48295238Y2916610D02*
X48295238Y2535658D01*
X48295238Y2535658D02*
X48342857Y2440420D01*
X48342857Y2440420D02*
X48390476Y2392800D01*
X48390476Y2392800D02*
X48485714Y2345181D01*
X48485714Y2345181D02*
X48676190Y2345181D01*
X48676190Y2345181D02*
X48771428Y2392800D01*
X48771428Y2392800D02*
X48819047Y2440420D01*
X48819047Y2440420D02*
X48866666Y2535658D01*
X48866666Y2535658D02*
X48866666Y2773753D01*
X48866666Y2773753D02*
X48819047Y2868991D01*
X48819047Y2868991D02*
X48771428Y2916610D01*
X48771428Y2916610D02*
X48676190Y2964229D01*
X48676190Y2964229D02*
X48485714Y2964229D01*
X48485714Y2964229D02*
X48390476Y2916610D01*
X48390476Y2916610D02*
X48342857Y2868991D01*
X48342857Y2868991D02*
X48295238Y2773753D01*
X65576190Y2945181D02*
X65242857Y3421372D01*
X65004762Y2945181D02*
X65004762Y3945181D01*
X65004762Y3945181D02*
X65385714Y3945181D01*
X65385714Y3945181D02*
X65480952Y3897562D01*
X65480952Y3897562D02*
X65528571Y3849943D01*
X65528571Y3849943D02*
X65576190Y3754705D01*
X65576190Y3754705D02*
X65576190Y3611848D01*
X65576190Y3611848D02*
X65528571Y3516610D01*
X65528571Y3516610D02*
X65480952Y3468991D01*
X65480952Y3468991D02*
X65385714Y3421372D01*
X65385714Y3421372D02*
X65004762Y3421372D01*
X66290476Y3945181D02*
X66290476Y3230896D01*
X66290476Y3230896D02*
X66242857Y3088039D01*
X66242857Y3088039D02*
X66147619Y2992800D01*
X66147619Y2992800D02*
X66004762Y2945181D01*
X66004762Y2945181D02*
X65909524Y2945181D01*
X67195238Y3611848D02*
X67195238Y2945181D01*
X66957143Y3992800D02*
X66719048Y3278515D01*
X66719048Y3278515D02*
X67338095Y3278515D01*
X68195238Y3945181D02*
X67719048Y3945181D01*
X67719048Y3945181D02*
X67671429Y3468991D01*
X67671429Y3468991D02*
X67719048Y3516610D01*
X67719048Y3516610D02*
X67814286Y3564229D01*
X67814286Y3564229D02*
X68052381Y3564229D01*
X68052381Y3564229D02*
X68147619Y3516610D01*
X68147619Y3516610D02*
X68195238Y3468991D01*
X68195238Y3468991D02*
X68242857Y3373753D01*
X68242857Y3373753D02*
X68242857Y3135658D01*
X68242857Y3135658D02*
X68195238Y3040420D01*
X68195238Y3040420D02*
X68147619Y2992800D01*
X68147619Y2992800D02*
X68052381Y2945181D01*
X68052381Y2945181D02*
X67814286Y2945181D01*
X67814286Y2945181D02*
X67719048Y2992800D01*
X67719048Y2992800D02*
X67671429Y3040420D01*
X2623333Y22605181D02*
X2290000Y23081372D01*
X2051905Y22605181D02*
X2051905Y23605181D01*
X2051905Y23605181D02*
X2432857Y23605181D01*
X2432857Y23605181D02*
X2528095Y23557562D01*
X2528095Y23557562D02*
X2575714Y23509943D01*
X2575714Y23509943D02*
X2623333Y23414705D01*
X2623333Y23414705D02*
X2623333Y23271848D01*
X2623333Y23271848D02*
X2575714Y23176610D01*
X2575714Y23176610D02*
X2528095Y23128991D01*
X2528095Y23128991D02*
X2432857Y23081372D01*
X2432857Y23081372D02*
X2051905Y23081372D01*
X3004286Y23509943D02*
X3051905Y23557562D01*
X3051905Y23557562D02*
X3147143Y23605181D01*
X3147143Y23605181D02*
X3385238Y23605181D01*
X3385238Y23605181D02*
X3480476Y23557562D01*
X3480476Y23557562D02*
X3528095Y23509943D01*
X3528095Y23509943D02*
X3575714Y23414705D01*
X3575714Y23414705D02*
X3575714Y23319467D01*
X3575714Y23319467D02*
X3528095Y23176610D01*
X3528095Y23176610D02*
X2956667Y22605181D01*
X2956667Y22605181D02*
X3575714Y22605181D01*
X2670952Y28105181D02*
X2099524Y28105181D01*
X2385238Y28105181D02*
X2385238Y29105181D01*
X2385238Y29105181D02*
X2290000Y28962324D01*
X2290000Y28962324D02*
X2194762Y28867086D01*
X2194762Y28867086D02*
X2099524Y28819467D01*
X3099524Y28105181D02*
X3099524Y29105181D01*
X3194762Y28486134D02*
X3480476Y28105181D01*
X3480476Y28771848D02*
X3099524Y28390896D01*
X15826666Y26210181D02*
X15826666Y25495896D01*
X15826666Y25495896D02*
X15779047Y25353039D01*
X15779047Y25353039D02*
X15683809Y25257800D01*
X15683809Y25257800D02*
X15540952Y25210181D01*
X15540952Y25210181D02*
X15445714Y25210181D01*
X16255238Y26114943D02*
X16302857Y26162562D01*
X16302857Y26162562D02*
X16398095Y26210181D01*
X16398095Y26210181D02*
X16636190Y26210181D01*
X16636190Y26210181D02*
X16731428Y26162562D01*
X16731428Y26162562D02*
X16779047Y26114943D01*
X16779047Y26114943D02*
X16826666Y26019705D01*
X16826666Y26019705D02*
X16826666Y25924467D01*
X16826666Y25924467D02*
X16779047Y25781610D01*
X16779047Y25781610D02*
X16207619Y25210181D01*
X16207619Y25210181D02*
X16826666Y25210181D01*
X6874819Y21974524D02*
X5874819Y21974524D01*
X6351009Y21974524D02*
X6351009Y22545952D01*
X6874819Y22545952D02*
X5874819Y22545952D01*
X6874819Y23450714D02*
X6351009Y23450714D01*
X6351009Y23450714D02*
X6255771Y23403095D01*
X6255771Y23403095D02*
X6208152Y23307857D01*
X6208152Y23307857D02*
X6208152Y23117381D01*
X6208152Y23117381D02*
X6255771Y23022143D01*
X6827200Y23450714D02*
X6874819Y23355476D01*
X6874819Y23355476D02*
X6874819Y23117381D01*
X6874819Y23117381D02*
X6827200Y23022143D01*
X6827200Y23022143D02*
X6731961Y22974524D01*
X6731961Y22974524D02*
X6636723Y22974524D01*
X6636723Y22974524D02*
X6541485Y23022143D01*
X6541485Y23022143D02*
X6493866Y23117381D01*
X6493866Y23117381D02*
X6493866Y23355476D01*
X6493866Y23355476D02*
X6446247Y23450714D01*
X6208152Y23926905D02*
X6874819Y23926905D01*
X6303390Y23926905D02*
X6255771Y23974524D01*
X6255771Y23974524D02*
X6208152Y24069762D01*
X6208152Y24069762D02*
X6208152Y24212619D01*
X6208152Y24212619D02*
X6255771Y24307857D01*
X6255771Y24307857D02*
X6351009Y24355476D01*
X6351009Y24355476D02*
X6874819Y24355476D01*
X6874819Y25260238D02*
X5874819Y25260238D01*
X6827200Y25260238D02*
X6874819Y25165000D01*
X6874819Y25165000D02*
X6874819Y24974524D01*
X6874819Y24974524D02*
X6827200Y24879286D01*
X6827200Y24879286D02*
X6779580Y24831667D01*
X6779580Y24831667D02*
X6684342Y24784048D01*
X6684342Y24784048D02*
X6398628Y24784048D01*
X6398628Y24784048D02*
X6303390Y24831667D01*
X6303390Y24831667D02*
X6255771Y24879286D01*
X6255771Y24879286D02*
X6208152Y24974524D01*
X6208152Y24974524D02*
X6208152Y25165000D01*
X6208152Y25165000D02*
X6255771Y25260238D01*
X6874819Y25736429D02*
X5874819Y25736429D01*
X6255771Y25736429D02*
X6208152Y25831667D01*
X6208152Y25831667D02*
X6208152Y26022143D01*
X6208152Y26022143D02*
X6255771Y26117381D01*
X6255771Y26117381D02*
X6303390Y26165000D01*
X6303390Y26165000D02*
X6398628Y26212619D01*
X6398628Y26212619D02*
X6684342Y26212619D01*
X6684342Y26212619D02*
X6779580Y26165000D01*
X6779580Y26165000D02*
X6827200Y26117381D01*
X6827200Y26117381D02*
X6874819Y26022143D01*
X6874819Y26022143D02*
X6874819Y25831667D01*
X6874819Y25831667D02*
X6827200Y25736429D01*
X6874819Y26641191D02*
X6208152Y26641191D01*
X6398628Y26641191D02*
X6303390Y26688810D01*
X6303390Y26688810D02*
X6255771Y26736429D01*
X6255771Y26736429D02*
X6208152Y26831667D01*
X6208152Y26831667D02*
X6208152Y26926905D01*
X6874819Y27688810D02*
X6351009Y27688810D01*
X6351009Y27688810D02*
X6255771Y27641191D01*
X6255771Y27641191D02*
X6208152Y27545953D01*
X6208152Y27545953D02*
X6208152Y27355477D01*
X6208152Y27355477D02*
X6255771Y27260239D01*
X6827200Y27688810D02*
X6874819Y27593572D01*
X6874819Y27593572D02*
X6874819Y27355477D01*
X6874819Y27355477D02*
X6827200Y27260239D01*
X6827200Y27260239D02*
X6731961Y27212620D01*
X6731961Y27212620D02*
X6636723Y27212620D01*
X6636723Y27212620D02*
X6541485Y27260239D01*
X6541485Y27260239D02*
X6493866Y27355477D01*
X6493866Y27355477D02*
X6493866Y27593572D01*
X6493866Y27593572D02*
X6446247Y27688810D01*
X6874819Y28165001D02*
X5874819Y28165001D01*
X6493866Y28260239D02*
X6874819Y28545953D01*
X6208152Y28545953D02*
X6589104Y28165001D01*
X6827200Y29355477D02*
X6874819Y29260239D01*
X6874819Y29260239D02*
X6874819Y29069763D01*
X6874819Y29069763D02*
X6827200Y28974525D01*
X6827200Y28974525D02*
X6731961Y28926906D01*
X6731961Y28926906D02*
X6351009Y28926906D01*
X6351009Y28926906D02*
X6255771Y28974525D01*
X6255771Y28974525D02*
X6208152Y29069763D01*
X6208152Y29069763D02*
X6208152Y29260239D01*
X6208152Y29260239D02*
X6255771Y29355477D01*
X6255771Y29355477D02*
X6351009Y29403096D01*
X6351009Y29403096D02*
X6446247Y29403096D01*
X6446247Y29403096D02*
X6541485Y28926906D01*
X15866666Y33700181D02*
X15866666Y32985896D01*
X15866666Y32985896D02*
X15819047Y32843039D01*
X15819047Y32843039D02*
X15723809Y32747800D01*
X15723809Y32747800D02*
X15580952Y32700181D01*
X15580952Y32700181D02*
X15485714Y32700181D01*
X16247619Y33700181D02*
X16866666Y33700181D01*
X16866666Y33700181D02*
X16533333Y33319229D01*
X16533333Y33319229D02*
X16676190Y33319229D01*
X16676190Y33319229D02*
X16771428Y33271610D01*
X16771428Y33271610D02*
X16819047Y33223991D01*
X16819047Y33223991D02*
X16866666Y33128753D01*
X16866666Y33128753D02*
X16866666Y32890658D01*
X16866666Y32890658D02*
X16819047Y32795420D01*
X16819047Y32795420D02*
X16771428Y32747800D01*
X16771428Y32747800D02*
X16676190Y32700181D01*
X16676190Y32700181D02*
X16390476Y32700181D01*
X16390476Y32700181D02*
X16295238Y32747800D01*
X16295238Y32747800D02*
X16247619Y32795420D01*
X1311009Y30416905D02*
X1311009Y30750238D01*
X1834819Y30893095D02*
X1834819Y30416905D01*
X1834819Y30416905D02*
X834819Y30416905D01*
X834819Y30416905D02*
X834819Y30893095D01*
X1168152Y31321667D02*
X1834819Y31321667D01*
X1263390Y31321667D02*
X1215771Y31369286D01*
X1215771Y31369286D02*
X1168152Y31464524D01*
X1168152Y31464524D02*
X1168152Y31607381D01*
X1168152Y31607381D02*
X1215771Y31702619D01*
X1215771Y31702619D02*
X1311009Y31750238D01*
X1311009Y31750238D02*
X1834819Y31750238D01*
X1787200Y32655000D02*
X1834819Y32559762D01*
X1834819Y32559762D02*
X1834819Y32369286D01*
X1834819Y32369286D02*
X1787200Y32274048D01*
X1787200Y32274048D02*
X1739580Y32226429D01*
X1739580Y32226429D02*
X1644342Y32178810D01*
X1644342Y32178810D02*
X1358628Y32178810D01*
X1358628Y32178810D02*
X1263390Y32226429D01*
X1263390Y32226429D02*
X1215771Y32274048D01*
X1215771Y32274048D02*
X1168152Y32369286D01*
X1168152Y32369286D02*
X1168152Y32559762D01*
X1168152Y32559762D02*
X1215771Y32655000D01*
X1834819Y33226429D02*
X1787200Y33131191D01*
X1787200Y33131191D02*
X1739580Y33083572D01*
X1739580Y33083572D02*
X1644342Y33035953D01*
X1644342Y33035953D02*
X1358628Y33035953D01*
X1358628Y33035953D02*
X1263390Y33083572D01*
X1263390Y33083572D02*
X1215771Y33131191D01*
X1215771Y33131191D02*
X1168152Y33226429D01*
X1168152Y33226429D02*
X1168152Y33369286D01*
X1168152Y33369286D02*
X1215771Y33464524D01*
X1215771Y33464524D02*
X1263390Y33512143D01*
X1263390Y33512143D02*
X1358628Y33559762D01*
X1358628Y33559762D02*
X1644342Y33559762D01*
X1644342Y33559762D02*
X1739580Y33512143D01*
X1739580Y33512143D02*
X1787200Y33464524D01*
X1787200Y33464524D02*
X1834819Y33369286D01*
X1834819Y33369286D02*
X1834819Y33226429D01*
X1834819Y34416905D02*
X834819Y34416905D01*
X1787200Y34416905D02*
X1834819Y34321667D01*
X1834819Y34321667D02*
X1834819Y34131191D01*
X1834819Y34131191D02*
X1787200Y34035953D01*
X1787200Y34035953D02*
X1739580Y33988334D01*
X1739580Y33988334D02*
X1644342Y33940715D01*
X1644342Y33940715D02*
X1358628Y33940715D01*
X1358628Y33940715D02*
X1263390Y33988334D01*
X1263390Y33988334D02*
X1215771Y34035953D01*
X1215771Y34035953D02*
X1168152Y34131191D01*
X1168152Y34131191D02*
X1168152Y34321667D01*
X1168152Y34321667D02*
X1215771Y34416905D01*
X1787200Y35274048D02*
X1834819Y35178810D01*
X1834819Y35178810D02*
X1834819Y34988334D01*
X1834819Y34988334D02*
X1787200Y34893096D01*
X1787200Y34893096D02*
X1691961Y34845477D01*
X1691961Y34845477D02*
X1311009Y34845477D01*
X1311009Y34845477D02*
X1215771Y34893096D01*
X1215771Y34893096D02*
X1168152Y34988334D01*
X1168152Y34988334D02*
X1168152Y35178810D01*
X1168152Y35178810D02*
X1215771Y35274048D01*
X1215771Y35274048D02*
X1311009Y35321667D01*
X1311009Y35321667D02*
X1406247Y35321667D01*
X1406247Y35321667D02*
X1501485Y34845477D01*
X1834819Y35750239D02*
X1168152Y35750239D01*
X1358628Y35750239D02*
X1263390Y35797858D01*
X1263390Y35797858D02*
X1215771Y35845477D01*
X1215771Y35845477D02*
X1168152Y35940715D01*
X1168152Y35940715D02*
X1168152Y36035953D01*
X59798095Y42145181D02*
X59798095Y41430896D01*
X59798095Y41430896D02*
X59750476Y41288039D01*
X59750476Y41288039D02*
X59655238Y41192800D01*
X59655238Y41192800D02*
X59512381Y41145181D01*
X59512381Y41145181D02*
X59417143Y41145181D01*
X60179048Y42145181D02*
X60845714Y42145181D01*
X60845714Y42145181D02*
X60417143Y41145181D01*
X61226667Y41240420D02*
X61274286Y41192800D01*
X61274286Y41192800D02*
X61226667Y41145181D01*
X61226667Y41145181D02*
X61179048Y41192800D01*
X61179048Y41192800D02*
X61226667Y41240420D01*
X61226667Y41240420D02*
X61226667Y41145181D01*
X62226666Y41145181D02*
X61655238Y41145181D01*
X61940952Y41145181D02*
X61940952Y42145181D01*
X61940952Y42145181D02*
X61845714Y42002324D01*
X61845714Y42002324D02*
X61750476Y41907086D01*
X61750476Y41907086D02*
X61655238Y41859467D01*
X62655238Y41240420D02*
X62702857Y41192800D01*
X62702857Y41192800D02*
X62655238Y41145181D01*
X62655238Y41145181D02*
X62607619Y41192800D01*
X62607619Y41192800D02*
X62655238Y41240420D01*
X62655238Y41240420D02*
X62655238Y41145181D01*
X63083809Y42049943D02*
X63131428Y42097562D01*
X63131428Y42097562D02*
X63226666Y42145181D01*
X63226666Y42145181D02*
X63464761Y42145181D01*
X63464761Y42145181D02*
X63559999Y42097562D01*
X63559999Y42097562D02*
X63607618Y42049943D01*
X63607618Y42049943D02*
X63655237Y41954705D01*
X63655237Y41954705D02*
X63655237Y41859467D01*
X63655237Y41859467D02*
X63607618Y41716610D01*
X63607618Y41716610D02*
X63036190Y41145181D01*
X63036190Y41145181D02*
X63655237Y41145181D01*
X52071904Y36795181D02*
X52071904Y37795181D01*
X52071904Y37795181D02*
X52452856Y37795181D01*
X52452856Y37795181D02*
X52548094Y37747562D01*
X52548094Y37747562D02*
X52595713Y37699943D01*
X52595713Y37699943D02*
X52643332Y37604705D01*
X52643332Y37604705D02*
X52643332Y37461848D01*
X52643332Y37461848D02*
X52595713Y37366610D01*
X52595713Y37366610D02*
X52548094Y37318991D01*
X52548094Y37318991D02*
X52452856Y37271372D01*
X52452856Y37271372D02*
X52071904Y37271372D01*
X53643332Y36890420D02*
X53595713Y36842800D01*
X53595713Y36842800D02*
X53452856Y36795181D01*
X53452856Y36795181D02*
X53357618Y36795181D01*
X53357618Y36795181D02*
X53214761Y36842800D01*
X53214761Y36842800D02*
X53119523Y36938039D01*
X53119523Y36938039D02*
X53071904Y37033277D01*
X53071904Y37033277D02*
X53024285Y37223753D01*
X53024285Y37223753D02*
X53024285Y37366610D01*
X53024285Y37366610D02*
X53071904Y37557086D01*
X53071904Y37557086D02*
X53119523Y37652324D01*
X53119523Y37652324D02*
X53214761Y37747562D01*
X53214761Y37747562D02*
X53357618Y37795181D01*
X53357618Y37795181D02*
X53452856Y37795181D01*
X53452856Y37795181D02*
X53595713Y37747562D01*
X53595713Y37747562D02*
X53643332Y37699943D01*
X54405237Y37318991D02*
X54071904Y37318991D01*
X54071904Y36795181D02*
X54071904Y37795181D01*
X54071904Y37795181D02*
X54548094Y37795181D01*
X55071904Y37366610D02*
X54976666Y37414229D01*
X54976666Y37414229D02*
X54929047Y37461848D01*
X54929047Y37461848D02*
X54881428Y37557086D01*
X54881428Y37557086D02*
X54881428Y37604705D01*
X54881428Y37604705D02*
X54929047Y37699943D01*
X54929047Y37699943D02*
X54976666Y37747562D01*
X54976666Y37747562D02*
X55071904Y37795181D01*
X55071904Y37795181D02*
X55262380Y37795181D01*
X55262380Y37795181D02*
X55357618Y37747562D01*
X55357618Y37747562D02*
X55405237Y37699943D01*
X55405237Y37699943D02*
X55452856Y37604705D01*
X55452856Y37604705D02*
X55452856Y37557086D01*
X55452856Y37557086D02*
X55405237Y37461848D01*
X55405237Y37461848D02*
X55357618Y37414229D01*
X55357618Y37414229D02*
X55262380Y37366610D01*
X55262380Y37366610D02*
X55071904Y37366610D01*
X55071904Y37366610D02*
X54976666Y37318991D01*
X54976666Y37318991D02*
X54929047Y37271372D01*
X54929047Y37271372D02*
X54881428Y37176134D01*
X54881428Y37176134D02*
X54881428Y36985658D01*
X54881428Y36985658D02*
X54929047Y36890420D01*
X54929047Y36890420D02*
X54976666Y36842800D01*
X54976666Y36842800D02*
X55071904Y36795181D01*
X55071904Y36795181D02*
X55262380Y36795181D01*
X55262380Y36795181D02*
X55357618Y36842800D01*
X55357618Y36842800D02*
X55405237Y36890420D01*
X55405237Y36890420D02*
X55452856Y36985658D01*
X55452856Y36985658D02*
X55452856Y37176134D01*
X55452856Y37176134D02*
X55405237Y37271372D01*
X55405237Y37271372D02*
X55357618Y37318991D01*
X55357618Y37318991D02*
X55262380Y37366610D01*
X56357618Y37795181D02*
X55881428Y37795181D01*
X55881428Y37795181D02*
X55833809Y37318991D01*
X55833809Y37318991D02*
X55881428Y37366610D01*
X55881428Y37366610D02*
X55976666Y37414229D01*
X55976666Y37414229D02*
X56214761Y37414229D01*
X56214761Y37414229D02*
X56309999Y37366610D01*
X56309999Y37366610D02*
X56357618Y37318991D01*
X56357618Y37318991D02*
X56405237Y37223753D01*
X56405237Y37223753D02*
X56405237Y36985658D01*
X56405237Y36985658D02*
X56357618Y36890420D01*
X56357618Y36890420D02*
X56309999Y36842800D01*
X56309999Y36842800D02*
X56214761Y36795181D01*
X56214761Y36795181D02*
X55976666Y36795181D01*
X55976666Y36795181D02*
X55881428Y36842800D01*
X55881428Y36842800D02*
X55833809Y36890420D01*
X56738571Y37795181D02*
X57405237Y37795181D01*
X57405237Y37795181D02*
X56976666Y36795181D01*
X58214761Y37461848D02*
X58214761Y36795181D01*
X57976666Y37842800D02*
X57738571Y37128515D01*
X57738571Y37128515D02*
X58357618Y37128515D01*
X59976666Y36795181D02*
X59500476Y36795181D01*
X59500476Y36795181D02*
X59500476Y37795181D01*
X60881428Y36890420D02*
X60833809Y36842800D01*
X60833809Y36842800D02*
X60690952Y36795181D01*
X60690952Y36795181D02*
X60595714Y36795181D01*
X60595714Y36795181D02*
X60452857Y36842800D01*
X60452857Y36842800D02*
X60357619Y36938039D01*
X60357619Y36938039D02*
X60310000Y37033277D01*
X60310000Y37033277D02*
X60262381Y37223753D01*
X60262381Y37223753D02*
X60262381Y37366610D01*
X60262381Y37366610D02*
X60310000Y37557086D01*
X60310000Y37557086D02*
X60357619Y37652324D01*
X60357619Y37652324D02*
X60452857Y37747562D01*
X60452857Y37747562D02*
X60595714Y37795181D01*
X60595714Y37795181D02*
X60690952Y37795181D01*
X60690952Y37795181D02*
X60833809Y37747562D01*
X60833809Y37747562D02*
X60881428Y37699943D01*
X61310000Y36795181D02*
X61310000Y37795181D01*
X61310000Y37795181D02*
X61548095Y37795181D01*
X61548095Y37795181D02*
X61690952Y37747562D01*
X61690952Y37747562D02*
X61786190Y37652324D01*
X61786190Y37652324D02*
X61833809Y37557086D01*
X61833809Y37557086D02*
X61881428Y37366610D01*
X61881428Y37366610D02*
X61881428Y37223753D01*
X61881428Y37223753D02*
X61833809Y37033277D01*
X61833809Y37033277D02*
X61786190Y36938039D01*
X61786190Y36938039D02*
X61690952Y36842800D01*
X61690952Y36842800D02*
X61548095Y36795181D01*
X61548095Y36795181D02*
X61310000Y36795181D01*
X63024286Y36842800D02*
X63167143Y36795181D01*
X63167143Y36795181D02*
X63405238Y36795181D01*
X63405238Y36795181D02*
X63500476Y36842800D01*
X63500476Y36842800D02*
X63548095Y36890420D01*
X63548095Y36890420D02*
X63595714Y36985658D01*
X63595714Y36985658D02*
X63595714Y37080896D01*
X63595714Y37080896D02*
X63548095Y37176134D01*
X63548095Y37176134D02*
X63500476Y37223753D01*
X63500476Y37223753D02*
X63405238Y37271372D01*
X63405238Y37271372D02*
X63214762Y37318991D01*
X63214762Y37318991D02*
X63119524Y37366610D01*
X63119524Y37366610D02*
X63071905Y37414229D01*
X63071905Y37414229D02*
X63024286Y37509467D01*
X63024286Y37509467D02*
X63024286Y37604705D01*
X63024286Y37604705D02*
X63071905Y37699943D01*
X63071905Y37699943D02*
X63119524Y37747562D01*
X63119524Y37747562D02*
X63214762Y37795181D01*
X63214762Y37795181D02*
X63452857Y37795181D01*
X63452857Y37795181D02*
X63595714Y37747562D01*
X64167143Y36795181D02*
X64071905Y36842800D01*
X64071905Y36842800D02*
X64024286Y36890420D01*
X64024286Y36890420D02*
X63976667Y36985658D01*
X63976667Y36985658D02*
X63976667Y37271372D01*
X63976667Y37271372D02*
X64024286Y37366610D01*
X64024286Y37366610D02*
X64071905Y37414229D01*
X64071905Y37414229D02*
X64167143Y37461848D01*
X64167143Y37461848D02*
X64310000Y37461848D01*
X64310000Y37461848D02*
X64405238Y37414229D01*
X64405238Y37414229D02*
X64452857Y37366610D01*
X64452857Y37366610D02*
X64500476Y37271372D01*
X64500476Y37271372D02*
X64500476Y36985658D01*
X64500476Y36985658D02*
X64452857Y36890420D01*
X64452857Y36890420D02*
X64405238Y36842800D01*
X64405238Y36842800D02*
X64310000Y36795181D01*
X64310000Y36795181D02*
X64167143Y36795181D01*
X65357619Y36842800D02*
X65262381Y36795181D01*
X65262381Y36795181D02*
X65071905Y36795181D01*
X65071905Y36795181D02*
X64976667Y36842800D01*
X64976667Y36842800D02*
X64929048Y36890420D01*
X64929048Y36890420D02*
X64881429Y36985658D01*
X64881429Y36985658D02*
X64881429Y37271372D01*
X64881429Y37271372D02*
X64929048Y37366610D01*
X64929048Y37366610D02*
X64976667Y37414229D01*
X64976667Y37414229D02*
X65071905Y37461848D01*
X65071905Y37461848D02*
X65262381Y37461848D01*
X65262381Y37461848D02*
X65357619Y37414229D01*
X66167143Y36842800D02*
X66071905Y36795181D01*
X66071905Y36795181D02*
X65881429Y36795181D01*
X65881429Y36795181D02*
X65786191Y36842800D01*
X65786191Y36842800D02*
X65738572Y36938039D01*
X65738572Y36938039D02*
X65738572Y37318991D01*
X65738572Y37318991D02*
X65786191Y37414229D01*
X65786191Y37414229D02*
X65881429Y37461848D01*
X65881429Y37461848D02*
X66071905Y37461848D01*
X66071905Y37461848D02*
X66167143Y37414229D01*
X66167143Y37414229D02*
X66214762Y37318991D01*
X66214762Y37318991D02*
X66214762Y37223753D01*
X66214762Y37223753D02*
X65738572Y37128515D01*
X66643334Y36795181D02*
X66643334Y37795181D01*
X66738572Y37176134D02*
X67024286Y36795181D01*
X67024286Y37461848D02*
X66643334Y37080896D01*
X67310001Y37461848D02*
X67690953Y37461848D01*
X67452858Y37795181D02*
X67452858Y36938039D01*
X67452858Y36938039D02*
X67500477Y36842800D01*
X67500477Y36842800D02*
X67595715Y36795181D01*
X67595715Y36795181D02*
X67690953Y36795181D01*
X59798095Y50395181D02*
X59798095Y49680896D01*
X59798095Y49680896D02*
X59750476Y49538039D01*
X59750476Y49538039D02*
X59655238Y49442800D01*
X59655238Y49442800D02*
X59512381Y49395181D01*
X59512381Y49395181D02*
X59417143Y49395181D01*
X60179048Y50395181D02*
X60845714Y50395181D01*
X60845714Y50395181D02*
X60417143Y49395181D01*
X61226667Y49490420D02*
X61274286Y49442800D01*
X61274286Y49442800D02*
X61226667Y49395181D01*
X61226667Y49395181D02*
X61179048Y49442800D01*
X61179048Y49442800D02*
X61226667Y49490420D01*
X61226667Y49490420D02*
X61226667Y49395181D01*
X62226666Y49395181D02*
X61655238Y49395181D01*
X61940952Y49395181D02*
X61940952Y50395181D01*
X61940952Y50395181D02*
X61845714Y50252324D01*
X61845714Y50252324D02*
X61750476Y50157086D01*
X61750476Y50157086D02*
X61655238Y50109467D01*
X62655238Y49490420D02*
X62702857Y49442800D01*
X62702857Y49442800D02*
X62655238Y49395181D01*
X62655238Y49395181D02*
X62607619Y49442800D01*
X62607619Y49442800D02*
X62655238Y49490420D01*
X62655238Y49490420D02*
X62655238Y49395181D01*
X63655237Y49395181D02*
X63083809Y49395181D01*
X63369523Y49395181D02*
X63369523Y50395181D01*
X63369523Y50395181D02*
X63274285Y50252324D01*
X63274285Y50252324D02*
X63179047Y50157086D01*
X63179047Y50157086D02*
X63083809Y50109467D01*
X60012380Y45295181D02*
X59536190Y45295181D01*
X59536190Y45295181D02*
X59536190Y46295181D01*
X60917142Y45390420D02*
X60869523Y45342800D01*
X60869523Y45342800D02*
X60726666Y45295181D01*
X60726666Y45295181D02*
X60631428Y45295181D01*
X60631428Y45295181D02*
X60488571Y45342800D01*
X60488571Y45342800D02*
X60393333Y45438039D01*
X60393333Y45438039D02*
X60345714Y45533277D01*
X60345714Y45533277D02*
X60298095Y45723753D01*
X60298095Y45723753D02*
X60298095Y45866610D01*
X60298095Y45866610D02*
X60345714Y46057086D01*
X60345714Y46057086D02*
X60393333Y46152324D01*
X60393333Y46152324D02*
X60488571Y46247562D01*
X60488571Y46247562D02*
X60631428Y46295181D01*
X60631428Y46295181D02*
X60726666Y46295181D01*
X60726666Y46295181D02*
X60869523Y46247562D01*
X60869523Y46247562D02*
X60917142Y46199943D01*
X61345714Y45295181D02*
X61345714Y46295181D01*
X61345714Y46295181D02*
X61583809Y46295181D01*
X61583809Y46295181D02*
X61726666Y46247562D01*
X61726666Y46247562D02*
X61821904Y46152324D01*
X61821904Y46152324D02*
X61869523Y46057086D01*
X61869523Y46057086D02*
X61917142Y45866610D01*
X61917142Y45866610D02*
X61917142Y45723753D01*
X61917142Y45723753D02*
X61869523Y45533277D01*
X61869523Y45533277D02*
X61821904Y45438039D01*
X61821904Y45438039D02*
X61726666Y45342800D01*
X61726666Y45342800D02*
X61583809Y45295181D01*
X61583809Y45295181D02*
X61345714Y45295181D01*
X63060000Y45342800D02*
X63202857Y45295181D01*
X63202857Y45295181D02*
X63440952Y45295181D01*
X63440952Y45295181D02*
X63536190Y45342800D01*
X63536190Y45342800D02*
X63583809Y45390420D01*
X63583809Y45390420D02*
X63631428Y45485658D01*
X63631428Y45485658D02*
X63631428Y45580896D01*
X63631428Y45580896D02*
X63583809Y45676134D01*
X63583809Y45676134D02*
X63536190Y45723753D01*
X63536190Y45723753D02*
X63440952Y45771372D01*
X63440952Y45771372D02*
X63250476Y45818991D01*
X63250476Y45818991D02*
X63155238Y45866610D01*
X63155238Y45866610D02*
X63107619Y45914229D01*
X63107619Y45914229D02*
X63060000Y46009467D01*
X63060000Y46009467D02*
X63060000Y46104705D01*
X63060000Y46104705D02*
X63107619Y46199943D01*
X63107619Y46199943D02*
X63155238Y46247562D01*
X63155238Y46247562D02*
X63250476Y46295181D01*
X63250476Y46295181D02*
X63488571Y46295181D01*
X63488571Y46295181D02*
X63631428Y46247562D01*
X64202857Y45295181D02*
X64107619Y45342800D01*
X64107619Y45342800D02*
X64060000Y45390420D01*
X64060000Y45390420D02*
X64012381Y45485658D01*
X64012381Y45485658D02*
X64012381Y45771372D01*
X64012381Y45771372D02*
X64060000Y45866610D01*
X64060000Y45866610D02*
X64107619Y45914229D01*
X64107619Y45914229D02*
X64202857Y45961848D01*
X64202857Y45961848D02*
X64345714Y45961848D01*
X64345714Y45961848D02*
X64440952Y45914229D01*
X64440952Y45914229D02*
X64488571Y45866610D01*
X64488571Y45866610D02*
X64536190Y45771372D01*
X64536190Y45771372D02*
X64536190Y45485658D01*
X64536190Y45485658D02*
X64488571Y45390420D01*
X64488571Y45390420D02*
X64440952Y45342800D01*
X64440952Y45342800D02*
X64345714Y45295181D01*
X64345714Y45295181D02*
X64202857Y45295181D01*
X65393333Y45342800D02*
X65298095Y45295181D01*
X65298095Y45295181D02*
X65107619Y45295181D01*
X65107619Y45295181D02*
X65012381Y45342800D01*
X65012381Y45342800D02*
X64964762Y45390420D01*
X64964762Y45390420D02*
X64917143Y45485658D01*
X64917143Y45485658D02*
X64917143Y45771372D01*
X64917143Y45771372D02*
X64964762Y45866610D01*
X64964762Y45866610D02*
X65012381Y45914229D01*
X65012381Y45914229D02*
X65107619Y45961848D01*
X65107619Y45961848D02*
X65298095Y45961848D01*
X65298095Y45961848D02*
X65393333Y45914229D01*
X65821905Y45295181D02*
X65821905Y46295181D01*
X65917143Y45676134D02*
X66202857Y45295181D01*
X66202857Y45961848D02*
X65821905Y45580896D01*
X67012381Y45342800D02*
X66917143Y45295181D01*
X66917143Y45295181D02*
X66726667Y45295181D01*
X66726667Y45295181D02*
X66631429Y45342800D01*
X66631429Y45342800D02*
X66583810Y45438039D01*
X66583810Y45438039D02*
X66583810Y45818991D01*
X66583810Y45818991D02*
X66631429Y45914229D01*
X66631429Y45914229D02*
X66726667Y45961848D01*
X66726667Y45961848D02*
X66917143Y45961848D01*
X66917143Y45961848D02*
X67012381Y45914229D01*
X67012381Y45914229D02*
X67060000Y45818991D01*
X67060000Y45818991D02*
X67060000Y45723753D01*
X67060000Y45723753D02*
X66583810Y45628515D01*
X67345715Y45961848D02*
X67726667Y45961848D01*
X67488572Y46295181D02*
X67488572Y45438039D01*
X67488572Y45438039D02*
X67536191Y45342800D01*
X67536191Y45342800D02*
X67631429Y45295181D01*
X67631429Y45295181D02*
X67726667Y45295181D01*
X4623333Y22605181D02*
X4290000Y23081372D01*
X4051905Y22605181D02*
X4051905Y23605181D01*
X4051905Y23605181D02*
X4432857Y23605181D01*
X4432857Y23605181D02*
X4528095Y23557562D01*
X4528095Y23557562D02*
X4575714Y23509943D01*
X4575714Y23509943D02*
X4623333Y23414705D01*
X4623333Y23414705D02*
X4623333Y23271848D01*
X4623333Y23271848D02*
X4575714Y23176610D01*
X4575714Y23176610D02*
X4528095Y23128991D01*
X4528095Y23128991D02*
X4432857Y23081372D01*
X4432857Y23081372D02*
X4051905Y23081372D01*
X5575714Y22605181D02*
X5004286Y22605181D01*
X5290000Y22605181D02*
X5290000Y23605181D01*
X5290000Y23605181D02*
X5194762Y23462324D01*
X5194762Y23462324D02*
X5099524Y23367086D01*
X5099524Y23367086D02*
X5004286Y23319467D01*
X4670952Y28105181D02*
X4099524Y28105181D01*
X4385238Y28105181D02*
X4385238Y29105181D01*
X4385238Y29105181D02*
X4290000Y28962324D01*
X4290000Y28962324D02*
X4194762Y28867086D01*
X4194762Y28867086D02*
X4099524Y28819467D01*
X5099524Y28105181D02*
X5099524Y29105181D01*
X5194762Y28486134D02*
X5480476Y28105181D01*
X5480476Y28771848D02*
X5099524Y28390896D01*
X34552381Y28145181D02*
X34552381Y27430896D01*
X34552381Y27430896D02*
X34504762Y27288039D01*
X34504762Y27288039D02*
X34409524Y27192800D01*
X34409524Y27192800D02*
X34266667Y27145181D01*
X34266667Y27145181D02*
X34171429Y27145181D01*
X34933334Y28145181D02*
X35600000Y28145181D01*
X35600000Y28145181D02*
X35171429Y27145181D01*
X35980953Y27240420D02*
X36028572Y27192800D01*
X36028572Y27192800D02*
X35980953Y27145181D01*
X35980953Y27145181D02*
X35933334Y27192800D01*
X35933334Y27192800D02*
X35980953Y27240420D01*
X35980953Y27240420D02*
X35980953Y27145181D01*
X36409524Y28049943D02*
X36457143Y28097562D01*
X36457143Y28097562D02*
X36552381Y28145181D01*
X36552381Y28145181D02*
X36790476Y28145181D01*
X36790476Y28145181D02*
X36885714Y28097562D01*
X36885714Y28097562D02*
X36933333Y28049943D01*
X36933333Y28049943D02*
X36980952Y27954705D01*
X36980952Y27954705D02*
X36980952Y27859467D01*
X36980952Y27859467D02*
X36933333Y27716610D01*
X36933333Y27716610D02*
X36361905Y27145181D01*
X36361905Y27145181D02*
X36980952Y27145181D01*
X34894762Y29155181D02*
X34894762Y30155181D01*
X34894762Y30155181D02*
X35275714Y30155181D01*
X35275714Y30155181D02*
X35370952Y30107562D01*
X35370952Y30107562D02*
X35418571Y30059943D01*
X35418571Y30059943D02*
X35466190Y29964705D01*
X35466190Y29964705D02*
X35466190Y29821848D01*
X35466190Y29821848D02*
X35418571Y29726610D01*
X35418571Y29726610D02*
X35370952Y29678991D01*
X35370952Y29678991D02*
X35275714Y29631372D01*
X35275714Y29631372D02*
X34894762Y29631372D01*
X36466190Y29250420D02*
X36418571Y29202800D01*
X36418571Y29202800D02*
X36275714Y29155181D01*
X36275714Y29155181D02*
X36180476Y29155181D01*
X36180476Y29155181D02*
X36037619Y29202800D01*
X36037619Y29202800D02*
X35942381Y29298039D01*
X35942381Y29298039D02*
X35894762Y29393277D01*
X35894762Y29393277D02*
X35847143Y29583753D01*
X35847143Y29583753D02*
X35847143Y29726610D01*
X35847143Y29726610D02*
X35894762Y29917086D01*
X35894762Y29917086D02*
X35942381Y30012324D01*
X35942381Y30012324D02*
X36037619Y30107562D01*
X36037619Y30107562D02*
X36180476Y30155181D01*
X36180476Y30155181D02*
X36275714Y30155181D01*
X36275714Y30155181D02*
X36418571Y30107562D01*
X36418571Y30107562D02*
X36466190Y30059943D01*
X37228095Y29678991D02*
X36894762Y29678991D01*
X36894762Y29155181D02*
X36894762Y30155181D01*
X36894762Y30155181D02*
X37370952Y30155181D01*
X37894762Y29726610D02*
X37799524Y29774229D01*
X37799524Y29774229D02*
X37751905Y29821848D01*
X37751905Y29821848D02*
X37704286Y29917086D01*
X37704286Y29917086D02*
X37704286Y29964705D01*
X37704286Y29964705D02*
X37751905Y30059943D01*
X37751905Y30059943D02*
X37799524Y30107562D01*
X37799524Y30107562D02*
X37894762Y30155181D01*
X37894762Y30155181D02*
X38085238Y30155181D01*
X38085238Y30155181D02*
X38180476Y30107562D01*
X38180476Y30107562D02*
X38228095Y30059943D01*
X38228095Y30059943D02*
X38275714Y29964705D01*
X38275714Y29964705D02*
X38275714Y29917086D01*
X38275714Y29917086D02*
X38228095Y29821848D01*
X38228095Y29821848D02*
X38180476Y29774229D01*
X38180476Y29774229D02*
X38085238Y29726610D01*
X38085238Y29726610D02*
X37894762Y29726610D01*
X37894762Y29726610D02*
X37799524Y29678991D01*
X37799524Y29678991D02*
X37751905Y29631372D01*
X37751905Y29631372D02*
X37704286Y29536134D01*
X37704286Y29536134D02*
X37704286Y29345658D01*
X37704286Y29345658D02*
X37751905Y29250420D01*
X37751905Y29250420D02*
X37799524Y29202800D01*
X37799524Y29202800D02*
X37894762Y29155181D01*
X37894762Y29155181D02*
X38085238Y29155181D01*
X38085238Y29155181D02*
X38180476Y29202800D01*
X38180476Y29202800D02*
X38228095Y29250420D01*
X38228095Y29250420D02*
X38275714Y29345658D01*
X38275714Y29345658D02*
X38275714Y29536134D01*
X38275714Y29536134D02*
X38228095Y29631372D01*
X38228095Y29631372D02*
X38180476Y29678991D01*
X38180476Y29678991D02*
X38085238Y29726610D01*
X39180476Y30155181D02*
X38704286Y30155181D01*
X38704286Y30155181D02*
X38656667Y29678991D01*
X38656667Y29678991D02*
X38704286Y29726610D01*
X38704286Y29726610D02*
X38799524Y29774229D01*
X38799524Y29774229D02*
X39037619Y29774229D01*
X39037619Y29774229D02*
X39132857Y29726610D01*
X39132857Y29726610D02*
X39180476Y29678991D01*
X39180476Y29678991D02*
X39228095Y29583753D01*
X39228095Y29583753D02*
X39228095Y29345658D01*
X39228095Y29345658D02*
X39180476Y29250420D01*
X39180476Y29250420D02*
X39132857Y29202800D01*
X39132857Y29202800D02*
X39037619Y29155181D01*
X39037619Y29155181D02*
X38799524Y29155181D01*
X38799524Y29155181D02*
X38704286Y29202800D01*
X38704286Y29202800D02*
X38656667Y29250420D01*
X39561429Y30155181D02*
X40228095Y30155181D01*
X40228095Y30155181D02*
X39799524Y29155181D01*
X41037619Y29821848D02*
X41037619Y29155181D01*
X40799524Y30202800D02*
X40561429Y29488515D01*
X40561429Y29488515D02*
X41180476Y29488515D01*
X42323334Y29155181D02*
X42323334Y30155181D01*
X42751905Y30393277D02*
X42847143Y30440896D01*
X42847143Y30440896D02*
X42990000Y30440896D01*
X42990000Y30440896D02*
X43085238Y30393277D01*
X43085238Y30393277D02*
X43132857Y30298039D01*
X43132857Y30298039D02*
X43132857Y30202800D01*
X43132857Y30202800D02*
X43085238Y30107562D01*
X43085238Y30107562D02*
X42751905Y29774229D01*
X42751905Y29774229D02*
X43132857Y29774229D01*
X44132857Y29250420D02*
X44085238Y29202800D01*
X44085238Y29202800D02*
X43942381Y29155181D01*
X43942381Y29155181D02*
X43847143Y29155181D01*
X43847143Y29155181D02*
X43704286Y29202800D01*
X43704286Y29202800D02*
X43609048Y29298039D01*
X43609048Y29298039D02*
X43561429Y29393277D01*
X43561429Y29393277D02*
X43513810Y29583753D01*
X43513810Y29583753D02*
X43513810Y29726610D01*
X43513810Y29726610D02*
X43561429Y29917086D01*
X43561429Y29917086D02*
X43609048Y30012324D01*
X43609048Y30012324D02*
X43704286Y30107562D01*
X43704286Y30107562D02*
X43847143Y30155181D01*
X43847143Y30155181D02*
X43942381Y30155181D01*
X43942381Y30155181D02*
X44085238Y30107562D01*
X44085238Y30107562D02*
X44132857Y30059943D01*
X15866666Y40690181D02*
X15866666Y39975896D01*
X15866666Y39975896D02*
X15819047Y39833039D01*
X15819047Y39833039D02*
X15723809Y39737800D01*
X15723809Y39737800D02*
X15580952Y39690181D01*
X15580952Y39690181D02*
X15485714Y39690181D01*
X16771428Y40356848D02*
X16771428Y39690181D01*
X16533333Y40737800D02*
X16295238Y40023515D01*
X16295238Y40023515D02*
X16914285Y40023515D01*
X834819Y37692619D02*
X1549104Y37692619D01*
X1549104Y37692619D02*
X1691961Y37645000D01*
X1691961Y37645000D02*
X1787200Y37549762D01*
X1787200Y37549762D02*
X1834819Y37406905D01*
X1834819Y37406905D02*
X1834819Y37311667D01*
X1834819Y38311667D02*
X1787200Y38216429D01*
X1787200Y38216429D02*
X1739580Y38168810D01*
X1739580Y38168810D02*
X1644342Y38121191D01*
X1644342Y38121191D02*
X1358628Y38121191D01*
X1358628Y38121191D02*
X1263390Y38168810D01*
X1263390Y38168810D02*
X1215771Y38216429D01*
X1215771Y38216429D02*
X1168152Y38311667D01*
X1168152Y38311667D02*
X1168152Y38454524D01*
X1168152Y38454524D02*
X1215771Y38549762D01*
X1215771Y38549762D02*
X1263390Y38597381D01*
X1263390Y38597381D02*
X1358628Y38645000D01*
X1358628Y38645000D02*
X1644342Y38645000D01*
X1644342Y38645000D02*
X1739580Y38597381D01*
X1739580Y38597381D02*
X1787200Y38549762D01*
X1787200Y38549762D02*
X1834819Y38454524D01*
X1834819Y38454524D02*
X1834819Y38311667D01*
X1168152Y38978334D02*
X1834819Y39216429D01*
X1168152Y39454524D02*
X1834819Y39216429D01*
X1834819Y39216429D02*
X2072914Y39121191D01*
X2072914Y39121191D02*
X2120533Y39073572D01*
X2120533Y39073572D02*
X2168152Y38978334D01*
X1787200Y39787858D02*
X1834819Y39883096D01*
X1834819Y39883096D02*
X1834819Y40073572D01*
X1834819Y40073572D02*
X1787200Y40168810D01*
X1787200Y40168810D02*
X1691961Y40216429D01*
X1691961Y40216429D02*
X1644342Y40216429D01*
X1644342Y40216429D02*
X1549104Y40168810D01*
X1549104Y40168810D02*
X1501485Y40073572D01*
X1501485Y40073572D02*
X1501485Y39930715D01*
X1501485Y39930715D02*
X1453866Y39835477D01*
X1453866Y39835477D02*
X1358628Y39787858D01*
X1358628Y39787858D02*
X1311009Y39787858D01*
X1311009Y39787858D02*
X1215771Y39835477D01*
X1215771Y39835477D02*
X1168152Y39930715D01*
X1168152Y39930715D02*
X1168152Y40073572D01*
X1168152Y40073572D02*
X1215771Y40168810D01*
X1168152Y40502144D02*
X1168152Y40883096D01*
X834819Y40645001D02*
X1691961Y40645001D01*
X1691961Y40645001D02*
X1787200Y40692620D01*
X1787200Y40692620D02*
X1834819Y40787858D01*
X1834819Y40787858D02*
X1834819Y40883096D01*
X1834819Y41216430D02*
X1168152Y41216430D01*
X834819Y41216430D02*
X882438Y41168811D01*
X882438Y41168811D02*
X930057Y41216430D01*
X930057Y41216430D02*
X882438Y41264049D01*
X882438Y41264049D02*
X834819Y41216430D01*
X834819Y41216430D02*
X930057Y41216430D01*
X1787200Y42121191D02*
X1834819Y42025953D01*
X1834819Y42025953D02*
X1834819Y41835477D01*
X1834819Y41835477D02*
X1787200Y41740239D01*
X1787200Y41740239D02*
X1739580Y41692620D01*
X1739580Y41692620D02*
X1644342Y41645001D01*
X1644342Y41645001D02*
X1358628Y41645001D01*
X1358628Y41645001D02*
X1263390Y41692620D01*
X1263390Y41692620D02*
X1215771Y41740239D01*
X1215771Y41740239D02*
X1168152Y41835477D01*
X1168152Y41835477D02*
X1168152Y42025953D01*
X1168152Y42025953D02*
X1215771Y42121191D01*
X1834819Y42549763D02*
X834819Y42549763D01*
X1453866Y42645001D02*
X1834819Y42930715D01*
X1168152Y42930715D02*
X1549104Y42549763D01*
X47666666Y22545181D02*
X47666666Y21830896D01*
X47666666Y21830896D02*
X47619047Y21688039D01*
X47619047Y21688039D02*
X47523809Y21592800D01*
X47523809Y21592800D02*
X47380952Y21545181D01*
X47380952Y21545181D02*
X47285714Y21545181D01*
X48285714Y22116610D02*
X48190476Y22164229D01*
X48190476Y22164229D02*
X48142857Y22211848D01*
X48142857Y22211848D02*
X48095238Y22307086D01*
X48095238Y22307086D02*
X48095238Y22354705D01*
X48095238Y22354705D02*
X48142857Y22449943D01*
X48142857Y22449943D02*
X48190476Y22497562D01*
X48190476Y22497562D02*
X48285714Y22545181D01*
X48285714Y22545181D02*
X48476190Y22545181D01*
X48476190Y22545181D02*
X48571428Y22497562D01*
X48571428Y22497562D02*
X48619047Y22449943D01*
X48619047Y22449943D02*
X48666666Y22354705D01*
X48666666Y22354705D02*
X48666666Y22307086D01*
X48666666Y22307086D02*
X48619047Y22211848D01*
X48619047Y22211848D02*
X48571428Y22164229D01*
X48571428Y22164229D02*
X48476190Y22116610D01*
X48476190Y22116610D02*
X48285714Y22116610D01*
X48285714Y22116610D02*
X48190476Y22068991D01*
X48190476Y22068991D02*
X48142857Y22021372D01*
X48142857Y22021372D02*
X48095238Y21926134D01*
X48095238Y21926134D02*
X48095238Y21735658D01*
X48095238Y21735658D02*
X48142857Y21640420D01*
X48142857Y21640420D02*
X48190476Y21592800D01*
X48190476Y21592800D02*
X48285714Y21545181D01*
X48285714Y21545181D02*
X48476190Y21545181D01*
X48476190Y21545181D02*
X48571428Y21592800D01*
X48571428Y21592800D02*
X48619047Y21640420D01*
X48619047Y21640420D02*
X48666666Y21735658D01*
X48666666Y21735658D02*
X48666666Y21926134D01*
X48666666Y21926134D02*
X48619047Y22021372D01*
X48619047Y22021372D02*
X48571428Y22068991D01*
X48571428Y22068991D02*
X48476190Y22116610D01*
X65576190Y22145181D02*
X65242857Y22621372D01*
X65004762Y22145181D02*
X65004762Y23145181D01*
X65004762Y23145181D02*
X65385714Y23145181D01*
X65385714Y23145181D02*
X65480952Y23097562D01*
X65480952Y23097562D02*
X65528571Y23049943D01*
X65528571Y23049943D02*
X65576190Y22954705D01*
X65576190Y22954705D02*
X65576190Y22811848D01*
X65576190Y22811848D02*
X65528571Y22716610D01*
X65528571Y22716610D02*
X65480952Y22668991D01*
X65480952Y22668991D02*
X65385714Y22621372D01*
X65385714Y22621372D02*
X65004762Y22621372D01*
X66290476Y23145181D02*
X66290476Y22430896D01*
X66290476Y22430896D02*
X66242857Y22288039D01*
X66242857Y22288039D02*
X66147619Y22192800D01*
X66147619Y22192800D02*
X66004762Y22145181D01*
X66004762Y22145181D02*
X65909524Y22145181D01*
X67195238Y22811848D02*
X67195238Y22145181D01*
X66957143Y23192800D02*
X66719048Y22478515D01*
X66719048Y22478515D02*
X67338095Y22478515D01*
X68195238Y23145181D02*
X67719048Y23145181D01*
X67719048Y23145181D02*
X67671429Y22668991D01*
X67671429Y22668991D02*
X67719048Y22716610D01*
X67719048Y22716610D02*
X67814286Y22764229D01*
X67814286Y22764229D02*
X68052381Y22764229D01*
X68052381Y22764229D02*
X68147619Y22716610D01*
X68147619Y22716610D02*
X68195238Y22668991D01*
X68195238Y22668991D02*
X68242857Y22573753D01*
X68242857Y22573753D02*
X68242857Y22335658D01*
X68242857Y22335658D02*
X68195238Y22240420D01*
X68195238Y22240420D02*
X68147619Y22192800D01*
X68147619Y22192800D02*
X68052381Y22145181D01*
X68052381Y22145181D02*
X67814286Y22145181D01*
X67814286Y22145181D02*
X67719048Y22192800D01*
X67719048Y22192800D02*
X67671429Y22240420D01*
X15916666Y47700181D02*
X15916666Y46985896D01*
X15916666Y46985896D02*
X15869047Y46843039D01*
X15869047Y46843039D02*
X15773809Y46747800D01*
X15773809Y46747800D02*
X15630952Y46700181D01*
X15630952Y46700181D02*
X15535714Y46700181D01*
X16869047Y47700181D02*
X16392857Y47700181D01*
X16392857Y47700181D02*
X16345238Y47223991D01*
X16345238Y47223991D02*
X16392857Y47271610D01*
X16392857Y47271610D02*
X16488095Y47319229D01*
X16488095Y47319229D02*
X16726190Y47319229D01*
X16726190Y47319229D02*
X16821428Y47271610D01*
X16821428Y47271610D02*
X16869047Y47223991D01*
X16869047Y47223991D02*
X16916666Y47128753D01*
X16916666Y47128753D02*
X16916666Y46890658D01*
X16916666Y46890658D02*
X16869047Y46795420D01*
X16869047Y46795420D02*
X16821428Y46747800D01*
X16821428Y46747800D02*
X16726190Y46700181D01*
X16726190Y46700181D02*
X16488095Y46700181D01*
X16488095Y46700181D02*
X16392857Y46747800D01*
X16392857Y46747800D02*
X16345238Y46795420D01*
X1834819Y44893096D02*
X834819Y44893096D01*
X834819Y44893096D02*
X834819Y45274048D01*
X834819Y45274048D02*
X882438Y45369286D01*
X882438Y45369286D02*
X930057Y45416905D01*
X930057Y45416905D02*
X1025295Y45464524D01*
X1025295Y45464524D02*
X1168152Y45464524D01*
X1168152Y45464524D02*
X1263390Y45416905D01*
X1263390Y45416905D02*
X1311009Y45369286D01*
X1311009Y45369286D02*
X1358628Y45274048D01*
X1358628Y45274048D02*
X1358628Y44893096D01*
X1787200Y46274048D02*
X1834819Y46178810D01*
X1834819Y46178810D02*
X1834819Y45988334D01*
X1834819Y45988334D02*
X1787200Y45893096D01*
X1787200Y45893096D02*
X1691961Y45845477D01*
X1691961Y45845477D02*
X1311009Y45845477D01*
X1311009Y45845477D02*
X1215771Y45893096D01*
X1215771Y45893096D02*
X1168152Y45988334D01*
X1168152Y45988334D02*
X1168152Y46178810D01*
X1168152Y46178810D02*
X1215771Y46274048D01*
X1215771Y46274048D02*
X1311009Y46321667D01*
X1311009Y46321667D02*
X1406247Y46321667D01*
X1406247Y46321667D02*
X1501485Y45845477D01*
X1834819Y47178810D02*
X834819Y47178810D01*
X1787200Y47178810D02*
X1834819Y47083572D01*
X1834819Y47083572D02*
X1834819Y46893096D01*
X1834819Y46893096D02*
X1787200Y46797858D01*
X1787200Y46797858D02*
X1739580Y46750239D01*
X1739580Y46750239D02*
X1644342Y46702620D01*
X1644342Y46702620D02*
X1358628Y46702620D01*
X1358628Y46702620D02*
X1263390Y46750239D01*
X1263390Y46750239D02*
X1215771Y46797858D01*
X1215771Y46797858D02*
X1168152Y46893096D01*
X1168152Y46893096D02*
X1168152Y47083572D01*
X1168152Y47083572D02*
X1215771Y47178810D01*
X1834819Y48083572D02*
X1311009Y48083572D01*
X1311009Y48083572D02*
X1215771Y48035953D01*
X1215771Y48035953D02*
X1168152Y47940715D01*
X1168152Y47940715D02*
X1168152Y47750239D01*
X1168152Y47750239D02*
X1215771Y47655001D01*
X1787200Y48083572D02*
X1834819Y47988334D01*
X1834819Y47988334D02*
X1834819Y47750239D01*
X1834819Y47750239D02*
X1787200Y47655001D01*
X1787200Y47655001D02*
X1691961Y47607382D01*
X1691961Y47607382D02*
X1596723Y47607382D01*
X1596723Y47607382D02*
X1501485Y47655001D01*
X1501485Y47655001D02*
X1453866Y47750239D01*
X1453866Y47750239D02*
X1453866Y47988334D01*
X1453866Y47988334D02*
X1406247Y48083572D01*
X1834819Y48702620D02*
X1787200Y48607382D01*
X1787200Y48607382D02*
X1691961Y48559763D01*
X1691961Y48559763D02*
X834819Y48559763D01*
X1787200Y49035954D02*
X1834819Y49131192D01*
X1834819Y49131192D02*
X1834819Y49321668D01*
X1834819Y49321668D02*
X1787200Y49416906D01*
X1787200Y49416906D02*
X1691961Y49464525D01*
X1691961Y49464525D02*
X1644342Y49464525D01*
X1644342Y49464525D02*
X1549104Y49416906D01*
X1549104Y49416906D02*
X1501485Y49321668D01*
X1501485Y49321668D02*
X1501485Y49178811D01*
X1501485Y49178811D02*
X1453866Y49083573D01*
X1453866Y49083573D02*
X1358628Y49035954D01*
X1358628Y49035954D02*
X1311009Y49035954D01*
X1311009Y49035954D02*
X1215771Y49083573D01*
X1215771Y49083573D02*
X1168152Y49178811D01*
X1168152Y49178811D02*
X1168152Y49321668D01*
X1168152Y49321668D02*
X1215771Y49416906D01*
X19316667Y25292800D02*
X19459524Y25245181D01*
X19459524Y25245181D02*
X19697619Y25245181D01*
X19697619Y25245181D02*
X19792857Y25292800D01*
X19792857Y25292800D02*
X19840476Y25340420D01*
X19840476Y25340420D02*
X19888095Y25435658D01*
X19888095Y25435658D02*
X19888095Y25530896D01*
X19888095Y25530896D02*
X19840476Y25626134D01*
X19840476Y25626134D02*
X19792857Y25673753D01*
X19792857Y25673753D02*
X19697619Y25721372D01*
X19697619Y25721372D02*
X19507143Y25768991D01*
X19507143Y25768991D02*
X19411905Y25816610D01*
X19411905Y25816610D02*
X19364286Y25864229D01*
X19364286Y25864229D02*
X19316667Y25959467D01*
X19316667Y25959467D02*
X19316667Y26054705D01*
X19316667Y26054705D02*
X19364286Y26149943D01*
X19364286Y26149943D02*
X19411905Y26197562D01*
X19411905Y26197562D02*
X19507143Y26245181D01*
X19507143Y26245181D02*
X19745238Y26245181D01*
X19745238Y26245181D02*
X19888095Y26197562D01*
X20221429Y26245181D02*
X20459524Y25245181D01*
X20459524Y25245181D02*
X20650000Y25959467D01*
X20650000Y25959467D02*
X20840476Y25245181D01*
X20840476Y25245181D02*
X21078572Y26245181D01*
X21983333Y25245181D02*
X21411905Y25245181D01*
X21697619Y25245181D02*
X21697619Y26245181D01*
X21697619Y26245181D02*
X21602381Y26102324D01*
X21602381Y26102324D02*
X21507143Y26007086D01*
X21507143Y26007086D02*
X21411905Y25959467D01*
X25186904Y29345181D02*
X24853571Y29821372D01*
X24615476Y29345181D02*
X24615476Y30345181D01*
X24615476Y30345181D02*
X24996428Y30345181D01*
X24996428Y30345181D02*
X25091666Y30297562D01*
X25091666Y30297562D02*
X25139285Y30249943D01*
X25139285Y30249943D02*
X25186904Y30154705D01*
X25186904Y30154705D02*
X25186904Y30011848D01*
X25186904Y30011848D02*
X25139285Y29916610D01*
X25139285Y29916610D02*
X25091666Y29868991D01*
X25091666Y29868991D02*
X24996428Y29821372D01*
X24996428Y29821372D02*
X24615476Y29821372D01*
X25996428Y29392800D02*
X25901190Y29345181D01*
X25901190Y29345181D02*
X25710714Y29345181D01*
X25710714Y29345181D02*
X25615476Y29392800D01*
X25615476Y29392800D02*
X25567857Y29488039D01*
X25567857Y29488039D02*
X25567857Y29868991D01*
X25567857Y29868991D02*
X25615476Y29964229D01*
X25615476Y29964229D02*
X25710714Y30011848D01*
X25710714Y30011848D02*
X25901190Y30011848D01*
X25901190Y30011848D02*
X25996428Y29964229D01*
X25996428Y29964229D02*
X26044047Y29868991D01*
X26044047Y29868991D02*
X26044047Y29773753D01*
X26044047Y29773753D02*
X25567857Y29678515D01*
X26425000Y29392800D02*
X26520238Y29345181D01*
X26520238Y29345181D02*
X26710714Y29345181D01*
X26710714Y29345181D02*
X26805952Y29392800D01*
X26805952Y29392800D02*
X26853571Y29488039D01*
X26853571Y29488039D02*
X26853571Y29535658D01*
X26853571Y29535658D02*
X26805952Y29630896D01*
X26805952Y29630896D02*
X26710714Y29678515D01*
X26710714Y29678515D02*
X26567857Y29678515D01*
X26567857Y29678515D02*
X26472619Y29726134D01*
X26472619Y29726134D02*
X26425000Y29821372D01*
X26425000Y29821372D02*
X26425000Y29868991D01*
X26425000Y29868991D02*
X26472619Y29964229D01*
X26472619Y29964229D02*
X26567857Y30011848D01*
X26567857Y30011848D02*
X26710714Y30011848D01*
X26710714Y30011848D02*
X26805952Y29964229D01*
X27663095Y29392800D02*
X27567857Y29345181D01*
X27567857Y29345181D02*
X27377381Y29345181D01*
X27377381Y29345181D02*
X27282143Y29392800D01*
X27282143Y29392800D02*
X27234524Y29488039D01*
X27234524Y29488039D02*
X27234524Y29868991D01*
X27234524Y29868991D02*
X27282143Y29964229D01*
X27282143Y29964229D02*
X27377381Y30011848D01*
X27377381Y30011848D02*
X27567857Y30011848D01*
X27567857Y30011848D02*
X27663095Y29964229D01*
X27663095Y29964229D02*
X27710714Y29868991D01*
X27710714Y29868991D02*
X27710714Y29773753D01*
X27710714Y29773753D02*
X27234524Y29678515D01*
X27996429Y30011848D02*
X28377381Y30011848D01*
X28139286Y30345181D02*
X28139286Y29488039D01*
X28139286Y29488039D02*
X28186905Y29392800D01*
X28186905Y29392800D02*
X28282143Y29345181D01*
X28282143Y29345181D02*
X28377381Y29345181D01*
D12*
%TO.C,J1.2*%
X1250000Y20220000D02*
X4460000Y20220000D01*
X1250000Y17560000D02*
X1250000Y20220000D01*
X1250000Y17560000D02*
X1920000Y17560000D01*
X1920000Y16350000D02*
X1920000Y17560000D01*
X3440000Y17560000D02*
X7000000Y17560000D01*
X5980000Y20220000D02*
X9540000Y20220000D01*
X8520000Y17560000D02*
X12080000Y17560000D01*
X11060000Y20220000D02*
X14620000Y20220000D01*
X13600000Y17560000D02*
X17160000Y17560000D01*
X16140000Y20220000D02*
X19700000Y20220000D01*
X18680000Y17560000D02*
X22240000Y17560000D01*
X21220000Y20220000D02*
X24780000Y20220000D01*
X23760000Y17560000D02*
X27320000Y17560000D01*
X26300000Y20220000D02*
X29860000Y20220000D01*
X28840000Y17560000D02*
X32400000Y17560000D01*
X31380000Y20220000D02*
X34940000Y20220000D01*
X33920000Y17560000D02*
X37480000Y17560000D01*
X36460000Y20220000D02*
X40020000Y20220000D01*
X39000000Y17560000D02*
X42560000Y17560000D01*
X41540000Y20220000D02*
X44750000Y20220000D01*
X44080000Y17560000D02*
X44750000Y17560000D01*
X44750000Y17560000D02*
X44750000Y20220000D01*
%TO.C,J1.1*%
X1250000Y4980000D02*
X4460000Y4980000D01*
X1250000Y2320000D02*
X1250000Y4980000D01*
X1250000Y2320000D02*
X1920000Y2320000D01*
X1920000Y1110000D02*
X1920000Y2320000D01*
X3440000Y2320000D02*
X7000000Y2320000D01*
X5980000Y4980000D02*
X9540000Y4980000D01*
X8520000Y2320000D02*
X12080000Y2320000D01*
X11060000Y4980000D02*
X14620000Y4980000D01*
X13600000Y2320000D02*
X17160000Y2320000D01*
X16140000Y4980000D02*
X19700000Y4980000D01*
X18680000Y2320000D02*
X22240000Y2320000D01*
X21220000Y4980000D02*
X24780000Y4980000D01*
X23760000Y2320000D02*
X27320000Y2320000D01*
X26300000Y4980000D02*
X29860000Y4980000D01*
X28840000Y2320000D02*
X32400000Y2320000D01*
X31380000Y4980000D02*
X34940000Y4980000D01*
X33920000Y2320000D02*
X37480000Y2320000D01*
X36460000Y4980000D02*
X40020000Y4980000D01*
X39000000Y2320000D02*
X42560000Y2320000D01*
X41540000Y4980000D02*
X44750000Y4980000D01*
X44080000Y2320000D02*
X44750000Y2320000D01*
X44750000Y2320000D02*
X44750000Y4980000D01*
%TO.C,J6*%
X49230000Y16860000D02*
X49230000Y14080000D01*
X49230000Y3935000D02*
X46970000Y3935000D01*
X49230000Y1140000D02*
X49230000Y3935000D01*
X49230000Y1140000D02*
X64790000Y1140000D01*
X64790000Y16860000D02*
X49230000Y16860000D01*
X64790000Y13640000D02*
X64790000Y16860000D01*
X64790000Y4360000D02*
X67890000Y4360000D01*
X64790000Y1140000D02*
X64790000Y4360000D01*
X67890000Y13640000D02*
X64790000Y13640000D01*
X67890000Y4360000D02*
X67890000Y13640000D01*
%TO.C,R2*%
X2055000Y25582936D02*
X2055000Y26037064D01*
X3525000Y25582936D02*
X3525000Y26037064D01*
%TO.C,J2*%
X7420000Y26995000D02*
X7420000Y24335000D01*
X7990000Y24335000D02*
X7420000Y24335000D01*
X10530000Y24335000D02*
X7420000Y24335000D01*
X13070000Y26995000D02*
X9510000Y26995000D01*
X14590000Y26995000D02*
X14590000Y28515000D01*
X15160000Y26995000D02*
X14590000Y26995000D01*
X15160000Y26995000D02*
X15160000Y24335000D01*
X15160000Y24335000D02*
X12050000Y24335000D01*
%TO.C,J3*%
X2380000Y34485000D02*
X2380000Y31825000D01*
X2950000Y31825000D02*
X2380000Y31825000D01*
X5490000Y31825000D02*
X2380000Y31825000D01*
X8030000Y34485000D02*
X4470000Y34485000D01*
X10570000Y31825000D02*
X7010000Y31825000D01*
X13110000Y34485000D02*
X9550000Y34485000D01*
X14630000Y34485000D02*
X14630000Y36005000D01*
X15200000Y34485000D02*
X14630000Y34485000D01*
X15200000Y34485000D02*
X15200000Y31825000D01*
X15200000Y31825000D02*
X12090000Y31825000D01*
%TO.C,J7.1.2*%
X18020000Y42930000D02*
X18020000Y40270000D01*
X18690000Y40270000D02*
X18020000Y40270000D01*
X21230000Y42930000D02*
X18020000Y42930000D01*
X23770000Y40270000D02*
X20210000Y40270000D01*
X26310000Y42930000D02*
X22750000Y42930000D01*
X28850000Y40270000D02*
X25290000Y40270000D01*
X31390000Y42930000D02*
X27830000Y42930000D01*
X33930000Y40270000D02*
X30370000Y40270000D01*
X36470000Y42930000D02*
X32910000Y42930000D01*
X39010000Y40270000D02*
X35450000Y40270000D01*
X41550000Y42930000D02*
X37990000Y42930000D01*
X44090000Y40270000D02*
X40530000Y40270000D01*
X46630000Y42930000D02*
X43070000Y42930000D01*
X49170000Y40270000D02*
X45610000Y40270000D01*
X51710000Y42930000D02*
X48150000Y42930000D01*
X54250000Y40270000D02*
X50690000Y40270000D01*
X56790000Y42930000D02*
X53230000Y42930000D01*
X58310000Y44140000D02*
X58310000Y42930000D01*
X58980000Y42930000D02*
X58310000Y42930000D01*
X58980000Y42930000D02*
X58980000Y40270000D01*
X58980000Y40270000D02*
X55770000Y40270000D01*
%TO.C,J7.1.1*%
X18020000Y51180000D02*
X18020000Y48520000D01*
X18690000Y48520000D02*
X18020000Y48520000D01*
X21230000Y51180000D02*
X18020000Y51180000D01*
X23770000Y48520000D02*
X20210000Y48520000D01*
X26310000Y51180000D02*
X22750000Y51180000D01*
X28850000Y48520000D02*
X25290000Y48520000D01*
X31390000Y51180000D02*
X27830000Y51180000D01*
X33930000Y48520000D02*
X30370000Y48520000D01*
X36470000Y51180000D02*
X32910000Y51180000D01*
X39010000Y48520000D02*
X35450000Y48520000D01*
X41550000Y51180000D02*
X37990000Y51180000D01*
X44090000Y48520000D02*
X40530000Y48520000D01*
X46630000Y51180000D02*
X43070000Y51180000D01*
X49170000Y48520000D02*
X45610000Y48520000D01*
X51710000Y51180000D02*
X48150000Y51180000D01*
X54250000Y48520000D02*
X50690000Y48520000D01*
X56790000Y51180000D02*
X53230000Y51180000D01*
X58310000Y52390000D02*
X58310000Y51180000D01*
X58980000Y51180000D02*
X58310000Y51180000D01*
X58980000Y51180000D02*
X58980000Y48520000D01*
X58980000Y48520000D02*
X55770000Y48520000D01*
%TO.C,R1*%
X4055000Y25582936D02*
X4055000Y26037064D01*
X5525000Y25582936D02*
X5525000Y26037064D01*
%TO.C,J7.2*%
X34390000Y26785000D02*
X37500000Y26785000D01*
X34390000Y24125000D02*
X34390000Y26785000D01*
X34390000Y24125000D02*
X34960000Y24125000D01*
X34960000Y24125000D02*
X34960000Y22605000D01*
X36480000Y24125000D02*
X40040000Y24125000D01*
X39020000Y26785000D02*
X42580000Y26785000D01*
X41560000Y24125000D02*
X44670000Y24125000D01*
X44100000Y26785000D02*
X44670000Y26785000D01*
X44670000Y24125000D02*
X44670000Y26785000D01*
%TO.C,J4*%
X2380000Y41475000D02*
X2380000Y38815000D01*
X2950000Y38815000D02*
X2380000Y38815000D01*
X5490000Y38815000D02*
X2380000Y38815000D01*
X8030000Y41475000D02*
X4470000Y41475000D01*
X10570000Y38815000D02*
X7010000Y38815000D01*
X13110000Y41475000D02*
X9550000Y41475000D01*
X14630000Y41475000D02*
X14630000Y42995000D01*
X15200000Y41475000D02*
X14630000Y41475000D01*
X15200000Y41475000D02*
X15200000Y38815000D01*
X15200000Y38815000D02*
X12090000Y38815000D01*
%TO.C,J8*%
X49230000Y36060000D02*
X49230000Y33280000D01*
X49230000Y23135000D02*
X46970000Y23135000D01*
X49230000Y20340000D02*
X49230000Y23135000D01*
X49230000Y20340000D02*
X64790000Y20340000D01*
X64790000Y36060000D02*
X49230000Y36060000D01*
X64790000Y32840000D02*
X64790000Y36060000D01*
X64790000Y23560000D02*
X67890000Y23560000D01*
X64790000Y20340000D02*
X64790000Y23560000D01*
X67890000Y32840000D02*
X64790000Y32840000D01*
X67890000Y23560000D02*
X67890000Y32840000D01*
%TO.C,J5*%
X2380000Y48485000D02*
X2380000Y45825000D01*
X2950000Y45825000D02*
X2380000Y45825000D01*
X5490000Y45825000D02*
X2380000Y45825000D01*
X8030000Y48485000D02*
X4470000Y48485000D01*
X10570000Y45825000D02*
X7010000Y45825000D01*
X13110000Y48485000D02*
X9550000Y48485000D01*
X14630000Y48485000D02*
X14630000Y50005000D01*
X15200000Y48485000D02*
X14630000Y48485000D01*
X15200000Y48485000D02*
X15200000Y45825000D01*
X15200000Y45825000D02*
X12090000Y45825000D01*
%TO.C,SW1*%
X23195000Y28880000D02*
X23195000Y28850000D01*
X23195000Y24350000D02*
X23195000Y26950000D01*
X23195000Y22420000D02*
X23195000Y22450000D01*
X29655000Y28880000D02*
X23195000Y28880000D01*
X29655000Y28880000D02*
X29655000Y28850000D01*
X29655000Y24350000D02*
X29655000Y26950000D01*
X29655000Y22450000D02*
X29655000Y22420000D01*
X29655000Y22420000D02*
X23195000Y22420000D01*
%TD*%
M02*
