M48
; DRILL file {KiCad 8.0.7} date 2025-01-13T22:19:22+0100
; FORMAT={-:-/ absolute / metric / decimal}
; #@! TF.CreationDate,2025-01-13T22:19:22+01:00
; #@! TF.GenerationSoftware,Kicad,Pcbnew,8.0.7
; #@! TF.FileFunction,MixedPlating,1,2
FMAT,2
METRIC
; #@! TA.AperFunction,Plated,PTH,ViaDrill
T1C0.400
%
G90
G05
T1
X2.68Y2.0
X3.8Y32.7
X3.8Y23.92
X7.76Y2.0
X10.3Y5.3
X12.84Y2.0
X15.75Y23.92
X20.8Y26.46
X27.8Y32.7
X27.8Y23.92
X30.62Y20.54
X33.9Y7.71
X38.3Y30.5
X38.3Y25.45
X40.84Y30.5
X40.84Y25.45
X43.38Y25.45
X44.48Y9.4
X49.47Y26.295
X49.47Y7.095
X49.5Y27.565
M30
