%TF.GenerationSoftware,KiCad,Pcbnew,8.0.7*%
%TF.CreationDate,2025-01-13T22:15:30+01:00*%
%TF.ProjectId,ps4,7073342e-6b69-4636-9164-5f7063625858,rev?*%
%TF.SameCoordinates,PX54c81a0PY93ea360*%
%TF.FileFunction,Soldermask,Top*%
%TF.FilePolarity,Negative*%
%FSLAX46Y46*%
G04 Gerber Fmt 4.6, Leading zero omitted, Abs format (unit mm)*
G04 Created by KiCad (PCBNEW 8.0.7) date 2025-01-13 22:15:30*
%MOMM*%
%LPD*%
G01*
G04 APERTURE LIST*
%ADD10R,1.550000X1.300000*%
%ADD11C,1.778000*%
%ADD12C,2.286000*%
%ADD13R,1.700000X1.700000*%
%ADD14O,1.700000X1.700000*%
%ADD15R,1.300000X1.550000*%
G04 APERTURE END LIST*
D10*
%TO.C,SW4*%
X37125000Y27350000D03*
X45075000Y27350000D03*
X37125000Y22850000D03*
X45075000Y22850000D03*
%TD*%
D11*
%TO.C,U1*%
X12500000Y21940000D03*
X18850000Y21920200D03*
X12500000Y17000000D03*
X18860000Y16980000D03*
X13150000Y2250000D03*
X15690000Y2230000D03*
X18230000Y2250000D03*
D12*
X9325000Y16190000D03*
X9325000Y6060000D03*
X22025000Y6045200D03*
X22025000Y16205200D03*
D11*
X6785000Y13665200D03*
X6770000Y11140000D03*
X6770000Y8600000D03*
%TD*%
D13*
%TO.C,J1*%
X3000000Y2140000D03*
D14*
X3000000Y4680000D03*
X3000000Y7220000D03*
X3000000Y9760000D03*
X3000000Y12300000D03*
X3000000Y14840000D03*
X3000000Y17380000D03*
X3000000Y19920000D03*
X3000000Y22460000D03*
X3000000Y25000000D03*
X3000000Y27540000D03*
%TD*%
D15*
%TO.C,SW1*%
X28350000Y10625000D03*
X28350000Y18575000D03*
X32850000Y10625000D03*
X32850000Y18575000D03*
%TD*%
%TO.C,SW3*%
X53850000Y18575000D03*
X53850000Y10625000D03*
X49350000Y18575000D03*
X49350000Y10625000D03*
%TD*%
D10*
%TO.C,SW2*%
X37125000Y6350000D03*
X45075000Y6350000D03*
X37125000Y1850000D03*
X45075000Y1850000D03*
%TD*%
M02*
