%TF.GenerationSoftware,KiCad,Pcbnew,8.0.7*%
%TF.CreationDate,2025-01-13T22:15:30+01:00*%
%TF.ProjectId,ps4,7073342e-6b69-4636-9164-5f7063625858,rev?*%
%TF.SameCoordinates,PX54c81a0PY93ea360*%
%TF.FileFunction,Copper,L2,Bot*%
%TF.FilePolarity,Positive*%
%FSLAX46Y46*%
G04 Gerber Fmt 4.6, Leading zero omitted, Abs format (unit mm)*
G04 Created by KiCad (PCBNEW 8.0.7) date 2025-01-13 22:15:30*
%MOMM*%
%LPD*%
G01*
G04 APERTURE LIST*
%TA.AperFunction,ComponentPad*%
%ADD10C,1.778000*%
%TD*%
%TA.AperFunction,ComponentPad*%
%ADD11C,2.286000*%
%TD*%
%TA.AperFunction,ComponentPad*%
%ADD12R,1.700000X1.700000*%
%TD*%
%TA.AperFunction,ComponentPad*%
%ADD13O,1.700000X1.700000*%
%TD*%
%TA.AperFunction,Conductor*%
%ADD14C,0.400000*%
%TD*%
%TA.AperFunction,Conductor*%
%ADD15C,0.200000*%
%TD*%
G04 APERTURE END LIST*
D10*
%TO.P,U1,B1A,SEL+*%
%TO.N,/Switch*%
X12500000Y21940000D03*
%TO.P,U1,B1B*%
%TO.N,N/C*%
X18850000Y21920200D03*
%TO.P,U1,B2A,SEL-*%
%TO.N,GND*%
X12500000Y17000000D03*
%TO.P,U1,B2B*%
%TO.N,N/C*%
X18860000Y16980000D03*
%TO.P,U1,H1,H+*%
%TO.N,+5V*%
X13150000Y2250000D03*
%TO.P,U1,H2,H*%
%TO.N,/R_orange*%
X15690000Y2230000D03*
%TO.P,U1,H3,H-*%
%TO.N,GND*%
X18230000Y2250000D03*
D11*
%TO.P,U1,S1,SHIELD*%
%TO.N,/Schield*%
X9325000Y16190000D03*
%TO.P,U1,S2,SHIELD*%
X9325000Y6060000D03*
%TO.P,U1,S3,SHIELD*%
X22025000Y6045200D03*
%TO.P,U1,S4,SHIELD*%
X22025000Y16205200D03*
D10*
%TO.P,U1,V1,V+*%
%TO.N,+5V*%
X6785000Y13665200D03*
%TO.P,U1,V2,V*%
%TO.N,/R_black*%
X6770000Y11140000D03*
%TO.P,U1,V3,V-*%
%TO.N,GND*%
X6770000Y8600000D03*
%TD*%
D12*
%TO.P,J1,1,Pin_1*%
%TO.N,GND*%
X3000000Y2140000D03*
D13*
%TO.P,J1,2,Pin_2*%
%TO.N,+5V*%
X3000000Y4680000D03*
%TO.P,J1,3,Pin_3*%
%TO.N,/R_black*%
X3000000Y7220000D03*
%TO.P,J1,4,Pin_4*%
%TO.N,/R_orange*%
X3000000Y9760000D03*
%TO.P,J1,5,Pin_5*%
%TO.N,/Switch*%
X3000000Y12300000D03*
%TO.P,J1,6,Pin_6*%
%TO.N,GND*%
X3000000Y14840000D03*
%TO.P,J1,7,Pin_7*%
%TO.N,/Schield*%
X3000000Y17380000D03*
%TO.P,J1,8,Pin_8*%
%TO.N,/L1*%
X3000000Y19920000D03*
%TO.P,J1,9,Pin_9*%
%TO.N,/L2*%
X3000000Y22460000D03*
%TO.P,J1,10,Pin_10*%
%TO.N,/R1*%
X3000000Y25000000D03*
%TO.P,J1,11,Pin_11*%
%TO.N,/R2*%
X3000000Y27540000D03*
%TD*%
D14*
%TO.N,/Schield*%
X3000000Y17380000D02*
X4190000Y16190000D01*
X9339800Y6045200D02*
X9325000Y6060000D01*
X22025000Y6045200D02*
X9339800Y6045200D01*
X10468000Y15047000D02*
X20866800Y15047000D01*
X4190000Y16190000D02*
X9325000Y16190000D01*
X9325000Y16190000D02*
X10468000Y15047000D01*
X22025000Y16205200D02*
X22025000Y6045200D01*
X20866800Y15047000D02*
X22025000Y16205200D01*
D15*
%TO.N,/R_black*%
X6730000Y11100000D02*
X2600000Y11100000D01*
X1700000Y8520000D02*
X3000000Y7220000D01*
X2600000Y11100000D02*
X1700000Y10200000D01*
X6770000Y11140000D02*
X6730000Y11100000D01*
X2480000Y6920000D02*
X3000000Y6920000D01*
X1700000Y10200000D02*
X1700000Y8520000D01*
%TO.N,/Switch*%
X12500000Y21940000D02*
X9280000Y18720000D01*
X2713654Y18720000D02*
X1850000Y17856346D01*
X1850000Y13450000D02*
X3000000Y12300000D01*
X9280000Y18720000D02*
X2713654Y18720000D01*
X1850000Y17856346D02*
X1850000Y13450000D01*
%TO.N,/R_orange*%
X4150000Y8610000D02*
X4150000Y6450000D01*
X13960000Y500000D02*
X15690000Y2230000D01*
X10100000Y500000D02*
X13960000Y500000D01*
X4150000Y6450000D02*
X10100000Y500000D01*
X3000000Y9760000D02*
X4150000Y8610000D01*
%TD*%
%TA.AperFunction,Conductor*%
%TO.N,+5V*%
G36*
X54943039Y29480315D02*
G01*
X54988794Y29427511D01*
X55000000Y29376000D01*
X55000000Y624000D01*
X54980315Y556961D01*
X54927511Y511206D01*
X54876000Y500000D01*
X15119910Y500000D01*
X15052871Y519685D01*
X15007116Y572489D01*
X14997172Y641647D01*
X15026197Y705203D01*
X15032211Y711664D01*
X15175945Y855398D01*
X15237264Y888880D01*
X15303884Y884996D01*
X15345758Y870620D01*
X15574200Y832500D01*
X15574201Y832500D01*
X15805799Y832500D01*
X15805800Y832500D01*
X16034242Y870620D01*
X16253293Y945820D01*
X16456980Y1056050D01*
X16639745Y1198302D01*
X16796604Y1368696D01*
X16862724Y1469902D01*
X16915870Y1515258D01*
X16985101Y1524682D01*
X17048437Y1495181D01*
X17070342Y1469901D01*
X17123393Y1388699D01*
X17141807Y1368696D01*
X17259041Y1241346D01*
X17280257Y1218300D01*
X17280261Y1218297D01*
X17374666Y1144819D01*
X17463020Y1076050D01*
X17666707Y965820D01*
X17776232Y928220D01*
X17885754Y890621D01*
X17885756Y890621D01*
X17885758Y890620D01*
X18114200Y852500D01*
X18114201Y852500D01*
X18345799Y852500D01*
X18345800Y852500D01*
X18574242Y890620D01*
X18793293Y965820D01*
X18996980Y1076050D01*
X19179745Y1218302D01*
X19336604Y1388696D01*
X19463277Y1582584D01*
X19556310Y1794677D01*
X19613165Y2019191D01*
X19613282Y2020604D01*
X19632290Y2249994D01*
X19632290Y2250007D01*
X19613166Y2480802D01*
X19613164Y2480813D01*
X19556310Y2705324D01*
X19463277Y2917416D01*
X19336606Y3111302D01*
X19198156Y3261698D01*
X19179745Y3281698D01*
X19179744Y3281699D01*
X19179742Y3281701D01*
X19179738Y3281704D01*
X18996984Y3423947D01*
X18996979Y3423951D01*
X18793294Y3534180D01*
X18793288Y3534182D01*
X18574245Y3609380D01*
X18396738Y3639000D01*
X18345800Y3647500D01*
X18114200Y3647500D01*
X18068511Y3639876D01*
X17885754Y3609380D01*
X17666711Y3534182D01*
X17666705Y3534180D01*
X17463020Y3423951D01*
X17463015Y3423947D01*
X17280261Y3281704D01*
X17280257Y3281701D01*
X17123392Y3111300D01*
X17057274Y3010099D01*
X17004128Y2964742D01*
X16934896Y2955319D01*
X16871561Y2984821D01*
X16849657Y3010100D01*
X16796606Y3091302D01*
X16639742Y3261701D01*
X16639738Y3261704D01*
X16456984Y3403947D01*
X16456979Y3403951D01*
X16253294Y3514180D01*
X16253288Y3514182D01*
X16034245Y3589380D01*
X15862910Y3617970D01*
X15805800Y3627500D01*
X15574200Y3627500D01*
X15528511Y3619876D01*
X15345754Y3589380D01*
X15126711Y3514182D01*
X15126705Y3514180D01*
X14923020Y3403951D01*
X14923015Y3403947D01*
X14740261Y3261704D01*
X14740257Y3261701D01*
X14583394Y3091303D01*
X14525263Y3002327D01*
X14472116Y2956971D01*
X14402885Y2947548D01*
X14339549Y2977051D01*
X14317646Y3002329D01*
X14293238Y3039688D01*
X13587647Y2334095D01*
X13564208Y2421571D01*
X13505689Y2522930D01*
X13422930Y2605689D01*
X13321571Y2664208D01*
X13234094Y2687648D01*
X13940958Y3394514D01*
X13940958Y3394516D01*
X13912322Y3416804D01*
X13912316Y3416808D01*
X13709868Y3526368D01*
X13709859Y3526371D01*
X13492150Y3601111D01*
X13265095Y3639000D01*
X13034905Y3639000D01*
X12807849Y3601111D01*
X12590140Y3526371D01*
X12590132Y3526368D01*
X12387681Y3416806D01*
X12359040Y3394515D01*
X12359040Y3394513D01*
X13065906Y2687648D01*
X12978429Y2664208D01*
X12877070Y2605689D01*
X12794311Y2522930D01*
X12735792Y2421571D01*
X12712352Y2334095D01*
X12006760Y3039687D01*
X11924224Y2913356D01*
X11831757Y2702554D01*
X11775249Y2479409D01*
X11775247Y2479397D01*
X11756240Y2250006D01*
X11756240Y2249995D01*
X11775247Y2020604D01*
X11775249Y2020592D01*
X11831757Y1797447D01*
X11924224Y1586645D01*
X12006759Y1460315D01*
X12712352Y2165907D01*
X12735792Y2078429D01*
X12794311Y1977070D01*
X12877070Y1894311D01*
X12978429Y1835792D01*
X13065906Y1812353D01*
X12398372Y1144819D01*
X12337049Y1111334D01*
X12310691Y1108500D01*
X10403411Y1108500D01*
X10336372Y1128185D01*
X10315730Y1144819D01*
X4794819Y6665730D01*
X4761334Y6727053D01*
X4758500Y6753411D01*
X4758500Y8690109D01*
X4758500Y8690111D01*
X4717032Y8844872D01*
X4688883Y8893627D01*
X4636922Y8983627D01*
X4341919Y9278630D01*
X4308434Y9339953D01*
X4309395Y9396752D01*
X4344561Y9535620D01*
X4344561Y9535621D01*
X4344564Y9535632D01*
X4344565Y9535641D01*
X4363156Y9759995D01*
X4363156Y9760006D01*
X4344565Y9984360D01*
X4344563Y9984372D01*
X4313180Y10108300D01*
X4289296Y10202616D01*
X4238819Y10317691D01*
X4229917Y10386990D01*
X4259894Y10450102D01*
X4319234Y10486989D01*
X4352376Y10491500D01*
X5457259Y10491500D01*
X5524298Y10471815D01*
X5561068Y10435321D01*
X5663393Y10278699D01*
X5820257Y10108300D01*
X5820261Y10108297D01*
X6000703Y9967853D01*
X6041516Y9911143D01*
X6045191Y9841370D01*
X6010559Y9780687D01*
X6000703Y9772147D01*
X5820261Y9631704D01*
X5820257Y9631701D01*
X5663393Y9461302D01*
X5536722Y9267416D01*
X5443689Y9055324D01*
X5386835Y8830813D01*
X5386833Y8830802D01*
X5367710Y8600007D01*
X5367710Y8599994D01*
X5386833Y8369199D01*
X5386835Y8369188D01*
X5443689Y8144677D01*
X5536722Y7932585D01*
X5663393Y7738699D01*
X5820257Y7568300D01*
X5820261Y7568297D01*
X6003015Y7426054D01*
X6003020Y7426050D01*
X6078086Y7385426D01*
X6206707Y7315820D01*
X6316232Y7278220D01*
X6425754Y7240621D01*
X6425756Y7240621D01*
X6425758Y7240620D01*
X6654200Y7202500D01*
X6654201Y7202500D01*
X6885799Y7202500D01*
X6885800Y7202500D01*
X7114242Y7240620D01*
X7333293Y7315820D01*
X7536980Y7426050D01*
X7719745Y7568302D01*
X7876604Y7738696D01*
X8003277Y7932584D01*
X8096310Y8144677D01*
X8153165Y8369191D01*
X8153166Y8369199D01*
X8172290Y8599994D01*
X8172290Y8600007D01*
X8153166Y8830802D01*
X8153164Y8830813D01*
X8096310Y9055324D01*
X8003277Y9267416D01*
X7876606Y9461302D01*
X7808180Y9535632D01*
X7719745Y9631698D01*
X7539293Y9772150D01*
X7498483Y9828857D01*
X7494808Y9898630D01*
X7529439Y9959313D01*
X7539280Y9967841D01*
X7719745Y10108302D01*
X7876604Y10278696D01*
X8003277Y10472584D01*
X8096310Y10684677D01*
X8153165Y10909191D01*
X8172290Y11140000D01*
X8172290Y11140007D01*
X8153166Y11370802D01*
X8153164Y11370813D01*
X8096310Y11595324D01*
X8003277Y11807416D01*
X7876606Y12001302D01*
X7719742Y12171701D01*
X7719738Y12171704D01*
X7549384Y12304296D01*
X7508571Y12361006D01*
X7504896Y12430779D01*
X7539528Y12491462D01*
X7549383Y12500002D01*
X7575958Y12520688D01*
X7575959Y12520689D01*
X6869095Y13227553D01*
X6956571Y13250992D01*
X7057930Y13309511D01*
X7140689Y13392270D01*
X7199208Y13493629D01*
X7222647Y13581105D01*
X7928238Y12875514D01*
X8010774Y13001843D01*
X8103242Y13212647D01*
X8159750Y13435792D01*
X8159752Y13435804D01*
X8178760Y13665195D01*
X8178760Y13665206D01*
X8159752Y13894597D01*
X8159750Y13894609D01*
X8103242Y14117754D01*
X8010775Y14328556D01*
X7928238Y14454888D01*
X7222647Y13749296D01*
X7199208Y13836771D01*
X7140689Y13938130D01*
X7057930Y14020889D01*
X6956571Y14079408D01*
X6869094Y14102848D01*
X7575958Y14809714D01*
X7575958Y14809716D01*
X7547322Y14832004D01*
X7547316Y14832008D01*
X7344868Y14941568D01*
X7344859Y14941571D01*
X7127150Y15016311D01*
X6900095Y15054200D01*
X6669905Y15054200D01*
X6442849Y15016311D01*
X6225140Y14941571D01*
X6225132Y14941568D01*
X6022681Y14832006D01*
X5994040Y14809715D01*
X5994040Y14809713D01*
X6700906Y14102848D01*
X6613429Y14079408D01*
X6512070Y14020889D01*
X6429311Y13938130D01*
X6370792Y13836771D01*
X6347352Y13749295D01*
X5641760Y14454887D01*
X5559224Y14328556D01*
X5466757Y14117754D01*
X5410249Y13894609D01*
X5410247Y13894597D01*
X5391240Y13665206D01*
X5391240Y13665195D01*
X5410247Y13435804D01*
X5410249Y13435792D01*
X5466757Y13212647D01*
X5559224Y13001845D01*
X5641759Y12875515D01*
X6347352Y13581107D01*
X6370792Y13493629D01*
X6429311Y13392270D01*
X6512070Y13309511D01*
X6613429Y13250992D01*
X6700905Y13227553D01*
X5994040Y12520688D01*
X5994040Y12520686D01*
X6005615Y12511677D01*
X6046428Y12454967D01*
X6050103Y12385194D01*
X6015471Y12324511D01*
X6005616Y12315971D01*
X5820257Y12171700D01*
X5663393Y12001302D01*
X5536722Y11807416D01*
X5525877Y11782690D01*
X5480921Y11729204D01*
X5414185Y11708514D01*
X5412321Y11708500D01*
X4410909Y11708500D01*
X4343870Y11728185D01*
X4298115Y11780989D01*
X4288171Y11850147D01*
X4290703Y11862940D01*
X4325741Y12001302D01*
X4344564Y12075632D01*
X4344565Y12075641D01*
X4363156Y12299995D01*
X4363156Y12300006D01*
X4344565Y12524360D01*
X4344563Y12524372D01*
X4289296Y12742615D01*
X4272296Y12781371D01*
X4198860Y12948791D01*
X4164199Y13001843D01*
X4075723Y13137266D01*
X4075715Y13137277D01*
X3923243Y13302903D01*
X3923238Y13302908D01*
X3752510Y13435792D01*
X3745576Y13441189D01*
X3709070Y13460945D01*
X3659479Y13510164D01*
X3644371Y13578381D01*
X3668541Y13643936D01*
X3709070Y13679055D01*
X3709084Y13679064D01*
X3745576Y13698811D01*
X3923240Y13837094D01*
X4075722Y14002732D01*
X4198860Y14191209D01*
X4289296Y14397384D01*
X4344564Y14615632D01*
X4345964Y14632526D01*
X4363156Y14839995D01*
X4363156Y14840006D01*
X4344565Y15064360D01*
X4344563Y15064372D01*
X4289297Y15282612D01*
X4289296Y15282616D01*
X4278296Y15307693D01*
X4269394Y15376989D01*
X4299371Y15440102D01*
X4358710Y15476989D01*
X4391853Y15481500D01*
X7752800Y15481500D01*
X7819839Y15461815D01*
X7858527Y15422290D01*
X7984773Y15216277D01*
X7984774Y15216274D01*
X7984777Y15216271D01*
X8153602Y15018602D01*
X8306616Y14887916D01*
X8351273Y14849775D01*
X8351276Y14849774D01*
X8572915Y14713952D01*
X8768349Y14633001D01*
X8813080Y14614473D01*
X9065850Y14553789D01*
X9325000Y14533393D01*
X9584150Y14553789D01*
X9819100Y14610195D01*
X9888881Y14606704D01*
X9935725Y14577304D01*
X9979635Y14533394D01*
X10016358Y14496671D01*
X10132392Y14419139D01*
X10132405Y14419132D01*
X10223567Y14381372D01*
X10223572Y14381370D01*
X10261338Y14365727D01*
X10296854Y14358663D01*
X10329730Y14352123D01*
X10329754Y14352119D01*
X10329778Y14352114D01*
X10381108Y14341904D01*
X10398217Y14338500D01*
X10398218Y14338500D01*
X20936582Y14338500D01*
X21005021Y14352114D01*
X21005022Y14352114D01*
X21022248Y14355541D01*
X21073462Y14365727D01*
X21111227Y14381370D01*
X21145050Y14395381D01*
X21214520Y14402847D01*
X21276998Y14371571D01*
X21312649Y14311481D01*
X21316500Y14280818D01*
X21316500Y7617400D01*
X21296815Y7550361D01*
X21257290Y7511673D01*
X21051276Y7385427D01*
X21051273Y7385426D01*
X20853602Y7216598D01*
X20684774Y7018927D01*
X20684773Y7018924D01*
X20558527Y6812910D01*
X20506715Y6766035D01*
X20452800Y6753700D01*
X10906269Y6753700D01*
X10839230Y6773385D01*
X10800542Y6812910D01*
X10674294Y7018927D01*
X10665225Y7033725D01*
X10665225Y7033727D01*
X10627084Y7078384D01*
X10496398Y7231398D01*
X10316053Y7385427D01*
X10298726Y7400226D01*
X10298723Y7400227D01*
X10077084Y7536049D01*
X9836919Y7635528D01*
X9584153Y7696211D01*
X9325000Y7716607D01*
X9065846Y7696211D01*
X8813080Y7635528D01*
X8572915Y7536049D01*
X8351276Y7400227D01*
X8351273Y7400226D01*
X8153602Y7231398D01*
X7984774Y7033727D01*
X7984773Y7033724D01*
X7848951Y6812085D01*
X7749472Y6571920D01*
X7688789Y6319154D01*
X7668393Y6060000D01*
X7688789Y5800847D01*
X7749472Y5548081D01*
X7848951Y5307916D01*
X7984773Y5086277D01*
X7984774Y5086274D01*
X7997417Y5071471D01*
X8153602Y4888602D01*
X8306616Y4757916D01*
X8351273Y4719775D01*
X8351276Y4719774D01*
X8572915Y4583952D01*
X8608646Y4569152D01*
X8813080Y4484473D01*
X9065850Y4423789D01*
X9325000Y4403393D01*
X9584150Y4423789D01*
X9836920Y4484473D01*
X10077084Y4583952D01*
X10298729Y4719777D01*
X10496398Y4888602D01*
X10665223Y5086271D01*
X10782403Y5277490D01*
X10834215Y5324365D01*
X10888130Y5336700D01*
X20452800Y5336700D01*
X20519839Y5317015D01*
X20558527Y5277490D01*
X20684773Y5071477D01*
X20684774Y5071474D01*
X20684777Y5071471D01*
X20853602Y4873802D01*
X21003443Y4745826D01*
X21051273Y4704975D01*
X21051276Y4704974D01*
X21272915Y4569152D01*
X21513080Y4469673D01*
X21765850Y4408989D01*
X22025000Y4388593D01*
X22284150Y4408989D01*
X22536920Y4469673D01*
X22777084Y4569152D01*
X22998729Y4704977D01*
X23196398Y4873802D01*
X23365223Y5071471D01*
X23501048Y5293116D01*
X23600527Y5533280D01*
X23661211Y5786050D01*
X23681607Y6045200D01*
X23661211Y6304350D01*
X23600527Y6557120D01*
X23594397Y6571920D01*
X23501048Y6797285D01*
X23365226Y7018924D01*
X23365225Y7018927D01*
X23327084Y7063584D01*
X23196398Y7216598D01*
X23065710Y7328216D01*
X22998726Y7385426D01*
X22998723Y7385427D01*
X22792710Y7511673D01*
X22745835Y7563485D01*
X22733500Y7617400D01*
X22733500Y14633001D01*
X22753185Y14700040D01*
X22792709Y14738728D01*
X22998729Y14864977D01*
X23196398Y15033802D01*
X23365223Y15231471D01*
X23501048Y15453116D01*
X23600527Y15693280D01*
X23661211Y15946050D01*
X23681607Y16205200D01*
X23661211Y16464350D01*
X23600527Y16717120D01*
X23501048Y16957285D01*
X23365226Y17178924D01*
X23365225Y17178927D01*
X23320910Y17230813D01*
X23196398Y17376598D01*
X23016526Y17530223D01*
X22998726Y17545426D01*
X22998723Y17545427D01*
X22777084Y17681249D01*
X22536919Y17780728D01*
X22284153Y17841411D01*
X22025000Y17861807D01*
X21765846Y17841411D01*
X21513080Y17780728D01*
X21272915Y17681249D01*
X21051276Y17545427D01*
X21051273Y17545426D01*
X20853602Y17376598D01*
X20684774Y17178927D01*
X20684773Y17178924D01*
X20548951Y16957285D01*
X20491916Y16819588D01*
X20448075Y16765185D01*
X20381781Y16743120D01*
X20314081Y16760399D01*
X20266471Y16811537D01*
X20253779Y16877281D01*
X20262290Y16979995D01*
X20262290Y16980007D01*
X20243166Y17210802D01*
X20243164Y17210813D01*
X20186310Y17435324D01*
X20093277Y17647416D01*
X19966606Y17841302D01*
X19809742Y18011701D01*
X19809738Y18011704D01*
X19626984Y18153947D01*
X19626979Y18153951D01*
X19423294Y18264180D01*
X19423288Y18264182D01*
X19204245Y18339380D01*
X19032910Y18367970D01*
X18975800Y18377500D01*
X18744200Y18377500D01*
X18698511Y18369876D01*
X18515754Y18339380D01*
X18296711Y18264182D01*
X18296705Y18264180D01*
X18093020Y18153951D01*
X18093015Y18153947D01*
X17910261Y18011704D01*
X17910257Y18011701D01*
X17753393Y17841302D01*
X17626722Y17647416D01*
X17533689Y17435324D01*
X17476835Y17210813D01*
X17476833Y17210802D01*
X17457710Y16980007D01*
X17457710Y16979994D01*
X17476833Y16749199D01*
X17476835Y16749188D01*
X17533689Y16524677D01*
X17626722Y16312585D01*
X17753396Y16118695D01*
X17879886Y15981291D01*
X17895358Y15964484D01*
X17896280Y15963483D01*
X17927203Y15900829D01*
X17919343Y15831403D01*
X17875196Y15777247D01*
X17808779Y15755556D01*
X17805051Y15755500D01*
X13536365Y15755500D01*
X13469326Y15775185D01*
X13423571Y15827989D01*
X13413627Y15897147D01*
X13442652Y15960703D01*
X13446320Y15964484D01*
X13446271Y15964529D01*
X13449742Y15968301D01*
X13449745Y15968302D01*
X13606604Y16138696D01*
X13733277Y16332584D01*
X13826310Y16544677D01*
X13883165Y16769191D01*
X13887632Y16823098D01*
X13902290Y16999994D01*
X13902290Y17000007D01*
X13883166Y17230802D01*
X13883164Y17230813D01*
X13826310Y17455324D01*
X13733277Y17667416D01*
X13606606Y17861302D01*
X13468156Y18011698D01*
X13449745Y18031698D01*
X13449744Y18031699D01*
X13449742Y18031701D01*
X13449738Y18031704D01*
X13266984Y18173947D01*
X13266979Y18173951D01*
X13063294Y18284180D01*
X13063288Y18284182D01*
X12844245Y18359380D01*
X12672910Y18387970D01*
X12615800Y18397500D01*
X12384200Y18397500D01*
X12338511Y18389876D01*
X12155754Y18359380D01*
X11936711Y18284182D01*
X11936705Y18284180D01*
X11733020Y18173951D01*
X11733015Y18173947D01*
X11550261Y18031704D01*
X11550257Y18031701D01*
X11393393Y17861302D01*
X11266722Y17667416D01*
X11173689Y17455324D01*
X11116835Y17230813D01*
X11116833Y17230802D01*
X11097710Y17000007D01*
X11097710Y17000005D01*
X11097710Y17000000D01*
X11102509Y16942084D01*
X11112368Y16823098D01*
X11098286Y16754662D01*
X11049440Y16704703D01*
X10981339Y16689083D01*
X10915604Y16712761D01*
X10874230Y16765407D01*
X10801050Y16942081D01*
X10801048Y16942084D01*
X10777809Y16980007D01*
X10665225Y17163725D01*
X10665225Y17163727D01*
X10607928Y17230813D01*
X10496398Y17361398D01*
X10365710Y17473016D01*
X10298726Y17530226D01*
X10298723Y17530227D01*
X10077084Y17666049D01*
X9836919Y17765528D01*
X9584153Y17826211D01*
X9325000Y17846607D01*
X9065846Y17826211D01*
X8813080Y17765528D01*
X8572915Y17666049D01*
X8351276Y17530227D01*
X8351273Y17530226D01*
X8153602Y17361398D01*
X7984774Y17163727D01*
X7984773Y17163724D01*
X7858527Y16957710D01*
X7806715Y16910835D01*
X7752800Y16898500D01*
X4534833Y16898500D01*
X4467794Y16918185D01*
X4447152Y16934819D01*
X4370495Y17011476D01*
X4337010Y17072799D01*
X4337971Y17129599D01*
X4344564Y17155632D01*
X4346494Y17178924D01*
X4363156Y17379995D01*
X4363156Y17380006D01*
X4344565Y17604360D01*
X4344563Y17604372D01*
X4303753Y17765527D01*
X4289296Y17822616D01*
X4238819Y17937691D01*
X4229917Y18006990D01*
X4259894Y18070102D01*
X4319234Y18106989D01*
X4352376Y18111500D01*
X9360109Y18111500D01*
X9360110Y18111500D01*
X9360111Y18111500D01*
X9437491Y18132234D01*
X9514873Y18152968D01*
X9653627Y18233078D01*
X11985944Y20565397D01*
X12047265Y20598880D01*
X12113884Y20594996D01*
X12155758Y20580620D01*
X12384200Y20542500D01*
X12384201Y20542500D01*
X12615799Y20542500D01*
X12615800Y20542500D01*
X12844242Y20580620D01*
X13063293Y20655820D01*
X13266980Y20766050D01*
X13449745Y20908302D01*
X13606604Y21078696D01*
X13733277Y21272584D01*
X13826310Y21484677D01*
X13883165Y21709191D01*
X13883166Y21709199D01*
X13900650Y21920207D01*
X17447710Y21920207D01*
X17447710Y21920194D01*
X17466833Y21689399D01*
X17466835Y21689388D01*
X17523689Y21464877D01*
X17616722Y21252785D01*
X17743393Y21058899D01*
X17900257Y20888500D01*
X17900261Y20888497D01*
X18083020Y20746250D01*
X18286707Y20636020D01*
X18394893Y20598880D01*
X18505754Y20560821D01*
X18505756Y20560821D01*
X18505758Y20560820D01*
X18734200Y20522700D01*
X18734201Y20522700D01*
X18965799Y20522700D01*
X18965800Y20522700D01*
X19194242Y20560820D01*
X19413293Y20636020D01*
X19616980Y20746250D01*
X19799745Y20888502D01*
X19956604Y21058896D01*
X20083277Y21252784D01*
X20176310Y21464877D01*
X20233165Y21689391D01*
X20233166Y21689399D01*
X20252290Y21920194D01*
X20252290Y21920207D01*
X20233166Y22151002D01*
X20233164Y22151013D01*
X20176310Y22375524D01*
X20083277Y22587616D01*
X19956606Y22781502D01*
X19799742Y22951901D01*
X19799738Y22951904D01*
X19616984Y23094147D01*
X19616979Y23094151D01*
X19413294Y23204380D01*
X19413288Y23204382D01*
X19194245Y23279580D01*
X19022910Y23308170D01*
X18965800Y23317700D01*
X18734200Y23317700D01*
X18688511Y23310076D01*
X18505754Y23279580D01*
X18286711Y23204382D01*
X18286705Y23204380D01*
X18083020Y23094151D01*
X18083015Y23094147D01*
X17900261Y22951904D01*
X17900257Y22951901D01*
X17743393Y22781502D01*
X17616722Y22587616D01*
X17523689Y22375524D01*
X17466835Y22151013D01*
X17466833Y22151002D01*
X17447710Y21920207D01*
X13900650Y21920207D01*
X13902290Y21939994D01*
X13902290Y21940007D01*
X13883166Y22170802D01*
X13883164Y22170813D01*
X13826310Y22395324D01*
X13733277Y22607416D01*
X13606606Y22801302D01*
X13513340Y22902615D01*
X13449745Y22971698D01*
X13449744Y22971699D01*
X13449742Y22971701D01*
X13449738Y22971704D01*
X13266984Y23113947D01*
X13266979Y23113951D01*
X13063294Y23224180D01*
X13063288Y23224182D01*
X12844245Y23299380D01*
X12672910Y23327970D01*
X12615800Y23337500D01*
X12384200Y23337500D01*
X12338511Y23329876D01*
X12155754Y23299380D01*
X11936711Y23224182D01*
X11936705Y23224180D01*
X11733020Y23113951D01*
X11733015Y23113947D01*
X11550261Y22971704D01*
X11550257Y22971701D01*
X11393393Y22801302D01*
X11266722Y22607416D01*
X11173689Y22395324D01*
X11116835Y22170813D01*
X11116833Y22170802D01*
X11097710Y21940007D01*
X11097710Y21939994D01*
X11116833Y21709199D01*
X11116835Y21709191D01*
X11158503Y21544650D01*
X11155878Y21474829D01*
X11125978Y21426528D01*
X9064270Y19364819D01*
X9002947Y19331334D01*
X8976589Y19328500D01*
X4410909Y19328500D01*
X4343870Y19348185D01*
X4298115Y19400989D01*
X4288171Y19470147D01*
X4290703Y19482940D01*
X4344563Y19695629D01*
X4344564Y19695632D01*
X4363156Y19920000D01*
X4344564Y20144368D01*
X4289296Y20362616D01*
X4198860Y20568791D01*
X4075722Y20757268D01*
X4075719Y20757271D01*
X4075715Y20757277D01*
X3923243Y20922903D01*
X3923238Y20922908D01*
X3745577Y21061188D01*
X3745578Y21061188D01*
X3745576Y21061189D01*
X3709070Y21080945D01*
X3659479Y21130164D01*
X3644371Y21198381D01*
X3668541Y21263936D01*
X3709070Y21299055D01*
X3709084Y21299064D01*
X3745576Y21318811D01*
X3923240Y21457094D01*
X4075722Y21622732D01*
X4198860Y21811209D01*
X4289296Y22017384D01*
X4344564Y22235632D01*
X4363156Y22460000D01*
X4352581Y22587616D01*
X4344565Y22684360D01*
X4344563Y22684372D01*
X4289296Y22902615D01*
X4267677Y22951901D01*
X4198860Y23108791D01*
X4195491Y23113947D01*
X4075723Y23297266D01*
X4075715Y23297277D01*
X3923243Y23462903D01*
X3923238Y23462908D01*
X3745577Y23601188D01*
X3745578Y23601188D01*
X3745576Y23601189D01*
X3709070Y23620945D01*
X3659479Y23670164D01*
X3644371Y23738381D01*
X3668541Y23803936D01*
X3709070Y23839055D01*
X3709084Y23839064D01*
X3745576Y23858811D01*
X3923240Y23997094D01*
X4075722Y24162732D01*
X4198860Y24351209D01*
X4289296Y24557384D01*
X4344564Y24775632D01*
X4363156Y25000000D01*
X4344564Y25224368D01*
X4289296Y25442616D01*
X4198860Y25648791D01*
X4075722Y25837268D01*
X4075719Y25837271D01*
X4075715Y25837277D01*
X3923243Y26002903D01*
X3923238Y26002908D01*
X3745577Y26141188D01*
X3745578Y26141188D01*
X3745576Y26141189D01*
X3709070Y26160945D01*
X3659479Y26210164D01*
X3644371Y26278381D01*
X3668541Y26343936D01*
X3709070Y26379055D01*
X3709084Y26379064D01*
X3745576Y26398811D01*
X3923240Y26537094D01*
X4075722Y26702732D01*
X4198860Y26891209D01*
X4289296Y27097384D01*
X4344564Y27315632D01*
X4363156Y27540000D01*
X4344564Y27764368D01*
X4289296Y27982616D01*
X4198860Y28188791D01*
X4075722Y28377268D01*
X4075719Y28377271D01*
X4075715Y28377277D01*
X3923243Y28542903D01*
X3923238Y28542908D01*
X3745577Y28681188D01*
X3745572Y28681192D01*
X3547580Y28788339D01*
X3547577Y28788341D01*
X3547574Y28788342D01*
X3547571Y28788343D01*
X3547569Y28788344D01*
X3334637Y28861444D01*
X3112569Y28898500D01*
X2887431Y28898500D01*
X2665362Y28861444D01*
X2452430Y28788344D01*
X2452419Y28788339D01*
X2254427Y28681192D01*
X2254422Y28681188D01*
X2076761Y28542908D01*
X2076756Y28542903D01*
X1924284Y28377277D01*
X1924276Y28377266D01*
X1801140Y28188793D01*
X1710703Y27982615D01*
X1655436Y27764372D01*
X1655434Y27764360D01*
X1636844Y27540006D01*
X1636844Y27539995D01*
X1655434Y27315641D01*
X1655436Y27315629D01*
X1710703Y27097386D01*
X1801140Y26891208D01*
X1924276Y26702735D01*
X1924284Y26702724D01*
X2076756Y26537098D01*
X2076760Y26537094D01*
X2254424Y26398811D01*
X2254429Y26398809D01*
X2254431Y26398807D01*
X2290930Y26379054D01*
X2340520Y26329835D01*
X2355628Y26261618D01*
X2331457Y26196063D01*
X2290930Y26160946D01*
X2254431Y26141194D01*
X2254422Y26141188D01*
X2076761Y26002908D01*
X2076756Y26002903D01*
X1924284Y25837277D01*
X1924276Y25837266D01*
X1801140Y25648793D01*
X1710703Y25442615D01*
X1655436Y25224372D01*
X1655434Y25224360D01*
X1636844Y25000006D01*
X1636844Y24999995D01*
X1655434Y24775641D01*
X1655436Y24775629D01*
X1710703Y24557386D01*
X1801140Y24351208D01*
X1924276Y24162735D01*
X1924284Y24162724D01*
X2076756Y23997098D01*
X2076760Y23997094D01*
X2254424Y23858811D01*
X2254429Y23858809D01*
X2254431Y23858807D01*
X2290930Y23839054D01*
X2340520Y23789835D01*
X2355628Y23721618D01*
X2331457Y23656063D01*
X2290930Y23620946D01*
X2254431Y23601194D01*
X2254422Y23601188D01*
X2076761Y23462908D01*
X2076756Y23462903D01*
X1924284Y23297277D01*
X1924276Y23297266D01*
X1801140Y23108793D01*
X1710703Y22902615D01*
X1655436Y22684372D01*
X1655434Y22684360D01*
X1636844Y22460006D01*
X1636844Y22459995D01*
X1655434Y22235641D01*
X1655436Y22235629D01*
X1710703Y22017386D01*
X1801140Y21811208D01*
X1924276Y21622735D01*
X1924284Y21622724D01*
X2069595Y21464877D01*
X2076760Y21457094D01*
X2254424Y21318811D01*
X2254429Y21318809D01*
X2254431Y21318807D01*
X2290930Y21299054D01*
X2340520Y21249835D01*
X2355628Y21181618D01*
X2331457Y21116063D01*
X2290930Y21080946D01*
X2254431Y21061194D01*
X2254422Y21061188D01*
X2076761Y20922908D01*
X2076756Y20922903D01*
X1924284Y20757277D01*
X1924276Y20757266D01*
X1801140Y20568793D01*
X1710703Y20362615D01*
X1655436Y20144372D01*
X1655434Y20144360D01*
X1636844Y19920006D01*
X1636844Y19919995D01*
X1655434Y19695641D01*
X1655436Y19695629D01*
X1710703Y19477386D01*
X1801139Y19271210D01*
X1924275Y19082735D01*
X1924278Y19082732D01*
X1983447Y19018458D01*
X2014369Y18955806D01*
X2006509Y18886379D01*
X1979898Y18846795D01*
X1363080Y18229976D01*
X1363078Y18229973D01*
X1282969Y18091222D01*
X1282968Y18091220D01*
X1282968Y18091219D01*
X1274944Y18061273D01*
X1274943Y18061272D01*
X1241500Y17936457D01*
X1241500Y13369891D01*
X1282968Y13215126D01*
X1323023Y13145750D01*
X1363078Y13076373D01*
X1363080Y13076371D01*
X1658080Y12781371D01*
X1691565Y12720048D01*
X1690605Y12663250D01*
X1655435Y12524365D01*
X1636844Y12300006D01*
X1636844Y12299995D01*
X1655434Y12075641D01*
X1655436Y12075629D01*
X1710703Y11857386D01*
X1801139Y11651210D01*
X1924275Y11462735D01*
X1924278Y11462732D01*
X1928967Y11457638D01*
X1959891Y11394985D01*
X1952033Y11325559D01*
X1925421Y11285972D01*
X1213080Y10573630D01*
X1213076Y10573624D01*
X1132969Y10434877D01*
X1132968Y10434873D01*
X1124396Y10402881D01*
X1124395Y10402880D01*
X1091500Y10280111D01*
X1091500Y8439891D01*
X1132968Y8285126D01*
X1173023Y8215750D01*
X1213078Y8146373D01*
X1213080Y8146371D01*
X1658080Y7701371D01*
X1691565Y7640048D01*
X1690605Y7583250D01*
X1655435Y7444365D01*
X1636844Y7220006D01*
X1636844Y7219995D01*
X1655434Y6995641D01*
X1655436Y6995629D01*
X1710703Y6777386D01*
X1801140Y6571208D01*
X1924276Y6382735D01*
X1924284Y6382724D01*
X1996434Y6304350D01*
X2076760Y6217094D01*
X2254424Y6078811D01*
X2289184Y6060000D01*
X2297695Y6055394D01*
X2347286Y6006175D01*
X2362394Y5937958D01*
X2338224Y5872403D01*
X2309802Y5844764D01*
X2128922Y5718110D01*
X2128920Y5718109D01*
X1961891Y5551080D01*
X1961886Y5551074D01*
X1826400Y5357580D01*
X1826399Y5357578D01*
X1726570Y5143493D01*
X1726567Y5143487D01*
X1669364Y4930001D01*
X1669364Y4930000D01*
X2566988Y4930000D01*
X2534075Y4872993D01*
X2500000Y4745826D01*
X2500000Y4614174D01*
X2534075Y4487007D01*
X2566988Y4430000D01*
X1669364Y4430000D01*
X1726567Y4216514D01*
X1726570Y4216508D01*
X1826399Y4002422D01*
X1961894Y3808918D01*
X2077727Y3693085D01*
X2111212Y3631762D01*
X2106228Y3562070D01*
X2064356Y3506137D01*
X2033381Y3489223D01*
X1903795Y3440889D01*
X1786739Y3353261D01*
X1699111Y3236205D01*
X1648011Y3099205D01*
X1648011Y3099203D01*
X1641500Y3038655D01*
X1641500Y1241346D01*
X1648011Y1180798D01*
X1648011Y1180796D01*
X1694539Y1056054D01*
X1699111Y1043796D01*
X1786739Y926739D01*
X1903796Y839111D01*
X2040799Y788011D01*
X2068050Y785082D01*
X2101345Y781501D01*
X2101362Y781500D01*
X3898638Y781500D01*
X3898654Y781501D01*
X3925692Y784409D01*
X3959201Y788011D01*
X4096204Y839111D01*
X4213261Y926739D01*
X4300889Y1043796D01*
X4351989Y1180799D01*
X4356021Y1218302D01*
X4358499Y1241346D01*
X4358500Y1241363D01*
X4358500Y3038638D01*
X4358499Y3038655D01*
X4352838Y3091303D01*
X4351989Y3099201D01*
X4347476Y3111300D01*
X4329522Y3159436D01*
X4300889Y3236204D01*
X4213261Y3353261D01*
X4096204Y3440889D01*
X4096202Y3440890D01*
X4096204Y3440890D01*
X3966619Y3489223D01*
X3910685Y3531094D01*
X3886269Y3596559D01*
X3901121Y3664832D01*
X3922272Y3693086D01*
X4038108Y3808922D01*
X4173600Y4002422D01*
X4273429Y4216508D01*
X4273432Y4216514D01*
X4330636Y4430000D01*
X3433012Y4430000D01*
X3465925Y4487007D01*
X3500000Y4614174D01*
X3500000Y4745826D01*
X3465925Y4872993D01*
X3433012Y4930000D01*
X4330636Y4930000D01*
X4330635Y4930001D01*
X4275152Y5137068D01*
X4276815Y5206918D01*
X4315977Y5264781D01*
X4380206Y5292285D01*
X4449108Y5280699D01*
X4482608Y5256843D01*
X9027770Y711681D01*
X9061255Y650358D01*
X9056271Y580666D01*
X9014399Y524733D01*
X8948935Y500316D01*
X8940089Y500000D01*
X624000Y500000D01*
X556961Y519685D01*
X511206Y572489D01*
X500000Y624000D01*
X500000Y29376000D01*
X519685Y29443039D01*
X572489Y29488794D01*
X624000Y29500000D01*
X54876000Y29500000D01*
X54943039Y29480315D01*
G37*
%TD.AperFunction*%
%TD*%
M02*
