%TF.GenerationSoftware,KiCad,Pcbnew,8.0.7*%
%TF.CreationDate,2025-01-13T22:15:30+01:00*%
%TF.ProjectId,ps4,7073342e-6b69-4636-9164-5f7063625858,rev?*%
%TF.SameCoordinates,PX54c81a0PY93ea360*%
%TF.FileFunction,Legend,Top*%
%TF.FilePolarity,Positive*%
%FSLAX46Y46*%
G04 Gerber Fmt 4.6, Leading zero omitted, Abs format (unit mm)*
G04 Created by KiCad (PCBNEW 8.0.7) date 2025-01-13 22:15:30*
%MOMM*%
%LPD*%
G01*
G04 APERTURE LIST*
%ADD10C,0.150000*%
%ADD11C,0.120000*%
%ADD12C,0.200000*%
%ADD13C,0.127000*%
G04 APERTURE END LIST*
D10*
X5432017Y25639039D02*
X5432017Y24991420D01*
X5432017Y24991420D02*
X5393922Y24915229D01*
X5393922Y24915229D02*
X5355826Y24877134D01*
X5355826Y24877134D02*
X5279636Y24839039D01*
X5279636Y24839039D02*
X5165350Y24839039D01*
X5165350Y24839039D02*
X5089160Y24877134D01*
X5432017Y25143800D02*
X5355826Y25105705D01*
X5355826Y25105705D02*
X5203445Y25105705D01*
X5203445Y25105705D02*
X5127255Y25143800D01*
X5127255Y25143800D02*
X5089160Y25181896D01*
X5089160Y25181896D02*
X5051064Y25258086D01*
X5051064Y25258086D02*
X5051064Y25486658D01*
X5051064Y25486658D02*
X5089160Y25562848D01*
X5089160Y25562848D02*
X5127255Y25600943D01*
X5127255Y25600943D02*
X5203445Y25639039D01*
X5203445Y25639039D02*
X5355826Y25639039D01*
X5355826Y25639039D02*
X5432017Y25600943D01*
X5812970Y25105705D02*
X5812970Y25639039D01*
X5812970Y25905705D02*
X5774874Y25867610D01*
X5774874Y25867610D02*
X5812970Y25829515D01*
X5812970Y25829515D02*
X5851065Y25867610D01*
X5851065Y25867610D02*
X5812970Y25905705D01*
X5812970Y25905705D02*
X5812970Y25829515D01*
X6079636Y25639039D02*
X6384398Y25639039D01*
X6193922Y25905705D02*
X6193922Y25219991D01*
X6193922Y25219991D02*
X6232017Y25143800D01*
X6232017Y25143800D02*
X6308207Y25105705D01*
X6308207Y25105705D02*
X6384398Y25105705D01*
X6651065Y25105705D02*
X6651065Y25905705D01*
X6993922Y25105705D02*
X6993922Y25524753D01*
X6993922Y25524753D02*
X6955827Y25600943D01*
X6955827Y25600943D02*
X6879636Y25639039D01*
X6879636Y25639039D02*
X6765350Y25639039D01*
X6765350Y25639039D02*
X6689160Y25600943D01*
X6689160Y25600943D02*
X6651065Y25562848D01*
X7717732Y25639039D02*
X7717732Y25105705D01*
X7374875Y25639039D02*
X7374875Y25219991D01*
X7374875Y25219991D02*
X7412970Y25143800D01*
X7412970Y25143800D02*
X7489160Y25105705D01*
X7489160Y25105705D02*
X7603446Y25105705D01*
X7603446Y25105705D02*
X7679637Y25143800D01*
X7679637Y25143800D02*
X7717732Y25181896D01*
X8098685Y25105705D02*
X8098685Y25905705D01*
X8098685Y25600943D02*
X8174875Y25639039D01*
X8174875Y25639039D02*
X8327256Y25639039D01*
X8327256Y25639039D02*
X8403447Y25600943D01*
X8403447Y25600943D02*
X8441542Y25562848D01*
X8441542Y25562848D02*
X8479637Y25486658D01*
X8479637Y25486658D02*
X8479637Y25258086D01*
X8479637Y25258086D02*
X8441542Y25181896D01*
X8441542Y25181896D02*
X8403447Y25143800D01*
X8403447Y25143800D02*
X8327256Y25105705D01*
X8327256Y25105705D02*
X8174875Y25105705D01*
X8174875Y25105705D02*
X8098685Y25143800D01*
X8822495Y25181896D02*
X8860590Y25143800D01*
X8860590Y25143800D02*
X8822495Y25105705D01*
X8822495Y25105705D02*
X8784399Y25143800D01*
X8784399Y25143800D02*
X8822495Y25181896D01*
X8822495Y25181896D02*
X8822495Y25105705D01*
X9546304Y25143800D02*
X9470113Y25105705D01*
X9470113Y25105705D02*
X9317732Y25105705D01*
X9317732Y25105705D02*
X9241542Y25143800D01*
X9241542Y25143800D02*
X9203447Y25181896D01*
X9203447Y25181896D02*
X9165351Y25258086D01*
X9165351Y25258086D02*
X9165351Y25486658D01*
X9165351Y25486658D02*
X9203447Y25562848D01*
X9203447Y25562848D02*
X9241542Y25600943D01*
X9241542Y25600943D02*
X9317732Y25639039D01*
X9317732Y25639039D02*
X9470113Y25639039D01*
X9470113Y25639039D02*
X9546304Y25600943D01*
X10003446Y25105705D02*
X9927256Y25143800D01*
X9927256Y25143800D02*
X9889161Y25181896D01*
X9889161Y25181896D02*
X9851065Y25258086D01*
X9851065Y25258086D02*
X9851065Y25486658D01*
X9851065Y25486658D02*
X9889161Y25562848D01*
X9889161Y25562848D02*
X9927256Y25600943D01*
X9927256Y25600943D02*
X10003446Y25639039D01*
X10003446Y25639039D02*
X10117732Y25639039D01*
X10117732Y25639039D02*
X10193923Y25600943D01*
X10193923Y25600943D02*
X10232018Y25562848D01*
X10232018Y25562848D02*
X10270113Y25486658D01*
X10270113Y25486658D02*
X10270113Y25258086D01*
X10270113Y25258086D02*
X10232018Y25181896D01*
X10232018Y25181896D02*
X10193923Y25143800D01*
X10193923Y25143800D02*
X10117732Y25105705D01*
X10117732Y25105705D02*
X10003446Y25105705D01*
X10612971Y25105705D02*
X10612971Y25639039D01*
X10612971Y25562848D02*
X10651066Y25600943D01*
X10651066Y25600943D02*
X10727256Y25639039D01*
X10727256Y25639039D02*
X10841542Y25639039D01*
X10841542Y25639039D02*
X10917733Y25600943D01*
X10917733Y25600943D02*
X10955828Y25524753D01*
X10955828Y25524753D02*
X10955828Y25105705D01*
X10955828Y25524753D02*
X10993923Y25600943D01*
X10993923Y25600943D02*
X11070114Y25639039D01*
X11070114Y25639039D02*
X11184399Y25639039D01*
X11184399Y25639039D02*
X11260590Y25600943D01*
X11260590Y25600943D02*
X11298685Y25524753D01*
X11298685Y25524753D02*
X11298685Y25105705D01*
X12251066Y25943800D02*
X11565352Y24915229D01*
X12632018Y25105705D02*
X12555828Y25143800D01*
X12555828Y25143800D02*
X12517733Y25219991D01*
X12517733Y25219991D02*
X12517733Y25905705D01*
X12936781Y25105705D02*
X12936781Y25639039D01*
X12936781Y25905705D02*
X12898685Y25867610D01*
X12898685Y25867610D02*
X12936781Y25829515D01*
X12936781Y25829515D02*
X12974876Y25867610D01*
X12974876Y25867610D02*
X12936781Y25905705D01*
X12936781Y25905705D02*
X12936781Y25829515D01*
X13203447Y25639039D02*
X13508209Y25639039D01*
X13317733Y25905705D02*
X13317733Y25219991D01*
X13317733Y25219991D02*
X13355828Y25143800D01*
X13355828Y25143800D02*
X13432018Y25105705D01*
X13432018Y25105705D02*
X13508209Y25105705D01*
X13660590Y25639039D02*
X13965352Y25639039D01*
X13774876Y25905705D02*
X13774876Y25219991D01*
X13774876Y25219991D02*
X13812971Y25143800D01*
X13812971Y25143800D02*
X13889161Y25105705D01*
X13889161Y25105705D02*
X13965352Y25105705D01*
X14346304Y25105705D02*
X14270114Y25143800D01*
X14270114Y25143800D02*
X14232019Y25219991D01*
X14232019Y25219991D02*
X14232019Y25905705D01*
X14955829Y25143800D02*
X14879638Y25105705D01*
X14879638Y25105705D02*
X14727257Y25105705D01*
X14727257Y25105705D02*
X14651067Y25143800D01*
X14651067Y25143800D02*
X14612971Y25219991D01*
X14612971Y25219991D02*
X14612971Y25524753D01*
X14612971Y25524753D02*
X14651067Y25600943D01*
X14651067Y25600943D02*
X14727257Y25639039D01*
X14727257Y25639039D02*
X14879638Y25639039D01*
X14879638Y25639039D02*
X14955829Y25600943D01*
X14955829Y25600943D02*
X14993924Y25524753D01*
X14993924Y25524753D02*
X14993924Y25448562D01*
X14993924Y25448562D02*
X14612971Y25372372D01*
X15336781Y25410467D02*
X15946305Y25410467D01*
X16289161Y25143800D02*
X16365352Y25105705D01*
X16365352Y25105705D02*
X16517733Y25105705D01*
X16517733Y25105705D02*
X16593923Y25143800D01*
X16593923Y25143800D02*
X16632019Y25219991D01*
X16632019Y25219991D02*
X16632019Y25258086D01*
X16632019Y25258086D02*
X16593923Y25334277D01*
X16593923Y25334277D02*
X16517733Y25372372D01*
X16517733Y25372372D02*
X16403447Y25372372D01*
X16403447Y25372372D02*
X16327257Y25410467D01*
X16327257Y25410467D02*
X16289161Y25486658D01*
X16289161Y25486658D02*
X16289161Y25524753D01*
X16289161Y25524753D02*
X16327257Y25600943D01*
X16327257Y25600943D02*
X16403447Y25639039D01*
X16403447Y25639039D02*
X16517733Y25639039D01*
X16517733Y25639039D02*
X16593923Y25600943D01*
X17317733Y25143800D02*
X17241542Y25105705D01*
X17241542Y25105705D02*
X17089161Y25105705D01*
X17089161Y25105705D02*
X17012971Y25143800D01*
X17012971Y25143800D02*
X16974876Y25181896D01*
X16974876Y25181896D02*
X16936780Y25258086D01*
X16936780Y25258086D02*
X16936780Y25486658D01*
X16936780Y25486658D02*
X16974876Y25562848D01*
X16974876Y25562848D02*
X17012971Y25600943D01*
X17012971Y25600943D02*
X17089161Y25639039D01*
X17089161Y25639039D02*
X17241542Y25639039D01*
X17241542Y25639039D02*
X17317733Y25600943D01*
X18003447Y25105705D02*
X18003447Y25524753D01*
X18003447Y25524753D02*
X17965352Y25600943D01*
X17965352Y25600943D02*
X17889161Y25639039D01*
X17889161Y25639039D02*
X17736780Y25639039D01*
X17736780Y25639039D02*
X17660590Y25600943D01*
X18003447Y25143800D02*
X17927256Y25105705D01*
X17927256Y25105705D02*
X17736780Y25105705D01*
X17736780Y25105705D02*
X17660590Y25143800D01*
X17660590Y25143800D02*
X17622494Y25219991D01*
X17622494Y25219991D02*
X17622494Y25296181D01*
X17622494Y25296181D02*
X17660590Y25372372D01*
X17660590Y25372372D02*
X17736780Y25410467D01*
X17736780Y25410467D02*
X17927256Y25410467D01*
X17927256Y25410467D02*
X18003447Y25448562D01*
X18498685Y25105705D02*
X18422495Y25143800D01*
X18422495Y25143800D02*
X18384400Y25219991D01*
X18384400Y25219991D02*
X18384400Y25905705D01*
X19108210Y25143800D02*
X19032019Y25105705D01*
X19032019Y25105705D02*
X18879638Y25105705D01*
X18879638Y25105705D02*
X18803448Y25143800D01*
X18803448Y25143800D02*
X18765352Y25219991D01*
X18765352Y25219991D02*
X18765352Y25524753D01*
X18765352Y25524753D02*
X18803448Y25600943D01*
X18803448Y25600943D02*
X18879638Y25639039D01*
X18879638Y25639039D02*
X19032019Y25639039D01*
X19032019Y25639039D02*
X19108210Y25600943D01*
X19108210Y25600943D02*
X19146305Y25524753D01*
X19146305Y25524753D02*
X19146305Y25448562D01*
X19146305Y25448562D02*
X18765352Y25372372D01*
X20060590Y25943800D02*
X19374876Y24915229D01*
X20327257Y25105705D02*
X20327257Y25905705D01*
X20327257Y25905705D02*
X20632019Y25905705D01*
X20632019Y25905705D02*
X20708209Y25867610D01*
X20708209Y25867610D02*
X20746304Y25829515D01*
X20746304Y25829515D02*
X20784400Y25753324D01*
X20784400Y25753324D02*
X20784400Y25639039D01*
X20784400Y25639039D02*
X20746304Y25562848D01*
X20746304Y25562848D02*
X20708209Y25524753D01*
X20708209Y25524753D02*
X20632019Y25486658D01*
X20632019Y25486658D02*
X20327257Y25486658D01*
X21089161Y25143800D02*
X21203447Y25105705D01*
X21203447Y25105705D02*
X21393923Y25105705D01*
X21393923Y25105705D02*
X21470114Y25143800D01*
X21470114Y25143800D02*
X21508209Y25181896D01*
X21508209Y25181896D02*
X21546304Y25258086D01*
X21546304Y25258086D02*
X21546304Y25334277D01*
X21546304Y25334277D02*
X21508209Y25410467D01*
X21508209Y25410467D02*
X21470114Y25448562D01*
X21470114Y25448562D02*
X21393923Y25486658D01*
X21393923Y25486658D02*
X21241542Y25524753D01*
X21241542Y25524753D02*
X21165352Y25562848D01*
X21165352Y25562848D02*
X21127257Y25600943D01*
X21127257Y25600943D02*
X21089161Y25677134D01*
X21089161Y25677134D02*
X21089161Y25753324D01*
X21089161Y25753324D02*
X21127257Y25829515D01*
X21127257Y25829515D02*
X21165352Y25867610D01*
X21165352Y25867610D02*
X21241542Y25905705D01*
X21241542Y25905705D02*
X21432019Y25905705D01*
X21432019Y25905705D02*
X21546304Y25867610D01*
X22232019Y25639039D02*
X22232019Y25105705D01*
X22041543Y25943800D02*
X21851066Y25372372D01*
X21851066Y25372372D02*
X22346305Y25372372D01*
X22460591Y25029515D02*
X23070114Y25029515D01*
X23260591Y25639039D02*
X23260591Y24953324D01*
X23260591Y24953324D02*
X23222495Y24877134D01*
X23222495Y24877134D02*
X23146305Y24839039D01*
X23146305Y24839039D02*
X23108210Y24839039D01*
X23260591Y25905705D02*
X23222495Y25867610D01*
X23222495Y25867610D02*
X23260591Y25829515D01*
X23260591Y25829515D02*
X23298686Y25867610D01*
X23298686Y25867610D02*
X23260591Y25905705D01*
X23260591Y25905705D02*
X23260591Y25829515D01*
X23755828Y25105705D02*
X23679638Y25143800D01*
X23679638Y25143800D02*
X23641543Y25181896D01*
X23641543Y25181896D02*
X23603447Y25258086D01*
X23603447Y25258086D02*
X23603447Y25486658D01*
X23603447Y25486658D02*
X23641543Y25562848D01*
X23641543Y25562848D02*
X23679638Y25600943D01*
X23679638Y25600943D02*
X23755828Y25639039D01*
X23755828Y25639039D02*
X23870114Y25639039D01*
X23870114Y25639039D02*
X23946305Y25600943D01*
X23946305Y25600943D02*
X23984400Y25562848D01*
X23984400Y25562848D02*
X24022495Y25486658D01*
X24022495Y25486658D02*
X24022495Y25258086D01*
X24022495Y25258086D02*
X23984400Y25181896D01*
X23984400Y25181896D02*
X23946305Y25143800D01*
X23946305Y25143800D02*
X23870114Y25105705D01*
X23870114Y25105705D02*
X23755828Y25105705D01*
X24289162Y25639039D02*
X24479638Y25105705D01*
X24670115Y25639039D02*
X24479638Y25105705D01*
X24479638Y25105705D02*
X24403448Y24915229D01*
X24403448Y24915229D02*
X24365353Y24877134D01*
X24365353Y24877134D02*
X24289162Y24839039D01*
X24936781Y25143800D02*
X25012972Y25105705D01*
X25012972Y25105705D02*
X25165353Y25105705D01*
X25165353Y25105705D02*
X25241543Y25143800D01*
X25241543Y25143800D02*
X25279639Y25219991D01*
X25279639Y25219991D02*
X25279639Y25258086D01*
X25279639Y25258086D02*
X25241543Y25334277D01*
X25241543Y25334277D02*
X25165353Y25372372D01*
X25165353Y25372372D02*
X25051067Y25372372D01*
X25051067Y25372372D02*
X24974877Y25410467D01*
X24974877Y25410467D02*
X24936781Y25486658D01*
X24936781Y25486658D02*
X24936781Y25524753D01*
X24936781Y25524753D02*
X24974877Y25600943D01*
X24974877Y25600943D02*
X25051067Y25639039D01*
X25051067Y25639039D02*
X25165353Y25639039D01*
X25165353Y25639039D02*
X25241543Y25600943D01*
X25508210Y25639039D02*
X25812972Y25639039D01*
X25622496Y25905705D02*
X25622496Y25219991D01*
X25622496Y25219991D02*
X25660591Y25143800D01*
X25660591Y25143800D02*
X25736781Y25105705D01*
X25736781Y25105705D02*
X25812972Y25105705D01*
X26079639Y25105705D02*
X26079639Y25639039D01*
X26079639Y25905705D02*
X26041543Y25867610D01*
X26041543Y25867610D02*
X26079639Y25829515D01*
X26079639Y25829515D02*
X26117734Y25867610D01*
X26117734Y25867610D02*
X26079639Y25905705D01*
X26079639Y25905705D02*
X26079639Y25829515D01*
X26803448Y25143800D02*
X26727257Y25105705D01*
X26727257Y25105705D02*
X26574876Y25105705D01*
X26574876Y25105705D02*
X26498686Y25143800D01*
X26498686Y25143800D02*
X26460591Y25181896D01*
X26460591Y25181896D02*
X26422495Y25258086D01*
X26422495Y25258086D02*
X26422495Y25486658D01*
X26422495Y25486658D02*
X26460591Y25562848D01*
X26460591Y25562848D02*
X26498686Y25600943D01*
X26498686Y25600943D02*
X26574876Y25639039D01*
X26574876Y25639039D02*
X26727257Y25639039D01*
X26727257Y25639039D02*
X26803448Y25600943D01*
X27146305Y25105705D02*
X27146305Y25905705D01*
X27222495Y25410467D02*
X27451067Y25105705D01*
X27451067Y25639039D02*
X27146305Y25334277D01*
X27603448Y25029515D02*
X28212971Y25029515D01*
X28289162Y25639039D02*
X28593924Y25639039D01*
X28403448Y25105705D02*
X28403448Y25791420D01*
X28403448Y25791420D02*
X28441543Y25867610D01*
X28441543Y25867610D02*
X28517733Y25905705D01*
X28517733Y25905705D02*
X28593924Y25905705D01*
X28974876Y25105705D02*
X28898686Y25143800D01*
X28898686Y25143800D02*
X28860591Y25181896D01*
X28860591Y25181896D02*
X28822495Y25258086D01*
X28822495Y25258086D02*
X28822495Y25486658D01*
X28822495Y25486658D02*
X28860591Y25562848D01*
X28860591Y25562848D02*
X28898686Y25600943D01*
X28898686Y25600943D02*
X28974876Y25639039D01*
X28974876Y25639039D02*
X29089162Y25639039D01*
X29089162Y25639039D02*
X29165353Y25600943D01*
X29165353Y25600943D02*
X29203448Y25562848D01*
X29203448Y25562848D02*
X29241543Y25486658D01*
X29241543Y25486658D02*
X29241543Y25258086D01*
X29241543Y25258086D02*
X29203448Y25181896D01*
X29203448Y25181896D02*
X29165353Y25143800D01*
X29165353Y25143800D02*
X29089162Y25105705D01*
X29089162Y25105705D02*
X28974876Y25105705D01*
X29698686Y25105705D02*
X29622496Y25143800D01*
X29622496Y25143800D02*
X29584401Y25181896D01*
X29584401Y25181896D02*
X29546305Y25258086D01*
X29546305Y25258086D02*
X29546305Y25486658D01*
X29546305Y25486658D02*
X29584401Y25562848D01*
X29584401Y25562848D02*
X29622496Y25600943D01*
X29622496Y25600943D02*
X29698686Y25639039D01*
X29698686Y25639039D02*
X29812972Y25639039D01*
X29812972Y25639039D02*
X29889163Y25600943D01*
X29889163Y25600943D02*
X29927258Y25562848D01*
X29927258Y25562848D02*
X29965353Y25486658D01*
X29965353Y25486658D02*
X29965353Y25258086D01*
X29965353Y25258086D02*
X29927258Y25181896D01*
X29927258Y25181896D02*
X29889163Y25143800D01*
X29889163Y25143800D02*
X29812972Y25105705D01*
X29812972Y25105705D02*
X29698686Y25105705D01*
X30193925Y25639039D02*
X30498687Y25639039D01*
X30308211Y25905705D02*
X30308211Y25219991D01*
X30308211Y25219991D02*
X30346306Y25143800D01*
X30346306Y25143800D02*
X30422496Y25105705D01*
X30422496Y25105705D02*
X30498687Y25105705D01*
X30765354Y25639039D02*
X30765354Y24839039D01*
X30765354Y25600943D02*
X30841544Y25639039D01*
X30841544Y25639039D02*
X30993925Y25639039D01*
X30993925Y25639039D02*
X31070116Y25600943D01*
X31070116Y25600943D02*
X31108211Y25562848D01*
X31108211Y25562848D02*
X31146306Y25486658D01*
X31146306Y25486658D02*
X31146306Y25258086D01*
X31146306Y25258086D02*
X31108211Y25181896D01*
X31108211Y25181896D02*
X31070116Y25143800D01*
X31070116Y25143800D02*
X30993925Y25105705D01*
X30993925Y25105705D02*
X30841544Y25105705D01*
X30841544Y25105705D02*
X30765354Y25143800D01*
X31489164Y25105705D02*
X31489164Y25639039D01*
X31489164Y25486658D02*
X31527259Y25562848D01*
X31527259Y25562848D02*
X31565354Y25600943D01*
X31565354Y25600943D02*
X31641545Y25639039D01*
X31641545Y25639039D02*
X31717735Y25639039D01*
X31984402Y25105705D02*
X31984402Y25639039D01*
X31984402Y25905705D02*
X31946306Y25867610D01*
X31946306Y25867610D02*
X31984402Y25829515D01*
X31984402Y25829515D02*
X32022497Y25867610D01*
X32022497Y25867610D02*
X31984402Y25905705D01*
X31984402Y25905705D02*
X31984402Y25829515D01*
X32365354Y25639039D02*
X32365354Y25105705D01*
X32365354Y25562848D02*
X32403449Y25600943D01*
X32403449Y25600943D02*
X32479639Y25639039D01*
X32479639Y25639039D02*
X32593925Y25639039D01*
X32593925Y25639039D02*
X32670116Y25600943D01*
X32670116Y25600943D02*
X32708211Y25524753D01*
X32708211Y25524753D02*
X32708211Y25105705D01*
X32974878Y25639039D02*
X33279640Y25639039D01*
X33089164Y25905705D02*
X33089164Y25219991D01*
X33089164Y25219991D02*
X33127259Y25143800D01*
X33127259Y25143800D02*
X33203449Y25105705D01*
X33203449Y25105705D02*
X33279640Y25105705D01*
X39766667Y24692800D02*
X39909524Y24645181D01*
X39909524Y24645181D02*
X40147619Y24645181D01*
X40147619Y24645181D02*
X40242857Y24692800D01*
X40242857Y24692800D02*
X40290476Y24740420D01*
X40290476Y24740420D02*
X40338095Y24835658D01*
X40338095Y24835658D02*
X40338095Y24930896D01*
X40338095Y24930896D02*
X40290476Y25026134D01*
X40290476Y25026134D02*
X40242857Y25073753D01*
X40242857Y25073753D02*
X40147619Y25121372D01*
X40147619Y25121372D02*
X39957143Y25168991D01*
X39957143Y25168991D02*
X39861905Y25216610D01*
X39861905Y25216610D02*
X39814286Y25264229D01*
X39814286Y25264229D02*
X39766667Y25359467D01*
X39766667Y25359467D02*
X39766667Y25454705D01*
X39766667Y25454705D02*
X39814286Y25549943D01*
X39814286Y25549943D02*
X39861905Y25597562D01*
X39861905Y25597562D02*
X39957143Y25645181D01*
X39957143Y25645181D02*
X40195238Y25645181D01*
X40195238Y25645181D02*
X40338095Y25597562D01*
X40671429Y25645181D02*
X40909524Y24645181D01*
X40909524Y24645181D02*
X41100000Y25359467D01*
X41100000Y25359467D02*
X41290476Y24645181D01*
X41290476Y24645181D02*
X41528572Y25645181D01*
X42338095Y25311848D02*
X42338095Y24645181D01*
X42100000Y25692800D02*
X41861905Y24978515D01*
X41861905Y24978515D02*
X42480952Y24978515D01*
X41100000Y20628158D02*
X41100000Y19913872D01*
X40600000Y21413872D02*
X41100000Y20628158D01*
X41100000Y20628158D02*
X41600000Y21413872D01*
X5666666Y2685181D02*
X5666666Y1970896D01*
X5666666Y1970896D02*
X5619047Y1828039D01*
X5619047Y1828039D02*
X5523809Y1732800D01*
X5523809Y1732800D02*
X5380952Y1685181D01*
X5380952Y1685181D02*
X5285714Y1685181D01*
X6666666Y1685181D02*
X6095238Y1685181D01*
X6380952Y1685181D02*
X6380952Y2685181D01*
X6380952Y2685181D02*
X6285714Y2542324D01*
X6285714Y2542324D02*
X6190476Y2447086D01*
X6190476Y2447086D02*
X6095238Y2399467D01*
X29306667Y14192800D02*
X29449524Y14145181D01*
X29449524Y14145181D02*
X29687619Y14145181D01*
X29687619Y14145181D02*
X29782857Y14192800D01*
X29782857Y14192800D02*
X29830476Y14240420D01*
X29830476Y14240420D02*
X29878095Y14335658D01*
X29878095Y14335658D02*
X29878095Y14430896D01*
X29878095Y14430896D02*
X29830476Y14526134D01*
X29830476Y14526134D02*
X29782857Y14573753D01*
X29782857Y14573753D02*
X29687619Y14621372D01*
X29687619Y14621372D02*
X29497143Y14668991D01*
X29497143Y14668991D02*
X29401905Y14716610D01*
X29401905Y14716610D02*
X29354286Y14764229D01*
X29354286Y14764229D02*
X29306667Y14859467D01*
X29306667Y14859467D02*
X29306667Y14954705D01*
X29306667Y14954705D02*
X29354286Y15049943D01*
X29354286Y15049943D02*
X29401905Y15097562D01*
X29401905Y15097562D02*
X29497143Y15145181D01*
X29497143Y15145181D02*
X29735238Y15145181D01*
X29735238Y15145181D02*
X29878095Y15097562D01*
X30211429Y15145181D02*
X30449524Y14145181D01*
X30449524Y14145181D02*
X30640000Y14859467D01*
X30640000Y14859467D02*
X30830476Y14145181D01*
X30830476Y14145181D02*
X31068572Y15145181D01*
X31973333Y14145181D02*
X31401905Y14145181D01*
X31687619Y14145181D02*
X31687619Y15145181D01*
X31687619Y15145181D02*
X31592381Y15002324D01*
X31592381Y15002324D02*
X31497143Y14907086D01*
X31497143Y14907086D02*
X31401905Y14859467D01*
X34600000Y15413872D02*
X35600000Y13913872D01*
X35600000Y15413872D02*
X34600000Y13913872D01*
X50266667Y14292800D02*
X50409524Y14245181D01*
X50409524Y14245181D02*
X50647619Y14245181D01*
X50647619Y14245181D02*
X50742857Y14292800D01*
X50742857Y14292800D02*
X50790476Y14340420D01*
X50790476Y14340420D02*
X50838095Y14435658D01*
X50838095Y14435658D02*
X50838095Y14530896D01*
X50838095Y14530896D02*
X50790476Y14626134D01*
X50790476Y14626134D02*
X50742857Y14673753D01*
X50742857Y14673753D02*
X50647619Y14721372D01*
X50647619Y14721372D02*
X50457143Y14768991D01*
X50457143Y14768991D02*
X50361905Y14816610D01*
X50361905Y14816610D02*
X50314286Y14864229D01*
X50314286Y14864229D02*
X50266667Y14959467D01*
X50266667Y14959467D02*
X50266667Y15054705D01*
X50266667Y15054705D02*
X50314286Y15149943D01*
X50314286Y15149943D02*
X50361905Y15197562D01*
X50361905Y15197562D02*
X50457143Y15245181D01*
X50457143Y15245181D02*
X50695238Y15245181D01*
X50695238Y15245181D02*
X50838095Y15197562D01*
X51171429Y15245181D02*
X51409524Y14245181D01*
X51409524Y14245181D02*
X51600000Y14959467D01*
X51600000Y14959467D02*
X51790476Y14245181D01*
X51790476Y14245181D02*
X52028572Y15245181D01*
X52314286Y15245181D02*
X52933333Y15245181D01*
X52933333Y15245181D02*
X52600000Y14864229D01*
X52600000Y14864229D02*
X52742857Y14864229D01*
X52742857Y14864229D02*
X52838095Y14816610D01*
X52838095Y14816610D02*
X52885714Y14768991D01*
X52885714Y14768991D02*
X52933333Y14673753D01*
X52933333Y14673753D02*
X52933333Y14435658D01*
X52933333Y14435658D02*
X52885714Y14340420D01*
X52885714Y14340420D02*
X52838095Y14292800D01*
X52838095Y14292800D02*
X52742857Y14245181D01*
X52742857Y14245181D02*
X52457143Y14245181D01*
X52457143Y14245181D02*
X52361905Y14292800D01*
X52361905Y14292800D02*
X52314286Y14340420D01*
X47207142Y14699586D02*
X47421428Y14628158D01*
X47421428Y14628158D02*
X47492857Y14556729D01*
X47492857Y14556729D02*
X47564285Y14413872D01*
X47564285Y14413872D02*
X47564285Y14199586D01*
X47564285Y14199586D02*
X47492857Y14056729D01*
X47492857Y14056729D02*
X47421428Y13985300D01*
X47421428Y13985300D02*
X47278571Y13913872D01*
X47278571Y13913872D02*
X46707142Y13913872D01*
X46707142Y13913872D02*
X46707142Y15413872D01*
X46707142Y15413872D02*
X47207142Y15413872D01*
X47207142Y15413872D02*
X47350000Y15342443D01*
X47350000Y15342443D02*
X47421428Y15271015D01*
X47421428Y15271015D02*
X47492857Y15128158D01*
X47492857Y15128158D02*
X47492857Y14985300D01*
X47492857Y14985300D02*
X47421428Y14842443D01*
X47421428Y14842443D02*
X47350000Y14771015D01*
X47350000Y14771015D02*
X47207142Y14699586D01*
X47207142Y14699586D02*
X46707142Y14699586D01*
X39766667Y3692800D02*
X39909524Y3645181D01*
X39909524Y3645181D02*
X40147619Y3645181D01*
X40147619Y3645181D02*
X40242857Y3692800D01*
X40242857Y3692800D02*
X40290476Y3740420D01*
X40290476Y3740420D02*
X40338095Y3835658D01*
X40338095Y3835658D02*
X40338095Y3930896D01*
X40338095Y3930896D02*
X40290476Y4026134D01*
X40290476Y4026134D02*
X40242857Y4073753D01*
X40242857Y4073753D02*
X40147619Y4121372D01*
X40147619Y4121372D02*
X39957143Y4168991D01*
X39957143Y4168991D02*
X39861905Y4216610D01*
X39861905Y4216610D02*
X39814286Y4264229D01*
X39814286Y4264229D02*
X39766667Y4359467D01*
X39766667Y4359467D02*
X39766667Y4454705D01*
X39766667Y4454705D02*
X39814286Y4549943D01*
X39814286Y4549943D02*
X39861905Y4597562D01*
X39861905Y4597562D02*
X39957143Y4645181D01*
X39957143Y4645181D02*
X40195238Y4645181D01*
X40195238Y4645181D02*
X40338095Y4597562D01*
X40671429Y4645181D02*
X40909524Y3645181D01*
X40909524Y3645181D02*
X41100000Y4359467D01*
X41100000Y4359467D02*
X41290476Y3645181D01*
X41290476Y3645181D02*
X41528572Y4645181D01*
X41861905Y4549943D02*
X41909524Y4597562D01*
X41909524Y4597562D02*
X42004762Y4645181D01*
X42004762Y4645181D02*
X42242857Y4645181D01*
X42242857Y4645181D02*
X42338095Y4597562D01*
X42338095Y4597562D02*
X42385714Y4549943D01*
X42385714Y4549943D02*
X42433333Y4454705D01*
X42433333Y4454705D02*
X42433333Y4359467D01*
X42433333Y4359467D02*
X42385714Y4216610D01*
X42385714Y4216610D02*
X41814286Y3645181D01*
X41814286Y3645181D02*
X42433333Y3645181D01*
X40742857Y8342443D02*
X41457143Y8342443D01*
X40600000Y7913872D02*
X41100000Y9413872D01*
X41100000Y9413872D02*
X41600000Y7913872D01*
D11*
%TO.C,SW4*%
X37950000Y28550000D02*
X44250000Y28550000D01*
X37950000Y28300000D02*
X37950000Y28550000D01*
X37950000Y23800000D02*
X37950000Y26400000D01*
X37950000Y21650000D02*
X37950000Y21900000D01*
X44250000Y28550000D02*
X44250000Y28300000D01*
X44250000Y26400000D02*
X44250000Y23800000D01*
X44250000Y21900000D02*
X44250000Y21650000D01*
X44250000Y21650000D02*
X37950000Y21650000D01*
D12*
%TO.C,U1*%
X5591200Y14935200D02*
X7801000Y14935200D01*
X5642000Y7315200D02*
X5591200Y14935200D01*
X7797000Y17981234D02*
X11353000Y17981234D01*
X7801000Y14935200D02*
X7801000Y17983200D01*
X7801000Y7315200D02*
X5769000Y7315200D01*
X7801000Y4267200D02*
X7801000Y7315200D01*
D13*
X9640000Y17180000D02*
X10260000Y17180000D01*
D12*
X11357000Y23063200D02*
X11357000Y17983200D01*
X11357000Y23063200D02*
X19993000Y23063200D01*
X11865000Y4267200D02*
X7801000Y4267200D01*
X11865000Y965200D02*
X11865000Y4267200D01*
X19485000Y4267200D02*
X19485000Y965200D01*
X19485000Y965200D02*
X11865000Y965200D01*
X19993000Y23063200D02*
X19993000Y17983200D01*
X19993000Y17983200D02*
X23549000Y17983200D01*
X23549000Y17983200D02*
X23549000Y4267200D01*
X23549000Y4267200D02*
X19485000Y4267200D01*
X21072500Y20473949D02*
G75*
G02*
X10277500Y20473949I-5397500J-9348744D01*
G01*
X17471034Y11125200D02*
G75*
G02*
X13878966Y11125200I-1796034J0D01*
G01*
X13878966Y11125200D02*
G75*
G02*
X17471034Y11125200I1796034J0D01*
G01*
D11*
%TO.C,J1*%
X1670000Y3410000D02*
X1670000Y28870000D01*
X4330000Y28870000D02*
X1670000Y28870000D01*
X4330000Y3410000D02*
X1670000Y3410000D01*
X4330000Y3410000D02*
X4330000Y28870000D01*
X4330000Y2140000D02*
X4330000Y810000D01*
X4330000Y810000D02*
X3000000Y810000D01*
%TO.C,SW1*%
X27150000Y17750000D02*
X27400000Y17750000D01*
X27150000Y11450000D02*
X27150000Y17750000D01*
X27400000Y11450000D02*
X27150000Y11450000D01*
X29300000Y17750000D02*
X31900000Y17750000D01*
X31900000Y11450000D02*
X29300000Y11450000D01*
X33800000Y17750000D02*
X34050000Y17750000D01*
X34050000Y17750000D02*
X34050000Y11450000D01*
X34050000Y11450000D02*
X33800000Y11450000D01*
%TO.C,SW3*%
X48150000Y17750000D02*
X48400000Y17750000D01*
X48150000Y11450000D02*
X48150000Y17750000D01*
X48400000Y11450000D02*
X48150000Y11450000D01*
X50300000Y17750000D02*
X52900000Y17750000D01*
X52900000Y11450000D02*
X50300000Y11450000D01*
X54800000Y17750000D02*
X55050000Y17750000D01*
X55050000Y17750000D02*
X55050000Y11450000D01*
X55050000Y11450000D02*
X54800000Y11450000D01*
%TO.C,SW2*%
X37950000Y7550000D02*
X44250000Y7550000D01*
X37950000Y7300000D02*
X37950000Y7550000D01*
X37950000Y2800000D02*
X37950000Y5400000D01*
X37950000Y650000D02*
X37950000Y900000D01*
X44250000Y7550000D02*
X44250000Y7300000D01*
X44250000Y5400000D02*
X44250000Y2800000D01*
X44250000Y900000D02*
X44250000Y650000D01*
X44250000Y650000D02*
X37950000Y650000D01*
%TD*%
M02*
