%TF.GenerationSoftware,KiCad,Pcbnew,8.0.7*%
%TF.CreationDate,2025-01-13T22:15:06+01:00*%
%TF.ProjectId,ps4,7073342e-6b69-4636-9164-5f7063625858,rev?*%
%TF.SameCoordinates,PX54c81a0PY93ea360*%
%TF.FileFunction,Drillmap*%
%TF.FilePolarity,Positive*%
%FSLAX45Y45*%
G04 Gerber Fmt 4.5, Leading zero omitted, Abs format (unit mm)*
G04 Created by KiCad (PCBNEW 8.0.7) date 2025-01-13 22:15:06*
%MOMM*%
%LPD*%
G01*
G04 APERTURE LIST*
%ADD10C,0.200000*%
%ADD11C,0.100000*%
%ADD12C,0.139700*%
G04 APERTURE END LIST*
D10*
X0Y3000000D02*
X5550000Y3000000D01*
X5550000Y0D01*
X0Y0D01*
X0Y3000000D01*
D11*
X632550Y1158450D02*
X721450Y1069550D01*
X721450Y1158450D02*
X632550Y1069550D01*
X632550Y904450D02*
X721450Y815550D01*
X721450Y904450D02*
X632550Y815550D01*
X634050Y1410970D02*
X722950Y1322070D01*
X722950Y1410970D02*
X634050Y1322070D01*
X1270550Y269450D02*
X1359450Y180550D01*
X1359450Y269450D02*
X1270550Y180550D01*
X1524550Y267450D02*
X1613450Y178550D01*
X1613450Y267450D02*
X1524550Y178550D01*
X1778550Y269450D02*
X1867450Y180550D01*
X1867450Y269450D02*
X1778550Y180550D01*
X1295000Y2194000D02*
G75*
G02*
X1205000Y2194000I-45000J0D01*
G01*
X1205000Y2194000D02*
G75*
G02*
X1295000Y2194000I45000J0D01*
G01*
X1295000Y1700000D02*
G75*
G02*
X1205000Y1700000I-45000J0D01*
G01*
X1205000Y1700000D02*
G75*
G02*
X1295000Y1700000I45000J0D01*
G01*
X1930000Y2192020D02*
G75*
G02*
X1840000Y2192020I-45000J0D01*
G01*
X1840000Y2192020D02*
G75*
G02*
X1930000Y2192020I45000J0D01*
G01*
X1931000Y1698000D02*
G75*
G02*
X1841000Y1698000I-45000J0D01*
G01*
X1841000Y1698000D02*
G75*
G02*
X1931000Y1698000I45000J0D01*
G01*
X300000Y2804000D02*
X300000Y2704000D01*
X250000Y2754000D02*
X350000Y2754000D01*
X300000Y2550000D02*
X300000Y2450000D01*
X250000Y2500000D02*
X350000Y2500000D01*
X300000Y2296000D02*
X300000Y2196000D01*
X250000Y2246000D02*
X350000Y2246000D01*
X300000Y2042000D02*
X300000Y1942000D01*
X250000Y1992000D02*
X350000Y1992000D01*
X300000Y1788000D02*
X300000Y1688000D01*
X250000Y1738000D02*
X350000Y1738000D01*
X300000Y1534000D02*
X300000Y1434000D01*
X250000Y1484000D02*
X350000Y1484000D01*
X300000Y1280000D02*
X300000Y1180000D01*
X250000Y1230000D02*
X350000Y1230000D01*
X300000Y1026000D02*
X300000Y926000D01*
X250000Y976000D02*
X350000Y976000D01*
X300000Y772000D02*
X300000Y672000D01*
X250000Y722000D02*
X350000Y722000D01*
X300000Y518000D02*
X300000Y418000D01*
X250000Y468000D02*
X350000Y468000D01*
X300000Y264000D02*
X300000Y164000D01*
X250000Y214000D02*
X350000Y214000D01*
D12*
X981892Y1569608D02*
X981892Y1668392D01*
X883108Y1668392D01*
X883108Y1569608D01*
X981892Y1569608D01*
X981892Y556608D02*
X981892Y655392D01*
X883108Y655392D01*
X883108Y556608D01*
X981892Y556608D01*
X2251892Y1571128D02*
X2251892Y1669912D01*
X2153108Y1669912D01*
X2153108Y1571128D01*
X2251892Y1571128D01*
X2251892Y555128D02*
X2251892Y653912D01*
X2153108Y653912D01*
X2153108Y555128D01*
X2251892Y555128D01*
D10*
X250777Y-321484D02*
X250777Y-121484D01*
X250777Y-121484D02*
X298396Y-121484D01*
X298396Y-121484D02*
X326967Y-131008D01*
X326967Y-131008D02*
X346015Y-150055D01*
X346015Y-150055D02*
X355539Y-169103D01*
X355539Y-169103D02*
X365062Y-207198D01*
X365062Y-207198D02*
X365062Y-235769D01*
X365062Y-235769D02*
X355539Y-273865D01*
X355539Y-273865D02*
X346015Y-292912D01*
X346015Y-292912D02*
X326967Y-311960D01*
X326967Y-311960D02*
X298396Y-321484D01*
X298396Y-321484D02*
X250777Y-321484D01*
X450777Y-321484D02*
X450777Y-188150D01*
X450777Y-226246D02*
X460301Y-207198D01*
X460301Y-207198D02*
X469824Y-197674D01*
X469824Y-197674D02*
X488872Y-188150D01*
X488872Y-188150D02*
X507920Y-188150D01*
X574586Y-321484D02*
X574586Y-188150D01*
X574586Y-121484D02*
X565063Y-131008D01*
X565063Y-131008D02*
X574586Y-140531D01*
X574586Y-140531D02*
X584110Y-131008D01*
X584110Y-131008D02*
X574586Y-121484D01*
X574586Y-121484D02*
X574586Y-140531D01*
X698396Y-321484D02*
X679348Y-311960D01*
X679348Y-311960D02*
X669824Y-292912D01*
X669824Y-292912D02*
X669824Y-121484D01*
X803158Y-321484D02*
X784110Y-311960D01*
X784110Y-311960D02*
X774586Y-292912D01*
X774586Y-292912D02*
X774586Y-121484D01*
X1031729Y-321484D02*
X1031729Y-121484D01*
X1031729Y-121484D02*
X1098396Y-264341D01*
X1098396Y-264341D02*
X1165063Y-121484D01*
X1165063Y-121484D02*
X1165063Y-321484D01*
X1346015Y-321484D02*
X1346015Y-216722D01*
X1346015Y-216722D02*
X1336491Y-197674D01*
X1336491Y-197674D02*
X1317444Y-188150D01*
X1317444Y-188150D02*
X1279348Y-188150D01*
X1279348Y-188150D02*
X1260301Y-197674D01*
X1346015Y-311960D02*
X1326967Y-321484D01*
X1326967Y-321484D02*
X1279348Y-321484D01*
X1279348Y-321484D02*
X1260301Y-311960D01*
X1260301Y-311960D02*
X1250777Y-292912D01*
X1250777Y-292912D02*
X1250777Y-273865D01*
X1250777Y-273865D02*
X1260301Y-254817D01*
X1260301Y-254817D02*
X1279348Y-245293D01*
X1279348Y-245293D02*
X1326967Y-245293D01*
X1326967Y-245293D02*
X1346015Y-235769D01*
X1441253Y-188150D02*
X1441253Y-388150D01*
X1441253Y-197674D02*
X1460301Y-188150D01*
X1460301Y-188150D02*
X1498396Y-188150D01*
X1498396Y-188150D02*
X1517443Y-197674D01*
X1517443Y-197674D02*
X1526967Y-207198D01*
X1526967Y-207198D02*
X1536491Y-226246D01*
X1536491Y-226246D02*
X1536491Y-283389D01*
X1536491Y-283389D02*
X1526967Y-302436D01*
X1526967Y-302436D02*
X1517443Y-311960D01*
X1517443Y-311960D02*
X1498396Y-321484D01*
X1498396Y-321484D02*
X1460301Y-321484D01*
X1460301Y-321484D02*
X1441253Y-311960D01*
X1622205Y-302436D02*
X1631729Y-311960D01*
X1631729Y-311960D02*
X1622205Y-321484D01*
X1622205Y-321484D02*
X1612682Y-311960D01*
X1612682Y-311960D02*
X1622205Y-302436D01*
X1622205Y-302436D02*
X1622205Y-321484D01*
X1622205Y-197674D02*
X1631729Y-207198D01*
X1631729Y-207198D02*
X1622205Y-216722D01*
X1622205Y-216722D02*
X1612682Y-207198D01*
X1612682Y-207198D02*
X1622205Y-197674D01*
X1622205Y-197674D02*
X1622205Y-216722D01*
D11*
X-98900Y-605550D02*
X-10000Y-694450D01*
X-10000Y-605550D02*
X-98900Y-694450D01*
D10*
X288872Y-541484D02*
X307920Y-541484D01*
X307920Y-541484D02*
X326967Y-551008D01*
X326967Y-551008D02*
X336491Y-560531D01*
X336491Y-560531D02*
X346015Y-579579D01*
X346015Y-579579D02*
X355539Y-617674D01*
X355539Y-617674D02*
X355539Y-665293D01*
X355539Y-665293D02*
X346015Y-703388D01*
X346015Y-703388D02*
X336491Y-722436D01*
X336491Y-722436D02*
X326967Y-731960D01*
X326967Y-731960D02*
X307920Y-741484D01*
X307920Y-741484D02*
X288872Y-741484D01*
X288872Y-741484D02*
X269824Y-731960D01*
X269824Y-731960D02*
X260301Y-722436D01*
X260301Y-722436D02*
X250777Y-703388D01*
X250777Y-703388D02*
X241253Y-665293D01*
X241253Y-665293D02*
X241253Y-617674D01*
X241253Y-617674D02*
X250777Y-579579D01*
X250777Y-579579D02*
X260301Y-560531D01*
X260301Y-560531D02*
X269824Y-551008D01*
X269824Y-551008D02*
X288872Y-541484D01*
X441253Y-722436D02*
X450777Y-731960D01*
X450777Y-731960D02*
X441253Y-741484D01*
X441253Y-741484D02*
X431729Y-731960D01*
X431729Y-731960D02*
X441253Y-722436D01*
X441253Y-722436D02*
X441253Y-741484D01*
X565063Y-627198D02*
X546015Y-617674D01*
X546015Y-617674D02*
X536491Y-608150D01*
X536491Y-608150D02*
X526967Y-589103D01*
X526967Y-589103D02*
X526967Y-579579D01*
X526967Y-579579D02*
X536491Y-560531D01*
X536491Y-560531D02*
X546015Y-551008D01*
X546015Y-551008D02*
X565063Y-541484D01*
X565063Y-541484D02*
X603158Y-541484D01*
X603158Y-541484D02*
X622205Y-551008D01*
X622205Y-551008D02*
X631729Y-560531D01*
X631729Y-560531D02*
X641253Y-579579D01*
X641253Y-579579D02*
X641253Y-589103D01*
X641253Y-589103D02*
X631729Y-608150D01*
X631729Y-608150D02*
X622205Y-617674D01*
X622205Y-617674D02*
X603158Y-627198D01*
X603158Y-627198D02*
X565063Y-627198D01*
X565063Y-627198D02*
X546015Y-636722D01*
X546015Y-636722D02*
X536491Y-646246D01*
X536491Y-646246D02*
X526967Y-665293D01*
X526967Y-665293D02*
X526967Y-703388D01*
X526967Y-703388D02*
X536491Y-722436D01*
X536491Y-722436D02*
X546015Y-731960D01*
X546015Y-731960D02*
X565063Y-741484D01*
X565063Y-741484D02*
X603158Y-741484D01*
X603158Y-741484D02*
X622205Y-731960D01*
X622205Y-731960D02*
X631729Y-722436D01*
X631729Y-722436D02*
X641253Y-703388D01*
X641253Y-703388D02*
X641253Y-665293D01*
X641253Y-665293D02*
X631729Y-646246D01*
X631729Y-646246D02*
X622205Y-636722D01*
X622205Y-636722D02*
X603158Y-627198D01*
X755539Y-627198D02*
X736491Y-617674D01*
X736491Y-617674D02*
X726967Y-608150D01*
X726967Y-608150D02*
X717443Y-589103D01*
X717443Y-589103D02*
X717443Y-579579D01*
X717443Y-579579D02*
X726967Y-560531D01*
X726967Y-560531D02*
X736491Y-551008D01*
X736491Y-551008D02*
X755539Y-541484D01*
X755539Y-541484D02*
X793634Y-541484D01*
X793634Y-541484D02*
X812682Y-551008D01*
X812682Y-551008D02*
X822205Y-560531D01*
X822205Y-560531D02*
X831729Y-579579D01*
X831729Y-579579D02*
X831729Y-589103D01*
X831729Y-589103D02*
X822205Y-608150D01*
X822205Y-608150D02*
X812682Y-617674D01*
X812682Y-617674D02*
X793634Y-627198D01*
X793634Y-627198D02*
X755539Y-627198D01*
X755539Y-627198D02*
X736491Y-636722D01*
X736491Y-636722D02*
X726967Y-646246D01*
X726967Y-646246D02*
X717443Y-665293D01*
X717443Y-665293D02*
X717443Y-703388D01*
X717443Y-703388D02*
X726967Y-722436D01*
X726967Y-722436D02*
X736491Y-731960D01*
X736491Y-731960D02*
X755539Y-741484D01*
X755539Y-741484D02*
X793634Y-741484D01*
X793634Y-741484D02*
X812682Y-731960D01*
X812682Y-731960D02*
X822205Y-722436D01*
X822205Y-722436D02*
X831729Y-703388D01*
X831729Y-703388D02*
X831729Y-665293D01*
X831729Y-665293D02*
X822205Y-646246D01*
X822205Y-646246D02*
X812682Y-636722D01*
X812682Y-636722D02*
X793634Y-627198D01*
X926967Y-741484D02*
X965062Y-741484D01*
X965062Y-741484D02*
X984110Y-731960D01*
X984110Y-731960D02*
X993634Y-722436D01*
X993634Y-722436D02*
X1012682Y-693865D01*
X1012682Y-693865D02*
X1022205Y-655770D01*
X1022205Y-655770D02*
X1022205Y-579579D01*
X1022205Y-579579D02*
X1012682Y-560531D01*
X1012682Y-560531D02*
X1003158Y-551008D01*
X1003158Y-551008D02*
X984110Y-541484D01*
X984110Y-541484D02*
X946015Y-541484D01*
X946015Y-541484D02*
X926967Y-551008D01*
X926967Y-551008D02*
X917443Y-560531D01*
X917443Y-560531D02*
X907920Y-579579D01*
X907920Y-579579D02*
X907920Y-627198D01*
X907920Y-627198D02*
X917443Y-646246D01*
X917443Y-646246D02*
X926967Y-655770D01*
X926967Y-655770D02*
X946015Y-665293D01*
X946015Y-665293D02*
X984110Y-665293D01*
X984110Y-665293D02*
X1003158Y-655770D01*
X1003158Y-655770D02*
X1012682Y-646246D01*
X1012682Y-646246D02*
X1022205Y-627198D01*
X1107920Y-741484D02*
X1107920Y-608150D01*
X1107920Y-627198D02*
X1117444Y-617674D01*
X1117444Y-617674D02*
X1136491Y-608150D01*
X1136491Y-608150D02*
X1165063Y-608150D01*
X1165063Y-608150D02*
X1184110Y-617674D01*
X1184110Y-617674D02*
X1193634Y-636722D01*
X1193634Y-636722D02*
X1193634Y-741484D01*
X1193634Y-636722D02*
X1203158Y-617674D01*
X1203158Y-617674D02*
X1222205Y-608150D01*
X1222205Y-608150D02*
X1250777Y-608150D01*
X1250777Y-608150D02*
X1269825Y-617674D01*
X1269825Y-617674D02*
X1279348Y-636722D01*
X1279348Y-636722D02*
X1279348Y-741484D01*
X1374586Y-741484D02*
X1374586Y-608150D01*
X1374586Y-627198D02*
X1384110Y-617674D01*
X1384110Y-617674D02*
X1403158Y-608150D01*
X1403158Y-608150D02*
X1431729Y-608150D01*
X1431729Y-608150D02*
X1450777Y-617674D01*
X1450777Y-617674D02*
X1460301Y-636722D01*
X1460301Y-636722D02*
X1460301Y-741484D01*
X1460301Y-636722D02*
X1469824Y-617674D01*
X1469824Y-617674D02*
X1488872Y-608150D01*
X1488872Y-608150D02*
X1517443Y-608150D01*
X1517443Y-608150D02*
X1536491Y-617674D01*
X1536491Y-617674D02*
X1546015Y-636722D01*
X1546015Y-636722D02*
X1546015Y-741484D01*
X1936491Y-531960D02*
X1765063Y-789103D01*
X2193634Y-541484D02*
X2212682Y-541484D01*
X2212682Y-541484D02*
X2231729Y-551008D01*
X2231729Y-551008D02*
X2241253Y-560531D01*
X2241253Y-560531D02*
X2250777Y-579579D01*
X2250777Y-579579D02*
X2260301Y-617674D01*
X2260301Y-617674D02*
X2260301Y-665293D01*
X2260301Y-665293D02*
X2250777Y-703388D01*
X2250777Y-703388D02*
X2241253Y-722436D01*
X2241253Y-722436D02*
X2231729Y-731960D01*
X2231729Y-731960D02*
X2212682Y-741484D01*
X2212682Y-741484D02*
X2193634Y-741484D01*
X2193634Y-741484D02*
X2174587Y-731960D01*
X2174587Y-731960D02*
X2165063Y-722436D01*
X2165063Y-722436D02*
X2155539Y-703388D01*
X2155539Y-703388D02*
X2146015Y-665293D01*
X2146015Y-665293D02*
X2146015Y-617674D01*
X2146015Y-617674D02*
X2155539Y-579579D01*
X2155539Y-579579D02*
X2165063Y-560531D01*
X2165063Y-560531D02*
X2174587Y-551008D01*
X2174587Y-551008D02*
X2193634Y-541484D01*
X2346015Y-722436D02*
X2355539Y-731960D01*
X2355539Y-731960D02*
X2346015Y-741484D01*
X2346015Y-741484D02*
X2336491Y-731960D01*
X2336491Y-731960D02*
X2346015Y-722436D01*
X2346015Y-722436D02*
X2346015Y-741484D01*
X2479348Y-541484D02*
X2498396Y-541484D01*
X2498396Y-541484D02*
X2517444Y-551008D01*
X2517444Y-551008D02*
X2526968Y-560531D01*
X2526968Y-560531D02*
X2536491Y-579579D01*
X2536491Y-579579D02*
X2546015Y-617674D01*
X2546015Y-617674D02*
X2546015Y-665293D01*
X2546015Y-665293D02*
X2536491Y-703388D01*
X2536491Y-703388D02*
X2526968Y-722436D01*
X2526968Y-722436D02*
X2517444Y-731960D01*
X2517444Y-731960D02*
X2498396Y-741484D01*
X2498396Y-741484D02*
X2479348Y-741484D01*
X2479348Y-741484D02*
X2460301Y-731960D01*
X2460301Y-731960D02*
X2450777Y-722436D01*
X2450777Y-722436D02*
X2441253Y-703388D01*
X2441253Y-703388D02*
X2431729Y-665293D01*
X2431729Y-665293D02*
X2431729Y-617674D01*
X2431729Y-617674D02*
X2441253Y-579579D01*
X2441253Y-579579D02*
X2450777Y-560531D01*
X2450777Y-560531D02*
X2460301Y-551008D01*
X2460301Y-551008D02*
X2479348Y-541484D01*
X2612682Y-541484D02*
X2736491Y-541484D01*
X2736491Y-541484D02*
X2669825Y-617674D01*
X2669825Y-617674D02*
X2698396Y-617674D01*
X2698396Y-617674D02*
X2717444Y-627198D01*
X2717444Y-627198D02*
X2726968Y-636722D01*
X2726968Y-636722D02*
X2736491Y-655770D01*
X2736491Y-655770D02*
X2736491Y-703388D01*
X2736491Y-703388D02*
X2726968Y-722436D01*
X2726968Y-722436D02*
X2717444Y-731960D01*
X2717444Y-731960D02*
X2698396Y-741484D01*
X2698396Y-741484D02*
X2641253Y-741484D01*
X2641253Y-741484D02*
X2622206Y-731960D01*
X2622206Y-731960D02*
X2612682Y-722436D01*
X2917444Y-541484D02*
X2822206Y-541484D01*
X2822206Y-541484D02*
X2812682Y-636722D01*
X2812682Y-636722D02*
X2822206Y-627198D01*
X2822206Y-627198D02*
X2841253Y-617674D01*
X2841253Y-617674D02*
X2888872Y-617674D01*
X2888872Y-617674D02*
X2907920Y-627198D01*
X2907920Y-627198D02*
X2917444Y-636722D01*
X2917444Y-636722D02*
X2926967Y-655770D01*
X2926967Y-655770D02*
X2926967Y-703388D01*
X2926967Y-703388D02*
X2917444Y-722436D01*
X2917444Y-722436D02*
X2907920Y-731960D01*
X2907920Y-731960D02*
X2888872Y-741484D01*
X2888872Y-741484D02*
X2841253Y-741484D01*
X2841253Y-741484D02*
X2822206Y-731960D01*
X2822206Y-731960D02*
X2812682Y-722436D01*
X3050777Y-541484D02*
X3069825Y-541484D01*
X3069825Y-541484D02*
X3088872Y-551008D01*
X3088872Y-551008D02*
X3098396Y-560531D01*
X3098396Y-560531D02*
X3107920Y-579579D01*
X3107920Y-579579D02*
X3117444Y-617674D01*
X3117444Y-617674D02*
X3117444Y-665293D01*
X3117444Y-665293D02*
X3107920Y-703388D01*
X3107920Y-703388D02*
X3098396Y-722436D01*
X3098396Y-722436D02*
X3088872Y-731960D01*
X3088872Y-731960D02*
X3069825Y-741484D01*
X3069825Y-741484D02*
X3050777Y-741484D01*
X3050777Y-741484D02*
X3031729Y-731960D01*
X3031729Y-731960D02*
X3022206Y-722436D01*
X3022206Y-722436D02*
X3012682Y-703388D01*
X3012682Y-703388D02*
X3003158Y-665293D01*
X3003158Y-665293D02*
X3003158Y-617674D01*
X3003158Y-617674D02*
X3012682Y-579579D01*
X3012682Y-579579D02*
X3022206Y-560531D01*
X3022206Y-560531D02*
X3031729Y-551008D01*
X3031729Y-551008D02*
X3050777Y-541484D01*
X3193634Y-541484D02*
X3193634Y-579579D01*
X3269825Y-541484D02*
X3269825Y-579579D01*
X3565063Y-817674D02*
X3555539Y-808150D01*
X3555539Y-808150D02*
X3536491Y-779579D01*
X3536491Y-779579D02*
X3526968Y-760531D01*
X3526968Y-760531D02*
X3517444Y-731960D01*
X3517444Y-731960D02*
X3507920Y-684341D01*
X3507920Y-684341D02*
X3507920Y-646246D01*
X3507920Y-646246D02*
X3517444Y-598627D01*
X3517444Y-598627D02*
X3526968Y-570055D01*
X3526968Y-570055D02*
X3536491Y-551008D01*
X3536491Y-551008D02*
X3555539Y-522436D01*
X3555539Y-522436D02*
X3565063Y-512912D01*
X3726968Y-541484D02*
X3688872Y-541484D01*
X3688872Y-541484D02*
X3669825Y-551008D01*
X3669825Y-551008D02*
X3660301Y-560531D01*
X3660301Y-560531D02*
X3641253Y-589103D01*
X3641253Y-589103D02*
X3631729Y-627198D01*
X3631729Y-627198D02*
X3631729Y-703388D01*
X3631729Y-703388D02*
X3641253Y-722436D01*
X3641253Y-722436D02*
X3650777Y-731960D01*
X3650777Y-731960D02*
X3669825Y-741484D01*
X3669825Y-741484D02*
X3707920Y-741484D01*
X3707920Y-741484D02*
X3726968Y-731960D01*
X3726968Y-731960D02*
X3736491Y-722436D01*
X3736491Y-722436D02*
X3746015Y-703388D01*
X3746015Y-703388D02*
X3746015Y-655770D01*
X3746015Y-655770D02*
X3736491Y-636722D01*
X3736491Y-636722D02*
X3726968Y-627198D01*
X3726968Y-627198D02*
X3707920Y-617674D01*
X3707920Y-617674D02*
X3669825Y-617674D01*
X3669825Y-617674D02*
X3650777Y-627198D01*
X3650777Y-627198D02*
X3641253Y-636722D01*
X3641253Y-636722D02*
X3631729Y-655770D01*
X3984110Y-741484D02*
X3984110Y-541484D01*
X4069825Y-741484D02*
X4069825Y-636722D01*
X4069825Y-636722D02*
X4060301Y-617674D01*
X4060301Y-617674D02*
X4041253Y-608150D01*
X4041253Y-608150D02*
X4012682Y-608150D01*
X4012682Y-608150D02*
X3993634Y-617674D01*
X3993634Y-617674D02*
X3984110Y-627198D01*
X4193634Y-741484D02*
X4174587Y-731960D01*
X4174587Y-731960D02*
X4165063Y-722436D01*
X4165063Y-722436D02*
X4155539Y-703388D01*
X4155539Y-703388D02*
X4155539Y-646246D01*
X4155539Y-646246D02*
X4165063Y-627198D01*
X4165063Y-627198D02*
X4174587Y-617674D01*
X4174587Y-617674D02*
X4193634Y-608150D01*
X4193634Y-608150D02*
X4222206Y-608150D01*
X4222206Y-608150D02*
X4241253Y-617674D01*
X4241253Y-617674D02*
X4250777Y-627198D01*
X4250777Y-627198D02*
X4260301Y-646246D01*
X4260301Y-646246D02*
X4260301Y-703388D01*
X4260301Y-703388D02*
X4250777Y-722436D01*
X4250777Y-722436D02*
X4241253Y-731960D01*
X4241253Y-731960D02*
X4222206Y-741484D01*
X4222206Y-741484D02*
X4193634Y-741484D01*
X4374587Y-741484D02*
X4355539Y-731960D01*
X4355539Y-731960D02*
X4346015Y-712912D01*
X4346015Y-712912D02*
X4346015Y-541484D01*
X4526968Y-731960D02*
X4507920Y-741484D01*
X4507920Y-741484D02*
X4469825Y-741484D01*
X4469825Y-741484D02*
X4450777Y-731960D01*
X4450777Y-731960D02*
X4441253Y-712912D01*
X4441253Y-712912D02*
X4441253Y-636722D01*
X4441253Y-636722D02*
X4450777Y-617674D01*
X4450777Y-617674D02*
X4469825Y-608150D01*
X4469825Y-608150D02*
X4507920Y-608150D01*
X4507920Y-608150D02*
X4526968Y-617674D01*
X4526968Y-617674D02*
X4536492Y-636722D01*
X4536492Y-636722D02*
X4536492Y-655770D01*
X4536492Y-655770D02*
X4441253Y-674817D01*
X4612682Y-731960D02*
X4631730Y-741484D01*
X4631730Y-741484D02*
X4669825Y-741484D01*
X4669825Y-741484D02*
X4688873Y-731960D01*
X4688873Y-731960D02*
X4698396Y-712912D01*
X4698396Y-712912D02*
X4698396Y-703388D01*
X4698396Y-703388D02*
X4688873Y-684341D01*
X4688873Y-684341D02*
X4669825Y-674817D01*
X4669825Y-674817D02*
X4641253Y-674817D01*
X4641253Y-674817D02*
X4622206Y-665293D01*
X4622206Y-665293D02*
X4612682Y-646246D01*
X4612682Y-646246D02*
X4612682Y-636722D01*
X4612682Y-636722D02*
X4622206Y-617674D01*
X4622206Y-617674D02*
X4641253Y-608150D01*
X4641253Y-608150D02*
X4669825Y-608150D01*
X4669825Y-608150D02*
X4688873Y-617674D01*
X4765063Y-817674D02*
X4774587Y-808150D01*
X4774587Y-808150D02*
X4793634Y-779579D01*
X4793634Y-779579D02*
X4803158Y-760531D01*
X4803158Y-760531D02*
X4812682Y-731960D01*
X4812682Y-731960D02*
X4822206Y-684341D01*
X4822206Y-684341D02*
X4822206Y-646246D01*
X4822206Y-646246D02*
X4812682Y-598627D01*
X4812682Y-598627D02*
X4803158Y-570055D01*
X4803158Y-570055D02*
X4793634Y-551008D01*
X4793634Y-551008D02*
X4774587Y-522436D01*
X4774587Y-522436D02*
X4765063Y-512912D01*
D11*
X-10000Y-914000D02*
G75*
G02*
X-100000Y-914000I-45000J0D01*
G01*
X-100000Y-914000D02*
G75*
G02*
X-10000Y-914000I45000J0D01*
G01*
D10*
X288872Y-805484D02*
X307920Y-805484D01*
X307920Y-805484D02*
X326967Y-815008D01*
X326967Y-815008D02*
X336491Y-824531D01*
X336491Y-824531D02*
X346015Y-843579D01*
X346015Y-843579D02*
X355539Y-881674D01*
X355539Y-881674D02*
X355539Y-929293D01*
X355539Y-929293D02*
X346015Y-967388D01*
X346015Y-967388D02*
X336491Y-986436D01*
X336491Y-986436D02*
X326967Y-995960D01*
X326967Y-995960D02*
X307920Y-1005484D01*
X307920Y-1005484D02*
X288872Y-1005484D01*
X288872Y-1005484D02*
X269824Y-995960D01*
X269824Y-995960D02*
X260301Y-986436D01*
X260301Y-986436D02*
X250777Y-967388D01*
X250777Y-967388D02*
X241253Y-929293D01*
X241253Y-929293D02*
X241253Y-881674D01*
X241253Y-881674D02*
X250777Y-843579D01*
X250777Y-843579D02*
X260301Y-824531D01*
X260301Y-824531D02*
X269824Y-815008D01*
X269824Y-815008D02*
X288872Y-805484D01*
X441253Y-986436D02*
X450777Y-995960D01*
X450777Y-995960D02*
X441253Y-1005484D01*
X441253Y-1005484D02*
X431729Y-995960D01*
X431729Y-995960D02*
X441253Y-986436D01*
X441253Y-986436D02*
X441253Y-1005484D01*
X546015Y-1005484D02*
X584110Y-1005484D01*
X584110Y-1005484D02*
X603158Y-995960D01*
X603158Y-995960D02*
X612682Y-986436D01*
X612682Y-986436D02*
X631729Y-957865D01*
X631729Y-957865D02*
X641253Y-919769D01*
X641253Y-919769D02*
X641253Y-843579D01*
X641253Y-843579D02*
X631729Y-824531D01*
X631729Y-824531D02*
X622205Y-815008D01*
X622205Y-815008D02*
X603158Y-805484D01*
X603158Y-805484D02*
X565063Y-805484D01*
X565063Y-805484D02*
X546015Y-815008D01*
X546015Y-815008D02*
X536491Y-824531D01*
X536491Y-824531D02*
X526967Y-843579D01*
X526967Y-843579D02*
X526967Y-891198D01*
X526967Y-891198D02*
X536491Y-910246D01*
X536491Y-910246D02*
X546015Y-919769D01*
X546015Y-919769D02*
X565063Y-929293D01*
X565063Y-929293D02*
X603158Y-929293D01*
X603158Y-929293D02*
X622205Y-919769D01*
X622205Y-919769D02*
X631729Y-910246D01*
X631729Y-910246D02*
X641253Y-891198D01*
X765062Y-805484D02*
X784110Y-805484D01*
X784110Y-805484D02*
X803158Y-815008D01*
X803158Y-815008D02*
X812682Y-824531D01*
X812682Y-824531D02*
X822205Y-843579D01*
X822205Y-843579D02*
X831729Y-881674D01*
X831729Y-881674D02*
X831729Y-929293D01*
X831729Y-929293D02*
X822205Y-967388D01*
X822205Y-967388D02*
X812682Y-986436D01*
X812682Y-986436D02*
X803158Y-995960D01*
X803158Y-995960D02*
X784110Y-1005484D01*
X784110Y-1005484D02*
X765062Y-1005484D01*
X765062Y-1005484D02*
X746015Y-995960D01*
X746015Y-995960D02*
X736491Y-986436D01*
X736491Y-986436D02*
X726967Y-967388D01*
X726967Y-967388D02*
X717443Y-929293D01*
X717443Y-929293D02*
X717443Y-881674D01*
X717443Y-881674D02*
X726967Y-843579D01*
X726967Y-843579D02*
X736491Y-824531D01*
X736491Y-824531D02*
X746015Y-815008D01*
X746015Y-815008D02*
X765062Y-805484D01*
X955539Y-805484D02*
X974586Y-805484D01*
X974586Y-805484D02*
X993634Y-815008D01*
X993634Y-815008D02*
X1003158Y-824531D01*
X1003158Y-824531D02*
X1012682Y-843579D01*
X1012682Y-843579D02*
X1022205Y-881674D01*
X1022205Y-881674D02*
X1022205Y-929293D01*
X1022205Y-929293D02*
X1012682Y-967388D01*
X1012682Y-967388D02*
X1003158Y-986436D01*
X1003158Y-986436D02*
X993634Y-995960D01*
X993634Y-995960D02*
X974586Y-1005484D01*
X974586Y-1005484D02*
X955539Y-1005484D01*
X955539Y-1005484D02*
X936491Y-995960D01*
X936491Y-995960D02*
X926967Y-986436D01*
X926967Y-986436D02*
X917443Y-967388D01*
X917443Y-967388D02*
X907920Y-929293D01*
X907920Y-929293D02*
X907920Y-881674D01*
X907920Y-881674D02*
X917443Y-843579D01*
X917443Y-843579D02*
X926967Y-824531D01*
X926967Y-824531D02*
X936491Y-815008D01*
X936491Y-815008D02*
X955539Y-805484D01*
X1107920Y-1005484D02*
X1107920Y-872150D01*
X1107920Y-891198D02*
X1117444Y-881674D01*
X1117444Y-881674D02*
X1136491Y-872150D01*
X1136491Y-872150D02*
X1165063Y-872150D01*
X1165063Y-872150D02*
X1184110Y-881674D01*
X1184110Y-881674D02*
X1193634Y-900722D01*
X1193634Y-900722D02*
X1193634Y-1005484D01*
X1193634Y-900722D02*
X1203158Y-881674D01*
X1203158Y-881674D02*
X1222205Y-872150D01*
X1222205Y-872150D02*
X1250777Y-872150D01*
X1250777Y-872150D02*
X1269825Y-881674D01*
X1269825Y-881674D02*
X1279348Y-900722D01*
X1279348Y-900722D02*
X1279348Y-1005484D01*
X1374586Y-1005484D02*
X1374586Y-872150D01*
X1374586Y-891198D02*
X1384110Y-881674D01*
X1384110Y-881674D02*
X1403158Y-872150D01*
X1403158Y-872150D02*
X1431729Y-872150D01*
X1431729Y-872150D02*
X1450777Y-881674D01*
X1450777Y-881674D02*
X1460301Y-900722D01*
X1460301Y-900722D02*
X1460301Y-1005484D01*
X1460301Y-900722D02*
X1469824Y-881674D01*
X1469824Y-881674D02*
X1488872Y-872150D01*
X1488872Y-872150D02*
X1517443Y-872150D01*
X1517443Y-872150D02*
X1536491Y-881674D01*
X1536491Y-881674D02*
X1546015Y-900722D01*
X1546015Y-900722D02*
X1546015Y-1005484D01*
X1936491Y-795960D02*
X1765063Y-1053103D01*
X2193634Y-805484D02*
X2212682Y-805484D01*
X2212682Y-805484D02*
X2231729Y-815008D01*
X2231729Y-815008D02*
X2241253Y-824531D01*
X2241253Y-824531D02*
X2250777Y-843579D01*
X2250777Y-843579D02*
X2260301Y-881674D01*
X2260301Y-881674D02*
X2260301Y-929293D01*
X2260301Y-929293D02*
X2250777Y-967388D01*
X2250777Y-967388D02*
X2241253Y-986436D01*
X2241253Y-986436D02*
X2231729Y-995960D01*
X2231729Y-995960D02*
X2212682Y-1005484D01*
X2212682Y-1005484D02*
X2193634Y-1005484D01*
X2193634Y-1005484D02*
X2174587Y-995960D01*
X2174587Y-995960D02*
X2165063Y-986436D01*
X2165063Y-986436D02*
X2155539Y-967388D01*
X2155539Y-967388D02*
X2146015Y-929293D01*
X2146015Y-929293D02*
X2146015Y-881674D01*
X2146015Y-881674D02*
X2155539Y-843579D01*
X2155539Y-843579D02*
X2165063Y-824531D01*
X2165063Y-824531D02*
X2174587Y-815008D01*
X2174587Y-815008D02*
X2193634Y-805484D01*
X2346015Y-986436D02*
X2355539Y-995960D01*
X2355539Y-995960D02*
X2346015Y-1005484D01*
X2346015Y-1005484D02*
X2336491Y-995960D01*
X2336491Y-995960D02*
X2346015Y-986436D01*
X2346015Y-986436D02*
X2346015Y-1005484D01*
X2479348Y-805484D02*
X2498396Y-805484D01*
X2498396Y-805484D02*
X2517444Y-815008D01*
X2517444Y-815008D02*
X2526968Y-824531D01*
X2526968Y-824531D02*
X2536491Y-843579D01*
X2536491Y-843579D02*
X2546015Y-881674D01*
X2546015Y-881674D02*
X2546015Y-929293D01*
X2546015Y-929293D02*
X2536491Y-967388D01*
X2536491Y-967388D02*
X2526968Y-986436D01*
X2526968Y-986436D02*
X2517444Y-995960D01*
X2517444Y-995960D02*
X2498396Y-1005484D01*
X2498396Y-1005484D02*
X2479348Y-1005484D01*
X2479348Y-1005484D02*
X2460301Y-995960D01*
X2460301Y-995960D02*
X2450777Y-986436D01*
X2450777Y-986436D02*
X2441253Y-967388D01*
X2441253Y-967388D02*
X2431729Y-929293D01*
X2431729Y-929293D02*
X2431729Y-881674D01*
X2431729Y-881674D02*
X2441253Y-843579D01*
X2441253Y-843579D02*
X2450777Y-824531D01*
X2450777Y-824531D02*
X2460301Y-815008D01*
X2460301Y-815008D02*
X2479348Y-805484D01*
X2612682Y-805484D02*
X2736491Y-805484D01*
X2736491Y-805484D02*
X2669825Y-881674D01*
X2669825Y-881674D02*
X2698396Y-881674D01*
X2698396Y-881674D02*
X2717444Y-891198D01*
X2717444Y-891198D02*
X2726968Y-900722D01*
X2726968Y-900722D02*
X2736491Y-919769D01*
X2736491Y-919769D02*
X2736491Y-967388D01*
X2736491Y-967388D02*
X2726968Y-986436D01*
X2726968Y-986436D02*
X2717444Y-995960D01*
X2717444Y-995960D02*
X2698396Y-1005484D01*
X2698396Y-1005484D02*
X2641253Y-1005484D01*
X2641253Y-1005484D02*
X2622206Y-995960D01*
X2622206Y-995960D02*
X2612682Y-986436D01*
X2917444Y-805484D02*
X2822206Y-805484D01*
X2822206Y-805484D02*
X2812682Y-900722D01*
X2812682Y-900722D02*
X2822206Y-891198D01*
X2822206Y-891198D02*
X2841253Y-881674D01*
X2841253Y-881674D02*
X2888872Y-881674D01*
X2888872Y-881674D02*
X2907920Y-891198D01*
X2907920Y-891198D02*
X2917444Y-900722D01*
X2917444Y-900722D02*
X2926967Y-919769D01*
X2926967Y-919769D02*
X2926967Y-967388D01*
X2926967Y-967388D02*
X2917444Y-986436D01*
X2917444Y-986436D02*
X2907920Y-995960D01*
X2907920Y-995960D02*
X2888872Y-1005484D01*
X2888872Y-1005484D02*
X2841253Y-1005484D01*
X2841253Y-1005484D02*
X2822206Y-995960D01*
X2822206Y-995960D02*
X2812682Y-986436D01*
X3098396Y-872150D02*
X3098396Y-1005484D01*
X3050777Y-795960D02*
X3003158Y-938817D01*
X3003158Y-938817D02*
X3126967Y-938817D01*
X3193634Y-805484D02*
X3193634Y-843579D01*
X3269825Y-805484D02*
X3269825Y-843579D01*
X3565063Y-1081674D02*
X3555539Y-1072150D01*
X3555539Y-1072150D02*
X3536491Y-1043579D01*
X3536491Y-1043579D02*
X3526968Y-1024531D01*
X3526968Y-1024531D02*
X3517444Y-995960D01*
X3517444Y-995960D02*
X3507920Y-948341D01*
X3507920Y-948341D02*
X3507920Y-910246D01*
X3507920Y-910246D02*
X3517444Y-862627D01*
X3517444Y-862627D02*
X3526968Y-834055D01*
X3526968Y-834055D02*
X3536491Y-815008D01*
X3536491Y-815008D02*
X3555539Y-786436D01*
X3555539Y-786436D02*
X3565063Y-776912D01*
X3726968Y-872150D02*
X3726968Y-1005484D01*
X3679348Y-795960D02*
X3631729Y-938817D01*
X3631729Y-938817D02*
X3755539Y-938817D01*
X3984110Y-1005484D02*
X3984110Y-805484D01*
X4069825Y-1005484D02*
X4069825Y-900722D01*
X4069825Y-900722D02*
X4060301Y-881674D01*
X4060301Y-881674D02*
X4041253Y-872150D01*
X4041253Y-872150D02*
X4012682Y-872150D01*
X4012682Y-872150D02*
X3993634Y-881674D01*
X3993634Y-881674D02*
X3984110Y-891198D01*
X4193634Y-1005484D02*
X4174587Y-995960D01*
X4174587Y-995960D02*
X4165063Y-986436D01*
X4165063Y-986436D02*
X4155539Y-967388D01*
X4155539Y-967388D02*
X4155539Y-910246D01*
X4155539Y-910246D02*
X4165063Y-891198D01*
X4165063Y-891198D02*
X4174587Y-881674D01*
X4174587Y-881674D02*
X4193634Y-872150D01*
X4193634Y-872150D02*
X4222206Y-872150D01*
X4222206Y-872150D02*
X4241253Y-881674D01*
X4241253Y-881674D02*
X4250777Y-891198D01*
X4250777Y-891198D02*
X4260301Y-910246D01*
X4260301Y-910246D02*
X4260301Y-967388D01*
X4260301Y-967388D02*
X4250777Y-986436D01*
X4250777Y-986436D02*
X4241253Y-995960D01*
X4241253Y-995960D02*
X4222206Y-1005484D01*
X4222206Y-1005484D02*
X4193634Y-1005484D01*
X4374587Y-1005484D02*
X4355539Y-995960D01*
X4355539Y-995960D02*
X4346015Y-976912D01*
X4346015Y-976912D02*
X4346015Y-805484D01*
X4526968Y-995960D02*
X4507920Y-1005484D01*
X4507920Y-1005484D02*
X4469825Y-1005484D01*
X4469825Y-1005484D02*
X4450777Y-995960D01*
X4450777Y-995960D02*
X4441253Y-976912D01*
X4441253Y-976912D02*
X4441253Y-900722D01*
X4441253Y-900722D02*
X4450777Y-881674D01*
X4450777Y-881674D02*
X4469825Y-872150D01*
X4469825Y-872150D02*
X4507920Y-872150D01*
X4507920Y-872150D02*
X4526968Y-881674D01*
X4526968Y-881674D02*
X4536492Y-900722D01*
X4536492Y-900722D02*
X4536492Y-919769D01*
X4536492Y-919769D02*
X4441253Y-938817D01*
X4612682Y-995960D02*
X4631730Y-1005484D01*
X4631730Y-1005484D02*
X4669825Y-1005484D01*
X4669825Y-1005484D02*
X4688873Y-995960D01*
X4688873Y-995960D02*
X4698396Y-976912D01*
X4698396Y-976912D02*
X4698396Y-967388D01*
X4698396Y-967388D02*
X4688873Y-948341D01*
X4688873Y-948341D02*
X4669825Y-938817D01*
X4669825Y-938817D02*
X4641253Y-938817D01*
X4641253Y-938817D02*
X4622206Y-929293D01*
X4622206Y-929293D02*
X4612682Y-910246D01*
X4612682Y-910246D02*
X4612682Y-900722D01*
X4612682Y-900722D02*
X4622206Y-881674D01*
X4622206Y-881674D02*
X4641253Y-872150D01*
X4641253Y-872150D02*
X4669825Y-872150D01*
X4669825Y-872150D02*
X4688873Y-881674D01*
X4765063Y-1081674D02*
X4774587Y-1072150D01*
X4774587Y-1072150D02*
X4793634Y-1043579D01*
X4793634Y-1043579D02*
X4803158Y-1024531D01*
X4803158Y-1024531D02*
X4812682Y-995960D01*
X4812682Y-995960D02*
X4822206Y-948341D01*
X4822206Y-948341D02*
X4822206Y-910246D01*
X4822206Y-910246D02*
X4812682Y-862627D01*
X4812682Y-862627D02*
X4803158Y-834055D01*
X4803158Y-834055D02*
X4793634Y-815008D01*
X4793634Y-815008D02*
X4774587Y-786436D01*
X4774587Y-786436D02*
X4765063Y-776912D01*
D11*
X-60000Y-1128000D02*
X-60000Y-1228000D01*
X-110000Y-1178000D02*
X-10000Y-1178000D01*
D10*
X355539Y-1269484D02*
X241253Y-1269484D01*
X298396Y-1269484D02*
X298396Y-1069484D01*
X298396Y-1069484D02*
X279348Y-1098055D01*
X279348Y-1098055D02*
X260301Y-1117103D01*
X260301Y-1117103D02*
X241253Y-1126627D01*
X441253Y-1250436D02*
X450777Y-1259960D01*
X450777Y-1259960D02*
X441253Y-1269484D01*
X441253Y-1269484D02*
X431729Y-1259960D01*
X431729Y-1259960D02*
X441253Y-1250436D01*
X441253Y-1250436D02*
X441253Y-1269484D01*
X574586Y-1069484D02*
X593634Y-1069484D01*
X593634Y-1069484D02*
X612682Y-1079008D01*
X612682Y-1079008D02*
X622205Y-1088531D01*
X622205Y-1088531D02*
X631729Y-1107579D01*
X631729Y-1107579D02*
X641253Y-1145674D01*
X641253Y-1145674D02*
X641253Y-1193293D01*
X641253Y-1193293D02*
X631729Y-1231389D01*
X631729Y-1231389D02*
X622205Y-1250436D01*
X622205Y-1250436D02*
X612682Y-1259960D01*
X612682Y-1259960D02*
X593634Y-1269484D01*
X593634Y-1269484D02*
X574586Y-1269484D01*
X574586Y-1269484D02*
X555539Y-1259960D01*
X555539Y-1259960D02*
X546015Y-1250436D01*
X546015Y-1250436D02*
X536491Y-1231389D01*
X536491Y-1231389D02*
X526967Y-1193293D01*
X526967Y-1193293D02*
X526967Y-1145674D01*
X526967Y-1145674D02*
X536491Y-1107579D01*
X536491Y-1107579D02*
X546015Y-1088531D01*
X546015Y-1088531D02*
X555539Y-1079008D01*
X555539Y-1079008D02*
X574586Y-1069484D01*
X765062Y-1069484D02*
X784110Y-1069484D01*
X784110Y-1069484D02*
X803158Y-1079008D01*
X803158Y-1079008D02*
X812682Y-1088531D01*
X812682Y-1088531D02*
X822205Y-1107579D01*
X822205Y-1107579D02*
X831729Y-1145674D01*
X831729Y-1145674D02*
X831729Y-1193293D01*
X831729Y-1193293D02*
X822205Y-1231389D01*
X822205Y-1231389D02*
X812682Y-1250436D01*
X812682Y-1250436D02*
X803158Y-1259960D01*
X803158Y-1259960D02*
X784110Y-1269484D01*
X784110Y-1269484D02*
X765062Y-1269484D01*
X765062Y-1269484D02*
X746015Y-1259960D01*
X746015Y-1259960D02*
X736491Y-1250436D01*
X736491Y-1250436D02*
X726967Y-1231389D01*
X726967Y-1231389D02*
X717443Y-1193293D01*
X717443Y-1193293D02*
X717443Y-1145674D01*
X717443Y-1145674D02*
X726967Y-1107579D01*
X726967Y-1107579D02*
X736491Y-1088531D01*
X736491Y-1088531D02*
X746015Y-1079008D01*
X746015Y-1079008D02*
X765062Y-1069484D01*
X955539Y-1069484D02*
X974586Y-1069484D01*
X974586Y-1069484D02*
X993634Y-1079008D01*
X993634Y-1079008D02*
X1003158Y-1088531D01*
X1003158Y-1088531D02*
X1012682Y-1107579D01*
X1012682Y-1107579D02*
X1022205Y-1145674D01*
X1022205Y-1145674D02*
X1022205Y-1193293D01*
X1022205Y-1193293D02*
X1012682Y-1231389D01*
X1012682Y-1231389D02*
X1003158Y-1250436D01*
X1003158Y-1250436D02*
X993634Y-1259960D01*
X993634Y-1259960D02*
X974586Y-1269484D01*
X974586Y-1269484D02*
X955539Y-1269484D01*
X955539Y-1269484D02*
X936491Y-1259960D01*
X936491Y-1259960D02*
X926967Y-1250436D01*
X926967Y-1250436D02*
X917443Y-1231389D01*
X917443Y-1231389D02*
X907920Y-1193293D01*
X907920Y-1193293D02*
X907920Y-1145674D01*
X907920Y-1145674D02*
X917443Y-1107579D01*
X917443Y-1107579D02*
X926967Y-1088531D01*
X926967Y-1088531D02*
X936491Y-1079008D01*
X936491Y-1079008D02*
X955539Y-1069484D01*
X1107920Y-1269484D02*
X1107920Y-1136150D01*
X1107920Y-1155198D02*
X1117444Y-1145674D01*
X1117444Y-1145674D02*
X1136491Y-1136150D01*
X1136491Y-1136150D02*
X1165063Y-1136150D01*
X1165063Y-1136150D02*
X1184110Y-1145674D01*
X1184110Y-1145674D02*
X1193634Y-1164722D01*
X1193634Y-1164722D02*
X1193634Y-1269484D01*
X1193634Y-1164722D02*
X1203158Y-1145674D01*
X1203158Y-1145674D02*
X1222205Y-1136150D01*
X1222205Y-1136150D02*
X1250777Y-1136150D01*
X1250777Y-1136150D02*
X1269825Y-1145674D01*
X1269825Y-1145674D02*
X1279348Y-1164722D01*
X1279348Y-1164722D02*
X1279348Y-1269484D01*
X1374586Y-1269484D02*
X1374586Y-1136150D01*
X1374586Y-1155198D02*
X1384110Y-1145674D01*
X1384110Y-1145674D02*
X1403158Y-1136150D01*
X1403158Y-1136150D02*
X1431729Y-1136150D01*
X1431729Y-1136150D02*
X1450777Y-1145674D01*
X1450777Y-1145674D02*
X1460301Y-1164722D01*
X1460301Y-1164722D02*
X1460301Y-1269484D01*
X1460301Y-1164722D02*
X1469824Y-1145674D01*
X1469824Y-1145674D02*
X1488872Y-1136150D01*
X1488872Y-1136150D02*
X1517443Y-1136150D01*
X1517443Y-1136150D02*
X1536491Y-1145674D01*
X1536491Y-1145674D02*
X1546015Y-1164722D01*
X1546015Y-1164722D02*
X1546015Y-1269484D01*
X1936491Y-1059960D02*
X1765063Y-1317103D01*
X2193634Y-1069484D02*
X2212682Y-1069484D01*
X2212682Y-1069484D02*
X2231729Y-1079008D01*
X2231729Y-1079008D02*
X2241253Y-1088531D01*
X2241253Y-1088531D02*
X2250777Y-1107579D01*
X2250777Y-1107579D02*
X2260301Y-1145674D01*
X2260301Y-1145674D02*
X2260301Y-1193293D01*
X2260301Y-1193293D02*
X2250777Y-1231389D01*
X2250777Y-1231389D02*
X2241253Y-1250436D01*
X2241253Y-1250436D02*
X2231729Y-1259960D01*
X2231729Y-1259960D02*
X2212682Y-1269484D01*
X2212682Y-1269484D02*
X2193634Y-1269484D01*
X2193634Y-1269484D02*
X2174587Y-1259960D01*
X2174587Y-1259960D02*
X2165063Y-1250436D01*
X2165063Y-1250436D02*
X2155539Y-1231389D01*
X2155539Y-1231389D02*
X2146015Y-1193293D01*
X2146015Y-1193293D02*
X2146015Y-1145674D01*
X2146015Y-1145674D02*
X2155539Y-1107579D01*
X2155539Y-1107579D02*
X2165063Y-1088531D01*
X2165063Y-1088531D02*
X2174587Y-1079008D01*
X2174587Y-1079008D02*
X2193634Y-1069484D01*
X2346015Y-1250436D02*
X2355539Y-1259960D01*
X2355539Y-1259960D02*
X2346015Y-1269484D01*
X2346015Y-1269484D02*
X2336491Y-1259960D01*
X2336491Y-1259960D02*
X2346015Y-1250436D01*
X2346015Y-1250436D02*
X2346015Y-1269484D01*
X2479348Y-1069484D02*
X2498396Y-1069484D01*
X2498396Y-1069484D02*
X2517444Y-1079008D01*
X2517444Y-1079008D02*
X2526968Y-1088531D01*
X2526968Y-1088531D02*
X2536491Y-1107579D01*
X2536491Y-1107579D02*
X2546015Y-1145674D01*
X2546015Y-1145674D02*
X2546015Y-1193293D01*
X2546015Y-1193293D02*
X2536491Y-1231389D01*
X2536491Y-1231389D02*
X2526968Y-1250436D01*
X2526968Y-1250436D02*
X2517444Y-1259960D01*
X2517444Y-1259960D02*
X2498396Y-1269484D01*
X2498396Y-1269484D02*
X2479348Y-1269484D01*
X2479348Y-1269484D02*
X2460301Y-1259960D01*
X2460301Y-1259960D02*
X2450777Y-1250436D01*
X2450777Y-1250436D02*
X2441253Y-1231389D01*
X2441253Y-1231389D02*
X2431729Y-1193293D01*
X2431729Y-1193293D02*
X2431729Y-1145674D01*
X2431729Y-1145674D02*
X2441253Y-1107579D01*
X2441253Y-1107579D02*
X2450777Y-1088531D01*
X2450777Y-1088531D02*
X2460301Y-1079008D01*
X2460301Y-1079008D02*
X2479348Y-1069484D01*
X2612682Y-1069484D02*
X2736491Y-1069484D01*
X2736491Y-1069484D02*
X2669825Y-1145674D01*
X2669825Y-1145674D02*
X2698396Y-1145674D01*
X2698396Y-1145674D02*
X2717444Y-1155198D01*
X2717444Y-1155198D02*
X2726968Y-1164722D01*
X2726968Y-1164722D02*
X2736491Y-1183770D01*
X2736491Y-1183770D02*
X2736491Y-1231389D01*
X2736491Y-1231389D02*
X2726968Y-1250436D01*
X2726968Y-1250436D02*
X2717444Y-1259960D01*
X2717444Y-1259960D02*
X2698396Y-1269484D01*
X2698396Y-1269484D02*
X2641253Y-1269484D01*
X2641253Y-1269484D02*
X2622206Y-1259960D01*
X2622206Y-1259960D02*
X2612682Y-1250436D01*
X2831729Y-1269484D02*
X2869825Y-1269484D01*
X2869825Y-1269484D02*
X2888872Y-1259960D01*
X2888872Y-1259960D02*
X2898396Y-1250436D01*
X2898396Y-1250436D02*
X2917444Y-1221865D01*
X2917444Y-1221865D02*
X2926967Y-1183770D01*
X2926967Y-1183770D02*
X2926967Y-1107579D01*
X2926967Y-1107579D02*
X2917444Y-1088531D01*
X2917444Y-1088531D02*
X2907920Y-1079008D01*
X2907920Y-1079008D02*
X2888872Y-1069484D01*
X2888872Y-1069484D02*
X2850777Y-1069484D01*
X2850777Y-1069484D02*
X2831729Y-1079008D01*
X2831729Y-1079008D02*
X2822206Y-1088531D01*
X2822206Y-1088531D02*
X2812682Y-1107579D01*
X2812682Y-1107579D02*
X2812682Y-1155198D01*
X2812682Y-1155198D02*
X2822206Y-1174246D01*
X2822206Y-1174246D02*
X2831729Y-1183770D01*
X2831729Y-1183770D02*
X2850777Y-1193293D01*
X2850777Y-1193293D02*
X2888872Y-1193293D01*
X2888872Y-1193293D02*
X2907920Y-1183770D01*
X2907920Y-1183770D02*
X2917444Y-1174246D01*
X2917444Y-1174246D02*
X2926967Y-1155198D01*
X3098396Y-1136150D02*
X3098396Y-1269484D01*
X3050777Y-1059960D02*
X3003158Y-1202817D01*
X3003158Y-1202817D02*
X3126967Y-1202817D01*
X3193634Y-1069484D02*
X3193634Y-1107579D01*
X3269825Y-1069484D02*
X3269825Y-1107579D01*
X3565063Y-1345674D02*
X3555539Y-1336150D01*
X3555539Y-1336150D02*
X3536491Y-1307579D01*
X3536491Y-1307579D02*
X3526968Y-1288531D01*
X3526968Y-1288531D02*
X3517444Y-1259960D01*
X3517444Y-1259960D02*
X3507920Y-1212341D01*
X3507920Y-1212341D02*
X3507920Y-1174246D01*
X3507920Y-1174246D02*
X3517444Y-1126627D01*
X3517444Y-1126627D02*
X3526968Y-1098055D01*
X3526968Y-1098055D02*
X3536491Y-1079008D01*
X3536491Y-1079008D02*
X3555539Y-1050436D01*
X3555539Y-1050436D02*
X3565063Y-1040912D01*
X3746015Y-1269484D02*
X3631729Y-1269484D01*
X3688872Y-1269484D02*
X3688872Y-1069484D01*
X3688872Y-1069484D02*
X3669825Y-1098055D01*
X3669825Y-1098055D02*
X3650777Y-1117103D01*
X3650777Y-1117103D02*
X3631729Y-1126627D01*
X3936491Y-1269484D02*
X3822206Y-1269484D01*
X3879348Y-1269484D02*
X3879348Y-1069484D01*
X3879348Y-1069484D02*
X3860301Y-1098055D01*
X3860301Y-1098055D02*
X3841253Y-1117103D01*
X3841253Y-1117103D02*
X3822206Y-1126627D01*
X4174587Y-1269484D02*
X4174587Y-1069484D01*
X4260301Y-1269484D02*
X4260301Y-1164722D01*
X4260301Y-1164722D02*
X4250777Y-1145674D01*
X4250777Y-1145674D02*
X4231730Y-1136150D01*
X4231730Y-1136150D02*
X4203158Y-1136150D01*
X4203158Y-1136150D02*
X4184110Y-1145674D01*
X4184110Y-1145674D02*
X4174587Y-1155198D01*
X4384111Y-1269484D02*
X4365063Y-1259960D01*
X4365063Y-1259960D02*
X4355539Y-1250436D01*
X4355539Y-1250436D02*
X4346015Y-1231389D01*
X4346015Y-1231389D02*
X4346015Y-1174246D01*
X4346015Y-1174246D02*
X4355539Y-1155198D01*
X4355539Y-1155198D02*
X4365063Y-1145674D01*
X4365063Y-1145674D02*
X4384111Y-1136150D01*
X4384111Y-1136150D02*
X4412682Y-1136150D01*
X4412682Y-1136150D02*
X4431730Y-1145674D01*
X4431730Y-1145674D02*
X4441253Y-1155198D01*
X4441253Y-1155198D02*
X4450777Y-1174246D01*
X4450777Y-1174246D02*
X4450777Y-1231389D01*
X4450777Y-1231389D02*
X4441253Y-1250436D01*
X4441253Y-1250436D02*
X4431730Y-1259960D01*
X4431730Y-1259960D02*
X4412682Y-1269484D01*
X4412682Y-1269484D02*
X4384111Y-1269484D01*
X4565063Y-1269484D02*
X4546015Y-1259960D01*
X4546015Y-1259960D02*
X4536492Y-1240912D01*
X4536492Y-1240912D02*
X4536492Y-1069484D01*
X4717444Y-1259960D02*
X4698396Y-1269484D01*
X4698396Y-1269484D02*
X4660301Y-1269484D01*
X4660301Y-1269484D02*
X4641253Y-1259960D01*
X4641253Y-1259960D02*
X4631730Y-1240912D01*
X4631730Y-1240912D02*
X4631730Y-1164722D01*
X4631730Y-1164722D02*
X4641253Y-1145674D01*
X4641253Y-1145674D02*
X4660301Y-1136150D01*
X4660301Y-1136150D02*
X4698396Y-1136150D01*
X4698396Y-1136150D02*
X4717444Y-1145674D01*
X4717444Y-1145674D02*
X4726968Y-1164722D01*
X4726968Y-1164722D02*
X4726968Y-1183770D01*
X4726968Y-1183770D02*
X4631730Y-1202817D01*
X4803158Y-1259960D02*
X4822206Y-1269484D01*
X4822206Y-1269484D02*
X4860301Y-1269484D01*
X4860301Y-1269484D02*
X4879349Y-1259960D01*
X4879349Y-1259960D02*
X4888873Y-1240912D01*
X4888873Y-1240912D02*
X4888873Y-1231389D01*
X4888873Y-1231389D02*
X4879349Y-1212341D01*
X4879349Y-1212341D02*
X4860301Y-1202817D01*
X4860301Y-1202817D02*
X4831730Y-1202817D01*
X4831730Y-1202817D02*
X4812682Y-1193293D01*
X4812682Y-1193293D02*
X4803158Y-1174246D01*
X4803158Y-1174246D02*
X4803158Y-1164722D01*
X4803158Y-1164722D02*
X4812682Y-1145674D01*
X4812682Y-1145674D02*
X4831730Y-1136150D01*
X4831730Y-1136150D02*
X4860301Y-1136150D01*
X4860301Y-1136150D02*
X4879349Y-1145674D01*
X4955539Y-1345674D02*
X4965063Y-1336150D01*
X4965063Y-1336150D02*
X4984111Y-1307579D01*
X4984111Y-1307579D02*
X4993634Y-1288531D01*
X4993634Y-1288531D02*
X5003158Y-1259960D01*
X5003158Y-1259960D02*
X5012682Y-1212341D01*
X5012682Y-1212341D02*
X5012682Y-1174246D01*
X5012682Y-1174246D02*
X5003158Y-1126627D01*
X5003158Y-1126627D02*
X4993634Y-1098055D01*
X4993634Y-1098055D02*
X4984111Y-1079008D01*
X4984111Y-1079008D02*
X4965063Y-1050436D01*
X4965063Y-1050436D02*
X4955539Y-1040912D01*
D12*
X-30458Y-1491392D02*
X-30458Y-1392608D01*
X-129242Y-1392608D01*
X-129242Y-1491392D01*
X-30458Y-1491392D01*
D10*
X355539Y-1533484D02*
X241253Y-1533484D01*
X298396Y-1533484D02*
X298396Y-1333484D01*
X298396Y-1333484D02*
X279348Y-1362055D01*
X279348Y-1362055D02*
X260301Y-1381103D01*
X260301Y-1381103D02*
X241253Y-1390627D01*
X441253Y-1514436D02*
X450777Y-1523960D01*
X450777Y-1523960D02*
X441253Y-1533484D01*
X441253Y-1533484D02*
X431729Y-1523960D01*
X431729Y-1523960D02*
X441253Y-1514436D01*
X441253Y-1514436D02*
X441253Y-1533484D01*
X517443Y-1333484D02*
X641253Y-1333484D01*
X641253Y-1333484D02*
X574586Y-1409674D01*
X574586Y-1409674D02*
X603158Y-1409674D01*
X603158Y-1409674D02*
X622205Y-1419198D01*
X622205Y-1419198D02*
X631729Y-1428722D01*
X631729Y-1428722D02*
X641253Y-1447769D01*
X641253Y-1447769D02*
X641253Y-1495388D01*
X641253Y-1495388D02*
X631729Y-1514436D01*
X631729Y-1514436D02*
X622205Y-1523960D01*
X622205Y-1523960D02*
X603158Y-1533484D01*
X603158Y-1533484D02*
X546015Y-1533484D01*
X546015Y-1533484D02*
X526967Y-1523960D01*
X526967Y-1523960D02*
X517443Y-1514436D01*
X736491Y-1533484D02*
X774586Y-1533484D01*
X774586Y-1533484D02*
X793634Y-1523960D01*
X793634Y-1523960D02*
X803158Y-1514436D01*
X803158Y-1514436D02*
X822205Y-1485865D01*
X822205Y-1485865D02*
X831729Y-1447769D01*
X831729Y-1447769D02*
X831729Y-1371579D01*
X831729Y-1371579D02*
X822205Y-1352531D01*
X822205Y-1352531D02*
X812682Y-1343008D01*
X812682Y-1343008D02*
X793634Y-1333484D01*
X793634Y-1333484D02*
X755539Y-1333484D01*
X755539Y-1333484D02*
X736491Y-1343008D01*
X736491Y-1343008D02*
X726967Y-1352531D01*
X726967Y-1352531D02*
X717443Y-1371579D01*
X717443Y-1371579D02*
X717443Y-1419198D01*
X717443Y-1419198D02*
X726967Y-1438246D01*
X726967Y-1438246D02*
X736491Y-1447769D01*
X736491Y-1447769D02*
X755539Y-1457293D01*
X755539Y-1457293D02*
X793634Y-1457293D01*
X793634Y-1457293D02*
X812682Y-1447769D01*
X812682Y-1447769D02*
X822205Y-1438246D01*
X822205Y-1438246D02*
X831729Y-1419198D01*
X898396Y-1333484D02*
X1031729Y-1333484D01*
X1031729Y-1333484D02*
X946015Y-1533484D01*
X1107920Y-1533484D02*
X1107920Y-1400150D01*
X1107920Y-1419198D02*
X1117444Y-1409674D01*
X1117444Y-1409674D02*
X1136491Y-1400150D01*
X1136491Y-1400150D02*
X1165063Y-1400150D01*
X1165063Y-1400150D02*
X1184110Y-1409674D01*
X1184110Y-1409674D02*
X1193634Y-1428722D01*
X1193634Y-1428722D02*
X1193634Y-1533484D01*
X1193634Y-1428722D02*
X1203158Y-1409674D01*
X1203158Y-1409674D02*
X1222205Y-1400150D01*
X1222205Y-1400150D02*
X1250777Y-1400150D01*
X1250777Y-1400150D02*
X1269825Y-1409674D01*
X1269825Y-1409674D02*
X1279348Y-1428722D01*
X1279348Y-1428722D02*
X1279348Y-1533484D01*
X1374586Y-1533484D02*
X1374586Y-1400150D01*
X1374586Y-1419198D02*
X1384110Y-1409674D01*
X1384110Y-1409674D02*
X1403158Y-1400150D01*
X1403158Y-1400150D02*
X1431729Y-1400150D01*
X1431729Y-1400150D02*
X1450777Y-1409674D01*
X1450777Y-1409674D02*
X1460301Y-1428722D01*
X1460301Y-1428722D02*
X1460301Y-1533484D01*
X1460301Y-1428722D02*
X1469824Y-1409674D01*
X1469824Y-1409674D02*
X1488872Y-1400150D01*
X1488872Y-1400150D02*
X1517443Y-1400150D01*
X1517443Y-1400150D02*
X1536491Y-1409674D01*
X1536491Y-1409674D02*
X1546015Y-1428722D01*
X1546015Y-1428722D02*
X1546015Y-1533484D01*
X1936491Y-1323960D02*
X1765063Y-1581103D01*
X2193634Y-1333484D02*
X2212682Y-1333484D01*
X2212682Y-1333484D02*
X2231729Y-1343008D01*
X2231729Y-1343008D02*
X2241253Y-1352531D01*
X2241253Y-1352531D02*
X2250777Y-1371579D01*
X2250777Y-1371579D02*
X2260301Y-1409674D01*
X2260301Y-1409674D02*
X2260301Y-1457293D01*
X2260301Y-1457293D02*
X2250777Y-1495388D01*
X2250777Y-1495388D02*
X2241253Y-1514436D01*
X2241253Y-1514436D02*
X2231729Y-1523960D01*
X2231729Y-1523960D02*
X2212682Y-1533484D01*
X2212682Y-1533484D02*
X2193634Y-1533484D01*
X2193634Y-1533484D02*
X2174587Y-1523960D01*
X2174587Y-1523960D02*
X2165063Y-1514436D01*
X2165063Y-1514436D02*
X2155539Y-1495388D01*
X2155539Y-1495388D02*
X2146015Y-1457293D01*
X2146015Y-1457293D02*
X2146015Y-1409674D01*
X2146015Y-1409674D02*
X2155539Y-1371579D01*
X2155539Y-1371579D02*
X2165063Y-1352531D01*
X2165063Y-1352531D02*
X2174587Y-1343008D01*
X2174587Y-1343008D02*
X2193634Y-1333484D01*
X2346015Y-1514436D02*
X2355539Y-1523960D01*
X2355539Y-1523960D02*
X2346015Y-1533484D01*
X2346015Y-1533484D02*
X2336491Y-1523960D01*
X2336491Y-1523960D02*
X2346015Y-1514436D01*
X2346015Y-1514436D02*
X2346015Y-1533484D01*
X2479348Y-1333484D02*
X2498396Y-1333484D01*
X2498396Y-1333484D02*
X2517444Y-1343008D01*
X2517444Y-1343008D02*
X2526968Y-1352531D01*
X2526968Y-1352531D02*
X2536491Y-1371579D01*
X2536491Y-1371579D02*
X2546015Y-1409674D01*
X2546015Y-1409674D02*
X2546015Y-1457293D01*
X2546015Y-1457293D02*
X2536491Y-1495388D01*
X2536491Y-1495388D02*
X2526968Y-1514436D01*
X2526968Y-1514436D02*
X2517444Y-1523960D01*
X2517444Y-1523960D02*
X2498396Y-1533484D01*
X2498396Y-1533484D02*
X2479348Y-1533484D01*
X2479348Y-1533484D02*
X2460301Y-1523960D01*
X2460301Y-1523960D02*
X2450777Y-1514436D01*
X2450777Y-1514436D02*
X2441253Y-1495388D01*
X2441253Y-1495388D02*
X2431729Y-1457293D01*
X2431729Y-1457293D02*
X2431729Y-1409674D01*
X2431729Y-1409674D02*
X2441253Y-1371579D01*
X2441253Y-1371579D02*
X2450777Y-1352531D01*
X2450777Y-1352531D02*
X2460301Y-1343008D01*
X2460301Y-1343008D02*
X2479348Y-1333484D01*
X2726968Y-1333484D02*
X2631729Y-1333484D01*
X2631729Y-1333484D02*
X2622206Y-1428722D01*
X2622206Y-1428722D02*
X2631729Y-1419198D01*
X2631729Y-1419198D02*
X2650777Y-1409674D01*
X2650777Y-1409674D02*
X2698396Y-1409674D01*
X2698396Y-1409674D02*
X2717444Y-1419198D01*
X2717444Y-1419198D02*
X2726968Y-1428722D01*
X2726968Y-1428722D02*
X2736491Y-1447769D01*
X2736491Y-1447769D02*
X2736491Y-1495388D01*
X2736491Y-1495388D02*
X2726968Y-1514436D01*
X2726968Y-1514436D02*
X2717444Y-1523960D01*
X2717444Y-1523960D02*
X2698396Y-1533484D01*
X2698396Y-1533484D02*
X2650777Y-1533484D01*
X2650777Y-1533484D02*
X2631729Y-1523960D01*
X2631729Y-1523960D02*
X2622206Y-1514436D01*
X2917444Y-1333484D02*
X2822206Y-1333484D01*
X2822206Y-1333484D02*
X2812682Y-1428722D01*
X2812682Y-1428722D02*
X2822206Y-1419198D01*
X2822206Y-1419198D02*
X2841253Y-1409674D01*
X2841253Y-1409674D02*
X2888872Y-1409674D01*
X2888872Y-1409674D02*
X2907920Y-1419198D01*
X2907920Y-1419198D02*
X2917444Y-1428722D01*
X2917444Y-1428722D02*
X2926967Y-1447769D01*
X2926967Y-1447769D02*
X2926967Y-1495388D01*
X2926967Y-1495388D02*
X2917444Y-1514436D01*
X2917444Y-1514436D02*
X2907920Y-1523960D01*
X2907920Y-1523960D02*
X2888872Y-1533484D01*
X2888872Y-1533484D02*
X2841253Y-1533484D01*
X2841253Y-1533484D02*
X2822206Y-1523960D01*
X2822206Y-1523960D02*
X2812682Y-1514436D01*
X3050777Y-1333484D02*
X3069825Y-1333484D01*
X3069825Y-1333484D02*
X3088872Y-1343008D01*
X3088872Y-1343008D02*
X3098396Y-1352531D01*
X3098396Y-1352531D02*
X3107920Y-1371579D01*
X3107920Y-1371579D02*
X3117444Y-1409674D01*
X3117444Y-1409674D02*
X3117444Y-1457293D01*
X3117444Y-1457293D02*
X3107920Y-1495388D01*
X3107920Y-1495388D02*
X3098396Y-1514436D01*
X3098396Y-1514436D02*
X3088872Y-1523960D01*
X3088872Y-1523960D02*
X3069825Y-1533484D01*
X3069825Y-1533484D02*
X3050777Y-1533484D01*
X3050777Y-1533484D02*
X3031729Y-1523960D01*
X3031729Y-1523960D02*
X3022206Y-1514436D01*
X3022206Y-1514436D02*
X3012682Y-1495388D01*
X3012682Y-1495388D02*
X3003158Y-1457293D01*
X3003158Y-1457293D02*
X3003158Y-1409674D01*
X3003158Y-1409674D02*
X3012682Y-1371579D01*
X3012682Y-1371579D02*
X3022206Y-1352531D01*
X3022206Y-1352531D02*
X3031729Y-1343008D01*
X3031729Y-1343008D02*
X3050777Y-1333484D01*
X3193634Y-1333484D02*
X3193634Y-1371579D01*
X3269825Y-1333484D02*
X3269825Y-1371579D01*
X3565063Y-1609674D02*
X3555539Y-1600150D01*
X3555539Y-1600150D02*
X3536491Y-1571579D01*
X3536491Y-1571579D02*
X3526968Y-1552531D01*
X3526968Y-1552531D02*
X3517444Y-1523960D01*
X3517444Y-1523960D02*
X3507920Y-1476341D01*
X3507920Y-1476341D02*
X3507920Y-1438246D01*
X3507920Y-1438246D02*
X3517444Y-1390627D01*
X3517444Y-1390627D02*
X3526968Y-1362055D01*
X3526968Y-1362055D02*
X3536491Y-1343008D01*
X3536491Y-1343008D02*
X3555539Y-1314436D01*
X3555539Y-1314436D02*
X3565063Y-1304912D01*
X3726968Y-1400150D02*
X3726968Y-1533484D01*
X3679348Y-1323960D02*
X3631729Y-1466817D01*
X3631729Y-1466817D02*
X3755539Y-1466817D01*
X3984110Y-1533484D02*
X3984110Y-1333484D01*
X4069825Y-1533484D02*
X4069825Y-1428722D01*
X4069825Y-1428722D02*
X4060301Y-1409674D01*
X4060301Y-1409674D02*
X4041253Y-1400150D01*
X4041253Y-1400150D02*
X4012682Y-1400150D01*
X4012682Y-1400150D02*
X3993634Y-1409674D01*
X3993634Y-1409674D02*
X3984110Y-1419198D01*
X4193634Y-1533484D02*
X4174587Y-1523960D01*
X4174587Y-1523960D02*
X4165063Y-1514436D01*
X4165063Y-1514436D02*
X4155539Y-1495388D01*
X4155539Y-1495388D02*
X4155539Y-1438246D01*
X4155539Y-1438246D02*
X4165063Y-1419198D01*
X4165063Y-1419198D02*
X4174587Y-1409674D01*
X4174587Y-1409674D02*
X4193634Y-1400150D01*
X4193634Y-1400150D02*
X4222206Y-1400150D01*
X4222206Y-1400150D02*
X4241253Y-1409674D01*
X4241253Y-1409674D02*
X4250777Y-1419198D01*
X4250777Y-1419198D02*
X4260301Y-1438246D01*
X4260301Y-1438246D02*
X4260301Y-1495388D01*
X4260301Y-1495388D02*
X4250777Y-1514436D01*
X4250777Y-1514436D02*
X4241253Y-1523960D01*
X4241253Y-1523960D02*
X4222206Y-1533484D01*
X4222206Y-1533484D02*
X4193634Y-1533484D01*
X4374587Y-1533484D02*
X4355539Y-1523960D01*
X4355539Y-1523960D02*
X4346015Y-1504912D01*
X4346015Y-1504912D02*
X4346015Y-1333484D01*
X4526968Y-1523960D02*
X4507920Y-1533484D01*
X4507920Y-1533484D02*
X4469825Y-1533484D01*
X4469825Y-1533484D02*
X4450777Y-1523960D01*
X4450777Y-1523960D02*
X4441253Y-1504912D01*
X4441253Y-1504912D02*
X4441253Y-1428722D01*
X4441253Y-1428722D02*
X4450777Y-1409674D01*
X4450777Y-1409674D02*
X4469825Y-1400150D01*
X4469825Y-1400150D02*
X4507920Y-1400150D01*
X4507920Y-1400150D02*
X4526968Y-1409674D01*
X4526968Y-1409674D02*
X4536492Y-1428722D01*
X4536492Y-1428722D02*
X4536492Y-1447769D01*
X4536492Y-1447769D02*
X4441253Y-1466817D01*
X4612682Y-1523960D02*
X4631730Y-1533484D01*
X4631730Y-1533484D02*
X4669825Y-1533484D01*
X4669825Y-1533484D02*
X4688873Y-1523960D01*
X4688873Y-1523960D02*
X4698396Y-1504912D01*
X4698396Y-1504912D02*
X4698396Y-1495388D01*
X4698396Y-1495388D02*
X4688873Y-1476341D01*
X4688873Y-1476341D02*
X4669825Y-1466817D01*
X4669825Y-1466817D02*
X4641253Y-1466817D01*
X4641253Y-1466817D02*
X4622206Y-1457293D01*
X4622206Y-1457293D02*
X4612682Y-1438246D01*
X4612682Y-1438246D02*
X4612682Y-1428722D01*
X4612682Y-1428722D02*
X4622206Y-1409674D01*
X4622206Y-1409674D02*
X4641253Y-1400150D01*
X4641253Y-1400150D02*
X4669825Y-1400150D01*
X4669825Y-1400150D02*
X4688873Y-1409674D01*
X4765063Y-1609674D02*
X4774587Y-1600150D01*
X4774587Y-1600150D02*
X4793634Y-1571579D01*
X4793634Y-1571579D02*
X4803158Y-1552531D01*
X4803158Y-1552531D02*
X4812682Y-1523960D01*
X4812682Y-1523960D02*
X4822206Y-1476341D01*
X4822206Y-1476341D02*
X4822206Y-1438246D01*
X4822206Y-1438246D02*
X4812682Y-1390627D01*
X4812682Y-1390627D02*
X4803158Y-1362055D01*
X4803158Y-1362055D02*
X4793634Y-1343008D01*
X4793634Y-1343008D02*
X4774587Y-1314436D01*
X4774587Y-1314436D02*
X4765063Y-1304912D01*
M02*
