%TF.GenerationSoftware,KiCad,Pcbnew,8.0.8*%
%TF.CreationDate,2025-05-10T21:29:36+02:00*%
%TF.ProjectId,ps4,7073342e-6b69-4636-9164-5f7063625858,v1.1.0*%
%TF.SameCoordinates,PX54c81a0PY93ea360*%
%TF.FileFunction,Copper,L2,Bot*%
%TF.FilePolarity,Positive*%
%FSLAX46Y46*%
G04 Gerber Fmt 4.6, Leading zero omitted, Abs format (unit mm)*
G04 Created by KiCad (PCBNEW 8.0.8) date 2025-05-10 21:29:36*
%MOMM*%
%LPD*%
G01*
G04 APERTURE LIST*
%TA.AperFunction,ComponentPad*%
%ADD10C,1.778000*%
%TD*%
%TA.AperFunction,ComponentPad*%
%ADD11C,2.286000*%
%TD*%
%TA.AperFunction,ComponentPad*%
%ADD12R,1.700000X1.700000*%
%TD*%
%TA.AperFunction,ComponentPad*%
%ADD13O,1.700000X1.700000*%
%TD*%
%TA.AperFunction,ViaPad*%
%ADD14C,0.800000*%
%TD*%
%TA.AperFunction,Conductor*%
%ADD15C,0.200000*%
%TD*%
G04 APERTURE END LIST*
D10*
%TO.P,U1,B1A,SEL+*%
%TO.N,/Switch*%
X9975000Y22500000D03*
%TO.P,U1,B1B*%
%TO.N,N/C*%
X16325000Y22480200D03*
%TO.P,U1,B2A,SEL-*%
%TO.N,GND*%
X9975000Y17560000D03*
%TO.P,U1,B2B*%
%TO.N,N/C*%
X16335000Y17540000D03*
%TO.P,U1,H1,H+*%
%TO.N,+5V*%
X10625000Y2810000D03*
%TO.P,U1,H2,H*%
%TO.N,/R_orange*%
X13165000Y2790000D03*
%TO.P,U1,H3,H-*%
%TO.N,GND*%
X15705000Y2810000D03*
D11*
%TO.P,U1,S1,SHIELD*%
%TO.N,/Schield*%
X6800000Y16750000D03*
%TO.P,U1,S2,SHIELD*%
X6800000Y6620000D03*
%TO.P,U1,S3,SHIELD*%
X19500000Y6605200D03*
%TO.P,U1,S4,SHIELD*%
X19500000Y16765200D03*
D10*
%TO.P,U1,V1,V+*%
%TO.N,+5V*%
X4260000Y14225200D03*
%TO.P,U1,V2,V*%
%TO.N,/R_black*%
X4245000Y11700000D03*
%TO.P,U1,V3,V-*%
%TO.N,GND*%
X4245000Y9160000D03*
%TD*%
D12*
%TO.P,J1,1,Pin_1*%
%TO.N,GND*%
X-3000000Y2140000D03*
D13*
%TO.P,J1,2,Pin_2*%
%TO.N,+5V*%
X-3000000Y4680000D03*
%TO.P,J1,3,Pin_3*%
%TO.N,/R_black*%
X-3000000Y7220000D03*
%TO.P,J1,4,Pin_4*%
%TO.N,/R_orange*%
X-3000000Y9760000D03*
%TO.P,J1,5,Pin_5*%
%TO.N,/Switch*%
X-3000000Y12300000D03*
%TO.P,J1,6,Pin_6*%
%TO.N,GND*%
X-3000000Y14840000D03*
%TO.P,J1,7,Pin_7*%
%TO.N,/Schield*%
X-3000000Y17380000D03*
%TO.P,J1,8,Pin_8*%
%TO.N,/L1*%
X-3000000Y19920000D03*
%TO.P,J1,9,Pin_9*%
%TO.N,/L2*%
X-3000000Y22460000D03*
%TO.P,J1,10,Pin_10*%
%TO.N,/R1*%
X-3000000Y25000000D03*
%TO.P,J1,11,Pin_11*%
%TO.N,/R2*%
X-3000000Y27540000D03*
%TD*%
D14*
%TO.N,GND*%
X53250000Y2000000D03*
%TD*%
D15*
%TO.N,/Switch*%
X-1200000Y12300000D02*
X-3000000Y12300000D01*
X9000000Y22500000D02*
X-1200000Y12300000D01*
X9975000Y22500000D02*
X9000000Y22500000D01*
%TO.N,/R_orange*%
X5760000Y1000000D02*
X-3000000Y9760000D01*
X11375000Y1000000D02*
X5760000Y1000000D01*
X13165000Y2790000D02*
X11375000Y1000000D01*
%TD*%
%TA.AperFunction,Conductor*%
%TO.N,GND*%
G36*
X-1440728Y7338101D02*
G01*
X-1426230Y7325681D01*
X5187770Y711681D01*
X5221255Y650358D01*
X5216271Y580666D01*
X5174399Y524733D01*
X5108935Y500316D01*
X5100089Y500000D01*
X-4376000Y500000D01*
X-4443039Y519685D01*
X-4488794Y572489D01*
X-4500000Y624000D01*
X-4500000Y951399D01*
X-4480315Y1018438D01*
X-4427511Y1064193D01*
X-4358353Y1074137D01*
X-4294797Y1045112D01*
X-4276734Y1025710D01*
X-4207191Y932813D01*
X-4207188Y932810D01*
X-4092094Y846650D01*
X-4092087Y846646D01*
X-3957380Y796404D01*
X-3957373Y796402D01*
X-3897845Y790001D01*
X-3897828Y790000D01*
X-3250000Y790000D01*
X-3250000Y1706988D01*
X-3192993Y1674075D01*
X-3065826Y1640000D01*
X-2934174Y1640000D01*
X-2807007Y1674075D01*
X-2750000Y1706988D01*
X-2750000Y790000D01*
X-2102172Y790000D01*
X-2102156Y790001D01*
X-2042628Y796402D01*
X-2042621Y796404D01*
X-1907914Y846646D01*
X-1907907Y846650D01*
X-1792813Y932810D01*
X-1792810Y932813D01*
X-1706650Y1047907D01*
X-1706646Y1047914D01*
X-1656404Y1182621D01*
X-1656402Y1182628D01*
X-1650001Y1242156D01*
X-1650000Y1242173D01*
X-1650000Y1890000D01*
X-2566988Y1890000D01*
X-2534075Y1947007D01*
X-2500000Y2074174D01*
X-2500000Y2205826D01*
X-2534075Y2332993D01*
X-2566988Y2390000D01*
X-1650000Y2390000D01*
X-1650000Y3037828D01*
X-1650001Y3037845D01*
X-1656402Y3097373D01*
X-1656404Y3097380D01*
X-1706646Y3232087D01*
X-1706650Y3232094D01*
X-1792810Y3347188D01*
X-1792813Y3347191D01*
X-1907907Y3433351D01*
X-1907912Y3433354D01*
X-2027812Y3478074D01*
X-2083745Y3519946D01*
X-2108162Y3585410D01*
X-2093310Y3653683D01*
X-2075714Y3678231D01*
X-1924278Y3842732D01*
X-1801140Y4031209D01*
X-1710704Y4237384D01*
X-1655436Y4455632D01*
X-1636844Y4680000D01*
X-1655436Y4904368D01*
X-1710704Y5122616D01*
X-1801140Y5328791D01*
X-1924278Y5517268D01*
X-1924281Y5517271D01*
X-1924285Y5517277D01*
X-2076757Y5682903D01*
X-2076762Y5682908D01*
X-2254423Y5821188D01*
X-2254422Y5821188D01*
X-2254424Y5821189D01*
X-2290930Y5840945D01*
X-2340521Y5890164D01*
X-2355629Y5958381D01*
X-2331459Y6023936D01*
X-2290930Y6059055D01*
X-2290916Y6059064D01*
X-2254424Y6078811D01*
X-2076760Y6217094D01*
X-1924278Y6382732D01*
X-1801140Y6571209D01*
X-1710704Y6777384D01*
X-1655436Y6995632D01*
X-1645369Y7117120D01*
X-1636844Y7219995D01*
X-1636844Y7220000D01*
X-1637487Y7227756D01*
X-1623408Y7296192D01*
X-1574565Y7346153D01*
X-1506464Y7361776D01*
X-1440728Y7338101D01*
G37*
%TD.AperFunction*%
%TA.AperFunction,Conductor*%
G36*
X54943039Y29480315D02*
G01*
X54988794Y29427511D01*
X55000000Y29376000D01*
X55000000Y624000D01*
X54980315Y556961D01*
X54927511Y511206D01*
X54876000Y500000D01*
X12034911Y500000D01*
X11967872Y519685D01*
X11922117Y572489D01*
X11912173Y641647D01*
X11941198Y705203D01*
X11947230Y711681D01*
X12082199Y846650D01*
X12650944Y1415397D01*
X12712265Y1448880D01*
X12778884Y1444996D01*
X12820758Y1430620D01*
X13049200Y1392500D01*
X13049201Y1392500D01*
X13280799Y1392500D01*
X13280800Y1392500D01*
X13509242Y1430620D01*
X13728293Y1505820D01*
X13931980Y1616050D01*
X14114745Y1758302D01*
X14271604Y1928696D01*
X14342801Y2037673D01*
X14395947Y2083029D01*
X14465178Y2092453D01*
X14528514Y2062952D01*
X14550419Y2037673D01*
X14561760Y2020315D01*
X15267352Y2725907D01*
X15290792Y2638429D01*
X15349311Y2537070D01*
X15432070Y2454311D01*
X15533429Y2395792D01*
X15620905Y2372353D01*
X14914040Y1665488D01*
X14914040Y1665486D01*
X14942677Y1643197D01*
X14942683Y1643193D01*
X15145131Y1533633D01*
X15145140Y1533630D01*
X15362849Y1458890D01*
X15589905Y1421000D01*
X15820095Y1421000D01*
X16047150Y1458890D01*
X16264859Y1533630D01*
X16264868Y1533633D01*
X16467315Y1643193D01*
X16467316Y1643194D01*
X16495958Y1665487D01*
X16495959Y1665489D01*
X15789095Y2372353D01*
X15876571Y2395792D01*
X15977930Y2454311D01*
X16060689Y2537070D01*
X16119208Y2638429D01*
X16142647Y2725906D01*
X16848238Y2020314D01*
X16930774Y2146643D01*
X17023242Y2357447D01*
X17079750Y2580592D01*
X17079752Y2580604D01*
X17098760Y2809995D01*
X17098760Y2810006D01*
X17079752Y3039397D01*
X17079750Y3039409D01*
X17023242Y3262554D01*
X16930775Y3473356D01*
X16848238Y3599688D01*
X16142647Y2894096D01*
X16119208Y2981571D01*
X16060689Y3082930D01*
X15977930Y3165689D01*
X15876571Y3224208D01*
X15789094Y3247648D01*
X16495958Y3954514D01*
X16495958Y3954516D01*
X16467322Y3976804D01*
X16467316Y3976808D01*
X16264868Y4086368D01*
X16264859Y4086371D01*
X16047150Y4161111D01*
X15820095Y4199000D01*
X15589905Y4199000D01*
X15362849Y4161111D01*
X15145140Y4086371D01*
X15145132Y4086368D01*
X14942681Y3976806D01*
X14914040Y3954515D01*
X14914040Y3954513D01*
X15620906Y3247648D01*
X15533429Y3224208D01*
X15432070Y3165689D01*
X15349311Y3082930D01*
X15290792Y2981571D01*
X15267352Y2894095D01*
X14561759Y3599688D01*
X14537351Y3562328D01*
X14484205Y3516971D01*
X14414973Y3507548D01*
X14351638Y3537050D01*
X14329734Y3562329D01*
X14271606Y3651302D01*
X14114742Y3821701D01*
X14114738Y3821704D01*
X13931984Y3963947D01*
X13931979Y3963951D01*
X13728294Y4074180D01*
X13728288Y4074182D01*
X13509245Y4149380D01*
X13337910Y4177970D01*
X13280800Y4187500D01*
X13049200Y4187500D01*
X13003511Y4179876D01*
X12820754Y4149380D01*
X12601711Y4074182D01*
X12601705Y4074180D01*
X12398020Y3963951D01*
X12398015Y3963947D01*
X12215261Y3821704D01*
X12215257Y3821701D01*
X12058392Y3651300D01*
X12005341Y3570099D01*
X11952195Y3524743D01*
X11882964Y3515319D01*
X11819628Y3544821D01*
X11797724Y3570100D01*
X11731606Y3671302D01*
X11593156Y3821698D01*
X11574745Y3841698D01*
X11574744Y3841699D01*
X11574742Y3841701D01*
X11574738Y3841704D01*
X11391984Y3983947D01*
X11391979Y3983951D01*
X11188294Y4094180D01*
X11188288Y4094182D01*
X10969245Y4169380D01*
X10791738Y4199000D01*
X10740800Y4207500D01*
X10509200Y4207500D01*
X10463511Y4199876D01*
X10280754Y4169380D01*
X10061711Y4094182D01*
X10061705Y4094180D01*
X9858020Y3983951D01*
X9858015Y3983947D01*
X9675261Y3841704D01*
X9675257Y3841701D01*
X9518393Y3671302D01*
X9391722Y3477416D01*
X9298689Y3265324D01*
X9241835Y3040813D01*
X9241833Y3040802D01*
X9222710Y2810007D01*
X9222710Y2809994D01*
X9241833Y2579199D01*
X9241835Y2579188D01*
X9298689Y2354677D01*
X9391722Y2142585D01*
X9518393Y1948699D01*
X9640107Y1816483D01*
X9671029Y1753828D01*
X9663169Y1684402D01*
X9619022Y1630247D01*
X9552604Y1608556D01*
X9548877Y1608500D01*
X6063411Y1608500D01*
X5996372Y1628185D01*
X5975730Y1644819D01*
X1000549Y6620000D01*
X5143393Y6620000D01*
X5163789Y6360847D01*
X5224472Y6108081D01*
X5323951Y5867916D01*
X5459773Y5646277D01*
X5459774Y5646274D01*
X5472417Y5631471D01*
X5628602Y5448602D01*
X5768881Y5328793D01*
X5826273Y5279775D01*
X5826276Y5279774D01*
X6047915Y5143952D01*
X6288080Y5044473D01*
X6540850Y4983789D01*
X6800000Y4963393D01*
X7059150Y4983789D01*
X7311920Y5044473D01*
X7552084Y5143952D01*
X7773729Y5279777D01*
X7971398Y5448602D01*
X8140223Y5646271D01*
X8276048Y5867916D01*
X8375527Y6108080D01*
X8436211Y6360850D01*
X8455442Y6605200D01*
X17843393Y6605200D01*
X17863789Y6346047D01*
X17924472Y6093281D01*
X18023951Y5853116D01*
X18159773Y5631477D01*
X18159774Y5631474D01*
X18159777Y5631471D01*
X18328602Y5433802D01*
X18481616Y5303116D01*
X18526273Y5264975D01*
X18526276Y5264974D01*
X18747915Y5129152D01*
X18988080Y5029673D01*
X19240850Y4968989D01*
X19500000Y4948593D01*
X19759150Y4968989D01*
X20011920Y5029673D01*
X20252084Y5129152D01*
X20473729Y5264977D01*
X20671398Y5433802D01*
X20840223Y5631471D01*
X20976048Y5853116D01*
X21075527Y6093280D01*
X21136211Y6346050D01*
X21156607Y6605200D01*
X21136211Y6864350D01*
X21075527Y7117120D01*
X21001353Y7296192D01*
X20976048Y7357285D01*
X20840226Y7578924D01*
X20840225Y7578927D01*
X20779816Y7649657D01*
X20671398Y7776598D01*
X20540710Y7888216D01*
X20473726Y7945426D01*
X20473723Y7945427D01*
X20252084Y8081249D01*
X20011919Y8180728D01*
X19759153Y8241411D01*
X19500000Y8261807D01*
X19240846Y8241411D01*
X18988080Y8180728D01*
X18747915Y8081249D01*
X18526276Y7945427D01*
X18526273Y7945426D01*
X18328602Y7776598D01*
X18159774Y7578927D01*
X18159773Y7578924D01*
X18023951Y7357285D01*
X17924472Y7117120D01*
X17863789Y6864354D01*
X17843393Y6605200D01*
X8455442Y6605200D01*
X8456607Y6620000D01*
X8436211Y6879150D01*
X8375527Y7131920D01*
X8335831Y7227756D01*
X8276048Y7372085D01*
X8149294Y7578927D01*
X8140225Y7593725D01*
X8140225Y7593727D01*
X8074785Y7670347D01*
X7971398Y7791398D01*
X7791053Y7945427D01*
X7773726Y7960226D01*
X7773723Y7960227D01*
X7552084Y8096049D01*
X7311919Y8195528D01*
X7059153Y8256211D01*
X6800000Y8276607D01*
X6540846Y8256211D01*
X6288080Y8195528D01*
X6047915Y8096049D01*
X5826276Y7960227D01*
X5826273Y7960226D01*
X5628602Y7791398D01*
X5459774Y7593727D01*
X5459773Y7593724D01*
X5323951Y7372085D01*
X5224472Y7131920D01*
X5163789Y6879154D01*
X5143393Y6620000D01*
X1000549Y6620000D01*
X-1658081Y9278630D01*
X-1691566Y9339953D01*
X-1690605Y9396752D01*
X-1655439Y9535620D01*
X-1655439Y9535621D01*
X-1655436Y9535632D01*
X-1636844Y9760000D01*
X-1642094Y9823356D01*
X-1655435Y9984360D01*
X-1655437Y9984372D01*
X-1658124Y9994982D01*
X-1710704Y10202616D01*
X-1801140Y10408791D01*
X-1924278Y10597268D01*
X-1924281Y10597271D01*
X-1924285Y10597277D01*
X-2076757Y10762903D01*
X-2076762Y10762908D01*
X-2254423Y10901188D01*
X-2254422Y10901188D01*
X-2254424Y10901189D01*
X-2290930Y10920945D01*
X-2340521Y10970164D01*
X-2355629Y11038381D01*
X-2331459Y11103936D01*
X-2290930Y11139055D01*
X-2290916Y11139064D01*
X-2254424Y11158811D01*
X-2076760Y11297094D01*
X-1924278Y11462732D01*
X-1811519Y11635322D01*
X-1758373Y11680678D01*
X-1707711Y11691500D01*
X-1119891Y11691500D01*
X-1119890Y11691500D01*
X-1119889Y11691500D01*
X-1088141Y11700007D01*
X2842710Y11700007D01*
X2842710Y11699994D01*
X2861833Y11469199D01*
X2861835Y11469188D01*
X2918689Y11244677D01*
X3011722Y11032585D01*
X3138393Y10838699D01*
X3295257Y10668300D01*
X3295261Y10668297D01*
X3482067Y10522900D01*
X3480647Y10521077D01*
X3519710Y10475263D01*
X3529102Y10406028D01*
X3499572Y10342705D01*
X3482670Y10326798D01*
X3454040Y10304516D01*
X3454040Y10304513D01*
X4160906Y9597648D01*
X4073429Y9574208D01*
X3972070Y9515689D01*
X3889311Y9432930D01*
X3830792Y9331571D01*
X3807352Y9244095D01*
X3101760Y9949687D01*
X3019224Y9823356D01*
X2926757Y9612554D01*
X2870249Y9389409D01*
X2870247Y9389397D01*
X2851240Y9160006D01*
X2851240Y9159995D01*
X2870247Y8930604D01*
X2870249Y8930592D01*
X2926757Y8707447D01*
X3019224Y8496645D01*
X3101759Y8370315D01*
X3807352Y9075907D01*
X3830792Y8988429D01*
X3889311Y8887070D01*
X3972070Y8804311D01*
X4073429Y8745792D01*
X4160905Y8722353D01*
X3454040Y8015488D01*
X3454040Y8015486D01*
X3482677Y7993197D01*
X3482683Y7993193D01*
X3685131Y7883633D01*
X3685140Y7883630D01*
X3902849Y7808890D01*
X4129905Y7771000D01*
X4360095Y7771000D01*
X4587150Y7808890D01*
X4804859Y7883630D01*
X4804868Y7883633D01*
X5007315Y7993193D01*
X5007316Y7993194D01*
X5035958Y8015487D01*
X5035959Y8015489D01*
X4329095Y8722353D01*
X4416571Y8745792D01*
X4517930Y8804311D01*
X4600689Y8887070D01*
X4659208Y8988429D01*
X4682647Y9075906D01*
X5388238Y8370314D01*
X5470774Y8496643D01*
X5563242Y8707447D01*
X5619750Y8930592D01*
X5619752Y8930604D01*
X5638760Y9159995D01*
X5638760Y9160006D01*
X5619752Y9389397D01*
X5619750Y9389409D01*
X5563242Y9612554D01*
X5470775Y9823356D01*
X5388238Y9949688D01*
X4682647Y9244096D01*
X4659208Y9331571D01*
X4600689Y9432930D01*
X4517930Y9515689D01*
X4416571Y9574208D01*
X4329094Y9597648D01*
X5035958Y10304514D01*
X5035958Y10304515D01*
X5007328Y10326798D01*
X4966515Y10383509D01*
X4962840Y10453282D01*
X4997471Y10513965D01*
X5008222Y10522528D01*
X5007933Y10522900D01*
X5103478Y10597266D01*
X5194745Y10668302D01*
X5351604Y10838696D01*
X5478277Y11032584D01*
X5571310Y11244677D01*
X5628165Y11469191D01*
X5641931Y11635322D01*
X5647290Y11699994D01*
X5647290Y11700007D01*
X5628166Y11930802D01*
X5628164Y11930813D01*
X5571310Y12155324D01*
X5478277Y12367416D01*
X5351606Y12561302D01*
X5194742Y12731701D01*
X5194738Y12731704D01*
X5031304Y12858910D01*
X4990491Y12915620D01*
X4986816Y12985393D01*
X5021448Y13046076D01*
X5031287Y13054603D01*
X5209745Y13193502D01*
X5366604Y13363896D01*
X5493277Y13557784D01*
X5586310Y13769877D01*
X5643165Y13994391D01*
X5643166Y13994399D01*
X5662290Y14225194D01*
X5662290Y14225207D01*
X5643166Y14456002D01*
X5643164Y14456013D01*
X5586310Y14680524D01*
X5493277Y14892616D01*
X5366606Y15086502D01*
X5271630Y15189673D01*
X5209745Y15256898D01*
X5209744Y15256899D01*
X5209742Y15256901D01*
X5209738Y15256904D01*
X5026984Y15399147D01*
X5026979Y15399151D01*
X4823294Y15509380D01*
X4823288Y15509382D01*
X4604245Y15584580D01*
X4432910Y15613170D01*
X4375800Y15622700D01*
X4144200Y15622700D01*
X4098511Y15615076D01*
X3915754Y15584580D01*
X3696711Y15509382D01*
X3696705Y15509380D01*
X3493020Y15399151D01*
X3493015Y15399147D01*
X3310261Y15256904D01*
X3310257Y15256901D01*
X3153393Y15086502D01*
X3026722Y14892616D01*
X2933689Y14680524D01*
X2876835Y14456013D01*
X2876833Y14456002D01*
X2857710Y14225207D01*
X2857710Y14225194D01*
X2876833Y13994399D01*
X2876835Y13994388D01*
X2933689Y13769877D01*
X3026722Y13557785D01*
X3153393Y13363899D01*
X3310257Y13193500D01*
X3310261Y13193497D01*
X3473695Y13066291D01*
X3514508Y13009581D01*
X3518183Y12939808D01*
X3483551Y12879125D01*
X3473696Y12870585D01*
X3295257Y12731700D01*
X3138393Y12561302D01*
X3011722Y12367416D01*
X2918689Y12155324D01*
X2861835Y11930813D01*
X2861833Y11930802D01*
X2842710Y11700007D01*
X-1088141Y11700007D01*
X-1042509Y11712234D01*
X-965127Y11732968D01*
X-826373Y11813078D01*
X4110547Y16750000D01*
X5143393Y16750000D01*
X5163789Y16490847D01*
X5224472Y16238081D01*
X5323951Y15997916D01*
X5459773Y15776277D01*
X5459774Y15776274D01*
X5459777Y15776271D01*
X5628602Y15578602D01*
X5709651Y15509380D01*
X5826273Y15409775D01*
X5826275Y15409775D01*
X5847240Y15396927D01*
X6047915Y15273952D01*
X6251384Y15189673D01*
X6288080Y15174473D01*
X6540850Y15113789D01*
X6800000Y15093393D01*
X7059150Y15113789D01*
X7311920Y15174473D01*
X7552084Y15273952D01*
X7773729Y15409777D01*
X7971398Y15578602D01*
X8140223Y15776271D01*
X8276048Y15997916D01*
X8375527Y16238080D01*
X8436211Y16490850D01*
X8456607Y16750000D01*
X8436211Y17009150D01*
X8436209Y17009158D01*
X8436128Y17010190D01*
X8450492Y17078568D01*
X8499543Y17128325D01*
X8567708Y17143664D01*
X8633345Y17119716D01*
X8673302Y17069730D01*
X8749224Y16896645D01*
X8831759Y16770315D01*
X9532861Y17471416D01*
X9555667Y17386306D01*
X9614910Y17283694D01*
X9698694Y17199910D01*
X9801306Y17140667D01*
X9886414Y17117862D01*
X9184040Y16415488D01*
X9184040Y16415486D01*
X9212677Y16393197D01*
X9212683Y16393193D01*
X9415131Y16283633D01*
X9415140Y16283630D01*
X9632849Y16208890D01*
X9859905Y16171000D01*
X10090095Y16171000D01*
X10317150Y16208890D01*
X10534859Y16283630D01*
X10534868Y16283633D01*
X10737315Y16393193D01*
X10737316Y16393194D01*
X10765958Y16415487D01*
X10765959Y16415489D01*
X10063585Y17117863D01*
X10148694Y17140667D01*
X10251306Y17199910D01*
X10335090Y17283694D01*
X10394333Y17386306D01*
X10417137Y17471415D01*
X11118238Y16770314D01*
X11200774Y16896643D01*
X11293242Y17107447D01*
X11349750Y17330592D01*
X11349752Y17330604D01*
X11367104Y17540007D01*
X14932710Y17540007D01*
X14932710Y17539994D01*
X14951833Y17309199D01*
X14951835Y17309188D01*
X15008689Y17084677D01*
X15101722Y16872585D01*
X15228393Y16678699D01*
X15385257Y16508300D01*
X15385261Y16508297D01*
X15568020Y16366050D01*
X15771707Y16255820D01*
X15881232Y16218220D01*
X15990754Y16180621D01*
X15990756Y16180621D01*
X15990758Y16180620D01*
X16219200Y16142500D01*
X16219201Y16142500D01*
X16450799Y16142500D01*
X16450800Y16142500D01*
X16679242Y16180620D01*
X16898293Y16255820D01*
X17101980Y16366050D01*
X17284745Y16508302D01*
X17441604Y16678696D01*
X17568277Y16872584D01*
X17619105Y16988461D01*
X17664060Y17041945D01*
X17730795Y17062635D01*
X17798123Y17043961D01*
X17844667Y16991851D01*
X17856278Y16928920D01*
X17843393Y16765201D01*
X17863789Y16506047D01*
X17924472Y16253281D01*
X18023951Y16013116D01*
X18159773Y15791477D01*
X18159774Y15791474D01*
X18159777Y15791471D01*
X18328602Y15593802D01*
X18427448Y15509380D01*
X18526273Y15424975D01*
X18526276Y15424974D01*
X18747915Y15289152D01*
X18988080Y15189673D01*
X19240850Y15128989D01*
X19500000Y15108593D01*
X19759150Y15128989D01*
X20011920Y15189673D01*
X20252084Y15289152D01*
X20473729Y15424977D01*
X20671398Y15593802D01*
X20840223Y15791471D01*
X20976048Y16013116D01*
X21075527Y16253280D01*
X21136211Y16506050D01*
X21156607Y16765200D01*
X21136211Y17024350D01*
X21075527Y17277120D01*
X21066190Y17299662D01*
X20976048Y17517285D01*
X20840226Y17738924D01*
X20840225Y17738927D01*
X20779816Y17809657D01*
X20671398Y17936598D01*
X20491526Y18090223D01*
X20473726Y18105426D01*
X20473723Y18105427D01*
X20252084Y18241249D01*
X20011919Y18340728D01*
X19759153Y18401411D01*
X19500000Y18421807D01*
X19240846Y18401411D01*
X18988080Y18340728D01*
X18747915Y18241249D01*
X18526276Y18105427D01*
X18526273Y18105426D01*
X18328602Y17936598D01*
X18159774Y17738927D01*
X18159773Y17738924D01*
X18023951Y17517285D01*
X17966916Y17379588D01*
X17923075Y17325185D01*
X17856781Y17303120D01*
X17789081Y17320399D01*
X17741471Y17371537D01*
X17728779Y17437281D01*
X17737290Y17539995D01*
X17737290Y17540007D01*
X17718166Y17770802D01*
X17718164Y17770813D01*
X17661310Y17995324D01*
X17568277Y18207416D01*
X17441606Y18401302D01*
X17284742Y18571701D01*
X17284738Y18571704D01*
X17101984Y18713947D01*
X17101979Y18713951D01*
X16898294Y18824180D01*
X16898288Y18824182D01*
X16679245Y18899380D01*
X16507910Y18927970D01*
X16450800Y18937500D01*
X16219200Y18937500D01*
X16173511Y18929876D01*
X15990754Y18899380D01*
X15771711Y18824182D01*
X15771705Y18824180D01*
X15568020Y18713951D01*
X15568015Y18713947D01*
X15385261Y18571704D01*
X15385257Y18571701D01*
X15228393Y18401302D01*
X15101722Y18207416D01*
X15008689Y17995324D01*
X14951835Y17770813D01*
X14951833Y17770802D01*
X14932710Y17540007D01*
X11367104Y17540007D01*
X11368760Y17559995D01*
X11368760Y17560006D01*
X11349752Y17789397D01*
X11349750Y17789409D01*
X11293242Y18012554D01*
X11200775Y18223356D01*
X11118238Y18349688D01*
X10417137Y17648587D01*
X10394333Y17733694D01*
X10335090Y17836306D01*
X10251306Y17920090D01*
X10148694Y17979333D01*
X10063584Y18002139D01*
X10765958Y18704514D01*
X10765958Y18704516D01*
X10737322Y18726804D01*
X10737316Y18726808D01*
X10534868Y18836368D01*
X10534859Y18836371D01*
X10317150Y18911111D01*
X10090095Y18949000D01*
X9859905Y18949000D01*
X9632849Y18911111D01*
X9415140Y18836371D01*
X9415132Y18836368D01*
X9212681Y18726806D01*
X9184040Y18704515D01*
X9184040Y18704513D01*
X9886415Y18002139D01*
X9801306Y17979333D01*
X9698694Y17920090D01*
X9614910Y17836306D01*
X9555667Y17733694D01*
X9532861Y17648586D01*
X8831760Y18349687D01*
X8749224Y18223356D01*
X8656757Y18012554D01*
X8600249Y17789409D01*
X8600247Y17789397D01*
X8581240Y17560006D01*
X8581240Y17559995D01*
X8598031Y17357355D01*
X8583950Y17288919D01*
X8535105Y17238960D01*
X8467004Y17223339D01*
X8401268Y17247017D01*
X8359894Y17299662D01*
X8276048Y17502085D01*
X8140226Y17723724D01*
X8140225Y17723727D01*
X8084127Y17789409D01*
X7971398Y17921398D01*
X7779204Y18085547D01*
X7773726Y18090226D01*
X7773723Y18090227D01*
X7552084Y18226049D01*
X7311919Y18325528D01*
X7059153Y18386211D01*
X6800000Y18406607D01*
X6540846Y18386211D01*
X6288080Y18325528D01*
X6047915Y18226049D01*
X5826276Y18090227D01*
X5826274Y18090226D01*
X5652777Y17942046D01*
X5624941Y17929574D01*
X5622495Y17918327D01*
X5607954Y17897223D01*
X5459774Y17723726D01*
X5459773Y17723724D01*
X5323951Y17502085D01*
X5224472Y17261920D01*
X5163789Y17009154D01*
X5143393Y16750000D01*
X4110547Y16750000D01*
X5425984Y18065437D01*
X5462813Y18085547D01*
X5468412Y18104120D01*
X5484559Y18124011D01*
X8839733Y21479186D01*
X8901054Y21512669D01*
X8970746Y21507685D01*
X9018639Y21475489D01*
X9025255Y21468302D01*
X9025258Y21468300D01*
X9025261Y21468297D01*
X9208015Y21326054D01*
X9208020Y21326050D01*
X9322796Y21263936D01*
X9411707Y21215820D01*
X9521232Y21178220D01*
X9630754Y21140621D01*
X9630756Y21140621D01*
X9630758Y21140620D01*
X9859200Y21102500D01*
X9859201Y21102500D01*
X10090799Y21102500D01*
X10090800Y21102500D01*
X10319242Y21140620D01*
X10538293Y21215820D01*
X10741980Y21326050D01*
X10924745Y21468302D01*
X11081604Y21638696D01*
X11208277Y21832584D01*
X11301310Y22044677D01*
X11358165Y22269191D01*
X11358166Y22269199D01*
X11375650Y22480207D01*
X14922710Y22480207D01*
X14922710Y22480194D01*
X14941833Y22249399D01*
X14941835Y22249388D01*
X14998689Y22024877D01*
X15091722Y21812785D01*
X15218393Y21618899D01*
X15218396Y21618896D01*
X15367346Y21457093D01*
X15375257Y21448500D01*
X15375261Y21448497D01*
X15558015Y21306254D01*
X15558020Y21306250D01*
X15732810Y21211658D01*
X15761707Y21196020D01*
X15803659Y21181618D01*
X15980754Y21120821D01*
X15980756Y21120821D01*
X15980758Y21120820D01*
X16209200Y21082700D01*
X16209201Y21082700D01*
X16440799Y21082700D01*
X16440800Y21082700D01*
X16669242Y21120820D01*
X16888293Y21196020D01*
X17091980Y21306250D01*
X17274745Y21448502D01*
X17431604Y21618896D01*
X17558277Y21812784D01*
X17651310Y22024877D01*
X17708165Y22249391D01*
X17708166Y22249399D01*
X17727290Y22480194D01*
X17727290Y22480207D01*
X17708166Y22711002D01*
X17708164Y22711013D01*
X17651310Y22935524D01*
X17558277Y23147616D01*
X17431606Y23341502D01*
X17319845Y23462906D01*
X17274745Y23511898D01*
X17274744Y23511899D01*
X17274742Y23511901D01*
X17274738Y23511904D01*
X17091984Y23654147D01*
X17091979Y23654151D01*
X16888294Y23764380D01*
X16888288Y23764382D01*
X16669245Y23839580D01*
X16497910Y23868170D01*
X16440800Y23877700D01*
X16209200Y23877700D01*
X16163511Y23870076D01*
X15980754Y23839580D01*
X15761711Y23764382D01*
X15761705Y23764380D01*
X15558020Y23654151D01*
X15558015Y23654147D01*
X15375261Y23511904D01*
X15375257Y23511901D01*
X15218393Y23341502D01*
X15091722Y23147616D01*
X14998689Y22935524D01*
X14941835Y22711013D01*
X14941833Y22711002D01*
X14922710Y22480207D01*
X11375650Y22480207D01*
X11377290Y22499994D01*
X11377290Y22500007D01*
X11358166Y22730802D01*
X11358164Y22730813D01*
X11301310Y22955324D01*
X11208277Y23167416D01*
X11081606Y23361302D01*
X10924742Y23531701D01*
X10924738Y23531704D01*
X10741984Y23673947D01*
X10741979Y23673951D01*
X10538294Y23784180D01*
X10538288Y23784182D01*
X10319245Y23859380D01*
X10147910Y23887970D01*
X10090800Y23897500D01*
X9859200Y23897500D01*
X9813511Y23889876D01*
X9630754Y23859380D01*
X9411711Y23784182D01*
X9411705Y23784180D01*
X9208020Y23673951D01*
X9208015Y23673947D01*
X9025261Y23531704D01*
X9025257Y23531701D01*
X8868393Y23361302D01*
X8741725Y23167420D01*
X8691154Y23052134D01*
X8646197Y22998649D01*
X8639602Y22994561D01*
X8626377Y22986926D01*
X8626368Y22986919D01*
X-1415730Y12944819D01*
X-1477053Y12911334D01*
X-1503411Y12908500D01*
X-1707711Y12908500D01*
X-1774750Y12928185D01*
X-1811519Y12964678D01*
X-1924277Y13137266D01*
X-1924285Y13137277D01*
X-2076757Y13302903D01*
X-2076762Y13302908D01*
X-2254423Y13441188D01*
X-2254423Y13441189D01*
X-2297697Y13464607D01*
X-2347287Y13513827D01*
X-2362395Y13582043D01*
X-2338225Y13647599D01*
X-2309802Y13675237D01*
X-2128921Y13801892D01*
X-1961895Y13968918D01*
X-1826400Y14162422D01*
X-1726571Y14376508D01*
X-1726568Y14376514D01*
X-1669364Y14590000D01*
X-2566988Y14590000D01*
X-2534075Y14647007D01*
X-2500000Y14774174D01*
X-2500000Y14905826D01*
X-2534075Y15032993D01*
X-2566988Y15090000D01*
X-1669364Y15090000D01*
X-1669365Y15090001D01*
X-1726568Y15303487D01*
X-1726571Y15303493D01*
X-1826400Y15517578D01*
X-1826401Y15517580D01*
X-1961887Y15711074D01*
X-1961892Y15711080D01*
X-2128918Y15878106D01*
X-2309803Y16004764D01*
X-2353428Y16059341D01*
X-2360620Y16128840D01*
X-2329098Y16191194D01*
X-2297700Y16215392D01*
X-2254424Y16238811D01*
X-2076760Y16377094D01*
X-1924278Y16542732D01*
X-1801140Y16731209D01*
X-1710704Y16937384D01*
X-1655436Y17155632D01*
X-1651225Y17206447D01*
X-1636844Y17379995D01*
X-1636844Y17380006D01*
X-1655435Y17604360D01*
X-1655437Y17604372D01*
X-1702295Y17789409D01*
X-1710704Y17822616D01*
X-1801140Y18028791D01*
X-1825081Y18065435D01*
X-1863355Y18124018D01*
X-1924278Y18217268D01*
X-1924281Y18217271D01*
X-1924285Y18217277D01*
X-2076757Y18382903D01*
X-2076762Y18382908D01*
X-2254423Y18521188D01*
X-2254422Y18521188D01*
X-2254424Y18521189D01*
X-2290930Y18540945D01*
X-2340521Y18590164D01*
X-2355629Y18658381D01*
X-2331459Y18723936D01*
X-2290930Y18759055D01*
X-2290916Y18759064D01*
X-2254424Y18778811D01*
X-2076760Y18917094D01*
X-1924278Y19082732D01*
X-1801140Y19271209D01*
X-1710704Y19477384D01*
X-1655436Y19695632D01*
X-1636844Y19920000D01*
X-1655436Y20144368D01*
X-1710704Y20362616D01*
X-1801140Y20568791D01*
X-1924278Y20757268D01*
X-1924281Y20757271D01*
X-1924285Y20757277D01*
X-2076757Y20922903D01*
X-2076762Y20922908D01*
X-2254423Y21061188D01*
X-2254422Y21061188D01*
X-2254424Y21061189D01*
X-2290930Y21080945D01*
X-2340521Y21130164D01*
X-2355629Y21198381D01*
X-2331459Y21263936D01*
X-2290930Y21299055D01*
X-2290916Y21299064D01*
X-2254424Y21318811D01*
X-2076760Y21457094D01*
X-1927809Y21618896D01*
X-1924285Y21622724D01*
X-1924284Y21622726D01*
X-1924278Y21622732D01*
X-1801140Y21811209D01*
X-1710704Y22017384D01*
X-1655436Y22235632D01*
X-1652655Y22269191D01*
X-1636844Y22459995D01*
X-1636844Y22460006D01*
X-1655435Y22684360D01*
X-1655437Y22684372D01*
X-1667195Y22730802D01*
X-1710704Y22902616D01*
X-1801140Y23108791D01*
X-1826506Y23147616D01*
X-1924277Y23297266D01*
X-1924285Y23297277D01*
X-2076757Y23462903D01*
X-2076762Y23462908D01*
X-2254423Y23601188D01*
X-2254422Y23601188D01*
X-2254424Y23601189D01*
X-2290930Y23620945D01*
X-2340521Y23670164D01*
X-2355629Y23738381D01*
X-2331459Y23803936D01*
X-2290930Y23839055D01*
X-2289960Y23839580D01*
X-2254424Y23858811D01*
X-2076760Y23997094D01*
X-1924278Y24162732D01*
X-1801140Y24351209D01*
X-1710704Y24557384D01*
X-1655436Y24775632D01*
X-1636844Y25000000D01*
X-1655436Y25224368D01*
X-1710704Y25442616D01*
X-1801140Y25648791D01*
X-1924278Y25837268D01*
X-1924281Y25837271D01*
X-1924285Y25837277D01*
X-2076757Y26002903D01*
X-2076762Y26002908D01*
X-2254423Y26141188D01*
X-2254422Y26141188D01*
X-2254424Y26141189D01*
X-2290930Y26160945D01*
X-2340521Y26210164D01*
X-2355629Y26278381D01*
X-2331459Y26343936D01*
X-2290930Y26379055D01*
X-2290916Y26379064D01*
X-2254424Y26398811D01*
X-2076760Y26537094D01*
X-1924278Y26702732D01*
X-1801140Y26891209D01*
X-1710704Y27097384D01*
X-1655436Y27315632D01*
X-1636844Y27540000D01*
X-1655436Y27764368D01*
X-1710704Y27982616D01*
X-1801140Y28188791D01*
X-1924278Y28377268D01*
X-1924281Y28377271D01*
X-1924285Y28377277D01*
X-2076757Y28542903D01*
X-2076762Y28542908D01*
X-2254423Y28681188D01*
X-2254428Y28681192D01*
X-2452420Y28788339D01*
X-2452423Y28788341D01*
X-2452426Y28788342D01*
X-2452429Y28788343D01*
X-2452431Y28788344D01*
X-2665363Y28861444D01*
X-2887431Y28898500D01*
X-3112569Y28898500D01*
X-3334638Y28861444D01*
X-3547570Y28788344D01*
X-3547581Y28788339D01*
X-3745573Y28681192D01*
X-3745578Y28681188D01*
X-3923239Y28542908D01*
X-3923244Y28542903D01*
X-4075716Y28377277D01*
X-4075724Y28377266D01*
X-4198860Y28188793D01*
X-4262444Y28043833D01*
X-4307400Y27990347D01*
X-4374136Y27969657D01*
X-4441463Y27988331D01*
X-4488007Y28040441D01*
X-4500000Y28093643D01*
X-4500000Y29376000D01*
X-4480315Y29443039D01*
X-4427511Y29488794D01*
X-4376000Y29500000D01*
X54876000Y29500000D01*
X54943039Y29480315D01*
G37*
%TD.AperFunction*%
%TD*%
M02*
