M48
; DRILL file {KiCad 8.0.8} date 2025-05-10T21:29:47+0200
; FORMAT={-:-/ absolute / metric / decimal}
; #@! TF.CreationDate,2025-05-10T21:29:47+02:00
; #@! TF.GenerationSoftware,Kicad,Pcbnew,8.0.8
; #@! TF.FileFunction,MixedPlating,1,2
FMAT,2
METRIC
; #@! TA.AperFunction,Plated,PTH,ViaDrill
T1C0.400
; #@! TA.AperFunction,Plated,PTH,ComponentDrill
T2C0.889
; #@! TA.AperFunction,Plated,PTH,ComponentDrill
T3C0.900
; #@! TA.AperFunction,Plated,PTH,ComponentDrill
T4C1.000
; #@! TA.AperFunction,Plated,PTH,ComponentDrill
T5C1.397
%
G90
G05
T1
X53.25Y2.0
T2
X4.245Y11.7
X4.245Y9.16
X4.26Y14.225
X10.625Y2.81
X13.165Y2.79
X15.705Y2.81
T3
X9.975Y22.5
X9.975Y17.56
X16.325Y22.48
X16.335Y17.54
T4
X-3.0Y27.54
X-3.0Y25.0
X-3.0Y22.46
X-3.0Y19.92
X-3.0Y17.38
X-3.0Y14.84
X-3.0Y12.3
X-3.0Y9.76
X-3.0Y7.22
X-3.0Y4.68
X-3.0Y2.14
T5
X6.8Y16.75
X6.8Y6.62
X19.5Y16.765
X19.5Y6.605
M30
