%TF.GenerationSoftware,KiCad,Pcbnew,8.0.7*%
%TF.CreationDate,2024-12-26T15:37:00+01:00*%
%TF.ProjectId,circuit,63697263-7569-4742-9e6b-696361645f70,rev?*%
%TF.SameCoordinates,PX5f5e100PY5f5e100*%
%TF.FileFunction,Copper,L2,Bot*%
%TF.FilePolarity,Positive*%
%FSLAX46Y46*%
G04 Gerber Fmt 4.6, Leading zero omitted, Abs format (unit mm)*
G04 Created by KiCad (PCBNEW 8.0.7) date 2024-12-26 15:37:00*
%MOMM*%
%LPD*%
G01*
G04 APERTURE LIST*
%TA.AperFunction,ViaPad*%
%ADD10C,0.600000*%
%TD*%
%TA.AperFunction,Conductor*%
%ADD11C,0.250000*%
%TD*%
G04 APERTURE END LIST*
D10*
%TO.N,/A4*%
X49500000Y27565000D03*
X20800000Y26460000D03*
%TO.N,+5V*%
X49470000Y7095000D03*
X49470000Y26295000D03*
X3800000Y33460000D03*
X44480000Y9400000D03*
X30620000Y20540000D03*
X3800000Y23920000D03*
X33900000Y7710000D03*
X40860000Y30500000D03*
X15750000Y23920000D03*
X27800000Y23920000D03*
%TD*%
D11*
%TO.N,/A4*%
X37460000Y26460000D02*
X20800000Y26460000D01*
X38565000Y27565000D02*
X37460000Y26460000D01*
X49500000Y27565000D02*
X38565000Y27565000D01*
%TD*%
%TA.AperFunction,Conductor*%
%TO.N,+5V*%
G36*
X67943039Y37980315D02*
G01*
X67988794Y37927511D01*
X68000000Y37876000D01*
X68000000Y1124000D01*
X67980315Y1056961D01*
X67927511Y1011206D01*
X67876000Y1000000D01*
X1124000Y1000000D01*
X1056961Y1019685D01*
X1011206Y1072489D01*
X1000000Y1124000D01*
X1000000Y26460004D01*
X19986384Y26460004D01*
X19986384Y26459997D01*
X20006781Y26278959D01*
X20006782Y26278954D01*
X20047949Y26161307D01*
X20066957Y26106985D01*
X20163889Y25952719D01*
X20292719Y25823889D01*
X20446985Y25726957D01*
X20618953Y25666783D01*
X20618958Y25666782D01*
X20799996Y25646384D01*
X20800000Y25646384D01*
X20800004Y25646384D01*
X20981041Y25666782D01*
X20981044Y25666783D01*
X20981047Y25666783D01*
X21153015Y25726957D01*
X21153017Y25726959D01*
X21153019Y25726959D01*
X21153022Y25726961D01*
X21281188Y25807493D01*
X21347160Y25826500D01*
X37522395Y25826500D01*
X37522396Y25826501D01*
X37644785Y25850845D01*
X37760075Y25898600D01*
X37863833Y25967929D01*
X38791085Y26895181D01*
X38852408Y26928666D01*
X38878766Y26931500D01*
X48952840Y26931500D01*
X49018812Y26912493D01*
X49146977Y26831961D01*
X49146980Y26831959D01*
X49146984Y26831958D01*
X49146985Y26831957D01*
X49318953Y26771783D01*
X49318958Y26771782D01*
X49499996Y26751384D01*
X49500000Y26751384D01*
X49500004Y26751384D01*
X49681041Y26771782D01*
X49681044Y26771783D01*
X49681047Y26771783D01*
X49853015Y26831957D01*
X50007281Y26928889D01*
X50136111Y27057719D01*
X50233043Y27211985D01*
X50293217Y27383953D01*
X50313616Y27565000D01*
X50293217Y27746047D01*
X50233043Y27918015D01*
X50136111Y28072281D01*
X50007281Y28201111D01*
X49853015Y28298043D01*
X49798693Y28317051D01*
X49681046Y28358218D01*
X49681041Y28358219D01*
X49500004Y28378616D01*
X49499996Y28378616D01*
X49318958Y28358219D01*
X49318953Y28358218D01*
X49146980Y28298042D01*
X49146977Y28298040D01*
X49018812Y28217507D01*
X48952840Y28198500D01*
X38502601Y28198500D01*
X38380222Y28174157D01*
X38380214Y28174155D01*
X38264927Y28126402D01*
X38264918Y28126397D01*
X38161167Y28057072D01*
X38161163Y28057069D01*
X37233915Y27129819D01*
X37172592Y27096334D01*
X37146234Y27093500D01*
X21347160Y27093500D01*
X21281188Y27112507D01*
X21153022Y27193040D01*
X21153019Y27193042D01*
X20981046Y27253218D01*
X20981041Y27253219D01*
X20800004Y27273616D01*
X20799996Y27273616D01*
X20618958Y27253219D01*
X20618953Y27253218D01*
X20446982Y27193042D01*
X20292718Y27096111D01*
X20163889Y26967282D01*
X20066958Y26813018D01*
X20006782Y26641047D01*
X20006781Y26641042D01*
X19986384Y26460004D01*
X1000000Y26460004D01*
X1000000Y37876000D01*
X1019685Y37943039D01*
X1072489Y37988794D01*
X1124000Y38000000D01*
X67876000Y38000000D01*
X67943039Y37980315D01*
G37*
%TD.AperFunction*%
%TD*%
M02*
