%TF.GenerationSoftware,KiCad,Pcbnew,8.0.7*%
%TF.CreationDate,2024-12-29T09:44:25+01:00*%
%TF.ProjectId,circuit,63697263-7569-4742-9e6b-696361645f70,rev?*%
%TF.SameCoordinates,PX5f5e100PY5f5e100*%
%TF.FileFunction,Copper,L2,Bot*%
%TF.FilePolarity,Positive*%
%FSLAX46Y46*%
G04 Gerber Fmt 4.6, Leading zero omitted, Abs format (unit mm)*
G04 Created by KiCad (PCBNEW 8.0.7) date 2024-12-29 09:44:25*
%MOMM*%
%LPD*%
G01*
G04 APERTURE LIST*
%TA.AperFunction,ViaPad*%
%ADD10C,0.600000*%
%TD*%
%TA.AperFunction,Conductor*%
%ADD11C,0.250000*%
%TD*%
%TA.AperFunction,Conductor*%
%ADD12C,0.200000*%
%TD*%
G04 APERTURE END LIST*
D10*
%TO.N,+5V*%
X3800000Y32700000D03*
X27800000Y32700000D03*
%TO.N,/D8*%
X12840000Y2000000D03*
%TO.N,/\u002AD10*%
X7760000Y2000000D03*
%TO.N,/\u002AD9*%
X10300000Y5300000D03*
%TO.N,/D12*%
X2680000Y2000000D03*
X40840000Y30500000D03*
%TO.N,/\u002AD10*%
X38300000Y30500000D03*
%TO.N,/\u002AD9*%
X38300000Y25450000D03*
%TO.N,/D8*%
X40840000Y25450000D03*
%TO.N,+5V*%
X43380000Y25450000D03*
X49470000Y26295000D03*
X44480000Y9400000D03*
X30620000Y20540000D03*
X3800000Y23920000D03*
X49470000Y7095000D03*
X33900000Y7710000D03*
X15750000Y23920000D03*
X27800000Y23920000D03*
%TO.N,/A4*%
X49500000Y27565000D03*
X20800000Y26460000D03*
%TD*%
D11*
%TO.N,/A4*%
X36560000Y26460000D02*
X20800000Y26460000D01*
X37665000Y27565000D02*
X36560000Y26460000D01*
X49500000Y27565000D02*
X37665000Y27565000D01*
D12*
%TO.N,/D8*%
X17390000Y2000000D02*
X40840000Y25450000D01*
X12840000Y2000000D02*
X17390000Y2000000D01*
%TO.N,/\u002AD9*%
X18150000Y5300000D02*
X38300000Y25450000D01*
X10300000Y5300000D02*
X18150000Y5300000D01*
%TO.N,/\u002AD10*%
X18700000Y30500000D02*
X7760000Y19560000D01*
X38300000Y30500000D02*
X18700000Y30500000D01*
%TO.N,/D12*%
X17400000Y31600000D02*
X39740000Y31600000D01*
X2680000Y16880000D02*
X17400000Y31600000D01*
X2680000Y2000000D02*
X2680000Y16880000D01*
X39740000Y31600000D02*
X40840000Y30500000D01*
%TO.N,/\u002AD10*%
X7760000Y19560000D02*
X7760000Y2000000D01*
%TD*%
%TA.AperFunction,Conductor*%
%TO.N,+5V*%
G36*
X67943039Y37980315D02*
G01*
X67988794Y37927511D01*
X68000000Y37876000D01*
X68000000Y1124000D01*
X67980315Y1056961D01*
X67927511Y1011206D01*
X67876000Y1000000D01*
X13159908Y1000000D01*
X13092869Y1019685D01*
X13047114Y1072489D01*
X13037170Y1141647D01*
X13066195Y1205203D01*
X13118952Y1241042D01*
X13193015Y1266957D01*
X13347281Y1363889D01*
X13347286Y1363895D01*
X13347977Y1364445D01*
X13348515Y1364665D01*
X13353177Y1367594D01*
X13353690Y1366778D01*
X13412663Y1390855D01*
X13425293Y1391500D01*
X17470109Y1391500D01*
X17470110Y1391500D01*
X17470111Y1391500D01*
X17548981Y1412633D01*
X17624873Y1432968D01*
X17763627Y1513078D01*
X40862211Y24611665D01*
X40923532Y24645148D01*
X40935986Y24647200D01*
X41021047Y24656783D01*
X41193015Y24716957D01*
X41347281Y24813889D01*
X41476111Y24942719D01*
X41573043Y25096985D01*
X41633217Y25268953D01*
X41653616Y25450000D01*
X41651113Y25472211D01*
X41633218Y25631042D01*
X41633217Y25631047D01*
X41620712Y25666783D01*
X41573043Y25803015D01*
X41476111Y25957281D01*
X41347281Y26086111D01*
X41193017Y26183042D01*
X41193016Y26183043D01*
X41193015Y26183043D01*
X41138693Y26202051D01*
X41021046Y26243218D01*
X41021041Y26243219D01*
X40840004Y26263616D01*
X40839996Y26263616D01*
X40658958Y26243219D01*
X40658953Y26243218D01*
X40486982Y26183042D01*
X40332718Y26086111D01*
X40203889Y25957282D01*
X40106957Y25803017D01*
X40046781Y25631042D01*
X40037200Y25546007D01*
X40010133Y25481594D01*
X40001661Y25472211D01*
X17174270Y2644819D01*
X17112947Y2611334D01*
X17086589Y2608500D01*
X13425293Y2608500D01*
X13358254Y2628185D01*
X13347977Y2635555D01*
X13347277Y2636114D01*
X13193017Y2733042D01*
X13193016Y2733043D01*
X13193015Y2733043D01*
X13138693Y2752051D01*
X13021046Y2793218D01*
X13021041Y2793219D01*
X12840004Y2813616D01*
X12839996Y2813616D01*
X12658958Y2793219D01*
X12658953Y2793218D01*
X12486982Y2733042D01*
X12332718Y2636111D01*
X12203889Y2507282D01*
X12106958Y2353018D01*
X12046782Y2181047D01*
X12046781Y2181042D01*
X12026384Y2000004D01*
X12026384Y1999997D01*
X12046781Y1818959D01*
X12046782Y1818954D01*
X12087949Y1701307D01*
X12106957Y1646985D01*
X12203889Y1492719D01*
X12332719Y1363889D01*
X12486985Y1266957D01*
X12561047Y1241042D01*
X12617823Y1200320D01*
X12643570Y1135367D01*
X12630114Y1066806D01*
X12581727Y1016403D01*
X12520092Y1000000D01*
X8079908Y1000000D01*
X8012869Y1019685D01*
X7967114Y1072489D01*
X7957170Y1141647D01*
X7986195Y1205203D01*
X8038952Y1241042D01*
X8113015Y1266957D01*
X8267281Y1363889D01*
X8396111Y1492719D01*
X8493043Y1646985D01*
X8553217Y1818953D01*
X8573616Y2000000D01*
X8553217Y2181047D01*
X8493043Y2353015D01*
X8396111Y2507281D01*
X8396110Y2507282D01*
X8396109Y2507284D01*
X8395549Y2507986D01*
X8395328Y2508526D01*
X8392406Y2513177D01*
X8393221Y2513690D01*
X8369144Y2572674D01*
X8368500Y2585294D01*
X8368500Y5300004D01*
X9486384Y5300004D01*
X9486384Y5299997D01*
X9506781Y5118959D01*
X9506782Y5118954D01*
X9547949Y5001307D01*
X9566957Y4946985D01*
X9663889Y4792719D01*
X9792719Y4663889D01*
X9946985Y4566957D01*
X10118953Y4506783D01*
X10118958Y4506782D01*
X10299996Y4486384D01*
X10300000Y4486384D01*
X10300004Y4486384D01*
X10481041Y4506782D01*
X10481044Y4506783D01*
X10481047Y4506783D01*
X10653015Y4566957D01*
X10807281Y4663889D01*
X10807286Y4663895D01*
X10807977Y4664445D01*
X10808515Y4664665D01*
X10813177Y4667594D01*
X10813690Y4666778D01*
X10872663Y4690855D01*
X10885293Y4691500D01*
X18230109Y4691500D01*
X18230110Y4691500D01*
X18230111Y4691500D01*
X18308981Y4712633D01*
X18384873Y4732968D01*
X18523627Y4813078D01*
X38322212Y24611665D01*
X38383533Y24645148D01*
X38395988Y24647200D01*
X38481047Y24656783D01*
X38653015Y24716957D01*
X38807281Y24813889D01*
X38936111Y24942719D01*
X39033043Y25096985D01*
X39093217Y25268953D01*
X39113616Y25450000D01*
X39111113Y25472211D01*
X39093218Y25631042D01*
X39093217Y25631047D01*
X39080712Y25666783D01*
X39033043Y25803015D01*
X38936111Y25957281D01*
X38807281Y26086111D01*
X38653017Y26183042D01*
X38653016Y26183043D01*
X38653015Y26183043D01*
X38598693Y26202051D01*
X38481046Y26243218D01*
X38481041Y26243219D01*
X38300004Y26263616D01*
X38299996Y26263616D01*
X38118958Y26243219D01*
X38118953Y26243218D01*
X37946982Y26183042D01*
X37792718Y26086111D01*
X37663889Y25957282D01*
X37566957Y25803017D01*
X37506781Y25631042D01*
X37497200Y25546008D01*
X37470133Y25481595D01*
X37461661Y25472212D01*
X17934270Y5944819D01*
X17872947Y5911334D01*
X17846589Y5908500D01*
X10885293Y5908500D01*
X10818254Y5928185D01*
X10807977Y5935555D01*
X10807277Y5936114D01*
X10653017Y6033042D01*
X10653016Y6033043D01*
X10653015Y6033043D01*
X10598693Y6052051D01*
X10481046Y6093218D01*
X10481041Y6093219D01*
X10300004Y6113616D01*
X10299996Y6113616D01*
X10118958Y6093219D01*
X10118953Y6093218D01*
X9946982Y6033042D01*
X9792718Y5936111D01*
X9663889Y5807282D01*
X9566958Y5653018D01*
X9506782Y5481047D01*
X9506781Y5481042D01*
X9486384Y5300004D01*
X8368500Y5300004D01*
X8368500Y19256589D01*
X8388185Y19323628D01*
X8404819Y19344270D01*
X15520553Y26460004D01*
X19986384Y26460004D01*
X19986384Y26459997D01*
X20006781Y26278959D01*
X20006782Y26278954D01*
X20047949Y26161307D01*
X20066957Y26106985D01*
X20163889Y25952719D01*
X20292719Y25823889D01*
X20446985Y25726957D01*
X20618953Y25666783D01*
X20618958Y25666782D01*
X20799996Y25646384D01*
X20800000Y25646384D01*
X20800004Y25646384D01*
X20981041Y25666782D01*
X20981044Y25666783D01*
X20981047Y25666783D01*
X21153015Y25726957D01*
X21153017Y25726959D01*
X21153019Y25726959D01*
X21153022Y25726961D01*
X21281188Y25807493D01*
X21347160Y25826500D01*
X36622395Y25826500D01*
X36622396Y25826501D01*
X36744785Y25850845D01*
X36860075Y25898600D01*
X36963833Y25967929D01*
X37891085Y26895181D01*
X37952408Y26928666D01*
X37978766Y26931500D01*
X48952840Y26931500D01*
X49018812Y26912493D01*
X49146977Y26831961D01*
X49146980Y26831959D01*
X49146984Y26831958D01*
X49146985Y26831957D01*
X49318953Y26771783D01*
X49318958Y26771782D01*
X49499996Y26751384D01*
X49500000Y26751384D01*
X49500004Y26751384D01*
X49681041Y26771782D01*
X49681044Y26771783D01*
X49681047Y26771783D01*
X49853015Y26831957D01*
X50007281Y26928889D01*
X50136111Y27057719D01*
X50233043Y27211985D01*
X50293217Y27383953D01*
X50313616Y27565000D01*
X50293217Y27746047D01*
X50233043Y27918015D01*
X50136111Y28072281D01*
X50007281Y28201111D01*
X49853015Y28298043D01*
X49798693Y28317051D01*
X49681046Y28358218D01*
X49681041Y28358219D01*
X49500004Y28378616D01*
X49499996Y28378616D01*
X49318958Y28358219D01*
X49318953Y28358218D01*
X49146980Y28298042D01*
X49146977Y28298040D01*
X49018812Y28217507D01*
X48952840Y28198500D01*
X37602601Y28198500D01*
X37480222Y28174157D01*
X37480214Y28174155D01*
X37364927Y28126402D01*
X37364918Y28126397D01*
X37261167Y28057072D01*
X37261163Y28057069D01*
X36333915Y27129819D01*
X36272592Y27096334D01*
X36246234Y27093500D01*
X21347160Y27093500D01*
X21281188Y27112507D01*
X21153022Y27193040D01*
X21153019Y27193042D01*
X20981046Y27253218D01*
X20981041Y27253219D01*
X20800004Y27273616D01*
X20799996Y27273616D01*
X20618958Y27253219D01*
X20618953Y27253218D01*
X20446982Y27193042D01*
X20292718Y27096111D01*
X20163889Y26967282D01*
X20066958Y26813018D01*
X20006782Y26641047D01*
X20006781Y26641042D01*
X19986384Y26460004D01*
X15520553Y26460004D01*
X18915730Y29855181D01*
X18977053Y29888666D01*
X19003411Y29891500D01*
X37714707Y29891500D01*
X37781746Y29871815D01*
X37792023Y29864445D01*
X37792717Y29863891D01*
X37792719Y29863889D01*
X37946985Y29766957D01*
X38118953Y29706783D01*
X38118958Y29706782D01*
X38299996Y29686384D01*
X38300000Y29686384D01*
X38300004Y29686384D01*
X38481041Y29706782D01*
X38481044Y29706783D01*
X38481047Y29706783D01*
X38653015Y29766957D01*
X38807281Y29863889D01*
X38936111Y29992719D01*
X39033043Y30146985D01*
X39093217Y30318953D01*
X39113616Y30500000D01*
X39093217Y30681047D01*
X39042304Y30826546D01*
X39038744Y30896324D01*
X39073473Y30956952D01*
X39135466Y30989179D01*
X39159347Y30991500D01*
X39436589Y30991500D01*
X39503628Y30971815D01*
X39524270Y30955181D01*
X40001661Y30477790D01*
X40035146Y30416467D01*
X40037200Y30403993D01*
X40046781Y30318959D01*
X40106957Y30146984D01*
X40106958Y30146983D01*
X40203889Y29992719D01*
X40332719Y29863889D01*
X40486985Y29766957D01*
X40658953Y29706783D01*
X40658958Y29706782D01*
X40839996Y29686384D01*
X40840000Y29686384D01*
X40840004Y29686384D01*
X41021041Y29706782D01*
X41021044Y29706783D01*
X41021047Y29706783D01*
X41193015Y29766957D01*
X41347281Y29863889D01*
X41476111Y29992719D01*
X41573043Y30146985D01*
X41633217Y30318953D01*
X41653616Y30500000D01*
X41633217Y30681047D01*
X41573043Y30853015D01*
X41476111Y31007281D01*
X41347281Y31136111D01*
X41193016Y31233043D01*
X41021041Y31293219D01*
X40936007Y31302800D01*
X40871593Y31329867D01*
X40862210Y31338339D01*
X40113629Y32086920D01*
X40113627Y32086922D01*
X39974873Y32167032D01*
X39897491Y32187766D01*
X39897490Y32187767D01*
X39840844Y32202945D01*
X39820111Y32208500D01*
X17319889Y32208500D01*
X17165128Y32167032D01*
X17165125Y32167031D01*
X17026376Y32086925D01*
X17026371Y32086921D01*
X2193080Y17253630D01*
X2193076Y17253624D01*
X2112967Y17114874D01*
X2112968Y17114874D01*
X2112968Y17114873D01*
X2071500Y16960111D01*
X2071500Y2585294D01*
X2051815Y2518255D01*
X2044451Y2507986D01*
X2043890Y2507284D01*
X1946958Y2353018D01*
X1886782Y2181047D01*
X1886781Y2181042D01*
X1866384Y2000004D01*
X1866384Y1999997D01*
X1886781Y1818959D01*
X1886782Y1818954D01*
X1927949Y1701307D01*
X1946957Y1646985D01*
X2043889Y1492719D01*
X2172719Y1363889D01*
X2326985Y1266957D01*
X2401047Y1241042D01*
X2457823Y1200320D01*
X2483570Y1135367D01*
X2470114Y1066806D01*
X2421727Y1016403D01*
X2360092Y1000000D01*
X1124000Y1000000D01*
X1056961Y1019685D01*
X1011206Y1072489D01*
X1000000Y1124000D01*
X1000000Y37876000D01*
X1019685Y37943039D01*
X1072489Y37988794D01*
X1124000Y38000000D01*
X67876000Y38000000D01*
X67943039Y37980315D01*
G37*
%TD.AperFunction*%
%TD*%
M02*
