%TF.GenerationSoftware,KiCad,Pcbnew,8.0.7*%
%TF.CreationDate,2024-12-26T15:37:00+01:00*%
%TF.ProjectId,circuit,63697263-7569-4742-9e6b-696361645f70,rev?*%
%TF.SameCoordinates,PX5f5e100PY5f5e100*%
%TF.FileFunction,Legend,Top*%
%TF.FilePolarity,Positive*%
%FSLAX46Y46*%
G04 Gerber Fmt 4.6, Leading zero omitted, Abs format (unit mm)*
G04 Created by KiCad (PCBNEW 8.0.7) date 2024-12-26 15:37:00*
%MOMM*%
%LPD*%
G01*
G04 APERTURE LIST*
%ADD10C,0.200000*%
%ADD11C,0.150000*%
%ADD12C,0.120000*%
G04 APERTURE END LIST*
D10*
X1764911Y11641639D02*
X1764911Y10994020D01*
X1764911Y10994020D02*
X1726816Y10917829D01*
X1726816Y10917829D02*
X1688720Y10879734D01*
X1688720Y10879734D02*
X1612530Y10841639D01*
X1612530Y10841639D02*
X1498244Y10841639D01*
X1498244Y10841639D02*
X1422054Y10879734D01*
X1764911Y11146400D02*
X1688720Y11108305D01*
X1688720Y11108305D02*
X1536339Y11108305D01*
X1536339Y11108305D02*
X1460149Y11146400D01*
X1460149Y11146400D02*
X1422054Y11184496D01*
X1422054Y11184496D02*
X1383958Y11260686D01*
X1383958Y11260686D02*
X1383958Y11489258D01*
X1383958Y11489258D02*
X1422054Y11565448D01*
X1422054Y11565448D02*
X1460149Y11603543D01*
X1460149Y11603543D02*
X1536339Y11641639D01*
X1536339Y11641639D02*
X1688720Y11641639D01*
X1688720Y11641639D02*
X1764911Y11603543D01*
X2145864Y11108305D02*
X2145864Y11641639D01*
X2145864Y11908305D02*
X2107768Y11870210D01*
X2107768Y11870210D02*
X2145864Y11832115D01*
X2145864Y11832115D02*
X2183959Y11870210D01*
X2183959Y11870210D02*
X2145864Y11908305D01*
X2145864Y11908305D02*
X2145864Y11832115D01*
X2412530Y11641639D02*
X2717292Y11641639D01*
X2526816Y11908305D02*
X2526816Y11222591D01*
X2526816Y11222591D02*
X2564911Y11146400D01*
X2564911Y11146400D02*
X2641101Y11108305D01*
X2641101Y11108305D02*
X2717292Y11108305D01*
X2983959Y11108305D02*
X2983959Y11908305D01*
X3326816Y11108305D02*
X3326816Y11527353D01*
X3326816Y11527353D02*
X3288721Y11603543D01*
X3288721Y11603543D02*
X3212530Y11641639D01*
X3212530Y11641639D02*
X3098244Y11641639D01*
X3098244Y11641639D02*
X3022054Y11603543D01*
X3022054Y11603543D02*
X2983959Y11565448D01*
X4050626Y11641639D02*
X4050626Y11108305D01*
X3707769Y11641639D02*
X3707769Y11222591D01*
X3707769Y11222591D02*
X3745864Y11146400D01*
X3745864Y11146400D02*
X3822054Y11108305D01*
X3822054Y11108305D02*
X3936340Y11108305D01*
X3936340Y11108305D02*
X4012531Y11146400D01*
X4012531Y11146400D02*
X4050626Y11184496D01*
X4431579Y11108305D02*
X4431579Y11908305D01*
X4431579Y11603543D02*
X4507769Y11641639D01*
X4507769Y11641639D02*
X4660150Y11641639D01*
X4660150Y11641639D02*
X4736341Y11603543D01*
X4736341Y11603543D02*
X4774436Y11565448D01*
X4774436Y11565448D02*
X4812531Y11489258D01*
X4812531Y11489258D02*
X4812531Y11260686D01*
X4812531Y11260686D02*
X4774436Y11184496D01*
X4774436Y11184496D02*
X4736341Y11146400D01*
X4736341Y11146400D02*
X4660150Y11108305D01*
X4660150Y11108305D02*
X4507769Y11108305D01*
X4507769Y11108305D02*
X4431579Y11146400D01*
X5155389Y11184496D02*
X5193484Y11146400D01*
X5193484Y11146400D02*
X5155389Y11108305D01*
X5155389Y11108305D02*
X5117293Y11146400D01*
X5117293Y11146400D02*
X5155389Y11184496D01*
X5155389Y11184496D02*
X5155389Y11108305D01*
X5879198Y11146400D02*
X5803007Y11108305D01*
X5803007Y11108305D02*
X5650626Y11108305D01*
X5650626Y11108305D02*
X5574436Y11146400D01*
X5574436Y11146400D02*
X5536341Y11184496D01*
X5536341Y11184496D02*
X5498245Y11260686D01*
X5498245Y11260686D02*
X5498245Y11489258D01*
X5498245Y11489258D02*
X5536341Y11565448D01*
X5536341Y11565448D02*
X5574436Y11603543D01*
X5574436Y11603543D02*
X5650626Y11641639D01*
X5650626Y11641639D02*
X5803007Y11641639D01*
X5803007Y11641639D02*
X5879198Y11603543D01*
X6336340Y11108305D02*
X6260150Y11146400D01*
X6260150Y11146400D02*
X6222055Y11184496D01*
X6222055Y11184496D02*
X6183959Y11260686D01*
X6183959Y11260686D02*
X6183959Y11489258D01*
X6183959Y11489258D02*
X6222055Y11565448D01*
X6222055Y11565448D02*
X6260150Y11603543D01*
X6260150Y11603543D02*
X6336340Y11641639D01*
X6336340Y11641639D02*
X6450626Y11641639D01*
X6450626Y11641639D02*
X6526817Y11603543D01*
X6526817Y11603543D02*
X6564912Y11565448D01*
X6564912Y11565448D02*
X6603007Y11489258D01*
X6603007Y11489258D02*
X6603007Y11260686D01*
X6603007Y11260686D02*
X6564912Y11184496D01*
X6564912Y11184496D02*
X6526817Y11146400D01*
X6526817Y11146400D02*
X6450626Y11108305D01*
X6450626Y11108305D02*
X6336340Y11108305D01*
X6945865Y11108305D02*
X6945865Y11641639D01*
X6945865Y11565448D02*
X6983960Y11603543D01*
X6983960Y11603543D02*
X7060150Y11641639D01*
X7060150Y11641639D02*
X7174436Y11641639D01*
X7174436Y11641639D02*
X7250627Y11603543D01*
X7250627Y11603543D02*
X7288722Y11527353D01*
X7288722Y11527353D02*
X7288722Y11108305D01*
X7288722Y11527353D02*
X7326817Y11603543D01*
X7326817Y11603543D02*
X7403008Y11641639D01*
X7403008Y11641639D02*
X7517293Y11641639D01*
X7517293Y11641639D02*
X7593484Y11603543D01*
X7593484Y11603543D02*
X7631579Y11527353D01*
X7631579Y11527353D02*
X7631579Y11108305D01*
X8583960Y11946400D02*
X7898246Y10917829D01*
X8964912Y11108305D02*
X8888722Y11146400D01*
X8888722Y11146400D02*
X8850627Y11222591D01*
X8850627Y11222591D02*
X8850627Y11908305D01*
X9612532Y11641639D02*
X9612532Y11108305D01*
X9269675Y11641639D02*
X9269675Y11222591D01*
X9269675Y11222591D02*
X9307770Y11146400D01*
X9307770Y11146400D02*
X9383960Y11108305D01*
X9383960Y11108305D02*
X9498246Y11108305D01*
X9498246Y11108305D02*
X9574437Y11146400D01*
X9574437Y11146400D02*
X9612532Y11184496D01*
X9955389Y11146400D02*
X10031580Y11108305D01*
X10031580Y11108305D02*
X10183961Y11108305D01*
X10183961Y11108305D02*
X10260151Y11146400D01*
X10260151Y11146400D02*
X10298247Y11222591D01*
X10298247Y11222591D02*
X10298247Y11260686D01*
X10298247Y11260686D02*
X10260151Y11336877D01*
X10260151Y11336877D02*
X10183961Y11374972D01*
X10183961Y11374972D02*
X10069675Y11374972D01*
X10069675Y11374972D02*
X9993485Y11413067D01*
X9993485Y11413067D02*
X9955389Y11489258D01*
X9955389Y11489258D02*
X9955389Y11527353D01*
X9955389Y11527353D02*
X9993485Y11603543D01*
X9993485Y11603543D02*
X10069675Y11641639D01*
X10069675Y11641639D02*
X10183961Y11641639D01*
X10183961Y11641639D02*
X10260151Y11603543D01*
X10641104Y11108305D02*
X10641104Y11641639D01*
X10641104Y11565448D02*
X10679199Y11603543D01*
X10679199Y11603543D02*
X10755389Y11641639D01*
X10755389Y11641639D02*
X10869675Y11641639D01*
X10869675Y11641639D02*
X10945866Y11603543D01*
X10945866Y11603543D02*
X10983961Y11527353D01*
X10983961Y11527353D02*
X10983961Y11108305D01*
X10983961Y11527353D02*
X11022056Y11603543D01*
X11022056Y11603543D02*
X11098247Y11641639D01*
X11098247Y11641639D02*
X11212532Y11641639D01*
X11212532Y11641639D02*
X11288723Y11603543D01*
X11288723Y11603543D02*
X11326818Y11527353D01*
X11326818Y11527353D02*
X11326818Y11108305D01*
X12050628Y11108305D02*
X12050628Y11908305D01*
X12050628Y11146400D02*
X11974437Y11108305D01*
X11974437Y11108305D02*
X11822056Y11108305D01*
X11822056Y11108305D02*
X11745866Y11146400D01*
X11745866Y11146400D02*
X11707771Y11184496D01*
X11707771Y11184496D02*
X11669675Y11260686D01*
X11669675Y11260686D02*
X11669675Y11489258D01*
X11669675Y11489258D02*
X11707771Y11565448D01*
X11707771Y11565448D02*
X11745866Y11603543D01*
X11745866Y11603543D02*
X11822056Y11641639D01*
X11822056Y11641639D02*
X11974437Y11641639D01*
X11974437Y11641639D02*
X12050628Y11603543D01*
X12545866Y11108305D02*
X12469676Y11146400D01*
X12469676Y11146400D02*
X12431581Y11222591D01*
X12431581Y11222591D02*
X12431581Y11908305D01*
X13422057Y11946400D02*
X12736343Y10917829D01*
X13688724Y11108305D02*
X13688724Y11908305D01*
X13688724Y11908305D02*
X13955390Y11336877D01*
X13955390Y11336877D02*
X14222057Y11908305D01*
X14222057Y11908305D02*
X14222057Y11108305D01*
X14526819Y11641639D02*
X14717295Y11108305D01*
X14907772Y11641639D02*
X14717295Y11108305D01*
X14717295Y11108305D02*
X14641105Y10917829D01*
X14641105Y10917829D02*
X14603010Y10879734D01*
X14603010Y10879734D02*
X14526819Y10841639D01*
X15174438Y11146400D02*
X15288724Y11108305D01*
X15288724Y11108305D02*
X15479200Y11108305D01*
X15479200Y11108305D02*
X15555391Y11146400D01*
X15555391Y11146400D02*
X15593486Y11184496D01*
X15593486Y11184496D02*
X15631581Y11260686D01*
X15631581Y11260686D02*
X15631581Y11336877D01*
X15631581Y11336877D02*
X15593486Y11413067D01*
X15593486Y11413067D02*
X15555391Y11451162D01*
X15555391Y11451162D02*
X15479200Y11489258D01*
X15479200Y11489258D02*
X15326819Y11527353D01*
X15326819Y11527353D02*
X15250629Y11565448D01*
X15250629Y11565448D02*
X15212534Y11603543D01*
X15212534Y11603543D02*
X15174438Y11679734D01*
X15174438Y11679734D02*
X15174438Y11755924D01*
X15174438Y11755924D02*
X15212534Y11832115D01*
X15212534Y11832115D02*
X15250629Y11870210D01*
X15250629Y11870210D02*
X15326819Y11908305D01*
X15326819Y11908305D02*
X15517296Y11908305D01*
X15517296Y11908305D02*
X15631581Y11870210D01*
X15974439Y11108305D02*
X15974439Y11641639D01*
X15974439Y11908305D02*
X15936343Y11870210D01*
X15936343Y11870210D02*
X15974439Y11832115D01*
X15974439Y11832115D02*
X16012534Y11870210D01*
X16012534Y11870210D02*
X15974439Y11908305D01*
X15974439Y11908305D02*
X15974439Y11832115D01*
X16355391Y11108305D02*
X16355391Y11641639D01*
X16355391Y11565448D02*
X16393486Y11603543D01*
X16393486Y11603543D02*
X16469676Y11641639D01*
X16469676Y11641639D02*
X16583962Y11641639D01*
X16583962Y11641639D02*
X16660153Y11603543D01*
X16660153Y11603543D02*
X16698248Y11527353D01*
X16698248Y11527353D02*
X16698248Y11108305D01*
X16698248Y11527353D02*
X16736343Y11603543D01*
X16736343Y11603543D02*
X16812534Y11641639D01*
X16812534Y11641639D02*
X16926819Y11641639D01*
X16926819Y11641639D02*
X17003010Y11603543D01*
X17003010Y11603543D02*
X17041105Y11527353D01*
X17041105Y11527353D02*
X17041105Y11108305D01*
X17879201Y11108305D02*
X17612534Y11489258D01*
X17422058Y11108305D02*
X17422058Y11908305D01*
X17422058Y11908305D02*
X17726820Y11908305D01*
X17726820Y11908305D02*
X17803010Y11870210D01*
X17803010Y11870210D02*
X17841105Y11832115D01*
X17841105Y11832115D02*
X17879201Y11755924D01*
X17879201Y11755924D02*
X17879201Y11641639D01*
X17879201Y11641639D02*
X17841105Y11565448D01*
X17841105Y11565448D02*
X17803010Y11527353D01*
X17803010Y11527353D02*
X17726820Y11489258D01*
X17726820Y11489258D02*
X17422058Y11489258D01*
X18564915Y11108305D02*
X18564915Y11527353D01*
X18564915Y11527353D02*
X18526820Y11603543D01*
X18526820Y11603543D02*
X18450629Y11641639D01*
X18450629Y11641639D02*
X18298248Y11641639D01*
X18298248Y11641639D02*
X18222058Y11603543D01*
X18564915Y11146400D02*
X18488724Y11108305D01*
X18488724Y11108305D02*
X18298248Y11108305D01*
X18298248Y11108305D02*
X18222058Y11146400D01*
X18222058Y11146400D02*
X18183962Y11222591D01*
X18183962Y11222591D02*
X18183962Y11298781D01*
X18183962Y11298781D02*
X18222058Y11374972D01*
X18222058Y11374972D02*
X18298248Y11413067D01*
X18298248Y11413067D02*
X18488724Y11413067D01*
X18488724Y11413067D02*
X18564915Y11451162D01*
X19288725Y11146400D02*
X19212534Y11108305D01*
X19212534Y11108305D02*
X19060153Y11108305D01*
X19060153Y11108305D02*
X18983963Y11146400D01*
X18983963Y11146400D02*
X18945868Y11184496D01*
X18945868Y11184496D02*
X18907772Y11260686D01*
X18907772Y11260686D02*
X18907772Y11489258D01*
X18907772Y11489258D02*
X18945868Y11565448D01*
X18945868Y11565448D02*
X18983963Y11603543D01*
X18983963Y11603543D02*
X19060153Y11641639D01*
X19060153Y11641639D02*
X19212534Y11641639D01*
X19212534Y11641639D02*
X19288725Y11603543D01*
X19631582Y11108305D02*
X19631582Y11641639D01*
X19631582Y11908305D02*
X19593486Y11870210D01*
X19593486Y11870210D02*
X19631582Y11832115D01*
X19631582Y11832115D02*
X19669677Y11870210D01*
X19669677Y11870210D02*
X19631582Y11908305D01*
X19631582Y11908305D02*
X19631582Y11832115D01*
X20012534Y11641639D02*
X20012534Y11108305D01*
X20012534Y11565448D02*
X20050629Y11603543D01*
X20050629Y11603543D02*
X20126819Y11641639D01*
X20126819Y11641639D02*
X20241105Y11641639D01*
X20241105Y11641639D02*
X20317296Y11603543D01*
X20317296Y11603543D02*
X20355391Y11527353D01*
X20355391Y11527353D02*
X20355391Y11108305D01*
X21079201Y11641639D02*
X21079201Y10994020D01*
X21079201Y10994020D02*
X21041106Y10917829D01*
X21041106Y10917829D02*
X21003010Y10879734D01*
X21003010Y10879734D02*
X20926820Y10841639D01*
X20926820Y10841639D02*
X20812534Y10841639D01*
X20812534Y10841639D02*
X20736344Y10879734D01*
X21079201Y11146400D02*
X21003010Y11108305D01*
X21003010Y11108305D02*
X20850629Y11108305D01*
X20850629Y11108305D02*
X20774439Y11146400D01*
X20774439Y11146400D02*
X20736344Y11184496D01*
X20736344Y11184496D02*
X20698248Y11260686D01*
X20698248Y11260686D02*
X20698248Y11489258D01*
X20698248Y11489258D02*
X20736344Y11565448D01*
X20736344Y11565448D02*
X20774439Y11603543D01*
X20774439Y11603543D02*
X20850629Y11641639D01*
X20850629Y11641639D02*
X21003010Y11641639D01*
X21003010Y11641639D02*
X21079201Y11603543D01*
X21917297Y11184496D02*
X21879201Y11146400D01*
X21879201Y11146400D02*
X21764916Y11108305D01*
X21764916Y11108305D02*
X21688725Y11108305D01*
X21688725Y11108305D02*
X21574439Y11146400D01*
X21574439Y11146400D02*
X21498249Y11222591D01*
X21498249Y11222591D02*
X21460154Y11298781D01*
X21460154Y11298781D02*
X21422058Y11451162D01*
X21422058Y11451162D02*
X21422058Y11565448D01*
X21422058Y11565448D02*
X21460154Y11717829D01*
X21460154Y11717829D02*
X21498249Y11794020D01*
X21498249Y11794020D02*
X21574439Y11870210D01*
X21574439Y11870210D02*
X21688725Y11908305D01*
X21688725Y11908305D02*
X21764916Y11908305D01*
X21764916Y11908305D02*
X21879201Y11870210D01*
X21879201Y11870210D02*
X21917297Y11832115D01*
X22374439Y11108305D02*
X22298249Y11146400D01*
X22298249Y11146400D02*
X22260154Y11184496D01*
X22260154Y11184496D02*
X22222058Y11260686D01*
X22222058Y11260686D02*
X22222058Y11489258D01*
X22222058Y11489258D02*
X22260154Y11565448D01*
X22260154Y11565448D02*
X22298249Y11603543D01*
X22298249Y11603543D02*
X22374439Y11641639D01*
X22374439Y11641639D02*
X22488725Y11641639D01*
X22488725Y11641639D02*
X22564916Y11603543D01*
X22564916Y11603543D02*
X22603011Y11565448D01*
X22603011Y11565448D02*
X22641106Y11489258D01*
X22641106Y11489258D02*
X22641106Y11260686D01*
X22641106Y11260686D02*
X22603011Y11184496D01*
X22603011Y11184496D02*
X22564916Y11146400D01*
X22564916Y11146400D02*
X22488725Y11108305D01*
X22488725Y11108305D02*
X22374439Y11108305D01*
X22983964Y11108305D02*
X22983964Y11641639D01*
X22983964Y11489258D02*
X23022059Y11565448D01*
X23022059Y11565448D02*
X23060154Y11603543D01*
X23060154Y11603543D02*
X23136345Y11641639D01*
X23136345Y11641639D02*
X23212535Y11641639D01*
X23783964Y11146400D02*
X23707773Y11108305D01*
X23707773Y11108305D02*
X23555392Y11108305D01*
X23555392Y11108305D02*
X23479202Y11146400D01*
X23479202Y11146400D02*
X23441106Y11222591D01*
X23441106Y11222591D02*
X23441106Y11527353D01*
X23441106Y11527353D02*
X23479202Y11603543D01*
X23479202Y11603543D02*
X23555392Y11641639D01*
X23555392Y11641639D02*
X23707773Y11641639D01*
X23707773Y11641639D02*
X23783964Y11603543D01*
X23783964Y11603543D02*
X23822059Y11527353D01*
X23822059Y11527353D02*
X23822059Y11451162D01*
X23822059Y11451162D02*
X23441106Y11374972D01*
D11*
X1222381Y15545181D02*
X1222381Y14830896D01*
X1222381Y14830896D02*
X1174762Y14688039D01*
X1174762Y14688039D02*
X1079524Y14592800D01*
X1079524Y14592800D02*
X936667Y14545181D01*
X936667Y14545181D02*
X841429Y14545181D01*
X2222381Y14545181D02*
X1650953Y14545181D01*
X1936667Y14545181D02*
X1936667Y15545181D01*
X1936667Y15545181D02*
X1841429Y15402324D01*
X1841429Y15402324D02*
X1746191Y15307086D01*
X1746191Y15307086D02*
X1650953Y15259467D01*
X2650953Y14640420D02*
X2698572Y14592800D01*
X2698572Y14592800D02*
X2650953Y14545181D01*
X2650953Y14545181D02*
X2603334Y14592800D01*
X2603334Y14592800D02*
X2650953Y14640420D01*
X2650953Y14640420D02*
X2650953Y14545181D01*
X3079524Y15449943D02*
X3127143Y15497562D01*
X3127143Y15497562D02*
X3222381Y15545181D01*
X3222381Y15545181D02*
X3460476Y15545181D01*
X3460476Y15545181D02*
X3555714Y15497562D01*
X3555714Y15497562D02*
X3603333Y15449943D01*
X3603333Y15449943D02*
X3650952Y15354705D01*
X3650952Y15354705D02*
X3650952Y15259467D01*
X3650952Y15259467D02*
X3603333Y15116610D01*
X3603333Y15116610D02*
X3031905Y14545181D01*
X3031905Y14545181D02*
X3650952Y14545181D01*
X40560476Y14630896D02*
X41036666Y14630896D01*
X40465238Y14345181D02*
X40798571Y15345181D01*
X40798571Y15345181D02*
X41131904Y14345181D01*
X41465238Y15011848D02*
X41465238Y14345181D01*
X41465238Y14916610D02*
X41512857Y14964229D01*
X41512857Y14964229D02*
X41608095Y15011848D01*
X41608095Y15011848D02*
X41750952Y15011848D01*
X41750952Y15011848D02*
X41846190Y14964229D01*
X41846190Y14964229D02*
X41893809Y14868991D01*
X41893809Y14868991D02*
X41893809Y14345181D01*
X42798571Y14345181D02*
X42798571Y14868991D01*
X42798571Y14868991D02*
X42750952Y14964229D01*
X42750952Y14964229D02*
X42655714Y15011848D01*
X42655714Y15011848D02*
X42465238Y15011848D01*
X42465238Y15011848D02*
X42370000Y14964229D01*
X42798571Y14392800D02*
X42703333Y14345181D01*
X42703333Y14345181D02*
X42465238Y14345181D01*
X42465238Y14345181D02*
X42370000Y14392800D01*
X42370000Y14392800D02*
X42322381Y14488039D01*
X42322381Y14488039D02*
X42322381Y14583277D01*
X42322381Y14583277D02*
X42370000Y14678515D01*
X42370000Y14678515D02*
X42465238Y14726134D01*
X42465238Y14726134D02*
X42703333Y14726134D01*
X42703333Y14726134D02*
X42798571Y14773753D01*
X43417619Y14345181D02*
X43322381Y14392800D01*
X43322381Y14392800D02*
X43274762Y14488039D01*
X43274762Y14488039D02*
X43274762Y15345181D01*
X43941429Y14345181D02*
X43846191Y14392800D01*
X43846191Y14392800D02*
X43798572Y14440420D01*
X43798572Y14440420D02*
X43750953Y14535658D01*
X43750953Y14535658D02*
X43750953Y14821372D01*
X43750953Y14821372D02*
X43798572Y14916610D01*
X43798572Y14916610D02*
X43846191Y14964229D01*
X43846191Y14964229D02*
X43941429Y15011848D01*
X43941429Y15011848D02*
X44084286Y15011848D01*
X44084286Y15011848D02*
X44179524Y14964229D01*
X44179524Y14964229D02*
X44227143Y14916610D01*
X44227143Y14916610D02*
X44274762Y14821372D01*
X44274762Y14821372D02*
X44274762Y14535658D01*
X44274762Y14535658D02*
X44227143Y14440420D01*
X44227143Y14440420D02*
X44179524Y14392800D01*
X44179524Y14392800D02*
X44084286Y14345181D01*
X44084286Y14345181D02*
X43941429Y14345181D01*
X45131905Y15011848D02*
X45131905Y14202324D01*
X45131905Y14202324D02*
X45084286Y14107086D01*
X45084286Y14107086D02*
X45036667Y14059467D01*
X45036667Y14059467D02*
X44941429Y14011848D01*
X44941429Y14011848D02*
X44798572Y14011848D01*
X44798572Y14011848D02*
X44703334Y14059467D01*
X45131905Y14392800D02*
X45036667Y14345181D01*
X45036667Y14345181D02*
X44846191Y14345181D01*
X44846191Y14345181D02*
X44750953Y14392800D01*
X44750953Y14392800D02*
X44703334Y14440420D01*
X44703334Y14440420D02*
X44655715Y14535658D01*
X44655715Y14535658D02*
X44655715Y14821372D01*
X44655715Y14821372D02*
X44703334Y14916610D01*
X44703334Y14916610D02*
X44750953Y14964229D01*
X44750953Y14964229D02*
X44846191Y15011848D01*
X44846191Y15011848D02*
X45036667Y15011848D01*
X45036667Y15011848D02*
X45131905Y14964229D01*
X1222381Y7945181D02*
X1222381Y7230896D01*
X1222381Y7230896D02*
X1174762Y7088039D01*
X1174762Y7088039D02*
X1079524Y6992800D01*
X1079524Y6992800D02*
X936667Y6945181D01*
X936667Y6945181D02*
X841429Y6945181D01*
X2222381Y6945181D02*
X1650953Y6945181D01*
X1936667Y6945181D02*
X1936667Y7945181D01*
X1936667Y7945181D02*
X1841429Y7802324D01*
X1841429Y7802324D02*
X1746191Y7707086D01*
X1746191Y7707086D02*
X1650953Y7659467D01*
X2650953Y7040420D02*
X2698572Y6992800D01*
X2698572Y6992800D02*
X2650953Y6945181D01*
X2650953Y6945181D02*
X2603334Y6992800D01*
X2603334Y6992800D02*
X2650953Y7040420D01*
X2650953Y7040420D02*
X2650953Y6945181D01*
X3650952Y6945181D02*
X3079524Y6945181D01*
X3365238Y6945181D02*
X3365238Y7945181D01*
X3365238Y7945181D02*
X3270000Y7802324D01*
X3270000Y7802324D02*
X3174762Y7707086D01*
X3174762Y7707086D02*
X3079524Y7659467D01*
X40579524Y7145181D02*
X40579524Y8145181D01*
X40579524Y8145181D02*
X40817619Y8145181D01*
X40817619Y8145181D02*
X40960476Y8097562D01*
X40960476Y8097562D02*
X41055714Y8002324D01*
X41055714Y8002324D02*
X41103333Y7907086D01*
X41103333Y7907086D02*
X41150952Y7716610D01*
X41150952Y7716610D02*
X41150952Y7573753D01*
X41150952Y7573753D02*
X41103333Y7383277D01*
X41103333Y7383277D02*
X41055714Y7288039D01*
X41055714Y7288039D02*
X40960476Y7192800D01*
X40960476Y7192800D02*
X40817619Y7145181D01*
X40817619Y7145181D02*
X40579524Y7145181D01*
X41579524Y7145181D02*
X41579524Y7811848D01*
X41579524Y8145181D02*
X41531905Y8097562D01*
X41531905Y8097562D02*
X41579524Y8049943D01*
X41579524Y8049943D02*
X41627143Y8097562D01*
X41627143Y8097562D02*
X41579524Y8145181D01*
X41579524Y8145181D02*
X41579524Y8049943D01*
X42484285Y7811848D02*
X42484285Y7002324D01*
X42484285Y7002324D02*
X42436666Y6907086D01*
X42436666Y6907086D02*
X42389047Y6859467D01*
X42389047Y6859467D02*
X42293809Y6811848D01*
X42293809Y6811848D02*
X42150952Y6811848D01*
X42150952Y6811848D02*
X42055714Y6859467D01*
X42484285Y7192800D02*
X42389047Y7145181D01*
X42389047Y7145181D02*
X42198571Y7145181D01*
X42198571Y7145181D02*
X42103333Y7192800D01*
X42103333Y7192800D02*
X42055714Y7240420D01*
X42055714Y7240420D02*
X42008095Y7335658D01*
X42008095Y7335658D02*
X42008095Y7621372D01*
X42008095Y7621372D02*
X42055714Y7716610D01*
X42055714Y7716610D02*
X42103333Y7764229D01*
X42103333Y7764229D02*
X42198571Y7811848D01*
X42198571Y7811848D02*
X42389047Y7811848D01*
X42389047Y7811848D02*
X42484285Y7764229D01*
X42960476Y7145181D02*
X42960476Y7811848D01*
X42960476Y8145181D02*
X42912857Y8097562D01*
X42912857Y8097562D02*
X42960476Y8049943D01*
X42960476Y8049943D02*
X43008095Y8097562D01*
X43008095Y8097562D02*
X42960476Y8145181D01*
X42960476Y8145181D02*
X42960476Y8049943D01*
X43293809Y7811848D02*
X43674761Y7811848D01*
X43436666Y8145181D02*
X43436666Y7288039D01*
X43436666Y7288039D02*
X43484285Y7192800D01*
X43484285Y7192800D02*
X43579523Y7145181D01*
X43579523Y7145181D02*
X43674761Y7145181D01*
X44436666Y7145181D02*
X44436666Y7668991D01*
X44436666Y7668991D02*
X44389047Y7764229D01*
X44389047Y7764229D02*
X44293809Y7811848D01*
X44293809Y7811848D02*
X44103333Y7811848D01*
X44103333Y7811848D02*
X44008095Y7764229D01*
X44436666Y7192800D02*
X44341428Y7145181D01*
X44341428Y7145181D02*
X44103333Y7145181D01*
X44103333Y7145181D02*
X44008095Y7192800D01*
X44008095Y7192800D02*
X43960476Y7288039D01*
X43960476Y7288039D02*
X43960476Y7383277D01*
X43960476Y7383277D02*
X44008095Y7478515D01*
X44008095Y7478515D02*
X44103333Y7526134D01*
X44103333Y7526134D02*
X44341428Y7526134D01*
X44341428Y7526134D02*
X44436666Y7573753D01*
X45055714Y7145181D02*
X44960476Y7192800D01*
X44960476Y7192800D02*
X44912857Y7288039D01*
X44912857Y7288039D02*
X44912857Y8145181D01*
X43156667Y11037705D02*
X42890000Y11418658D01*
X42699524Y11037705D02*
X42699524Y11837705D01*
X42699524Y11837705D02*
X43004286Y11837705D01*
X43004286Y11837705D02*
X43080476Y11799610D01*
X43080476Y11799610D02*
X43118571Y11761515D01*
X43118571Y11761515D02*
X43156667Y11685324D01*
X43156667Y11685324D02*
X43156667Y11571039D01*
X43156667Y11571039D02*
X43118571Y11494848D01*
X43118571Y11494848D02*
X43080476Y11456753D01*
X43080476Y11456753D02*
X43004286Y11418658D01*
X43004286Y11418658D02*
X42699524Y11418658D01*
X43842381Y11571039D02*
X43842381Y11037705D01*
X43651905Y11875800D02*
X43461428Y11304372D01*
X43461428Y11304372D02*
X43956667Y11304372D01*
X666666Y32845181D02*
X666666Y32130896D01*
X666666Y32130896D02*
X619047Y31988039D01*
X619047Y31988039D02*
X523809Y31892800D01*
X523809Y31892800D02*
X380952Y31845181D01*
X380952Y31845181D02*
X285714Y31845181D01*
X1619047Y32845181D02*
X1142857Y32845181D01*
X1142857Y32845181D02*
X1095238Y32368991D01*
X1095238Y32368991D02*
X1142857Y32416610D01*
X1142857Y32416610D02*
X1238095Y32464229D01*
X1238095Y32464229D02*
X1476190Y32464229D01*
X1476190Y32464229D02*
X1571428Y32416610D01*
X1571428Y32416610D02*
X1619047Y32368991D01*
X1619047Y32368991D02*
X1666666Y32273753D01*
X1666666Y32273753D02*
X1666666Y32035658D01*
X1666666Y32035658D02*
X1619047Y31940420D01*
X1619047Y31940420D02*
X1571428Y31892800D01*
X1571428Y31892800D02*
X1476190Y31845181D01*
X1476190Y31845181D02*
X1238095Y31845181D01*
X1238095Y31845181D02*
X1142857Y31892800D01*
X1142857Y31892800D02*
X1095238Y31940420D01*
X3372618Y37967705D02*
X3372618Y38767705D01*
X3372618Y38386753D02*
X3829761Y38386753D01*
X3829761Y37967705D02*
X3829761Y38767705D01*
X4553570Y37967705D02*
X4553570Y38386753D01*
X4553570Y38386753D02*
X4515475Y38462943D01*
X4515475Y38462943D02*
X4439284Y38501039D01*
X4439284Y38501039D02*
X4286903Y38501039D01*
X4286903Y38501039D02*
X4210713Y38462943D01*
X4553570Y38005800D02*
X4477379Y37967705D01*
X4477379Y37967705D02*
X4286903Y37967705D01*
X4286903Y37967705D02*
X4210713Y38005800D01*
X4210713Y38005800D02*
X4172617Y38081991D01*
X4172617Y38081991D02*
X4172617Y38158181D01*
X4172617Y38158181D02*
X4210713Y38234372D01*
X4210713Y38234372D02*
X4286903Y38272467D01*
X4286903Y38272467D02*
X4477379Y38272467D01*
X4477379Y38272467D02*
X4553570Y38310562D01*
X4934523Y38501039D02*
X4934523Y37967705D01*
X4934523Y38424848D02*
X4972618Y38462943D01*
X4972618Y38462943D02*
X5048808Y38501039D01*
X5048808Y38501039D02*
X5163094Y38501039D01*
X5163094Y38501039D02*
X5239285Y38462943D01*
X5239285Y38462943D02*
X5277380Y38386753D01*
X5277380Y38386753D02*
X5277380Y37967705D01*
X6001190Y37967705D02*
X6001190Y38767705D01*
X6001190Y38005800D02*
X5924999Y37967705D01*
X5924999Y37967705D02*
X5772618Y37967705D01*
X5772618Y37967705D02*
X5696428Y38005800D01*
X5696428Y38005800D02*
X5658333Y38043896D01*
X5658333Y38043896D02*
X5620237Y38120086D01*
X5620237Y38120086D02*
X5620237Y38348658D01*
X5620237Y38348658D02*
X5658333Y38424848D01*
X5658333Y38424848D02*
X5696428Y38462943D01*
X5696428Y38462943D02*
X5772618Y38501039D01*
X5772618Y38501039D02*
X5924999Y38501039D01*
X5924999Y38501039D02*
X6001190Y38462943D01*
X6382143Y37967705D02*
X6382143Y38767705D01*
X6382143Y38462943D02*
X6458333Y38501039D01*
X6458333Y38501039D02*
X6610714Y38501039D01*
X6610714Y38501039D02*
X6686905Y38462943D01*
X6686905Y38462943D02*
X6725000Y38424848D01*
X6725000Y38424848D02*
X6763095Y38348658D01*
X6763095Y38348658D02*
X6763095Y38120086D01*
X6763095Y38120086D02*
X6725000Y38043896D01*
X6725000Y38043896D02*
X6686905Y38005800D01*
X6686905Y38005800D02*
X6610714Y37967705D01*
X6610714Y37967705D02*
X6458333Y37967705D01*
X6458333Y37967705D02*
X6382143Y38005800D01*
X7105953Y37967705D02*
X7105953Y38501039D01*
X7105953Y38348658D02*
X7144048Y38424848D01*
X7144048Y38424848D02*
X7182143Y38462943D01*
X7182143Y38462943D02*
X7258334Y38501039D01*
X7258334Y38501039D02*
X7334524Y38501039D01*
X7944048Y37967705D02*
X7944048Y38386753D01*
X7944048Y38386753D02*
X7905953Y38462943D01*
X7905953Y38462943D02*
X7829762Y38501039D01*
X7829762Y38501039D02*
X7677381Y38501039D01*
X7677381Y38501039D02*
X7601191Y38462943D01*
X7944048Y38005800D02*
X7867857Y37967705D01*
X7867857Y37967705D02*
X7677381Y37967705D01*
X7677381Y37967705D02*
X7601191Y38005800D01*
X7601191Y38005800D02*
X7563095Y38081991D01*
X7563095Y38081991D02*
X7563095Y38158181D01*
X7563095Y38158181D02*
X7601191Y38234372D01*
X7601191Y38234372D02*
X7677381Y38272467D01*
X7677381Y38272467D02*
X7867857Y38272467D01*
X7867857Y38272467D02*
X7944048Y38310562D01*
X8325001Y37967705D02*
X8325001Y38767705D01*
X8401191Y38272467D02*
X8629763Y37967705D01*
X8629763Y38501039D02*
X8325001Y38196277D01*
X9277382Y38005800D02*
X9201191Y37967705D01*
X9201191Y37967705D02*
X9048810Y37967705D01*
X9048810Y37967705D02*
X8972620Y38005800D01*
X8972620Y38005800D02*
X8934524Y38081991D01*
X8934524Y38081991D02*
X8934524Y38386753D01*
X8934524Y38386753D02*
X8972620Y38462943D01*
X8972620Y38462943D02*
X9048810Y38501039D01*
X9048810Y38501039D02*
X9201191Y38501039D01*
X9201191Y38501039D02*
X9277382Y38462943D01*
X9277382Y38462943D02*
X9315477Y38386753D01*
X9315477Y38386753D02*
X9315477Y38310562D01*
X9315477Y38310562D02*
X8934524Y38234372D01*
X47866666Y3345181D02*
X47866666Y2630896D01*
X47866666Y2630896D02*
X47819047Y2488039D01*
X47819047Y2488039D02*
X47723809Y2392800D01*
X47723809Y2392800D02*
X47580952Y2345181D01*
X47580952Y2345181D02*
X47485714Y2345181D01*
X48485714Y2916610D02*
X48390476Y2964229D01*
X48390476Y2964229D02*
X48342857Y3011848D01*
X48342857Y3011848D02*
X48295238Y3107086D01*
X48295238Y3107086D02*
X48295238Y3154705D01*
X48295238Y3154705D02*
X48342857Y3249943D01*
X48342857Y3249943D02*
X48390476Y3297562D01*
X48390476Y3297562D02*
X48485714Y3345181D01*
X48485714Y3345181D02*
X48676190Y3345181D01*
X48676190Y3345181D02*
X48771428Y3297562D01*
X48771428Y3297562D02*
X48819047Y3249943D01*
X48819047Y3249943D02*
X48866666Y3154705D01*
X48866666Y3154705D02*
X48866666Y3107086D01*
X48866666Y3107086D02*
X48819047Y3011848D01*
X48819047Y3011848D02*
X48771428Y2964229D01*
X48771428Y2964229D02*
X48676190Y2916610D01*
X48676190Y2916610D02*
X48485714Y2916610D01*
X48485714Y2916610D02*
X48390476Y2868991D01*
X48390476Y2868991D02*
X48342857Y2821372D01*
X48342857Y2821372D02*
X48295238Y2726134D01*
X48295238Y2726134D02*
X48295238Y2535658D01*
X48295238Y2535658D02*
X48342857Y2440420D01*
X48342857Y2440420D02*
X48390476Y2392800D01*
X48390476Y2392800D02*
X48485714Y2345181D01*
X48485714Y2345181D02*
X48676190Y2345181D01*
X48676190Y2345181D02*
X48771428Y2392800D01*
X48771428Y2392800D02*
X48819047Y2440420D01*
X48819047Y2440420D02*
X48866666Y2535658D01*
X48866666Y2535658D02*
X48866666Y2726134D01*
X48866666Y2726134D02*
X48819047Y2821372D01*
X48819047Y2821372D02*
X48771428Y2868991D01*
X48771428Y2868991D02*
X48676190Y2916610D01*
X65576190Y2945181D02*
X65242857Y3421372D01*
X65004762Y2945181D02*
X65004762Y3945181D01*
X65004762Y3945181D02*
X65385714Y3945181D01*
X65385714Y3945181D02*
X65480952Y3897562D01*
X65480952Y3897562D02*
X65528571Y3849943D01*
X65528571Y3849943D02*
X65576190Y3754705D01*
X65576190Y3754705D02*
X65576190Y3611848D01*
X65576190Y3611848D02*
X65528571Y3516610D01*
X65528571Y3516610D02*
X65480952Y3468991D01*
X65480952Y3468991D02*
X65385714Y3421372D01*
X65385714Y3421372D02*
X65004762Y3421372D01*
X66290476Y3945181D02*
X66290476Y3230896D01*
X66290476Y3230896D02*
X66242857Y3088039D01*
X66242857Y3088039D02*
X66147619Y2992800D01*
X66147619Y2992800D02*
X66004762Y2945181D01*
X66004762Y2945181D02*
X65909524Y2945181D01*
X67195238Y3611848D02*
X67195238Y2945181D01*
X66957143Y3992800D02*
X66719048Y3278515D01*
X66719048Y3278515D02*
X67338095Y3278515D01*
X68195238Y3945181D02*
X67719048Y3945181D01*
X67719048Y3945181D02*
X67671429Y3468991D01*
X67671429Y3468991D02*
X67719048Y3516610D01*
X67719048Y3516610D02*
X67814286Y3564229D01*
X67814286Y3564229D02*
X68052381Y3564229D01*
X68052381Y3564229D02*
X68147619Y3516610D01*
X68147619Y3516610D02*
X68195238Y3468991D01*
X68195238Y3468991D02*
X68242857Y3373753D01*
X68242857Y3373753D02*
X68242857Y3135658D01*
X68242857Y3135658D02*
X68195238Y3040420D01*
X68195238Y3040420D02*
X68147619Y2992800D01*
X68147619Y2992800D02*
X68052381Y2945181D01*
X68052381Y2945181D02*
X67814286Y2945181D01*
X67814286Y2945181D02*
X67719048Y2992800D01*
X67719048Y2992800D02*
X67671429Y3040420D01*
X43156667Y9937705D02*
X42890000Y10318658D01*
X42699524Y9937705D02*
X42699524Y10737705D01*
X42699524Y10737705D02*
X43004286Y10737705D01*
X43004286Y10737705D02*
X43080476Y10699610D01*
X43080476Y10699610D02*
X43118571Y10661515D01*
X43118571Y10661515D02*
X43156667Y10585324D01*
X43156667Y10585324D02*
X43156667Y10471039D01*
X43156667Y10471039D02*
X43118571Y10394848D01*
X43118571Y10394848D02*
X43080476Y10356753D01*
X43080476Y10356753D02*
X43004286Y10318658D01*
X43004286Y10318658D02*
X42699524Y10318658D01*
X43423333Y10737705D02*
X43918571Y10737705D01*
X43918571Y10737705D02*
X43651905Y10432943D01*
X43651905Y10432943D02*
X43766190Y10432943D01*
X43766190Y10432943D02*
X43842381Y10394848D01*
X43842381Y10394848D02*
X43880476Y10356753D01*
X43880476Y10356753D02*
X43918571Y10280562D01*
X43918571Y10280562D02*
X43918571Y10090086D01*
X43918571Y10090086D02*
X43880476Y10013896D01*
X43880476Y10013896D02*
X43842381Y9975800D01*
X43842381Y9975800D02*
X43766190Y9937705D01*
X43766190Y9937705D02*
X43537619Y9937705D01*
X43537619Y9937705D02*
X43461428Y9975800D01*
X43461428Y9975800D02*
X43423333Y10013896D01*
X30546667Y7347705D02*
X30280000Y7728658D01*
X30089524Y7347705D02*
X30089524Y8147705D01*
X30089524Y8147705D02*
X30394286Y8147705D01*
X30394286Y8147705D02*
X30470476Y8109610D01*
X30470476Y8109610D02*
X30508571Y8071515D01*
X30508571Y8071515D02*
X30546667Y7995324D01*
X30546667Y7995324D02*
X30546667Y7881039D01*
X30546667Y7881039D02*
X30508571Y7804848D01*
X30508571Y7804848D02*
X30470476Y7766753D01*
X30470476Y7766753D02*
X30394286Y7728658D01*
X30394286Y7728658D02*
X30089524Y7728658D01*
X31308571Y7347705D02*
X30851428Y7347705D01*
X31080000Y7347705D02*
X31080000Y8147705D01*
X31080000Y8147705D02*
X31003809Y8033420D01*
X31003809Y8033420D02*
X30927619Y7957229D01*
X30927619Y7957229D02*
X30851428Y7919134D01*
X25066666Y23345181D02*
X25066666Y22630896D01*
X25066666Y22630896D02*
X25019047Y22488039D01*
X25019047Y22488039D02*
X24923809Y22392800D01*
X24923809Y22392800D02*
X24780952Y22345181D01*
X24780952Y22345181D02*
X24685714Y22345181D01*
X25971428Y23011848D02*
X25971428Y22345181D01*
X25733333Y23392800D02*
X25495238Y22678515D01*
X25495238Y22678515D02*
X26114285Y22678515D01*
X28134523Y31386753D02*
X28401189Y31386753D01*
X28515475Y30967705D02*
X28134523Y30967705D01*
X28134523Y30967705D02*
X28134523Y31767705D01*
X28134523Y31767705D02*
X28515475Y31767705D01*
X28858333Y31501039D02*
X28858333Y30967705D01*
X28858333Y31424848D02*
X28896428Y31462943D01*
X28896428Y31462943D02*
X28972618Y31501039D01*
X28972618Y31501039D02*
X29086904Y31501039D01*
X29086904Y31501039D02*
X29163095Y31462943D01*
X29163095Y31462943D02*
X29201190Y31386753D01*
X29201190Y31386753D02*
X29201190Y30967705D01*
X29925000Y31005800D02*
X29848809Y30967705D01*
X29848809Y30967705D02*
X29696428Y30967705D01*
X29696428Y30967705D02*
X29620238Y31005800D01*
X29620238Y31005800D02*
X29582143Y31043896D01*
X29582143Y31043896D02*
X29544047Y31120086D01*
X29544047Y31120086D02*
X29544047Y31348658D01*
X29544047Y31348658D02*
X29582143Y31424848D01*
X29582143Y31424848D02*
X29620238Y31462943D01*
X29620238Y31462943D02*
X29696428Y31501039D01*
X29696428Y31501039D02*
X29848809Y31501039D01*
X29848809Y31501039D02*
X29925000Y31462943D01*
X30382142Y30967705D02*
X30305952Y31005800D01*
X30305952Y31005800D02*
X30267857Y31043896D01*
X30267857Y31043896D02*
X30229761Y31120086D01*
X30229761Y31120086D02*
X30229761Y31348658D01*
X30229761Y31348658D02*
X30267857Y31424848D01*
X30267857Y31424848D02*
X30305952Y31462943D01*
X30305952Y31462943D02*
X30382142Y31501039D01*
X30382142Y31501039D02*
X30496428Y31501039D01*
X30496428Y31501039D02*
X30572619Y31462943D01*
X30572619Y31462943D02*
X30610714Y31424848D01*
X30610714Y31424848D02*
X30648809Y31348658D01*
X30648809Y31348658D02*
X30648809Y31120086D01*
X30648809Y31120086D02*
X30610714Y31043896D01*
X30610714Y31043896D02*
X30572619Y31005800D01*
X30572619Y31005800D02*
X30496428Y30967705D01*
X30496428Y30967705D02*
X30382142Y30967705D01*
X31334524Y30967705D02*
X31334524Y31767705D01*
X31334524Y31005800D02*
X31258333Y30967705D01*
X31258333Y30967705D02*
X31105952Y30967705D01*
X31105952Y30967705D02*
X31029762Y31005800D01*
X31029762Y31005800D02*
X30991667Y31043896D01*
X30991667Y31043896D02*
X30953571Y31120086D01*
X30953571Y31120086D02*
X30953571Y31348658D01*
X30953571Y31348658D02*
X30991667Y31424848D01*
X30991667Y31424848D02*
X31029762Y31462943D01*
X31029762Y31462943D02*
X31105952Y31501039D01*
X31105952Y31501039D02*
X31258333Y31501039D01*
X31258333Y31501039D02*
X31334524Y31462943D01*
X32020239Y31005800D02*
X31944048Y30967705D01*
X31944048Y30967705D02*
X31791667Y30967705D01*
X31791667Y30967705D02*
X31715477Y31005800D01*
X31715477Y31005800D02*
X31677381Y31081991D01*
X31677381Y31081991D02*
X31677381Y31386753D01*
X31677381Y31386753D02*
X31715477Y31462943D01*
X31715477Y31462943D02*
X31791667Y31501039D01*
X31791667Y31501039D02*
X31944048Y31501039D01*
X31944048Y31501039D02*
X32020239Y31462943D01*
X32020239Y31462943D02*
X32058334Y31386753D01*
X32058334Y31386753D02*
X32058334Y31310562D01*
X32058334Y31310562D02*
X31677381Y31234372D01*
X32401191Y30967705D02*
X32401191Y31501039D01*
X32401191Y31348658D02*
X32439286Y31424848D01*
X32439286Y31424848D02*
X32477381Y31462943D01*
X32477381Y31462943D02*
X32553572Y31501039D01*
X32553572Y31501039D02*
X32629762Y31501039D01*
X38166666Y25145181D02*
X38166666Y24430896D01*
X38166666Y24430896D02*
X38119047Y24288039D01*
X38119047Y24288039D02*
X38023809Y24192800D01*
X38023809Y24192800D02*
X37880952Y24145181D01*
X37880952Y24145181D02*
X37785714Y24145181D01*
X39071428Y25145181D02*
X38880952Y25145181D01*
X38880952Y25145181D02*
X38785714Y25097562D01*
X38785714Y25097562D02*
X38738095Y25049943D01*
X38738095Y25049943D02*
X38642857Y24907086D01*
X38642857Y24907086D02*
X38595238Y24716610D01*
X38595238Y24716610D02*
X38595238Y24335658D01*
X38595238Y24335658D02*
X38642857Y24240420D01*
X38642857Y24240420D02*
X38690476Y24192800D01*
X38690476Y24192800D02*
X38785714Y24145181D01*
X38785714Y24145181D02*
X38976190Y24145181D01*
X38976190Y24145181D02*
X39071428Y24192800D01*
X39071428Y24192800D02*
X39119047Y24240420D01*
X39119047Y24240420D02*
X39166666Y24335658D01*
X39166666Y24335658D02*
X39166666Y24573753D01*
X39166666Y24573753D02*
X39119047Y24668991D01*
X39119047Y24668991D02*
X39071428Y24716610D01*
X39071428Y24716610D02*
X38976190Y24764229D01*
X38976190Y24764229D02*
X38785714Y24764229D01*
X38785714Y24764229D02*
X38690476Y24716610D01*
X38690476Y24716610D02*
X38642857Y24668991D01*
X38642857Y24668991D02*
X38595238Y24573753D01*
X38383809Y33637705D02*
X38383809Y34437705D01*
X38383809Y34437705D02*
X38688571Y34437705D01*
X38688571Y34437705D02*
X38764761Y34399610D01*
X38764761Y34399610D02*
X38802856Y34361515D01*
X38802856Y34361515D02*
X38840952Y34285324D01*
X38840952Y34285324D02*
X38840952Y34171039D01*
X38840952Y34171039D02*
X38802856Y34094848D01*
X38802856Y34094848D02*
X38764761Y34056753D01*
X38764761Y34056753D02*
X38688571Y34018658D01*
X38688571Y34018658D02*
X38383809Y34018658D01*
X39640952Y33713896D02*
X39602856Y33675800D01*
X39602856Y33675800D02*
X39488571Y33637705D01*
X39488571Y33637705D02*
X39412380Y33637705D01*
X39412380Y33637705D02*
X39298094Y33675800D01*
X39298094Y33675800D02*
X39221904Y33751991D01*
X39221904Y33751991D02*
X39183809Y33828181D01*
X39183809Y33828181D02*
X39145713Y33980562D01*
X39145713Y33980562D02*
X39145713Y34094848D01*
X39145713Y34094848D02*
X39183809Y34247229D01*
X39183809Y34247229D02*
X39221904Y34323420D01*
X39221904Y34323420D02*
X39298094Y34399610D01*
X39298094Y34399610D02*
X39412380Y34437705D01*
X39412380Y34437705D02*
X39488571Y34437705D01*
X39488571Y34437705D02*
X39602856Y34399610D01*
X39602856Y34399610D02*
X39640952Y34361515D01*
X40250475Y34056753D02*
X39983809Y34056753D01*
X39983809Y33637705D02*
X39983809Y34437705D01*
X39983809Y34437705D02*
X40364761Y34437705D01*
X40783808Y34094848D02*
X40707618Y34132943D01*
X40707618Y34132943D02*
X40669523Y34171039D01*
X40669523Y34171039D02*
X40631427Y34247229D01*
X40631427Y34247229D02*
X40631427Y34285324D01*
X40631427Y34285324D02*
X40669523Y34361515D01*
X40669523Y34361515D02*
X40707618Y34399610D01*
X40707618Y34399610D02*
X40783808Y34437705D01*
X40783808Y34437705D02*
X40936189Y34437705D01*
X40936189Y34437705D02*
X41012380Y34399610D01*
X41012380Y34399610D02*
X41050475Y34361515D01*
X41050475Y34361515D02*
X41088570Y34285324D01*
X41088570Y34285324D02*
X41088570Y34247229D01*
X41088570Y34247229D02*
X41050475Y34171039D01*
X41050475Y34171039D02*
X41012380Y34132943D01*
X41012380Y34132943D02*
X40936189Y34094848D01*
X40936189Y34094848D02*
X40783808Y34094848D01*
X40783808Y34094848D02*
X40707618Y34056753D01*
X40707618Y34056753D02*
X40669523Y34018658D01*
X40669523Y34018658D02*
X40631427Y33942467D01*
X40631427Y33942467D02*
X40631427Y33790086D01*
X40631427Y33790086D02*
X40669523Y33713896D01*
X40669523Y33713896D02*
X40707618Y33675800D01*
X40707618Y33675800D02*
X40783808Y33637705D01*
X40783808Y33637705D02*
X40936189Y33637705D01*
X40936189Y33637705D02*
X41012380Y33675800D01*
X41012380Y33675800D02*
X41050475Y33713896D01*
X41050475Y33713896D02*
X41088570Y33790086D01*
X41088570Y33790086D02*
X41088570Y33942467D01*
X41088570Y33942467D02*
X41050475Y34018658D01*
X41050475Y34018658D02*
X41012380Y34056753D01*
X41012380Y34056753D02*
X40936189Y34094848D01*
X41812380Y34437705D02*
X41431428Y34437705D01*
X41431428Y34437705D02*
X41393332Y34056753D01*
X41393332Y34056753D02*
X41431428Y34094848D01*
X41431428Y34094848D02*
X41507618Y34132943D01*
X41507618Y34132943D02*
X41698094Y34132943D01*
X41698094Y34132943D02*
X41774285Y34094848D01*
X41774285Y34094848D02*
X41812380Y34056753D01*
X41812380Y34056753D02*
X41850475Y33980562D01*
X41850475Y33980562D02*
X41850475Y33790086D01*
X41850475Y33790086D02*
X41812380Y33713896D01*
X41812380Y33713896D02*
X41774285Y33675800D01*
X41774285Y33675800D02*
X41698094Y33637705D01*
X41698094Y33637705D02*
X41507618Y33637705D01*
X41507618Y33637705D02*
X41431428Y33675800D01*
X41431428Y33675800D02*
X41393332Y33713896D01*
X42117142Y34437705D02*
X42650476Y34437705D01*
X42650476Y34437705D02*
X42307618Y33637705D01*
X43298095Y34171039D02*
X43298095Y33637705D01*
X43107619Y34475800D02*
X42917142Y33904372D01*
X42917142Y33904372D02*
X43412381Y33904372D01*
X44326667Y33637705D02*
X44326667Y34437705D01*
X44669523Y34628181D02*
X44745714Y34666277D01*
X44745714Y34666277D02*
X44860000Y34666277D01*
X44860000Y34666277D02*
X44936190Y34628181D01*
X44936190Y34628181D02*
X44974285Y34551991D01*
X44974285Y34551991D02*
X44974285Y34475800D01*
X44974285Y34475800D02*
X44936190Y34399610D01*
X44936190Y34399610D02*
X44669523Y34132943D01*
X44669523Y34132943D02*
X44974285Y34132943D01*
X45774286Y33713896D02*
X45736190Y33675800D01*
X45736190Y33675800D02*
X45621905Y33637705D01*
X45621905Y33637705D02*
X45545714Y33637705D01*
X45545714Y33637705D02*
X45431428Y33675800D01*
X45431428Y33675800D02*
X45355238Y33751991D01*
X45355238Y33751991D02*
X45317143Y33828181D01*
X45317143Y33828181D02*
X45279047Y33980562D01*
X45279047Y33980562D02*
X45279047Y34094848D01*
X45279047Y34094848D02*
X45317143Y34247229D01*
X45317143Y34247229D02*
X45355238Y34323420D01*
X45355238Y34323420D02*
X45431428Y34399610D01*
X45431428Y34399610D02*
X45545714Y34437705D01*
X45545714Y34437705D02*
X45621905Y34437705D01*
X45621905Y34437705D02*
X45736190Y34399610D01*
X45736190Y34399610D02*
X45774286Y34361515D01*
X12816666Y23345181D02*
X12816666Y22630896D01*
X12816666Y22630896D02*
X12769047Y22488039D01*
X12769047Y22488039D02*
X12673809Y22392800D01*
X12673809Y22392800D02*
X12530952Y22345181D01*
X12530952Y22345181D02*
X12435714Y22345181D01*
X13197619Y23345181D02*
X13816666Y23345181D01*
X13816666Y23345181D02*
X13483333Y22964229D01*
X13483333Y22964229D02*
X13626190Y22964229D01*
X13626190Y22964229D02*
X13721428Y22916610D01*
X13721428Y22916610D02*
X13769047Y22868991D01*
X13769047Y22868991D02*
X13816666Y22773753D01*
X13816666Y22773753D02*
X13816666Y22535658D01*
X13816666Y22535658D02*
X13769047Y22440420D01*
X13769047Y22440420D02*
X13721428Y22392800D01*
X13721428Y22392800D02*
X13626190Y22345181D01*
X13626190Y22345181D02*
X13340476Y22345181D01*
X13340476Y22345181D02*
X13245238Y22392800D01*
X13245238Y22392800D02*
X13197619Y22440420D01*
X16313095Y31767705D02*
X16313095Y31196277D01*
X16313095Y31196277D02*
X16275000Y31081991D01*
X16275000Y31081991D02*
X16198809Y31005800D01*
X16198809Y31005800D02*
X16084524Y30967705D01*
X16084524Y30967705D02*
X16008333Y30967705D01*
X16808333Y30967705D02*
X16732143Y31005800D01*
X16732143Y31005800D02*
X16694048Y31043896D01*
X16694048Y31043896D02*
X16655952Y31120086D01*
X16655952Y31120086D02*
X16655952Y31348658D01*
X16655952Y31348658D02*
X16694048Y31424848D01*
X16694048Y31424848D02*
X16732143Y31462943D01*
X16732143Y31462943D02*
X16808333Y31501039D01*
X16808333Y31501039D02*
X16922619Y31501039D01*
X16922619Y31501039D02*
X16998810Y31462943D01*
X16998810Y31462943D02*
X17036905Y31424848D01*
X17036905Y31424848D02*
X17075000Y31348658D01*
X17075000Y31348658D02*
X17075000Y31120086D01*
X17075000Y31120086D02*
X17036905Y31043896D01*
X17036905Y31043896D02*
X16998810Y31005800D01*
X16998810Y31005800D02*
X16922619Y30967705D01*
X16922619Y30967705D02*
X16808333Y30967705D01*
X17341667Y31501039D02*
X17532143Y30967705D01*
X17722620Y31501039D02*
X17532143Y30967705D01*
X17532143Y30967705D02*
X17455953Y30777229D01*
X17455953Y30777229D02*
X17417858Y30739134D01*
X17417858Y30739134D02*
X17341667Y30701039D01*
X17989286Y31005800D02*
X18065477Y30967705D01*
X18065477Y30967705D02*
X18217858Y30967705D01*
X18217858Y30967705D02*
X18294048Y31005800D01*
X18294048Y31005800D02*
X18332144Y31081991D01*
X18332144Y31081991D02*
X18332144Y31120086D01*
X18332144Y31120086D02*
X18294048Y31196277D01*
X18294048Y31196277D02*
X18217858Y31234372D01*
X18217858Y31234372D02*
X18103572Y31234372D01*
X18103572Y31234372D02*
X18027382Y31272467D01*
X18027382Y31272467D02*
X17989286Y31348658D01*
X17989286Y31348658D02*
X17989286Y31386753D01*
X17989286Y31386753D02*
X18027382Y31462943D01*
X18027382Y31462943D02*
X18103572Y31501039D01*
X18103572Y31501039D02*
X18217858Y31501039D01*
X18217858Y31501039D02*
X18294048Y31462943D01*
X18560715Y31501039D02*
X18865477Y31501039D01*
X18675001Y31767705D02*
X18675001Y31081991D01*
X18675001Y31081991D02*
X18713096Y31005800D01*
X18713096Y31005800D02*
X18789286Y30967705D01*
X18789286Y30967705D02*
X18865477Y30967705D01*
X19132144Y30967705D02*
X19132144Y31501039D01*
X19132144Y31767705D02*
X19094048Y31729610D01*
X19094048Y31729610D02*
X19132144Y31691515D01*
X19132144Y31691515D02*
X19170239Y31729610D01*
X19170239Y31729610D02*
X19132144Y31767705D01*
X19132144Y31767705D02*
X19132144Y31691515D01*
X19855953Y31005800D02*
X19779762Y30967705D01*
X19779762Y30967705D02*
X19627381Y30967705D01*
X19627381Y30967705D02*
X19551191Y31005800D01*
X19551191Y31005800D02*
X19513096Y31043896D01*
X19513096Y31043896D02*
X19475000Y31120086D01*
X19475000Y31120086D02*
X19475000Y31348658D01*
X19475000Y31348658D02*
X19513096Y31424848D01*
X19513096Y31424848D02*
X19551191Y31462943D01*
X19551191Y31462943D02*
X19627381Y31501039D01*
X19627381Y31501039D02*
X19779762Y31501039D01*
X19779762Y31501039D02*
X19855953Y31462943D01*
X20198810Y30967705D02*
X20198810Y31767705D01*
X20275000Y31272467D02*
X20503572Y30967705D01*
X20503572Y31501039D02*
X20198810Y31196277D01*
X36866667Y7347705D02*
X36600000Y7728658D01*
X36409524Y7347705D02*
X36409524Y8147705D01*
X36409524Y8147705D02*
X36714286Y8147705D01*
X36714286Y8147705D02*
X36790476Y8109610D01*
X36790476Y8109610D02*
X36828571Y8071515D01*
X36828571Y8071515D02*
X36866667Y7995324D01*
X36866667Y7995324D02*
X36866667Y7881039D01*
X36866667Y7881039D02*
X36828571Y7804848D01*
X36828571Y7804848D02*
X36790476Y7766753D01*
X36790476Y7766753D02*
X36714286Y7728658D01*
X36714286Y7728658D02*
X36409524Y7728658D01*
X37171428Y8071515D02*
X37209524Y8109610D01*
X37209524Y8109610D02*
X37285714Y8147705D01*
X37285714Y8147705D02*
X37476190Y8147705D01*
X37476190Y8147705D02*
X37552381Y8109610D01*
X37552381Y8109610D02*
X37590476Y8071515D01*
X37590476Y8071515D02*
X37628571Y7995324D01*
X37628571Y7995324D02*
X37628571Y7919134D01*
X37628571Y7919134D02*
X37590476Y7804848D01*
X37590476Y7804848D02*
X37133333Y7347705D01*
X37133333Y7347705D02*
X37628571Y7347705D01*
X47666666Y22545181D02*
X47666666Y21830896D01*
X47666666Y21830896D02*
X47619047Y21688039D01*
X47619047Y21688039D02*
X47523809Y21592800D01*
X47523809Y21592800D02*
X47380952Y21545181D01*
X47380952Y21545181D02*
X47285714Y21545181D01*
X48047619Y22545181D02*
X48714285Y22545181D01*
X48714285Y22545181D02*
X48285714Y21545181D01*
X65576190Y22145181D02*
X65242857Y22621372D01*
X65004762Y22145181D02*
X65004762Y23145181D01*
X65004762Y23145181D02*
X65385714Y23145181D01*
X65385714Y23145181D02*
X65480952Y23097562D01*
X65480952Y23097562D02*
X65528571Y23049943D01*
X65528571Y23049943D02*
X65576190Y22954705D01*
X65576190Y22954705D02*
X65576190Y22811848D01*
X65576190Y22811848D02*
X65528571Y22716610D01*
X65528571Y22716610D02*
X65480952Y22668991D01*
X65480952Y22668991D02*
X65385714Y22621372D01*
X65385714Y22621372D02*
X65004762Y22621372D01*
X66290476Y23145181D02*
X66290476Y22430896D01*
X66290476Y22430896D02*
X66242857Y22288039D01*
X66242857Y22288039D02*
X66147619Y22192800D01*
X66147619Y22192800D02*
X66004762Y22145181D01*
X66004762Y22145181D02*
X65909524Y22145181D01*
X67195238Y22811848D02*
X67195238Y22145181D01*
X66957143Y23192800D02*
X66719048Y22478515D01*
X66719048Y22478515D02*
X67338095Y22478515D01*
X68195238Y23145181D02*
X67719048Y23145181D01*
X67719048Y23145181D02*
X67671429Y22668991D01*
X67671429Y22668991D02*
X67719048Y22716610D01*
X67719048Y22716610D02*
X67814286Y22764229D01*
X67814286Y22764229D02*
X68052381Y22764229D01*
X68052381Y22764229D02*
X68147619Y22716610D01*
X68147619Y22716610D02*
X68195238Y22668991D01*
X68195238Y22668991D02*
X68242857Y22573753D01*
X68242857Y22573753D02*
X68242857Y22335658D01*
X68242857Y22335658D02*
X68195238Y22240420D01*
X68195238Y22240420D02*
X68147619Y22192800D01*
X68147619Y22192800D02*
X68052381Y22145181D01*
X68052381Y22145181D02*
X67814286Y22145181D01*
X67814286Y22145181D02*
X67719048Y22192800D01*
X67719048Y22192800D02*
X67671429Y22240420D01*
X666666Y23345181D02*
X666666Y22630896D01*
X666666Y22630896D02*
X619047Y22488039D01*
X619047Y22488039D02*
X523809Y22392800D01*
X523809Y22392800D02*
X380952Y22345181D01*
X380952Y22345181D02*
X285714Y22345181D01*
X1095238Y23249943D02*
X1142857Y23297562D01*
X1142857Y23297562D02*
X1238095Y23345181D01*
X1238095Y23345181D02*
X1476190Y23345181D01*
X1476190Y23345181D02*
X1571428Y23297562D01*
X1571428Y23297562D02*
X1619047Y23249943D01*
X1619047Y23249943D02*
X1666666Y23154705D01*
X1666666Y23154705D02*
X1666666Y23059467D01*
X1666666Y23059467D02*
X1619047Y22916610D01*
X1619047Y22916610D02*
X1047619Y22345181D01*
X1047619Y22345181D02*
X1666666Y22345181D01*
X4515476Y30967705D02*
X4515476Y31767705D01*
X4515476Y31767705D02*
X4820238Y31767705D01*
X4820238Y31767705D02*
X4896428Y31729610D01*
X4896428Y31729610D02*
X4934523Y31691515D01*
X4934523Y31691515D02*
X4972619Y31615324D01*
X4972619Y31615324D02*
X4972619Y31501039D01*
X4972619Y31501039D02*
X4934523Y31424848D01*
X4934523Y31424848D02*
X4896428Y31386753D01*
X4896428Y31386753D02*
X4820238Y31348658D01*
X4820238Y31348658D02*
X4515476Y31348658D01*
X5620238Y31005800D02*
X5544047Y30967705D01*
X5544047Y30967705D02*
X5391666Y30967705D01*
X5391666Y30967705D02*
X5315476Y31005800D01*
X5315476Y31005800D02*
X5277380Y31081991D01*
X5277380Y31081991D02*
X5277380Y31386753D01*
X5277380Y31386753D02*
X5315476Y31462943D01*
X5315476Y31462943D02*
X5391666Y31501039D01*
X5391666Y31501039D02*
X5544047Y31501039D01*
X5544047Y31501039D02*
X5620238Y31462943D01*
X5620238Y31462943D02*
X5658333Y31386753D01*
X5658333Y31386753D02*
X5658333Y31310562D01*
X5658333Y31310562D02*
X5277380Y31234372D01*
X6344047Y30967705D02*
X6344047Y31767705D01*
X6344047Y31005800D02*
X6267856Y30967705D01*
X6267856Y30967705D02*
X6115475Y30967705D01*
X6115475Y30967705D02*
X6039285Y31005800D01*
X6039285Y31005800D02*
X6001190Y31043896D01*
X6001190Y31043896D02*
X5963094Y31120086D01*
X5963094Y31120086D02*
X5963094Y31348658D01*
X5963094Y31348658D02*
X6001190Y31424848D01*
X6001190Y31424848D02*
X6039285Y31462943D01*
X6039285Y31462943D02*
X6115475Y31501039D01*
X6115475Y31501039D02*
X6267856Y31501039D01*
X6267856Y31501039D02*
X6344047Y31462943D01*
X7067857Y30967705D02*
X7067857Y31386753D01*
X7067857Y31386753D02*
X7029762Y31462943D01*
X7029762Y31462943D02*
X6953571Y31501039D01*
X6953571Y31501039D02*
X6801190Y31501039D01*
X6801190Y31501039D02*
X6725000Y31462943D01*
X7067857Y31005800D02*
X6991666Y30967705D01*
X6991666Y30967705D02*
X6801190Y30967705D01*
X6801190Y30967705D02*
X6725000Y31005800D01*
X6725000Y31005800D02*
X6686904Y31081991D01*
X6686904Y31081991D02*
X6686904Y31158181D01*
X6686904Y31158181D02*
X6725000Y31234372D01*
X6725000Y31234372D02*
X6801190Y31272467D01*
X6801190Y31272467D02*
X6991666Y31272467D01*
X6991666Y31272467D02*
X7067857Y31310562D01*
X7563095Y30967705D02*
X7486905Y31005800D01*
X7486905Y31005800D02*
X7448810Y31081991D01*
X7448810Y31081991D02*
X7448810Y31767705D01*
X7829762Y31005800D02*
X7905953Y30967705D01*
X7905953Y30967705D02*
X8058334Y30967705D01*
X8058334Y30967705D02*
X8134524Y31005800D01*
X8134524Y31005800D02*
X8172620Y31081991D01*
X8172620Y31081991D02*
X8172620Y31120086D01*
X8172620Y31120086D02*
X8134524Y31196277D01*
X8134524Y31196277D02*
X8058334Y31234372D01*
X8058334Y31234372D02*
X7944048Y31234372D01*
X7944048Y31234372D02*
X7867858Y31272467D01*
X7867858Y31272467D02*
X7829762Y31348658D01*
X7829762Y31348658D02*
X7829762Y31386753D01*
X7829762Y31386753D02*
X7867858Y31462943D01*
X7867858Y31462943D02*
X7944048Y31501039D01*
X7944048Y31501039D02*
X8058334Y31501039D01*
X8058334Y31501039D02*
X8134524Y31462943D01*
D12*
%TO.C,J1.2*%
X1250000Y20220000D02*
X4460000Y20220000D01*
X1250000Y17560000D02*
X1250000Y20220000D01*
X1250000Y17560000D02*
X1920000Y17560000D01*
X1920000Y16350000D02*
X1920000Y17560000D01*
X3440000Y17560000D02*
X7000000Y17560000D01*
X5980000Y20220000D02*
X9540000Y20220000D01*
X8520000Y17560000D02*
X12080000Y17560000D01*
X11060000Y20220000D02*
X14620000Y20220000D01*
X13600000Y17560000D02*
X17160000Y17560000D01*
X16140000Y20220000D02*
X19700000Y20220000D01*
X18680000Y17560000D02*
X22240000Y17560000D01*
X21220000Y20220000D02*
X24780000Y20220000D01*
X23760000Y17560000D02*
X27320000Y17560000D01*
X26300000Y20220000D02*
X29860000Y20220000D01*
X28840000Y17560000D02*
X32400000Y17560000D01*
X31380000Y20220000D02*
X34940000Y20220000D01*
X33920000Y17560000D02*
X37480000Y17560000D01*
X36460000Y20220000D02*
X40020000Y20220000D01*
X39000000Y17560000D02*
X42560000Y17560000D01*
X41540000Y20220000D02*
X44750000Y20220000D01*
X44080000Y17560000D02*
X44750000Y17560000D01*
X44750000Y17560000D02*
X44750000Y20220000D01*
%TO.C,J1.1*%
X1250000Y4980000D02*
X4460000Y4980000D01*
X1250000Y2320000D02*
X1250000Y4980000D01*
X1250000Y2320000D02*
X1920000Y2320000D01*
X1920000Y1110000D02*
X1920000Y2320000D01*
X3440000Y2320000D02*
X7000000Y2320000D01*
X5980000Y4980000D02*
X9540000Y4980000D01*
X8520000Y2320000D02*
X12080000Y2320000D01*
X11060000Y4980000D02*
X14620000Y4980000D01*
X13600000Y2320000D02*
X17160000Y2320000D01*
X16140000Y4980000D02*
X19700000Y4980000D01*
X18680000Y2320000D02*
X22240000Y2320000D01*
X21220000Y4980000D02*
X24780000Y4980000D01*
X23760000Y2320000D02*
X27320000Y2320000D01*
X26300000Y4980000D02*
X29860000Y4980000D01*
X28840000Y2320000D02*
X32400000Y2320000D01*
X31380000Y4980000D02*
X34940000Y4980000D01*
X33920000Y2320000D02*
X37480000Y2320000D01*
X36460000Y4980000D02*
X40020000Y4980000D01*
X39000000Y2320000D02*
X42560000Y2320000D01*
X41540000Y4980000D02*
X44750000Y4980000D01*
X44080000Y2320000D02*
X44750000Y2320000D01*
X44750000Y2320000D02*
X44750000Y4980000D01*
%TO.C,R4*%
X44836359Y11780000D02*
X45143641Y11780000D01*
X44836359Y11020000D02*
X45143641Y11020000D01*
%TO.C,J5*%
X3725000Y36760000D02*
X3725000Y37330000D01*
X3725000Y34220000D02*
X3725000Y35240000D01*
X3725000Y32130000D02*
X3725000Y32700000D01*
X8925000Y37330000D02*
X3725000Y37330000D01*
X8925000Y36760000D02*
X8925000Y37330000D01*
X8925000Y34220000D02*
X8925000Y35240000D01*
X8925000Y32130000D02*
X3725000Y32130000D01*
X8925000Y32130000D02*
X8925000Y32700000D01*
X10365000Y32700000D02*
X8925000Y32700000D01*
%TO.C,J8*%
X49230000Y16860000D02*
X49230000Y14080000D01*
X49230000Y3935000D02*
X46970000Y3935000D01*
X49230000Y1140000D02*
X49230000Y3935000D01*
X49230000Y1140000D02*
X64790000Y1140000D01*
X64790000Y16860000D02*
X49230000Y16860000D01*
X64790000Y13640000D02*
X64790000Y16860000D01*
X64790000Y4360000D02*
X67890000Y4360000D01*
X64790000Y1140000D02*
X64790000Y4360000D01*
X67890000Y13640000D02*
X64790000Y13640000D01*
X67890000Y4360000D02*
X67890000Y13640000D01*
%TO.C,R3*%
X44836359Y10680000D02*
X45143641Y10680000D01*
X44836359Y9920000D02*
X45143641Y9920000D01*
%TO.C,R1*%
X32743641Y8090000D02*
X32436359Y8090000D01*
X32743641Y7330000D02*
X32436359Y7330000D01*
%TO.C,J4*%
X27725000Y29760000D02*
X27725000Y30330000D01*
X27725000Y27220000D02*
X27725000Y28240000D01*
X27725000Y24680000D02*
X27725000Y25700000D01*
X27725000Y22590000D02*
X27725000Y23160000D01*
X32925000Y30330000D02*
X27725000Y30330000D01*
X32925000Y29760000D02*
X32925000Y30330000D01*
X32925000Y27220000D02*
X32925000Y28240000D01*
X32925000Y24680000D02*
X32925000Y25700000D01*
X32925000Y22590000D02*
X27725000Y22590000D01*
X32925000Y22590000D02*
X32925000Y23160000D01*
X34365000Y23160000D02*
X32925000Y23160000D01*
%TO.C,J6*%
X39530000Y30575000D02*
X40100000Y30575000D01*
X39530000Y25375000D02*
X39530000Y30575000D01*
X39530000Y25375000D02*
X40100000Y25375000D01*
X40100000Y23935000D02*
X40100000Y25375000D01*
X41620000Y30575000D02*
X42640000Y30575000D01*
X41620000Y25375000D02*
X42640000Y25375000D01*
X44160000Y30575000D02*
X44730000Y30575000D01*
X44160000Y25375000D02*
X44730000Y25375000D01*
X44730000Y25375000D02*
X44730000Y30575000D01*
%TO.C,J3*%
X15675000Y29760000D02*
X15675000Y30330000D01*
X15675000Y27220000D02*
X15675000Y28240000D01*
X15675000Y24680000D02*
X15675000Y25700000D01*
X15675000Y22590000D02*
X15675000Y23160000D01*
X20875000Y30330000D02*
X15675000Y30330000D01*
X20875000Y29760000D02*
X20875000Y30330000D01*
X20875000Y27220000D02*
X20875000Y28240000D01*
X20875000Y24680000D02*
X20875000Y25700000D01*
X20875000Y22590000D02*
X15675000Y22590000D01*
X20875000Y22590000D02*
X20875000Y23160000D01*
X22315000Y23160000D02*
X20875000Y23160000D01*
%TO.C,R2*%
X35046359Y8090000D02*
X35353641Y8090000D01*
X35046359Y7330000D02*
X35353641Y7330000D01*
%TO.C,J7*%
X49230000Y36060000D02*
X49230000Y33280000D01*
X49230000Y23135000D02*
X46970000Y23135000D01*
X49230000Y20340000D02*
X49230000Y23135000D01*
X49230000Y20340000D02*
X64790000Y20340000D01*
X64790000Y36060000D02*
X49230000Y36060000D01*
X64790000Y32840000D02*
X64790000Y36060000D01*
X64790000Y23560000D02*
X67890000Y23560000D01*
X64790000Y20340000D02*
X64790000Y23560000D01*
X67890000Y32840000D02*
X64790000Y32840000D01*
X67890000Y23560000D02*
X67890000Y32840000D01*
%TO.C,J2*%
X3725000Y29760000D02*
X3725000Y30330000D01*
X3725000Y27220000D02*
X3725000Y28240000D01*
X3725000Y24680000D02*
X3725000Y25700000D01*
X3725000Y22590000D02*
X3725000Y23160000D01*
X8925000Y30330000D02*
X3725000Y30330000D01*
X8925000Y29760000D02*
X8925000Y30330000D01*
X8925000Y27220000D02*
X8925000Y28240000D01*
X8925000Y24680000D02*
X8925000Y25700000D01*
X8925000Y22590000D02*
X3725000Y22590000D01*
X8925000Y22590000D02*
X8925000Y23160000D01*
X10365000Y23160000D02*
X8925000Y23160000D01*
%TD*%
M02*
