%TF.GenerationSoftware,KiCad,Pcbnew,8.0.7*%
%TF.CreationDate,2024-12-21T11:05:05+01:00*%
%TF.ProjectId,circuit,63697263-7569-4742-9e6b-696361645f70,rev?*%
%TF.SameCoordinates,PX5f5e100PY5f5e100*%
%TF.FileFunction,Copper,L2,Bot*%
%TF.FilePolarity,Positive*%
%FSLAX46Y46*%
G04 Gerber Fmt 4.6, Leading zero omitted, Abs format (unit mm)*
G04 Created by KiCad (PCBNEW 8.0.7) date 2024-12-21 11:05:05*
%MOMM*%
%LPD*%
G01*
G04 APERTURE LIST*
%TA.AperFunction,ViaPad*%
%ADD10C,0.600000*%
%TD*%
%TA.AperFunction,Conductor*%
%ADD11C,0.600000*%
%TD*%
G04 APERTURE END LIST*
D10*
%TO.N,GND*%
X16600000Y25600000D03*
X49470000Y5825000D03*
X41000000Y26200000D03*
X55200000Y5800000D03*
X16600000Y33200000D03*
X22200000Y25600000D03*
X43400000Y19800000D03*
%TO.N,+5V*%
X11330000Y31500000D03*
X11330000Y45500000D03*
X30620000Y20540000D03*
X49470000Y27565000D03*
X49470000Y8365000D03*
X11330000Y38490000D03*
X4790000Y24810000D03*
X11290000Y24010000D03*
X38260000Y27110000D03*
%TD*%
D11*
%TO.N,GND*%
X16600000Y25600000D02*
X16600000Y33200000D01*
X43400000Y23800000D02*
X41000000Y26200000D01*
X16600000Y25600000D02*
X22200000Y25600000D01*
X55175000Y5825000D02*
X55200000Y5800000D01*
X49470000Y5825000D02*
X55175000Y5825000D01*
X43400000Y19800000D02*
X43400000Y23800000D01*
%TD*%
%TA.AperFunction,Conductor*%
%TO.N,+5V*%
G36*
X68143039Y52980315D02*
G01*
X68188794Y52927511D01*
X68200000Y52876000D01*
X68200000Y524000D01*
X68180315Y456961D01*
X68127511Y411206D01*
X68076000Y400000D01*
X524000Y400000D01*
X456961Y419685D01*
X411206Y472489D01*
X400000Y524000D01*
X400000Y5825003D01*
X48656384Y5825003D01*
X48656384Y5824999D01*
X48660720Y5786519D01*
X48661500Y5772634D01*
X48661500Y5745369D01*
X48669375Y5705779D01*
X48670978Y5695470D01*
X48676781Y5643957D01*
X48685237Y5619792D01*
X48689812Y5603032D01*
X48692568Y5589174D01*
X48692570Y5589169D01*
X48713030Y5539775D01*
X48715505Y5533289D01*
X48723102Y5511580D01*
X48736956Y5471986D01*
X48743578Y5461447D01*
X48753144Y5442931D01*
X48753515Y5442036D01*
X48753517Y5442032D01*
X48790474Y5386721D01*
X48792364Y5383804D01*
X48833888Y5317721D01*
X48833891Y5317717D01*
X48962722Y5188886D01*
X49002506Y5163889D01*
X49028812Y5147360D01*
X49031663Y5145512D01*
X49087032Y5108517D01*
X49087922Y5108149D01*
X49106447Y5098579D01*
X49116985Y5091957D01*
X49169516Y5073576D01*
X49178276Y5070511D01*
X49184761Y5068036D01*
X49234169Y5047570D01*
X49248024Y5044815D01*
X49264793Y5040238D01*
X49288953Y5031783D01*
X49340486Y5025978D01*
X49350773Y5024377D01*
X49368693Y5020812D01*
X49390367Y5016500D01*
X49390370Y5016500D01*
X49417632Y5016500D01*
X49431516Y5015720D01*
X49469998Y5011384D01*
X49470000Y5011384D01*
X49470002Y5011384D01*
X49508484Y5015720D01*
X49522368Y5016500D01*
X54970114Y5016500D01*
X55011068Y5009542D01*
X55018953Y5006783D01*
X55070489Y5000977D01*
X55080771Y4999377D01*
X55103161Y4994924D01*
X55120369Y4991500D01*
X55120370Y4991500D01*
X55147632Y4991500D01*
X55161516Y4990720D01*
X55199998Y4986384D01*
X55200000Y4986384D01*
X55200002Y4986384D01*
X55238484Y4990720D01*
X55252368Y4991500D01*
X55279631Y4991500D01*
X55295280Y4994614D01*
X55319228Y4999378D01*
X55329515Y5000978D01*
X55381047Y5006783D01*
X55405219Y5015242D01*
X55421971Y5019815D01*
X55435830Y5022571D01*
X55485237Y5043037D01*
X55491669Y5045492D01*
X55553015Y5066957D01*
X55563561Y5073585D01*
X55582083Y5083151D01*
X55582968Y5083517D01*
X55638350Y5120523D01*
X55641197Y5122366D01*
X55707278Y5163887D01*
X55707278Y5163888D01*
X55707281Y5163889D01*
X55836111Y5292719D01*
X55877641Y5358815D01*
X55879477Y5361650D01*
X55916483Y5417032D01*
X55916849Y5417917D01*
X55926415Y5436439D01*
X55933043Y5446985D01*
X55954508Y5508331D01*
X55956963Y5514763D01*
X55977429Y5564170D01*
X55980185Y5578029D01*
X55984758Y5594781D01*
X55993217Y5618953D01*
X55999022Y5670485D01*
X56000624Y5680779D01*
X56008500Y5720370D01*
X56008500Y5747634D01*
X56009280Y5761519D01*
X56010533Y5772634D01*
X56013616Y5800000D01*
X56009280Y5838484D01*
X56008500Y5852368D01*
X56008500Y5879632D01*
X56000624Y5919223D01*
X55999023Y5929515D01*
X55993217Y5981047D01*
X55984758Y6005220D01*
X55980184Y6021979D01*
X55977429Y6035831D01*
X55977427Y6035836D01*
X55977426Y6035840D01*
X55956976Y6085209D01*
X55954494Y6091710D01*
X55946892Y6113435D01*
X55933043Y6153015D01*
X55926418Y6163558D01*
X55916850Y6182082D01*
X55916483Y6182969D01*
X55879480Y6238348D01*
X55877638Y6241191D01*
X55862847Y6264731D01*
X55836111Y6307281D01*
X55707281Y6436111D01*
X55707279Y6436113D01*
X55690391Y6453002D01*
X55690388Y6453004D01*
X55557974Y6541481D01*
X55557970Y6541483D01*
X55557968Y6541484D01*
X55484399Y6571957D01*
X55484397Y6571958D01*
X55484396Y6571959D01*
X55410831Y6602430D01*
X55410823Y6602432D01*
X55254634Y6633500D01*
X55254630Y6633500D01*
X49522368Y6633500D01*
X49508484Y6634280D01*
X49470002Y6638616D01*
X49469998Y6638616D01*
X49431516Y6634280D01*
X49417632Y6633500D01*
X49390370Y6633500D01*
X49350766Y6625623D01*
X49340460Y6624021D01*
X49288958Y6618219D01*
X49288951Y6618217D01*
X49264784Y6609761D01*
X49248028Y6605187D01*
X49234170Y6602431D01*
X49234168Y6602430D01*
X49184777Y6581972D01*
X49178282Y6579493D01*
X49116984Y6558044D01*
X49106441Y6551419D01*
X49087948Y6541864D01*
X49087043Y6541490D01*
X49087032Y6541484D01*
X49031724Y6504530D01*
X49028812Y6502643D01*
X48962719Y6461112D01*
X48962715Y6461109D01*
X48833891Y6332285D01*
X48833888Y6332281D01*
X48792357Y6266188D01*
X48790470Y6263276D01*
X48753516Y6207968D01*
X48753510Y6207957D01*
X48753136Y6207052D01*
X48743581Y6188559D01*
X48736956Y6178016D01*
X48715507Y6116718D01*
X48713028Y6110223D01*
X48692570Y6060832D01*
X48692569Y6060830D01*
X48689813Y6046972D01*
X48685239Y6030216D01*
X48676783Y6006049D01*
X48676781Y6006042D01*
X48670979Y5954540D01*
X48669377Y5944234D01*
X48661500Y5904631D01*
X48661500Y5877368D01*
X48660720Y5863484D01*
X48656384Y5825003D01*
X400000Y5825003D01*
X400000Y33200003D01*
X15786384Y33200003D01*
X15786384Y33199999D01*
X15790720Y33161519D01*
X15791500Y33147634D01*
X15791500Y25652368D01*
X15790720Y25638484D01*
X15786384Y25600003D01*
X15786384Y25599999D01*
X15790720Y25561519D01*
X15791500Y25547634D01*
X15791500Y25520369D01*
X15799375Y25480779D01*
X15800978Y25470470D01*
X15806781Y25418957D01*
X15815237Y25394792D01*
X15819812Y25378032D01*
X15822568Y25364174D01*
X15822570Y25364169D01*
X15843030Y25314775D01*
X15845511Y25308275D01*
X15866956Y25246986D01*
X15873578Y25236447D01*
X15883144Y25217931D01*
X15883515Y25217036D01*
X15883517Y25217032D01*
X15920474Y25161721D01*
X15922364Y25158804D01*
X15963888Y25092721D01*
X15963891Y25092717D01*
X16092722Y24963886D01*
X16137512Y24935744D01*
X16158802Y24922366D01*
X16161663Y24920512D01*
X16217032Y24883517D01*
X16217922Y24883149D01*
X16236447Y24873579D01*
X16246985Y24866957D01*
X16246991Y24866955D01*
X16308276Y24845511D01*
X16314761Y24843036D01*
X16364169Y24822570D01*
X16378024Y24819815D01*
X16394793Y24815238D01*
X16418953Y24806783D01*
X16470486Y24800978D01*
X16480773Y24799377D01*
X16498693Y24795812D01*
X16520367Y24791500D01*
X16520370Y24791500D01*
X16547632Y24791500D01*
X16561516Y24790720D01*
X16599998Y24786384D01*
X16600000Y24786384D01*
X16600002Y24786384D01*
X16638484Y24790720D01*
X16652368Y24791500D01*
X22147632Y24791500D01*
X22161516Y24790720D01*
X22199998Y24786384D01*
X22200000Y24786384D01*
X22200002Y24786384D01*
X22238484Y24790720D01*
X22252368Y24791500D01*
X22279632Y24791500D01*
X22291637Y24793889D01*
X22319233Y24799379D01*
X22329508Y24800977D01*
X22381047Y24806783D01*
X22405212Y24815240D01*
X22421963Y24819813D01*
X22435831Y24822570D01*
X22485258Y24843045D01*
X22491681Y24845497D01*
X22553015Y24866957D01*
X22563558Y24873583D01*
X22582079Y24883149D01*
X22582968Y24883517D01*
X22638302Y24920491D01*
X22641197Y24922366D01*
X22707278Y24963887D01*
X22707278Y24963888D01*
X22707281Y24963889D01*
X22836111Y25092719D01*
X22877641Y25158815D01*
X22879509Y25161698D01*
X22916483Y25217032D01*
X22916851Y25217921D01*
X22926417Y25236442D01*
X22933043Y25246985D01*
X22954503Y25308319D01*
X22956955Y25314742D01*
X22977430Y25364169D01*
X22980187Y25378037D01*
X22984762Y25394792D01*
X22993217Y25418953D01*
X22999023Y25470492D01*
X23000624Y25480779D01*
X23008500Y25520370D01*
X23008500Y25547634D01*
X23009280Y25561519D01*
X23013616Y25599999D01*
X23013616Y25600003D01*
X23009280Y25638484D01*
X23008500Y25652368D01*
X23008500Y25679634D01*
X23000625Y25719215D01*
X22999022Y25729514D01*
X22993217Y25781047D01*
X22984762Y25805209D01*
X22980184Y25821981D01*
X22977430Y25835831D01*
X22956964Y25885239D01*
X22954489Y25891724D01*
X22947544Y25911571D01*
X22933043Y25953015D01*
X22926421Y25963553D01*
X22916851Y25982078D01*
X22916483Y25982968D01*
X22879488Y26038337D01*
X22877640Y26041188D01*
X22864256Y26062488D01*
X22836114Y26107278D01*
X22743389Y26200003D01*
X40186384Y26200003D01*
X40186384Y26199999D01*
X40190720Y26161519D01*
X40191500Y26147634D01*
X40191500Y26120371D01*
X40199376Y26080771D01*
X40200978Y26070468D01*
X40206782Y26018956D01*
X40206785Y26018947D01*
X40215240Y25994782D01*
X40219815Y25978022D01*
X40222570Y25964171D01*
X40222572Y25964164D01*
X40243029Y25914776D01*
X40245509Y25908279D01*
X40266956Y25846988D01*
X40266956Y25846987D01*
X40273576Y25836452D01*
X40283144Y25817929D01*
X40283516Y25817032D01*
X40307560Y25781047D01*
X40320494Y25761690D01*
X40322383Y25758774D01*
X40363888Y25692721D01*
X40363891Y25692717D01*
X42555181Y23501427D01*
X42588666Y23440104D01*
X42591500Y23413746D01*
X42591500Y19852368D01*
X42590720Y19838484D01*
X42586384Y19800003D01*
X42586384Y19799999D01*
X42590720Y19761519D01*
X42591500Y19747634D01*
X42591500Y19720369D01*
X42599375Y19680779D01*
X42600978Y19670470D01*
X42606781Y19618957D01*
X42615237Y19594792D01*
X42619812Y19578032D01*
X42622568Y19564174D01*
X42622570Y19564169D01*
X42643030Y19514775D01*
X42645511Y19508275D01*
X42666956Y19446986D01*
X42673578Y19436447D01*
X42683144Y19417931D01*
X42683515Y19417036D01*
X42683517Y19417032D01*
X42720474Y19361721D01*
X42722364Y19358804D01*
X42763888Y19292721D01*
X42763891Y19292717D01*
X42892722Y19163886D01*
X42937512Y19135744D01*
X42958802Y19122366D01*
X42961663Y19120512D01*
X43017032Y19083517D01*
X43017922Y19083149D01*
X43036447Y19073579D01*
X43046985Y19066957D01*
X43046991Y19066955D01*
X43108276Y19045511D01*
X43114761Y19043036D01*
X43164169Y19022570D01*
X43178024Y19019815D01*
X43194793Y19015238D01*
X43218953Y19006783D01*
X43270486Y19000978D01*
X43280773Y18999377D01*
X43298693Y18995812D01*
X43320367Y18991500D01*
X43320370Y18991500D01*
X43347632Y18991500D01*
X43361516Y18990720D01*
X43399998Y18986384D01*
X43400000Y18986384D01*
X43400002Y18986384D01*
X43438484Y18990720D01*
X43452368Y18991500D01*
X43479632Y18991500D01*
X43491637Y18993889D01*
X43519233Y18999379D01*
X43529508Y19000977D01*
X43581047Y19006783D01*
X43605212Y19015240D01*
X43621963Y19019813D01*
X43635831Y19022570D01*
X43685258Y19043045D01*
X43691681Y19045497D01*
X43753015Y19066957D01*
X43763558Y19073583D01*
X43782079Y19083149D01*
X43782968Y19083517D01*
X43838302Y19120491D01*
X43841197Y19122366D01*
X43907278Y19163887D01*
X43907278Y19163888D01*
X43907281Y19163889D01*
X44036111Y19292719D01*
X44077641Y19358815D01*
X44079509Y19361698D01*
X44116483Y19417032D01*
X44116851Y19417921D01*
X44126417Y19436442D01*
X44133043Y19446985D01*
X44154503Y19508319D01*
X44156955Y19514742D01*
X44177430Y19564169D01*
X44180187Y19578037D01*
X44184762Y19594792D01*
X44193217Y19618953D01*
X44199023Y19670492D01*
X44200624Y19680779D01*
X44208500Y19720370D01*
X44208500Y19747634D01*
X44209280Y19761519D01*
X44213616Y19799999D01*
X44213616Y19800003D01*
X44209280Y19838484D01*
X44208500Y19852368D01*
X44208500Y23714236D01*
X44208501Y23714257D01*
X44208501Y23879633D01*
X44177431Y24035825D01*
X44177430Y24035826D01*
X44177430Y24035830D01*
X44177428Y24035835D01*
X44116487Y24182962D01*
X44116480Y24182975D01*
X44028003Y24315389D01*
X44028000Y24315393D01*
X41515389Y26828003D01*
X41507283Y26836109D01*
X41507281Y26836111D01*
X41441226Y26877617D01*
X41438310Y26879506D01*
X41438295Y26879516D01*
X41382968Y26916484D01*
X41382965Y26916486D01*
X41382964Y26916486D01*
X41382472Y26916690D01*
X41382071Y26916856D01*
X41363551Y26926423D01*
X41353015Y26933043D01*
X41353014Y26933044D01*
X41353013Y26933044D01*
X41291721Y26954491D01*
X41285224Y26956971D01*
X41235836Y26977428D01*
X41235829Y26977430D01*
X41221978Y26980185D01*
X41205218Y26984760D01*
X41181053Y26993215D01*
X41181044Y26993218D01*
X41129532Y26999022D01*
X41119229Y27000624D01*
X41098199Y27004807D01*
X41079630Y27008500D01*
X41079629Y27008500D01*
X41052368Y27008500D01*
X41038484Y27009280D01*
X41000002Y27013616D01*
X40999998Y27013616D01*
X40961516Y27009280D01*
X40947632Y27008500D01*
X40920364Y27008500D01*
X40880769Y27000625D01*
X40870471Y26999023D01*
X40818950Y26993217D01*
X40794781Y26984760D01*
X40778027Y26980187D01*
X40764172Y26977431D01*
X40764168Y26977430D01*
X40714784Y26956975D01*
X40708291Y26954496D01*
X40646983Y26933043D01*
X40636449Y26926423D01*
X40617942Y26916862D01*
X40617037Y26916488D01*
X40561704Y26879516D01*
X40558789Y26877628D01*
X40492723Y26836115D01*
X40492716Y26836109D01*
X40363891Y26707284D01*
X40363885Y26707277D01*
X40322372Y26641211D01*
X40320484Y26638296D01*
X40283512Y26582963D01*
X40283138Y26582058D01*
X40273577Y26563551D01*
X40266957Y26553017D01*
X40245504Y26491709D01*
X40243025Y26485216D01*
X40222570Y26435832D01*
X40222569Y26435828D01*
X40219813Y26421973D01*
X40215240Y26405219D01*
X40206783Y26381050D01*
X40200977Y26329529D01*
X40199375Y26319231D01*
X40191500Y26279636D01*
X40191500Y26252368D01*
X40190720Y26238484D01*
X40186384Y26200003D01*
X22743389Y26200003D01*
X22707283Y26236109D01*
X22707281Y26236111D01*
X22641196Y26277636D01*
X22638303Y26279511D01*
X22582968Y26316483D01*
X22582965Y26316485D01*
X22582964Y26316485D01*
X22582069Y26316856D01*
X22563553Y26326422D01*
X22553014Y26333044D01*
X22515871Y26346041D01*
X22491711Y26354495D01*
X22485231Y26356968D01*
X22435831Y26377430D01*
X22435826Y26377432D01*
X22421968Y26380188D01*
X22405208Y26384763D01*
X22381042Y26393219D01*
X22381043Y26393219D01*
X22329530Y26399022D01*
X22319221Y26400625D01*
X22279631Y26408500D01*
X22279630Y26408500D01*
X22252368Y26408500D01*
X22238484Y26409280D01*
X22200002Y26413616D01*
X22199998Y26413616D01*
X22161516Y26409280D01*
X22147632Y26408500D01*
X17532500Y26408500D01*
X17465461Y26428185D01*
X17419706Y26480989D01*
X17408500Y26532500D01*
X17408500Y33147634D01*
X17409280Y33161519D01*
X17413616Y33199999D01*
X17413616Y33200003D01*
X17409280Y33238484D01*
X17408500Y33252368D01*
X17408500Y33279634D01*
X17400625Y33319215D01*
X17399022Y33329514D01*
X17393217Y33381047D01*
X17384762Y33405209D01*
X17380184Y33421981D01*
X17377430Y33435831D01*
X17356964Y33485239D01*
X17354489Y33491724D01*
X17333045Y33553009D01*
X17333043Y33553015D01*
X17326418Y33563559D01*
X17316851Y33582078D01*
X17316483Y33582968D01*
X17279488Y33638337D01*
X17277640Y33641188D01*
X17264256Y33662488D01*
X17236114Y33707278D01*
X17107283Y33836109D01*
X17107281Y33836111D01*
X17041185Y33877643D01*
X17038303Y33879511D01*
X16982968Y33916483D01*
X16982965Y33916485D01*
X16982964Y33916485D01*
X16982069Y33916856D01*
X16963553Y33926422D01*
X16953014Y33933044D01*
X16915871Y33946041D01*
X16891711Y33954495D01*
X16885231Y33956968D01*
X16835831Y33977430D01*
X16835826Y33977432D01*
X16821968Y33980188D01*
X16805208Y33984763D01*
X16781042Y33993219D01*
X16781043Y33993219D01*
X16729530Y33999022D01*
X16719221Y34000625D01*
X16679631Y34008500D01*
X16679630Y34008500D01*
X16652368Y34008500D01*
X16638484Y34009280D01*
X16600002Y34013616D01*
X16599998Y34013616D01*
X16561516Y34009280D01*
X16547632Y34008500D01*
X16520370Y34008500D01*
X16480766Y34000623D01*
X16470460Y33999021D01*
X16418958Y33993219D01*
X16418951Y33993217D01*
X16394784Y33984761D01*
X16378028Y33980187D01*
X16364170Y33977431D01*
X16364168Y33977430D01*
X16314777Y33956972D01*
X16308282Y33954493D01*
X16246984Y33933044D01*
X16236441Y33926419D01*
X16217948Y33916864D01*
X16217043Y33916490D01*
X16217032Y33916484D01*
X16161724Y33879530D01*
X16158812Y33877643D01*
X16092719Y33836112D01*
X16092715Y33836109D01*
X15963891Y33707285D01*
X15963888Y33707281D01*
X15922357Y33641188D01*
X15920470Y33638276D01*
X15883516Y33582968D01*
X15883510Y33582957D01*
X15883136Y33582052D01*
X15873581Y33563559D01*
X15866956Y33553016D01*
X15845507Y33491718D01*
X15843028Y33485223D01*
X15822570Y33435832D01*
X15822569Y33435830D01*
X15819813Y33421972D01*
X15815239Y33405216D01*
X15806783Y33381049D01*
X15806781Y33381042D01*
X15800979Y33329540D01*
X15799377Y33319234D01*
X15791500Y33279631D01*
X15791500Y33252368D01*
X15790720Y33238484D01*
X15786384Y33200003D01*
X400000Y33200003D01*
X400000Y52876000D01*
X419685Y52943039D01*
X472489Y52988794D01*
X524000Y53000000D01*
X68076000Y53000000D01*
X68143039Y52980315D01*
G37*
%TD.AperFunction*%
%TD*%
M02*
