%TF.GenerationSoftware,KiCad,Pcbnew,8.0.7*%
%TF.CreationDate,2024-12-25T20:01:10+01:00*%
%TF.ProjectId,circuit,63697263-7569-4742-9e6b-696361645f70,rev?*%
%TF.SameCoordinates,PX5f5e100PY5f5e100*%
%TF.FileFunction,Copper,L1,Top*%
%TF.FilePolarity,Positive*%
%FSLAX46Y46*%
G04 Gerber Fmt 4.6, Leading zero omitted, Abs format (unit mm)*
G04 Created by KiCad (PCBNEW 8.0.7) date 2024-12-25 20:01:10*
%MOMM*%
%LPD*%
G01*
G04 APERTURE LIST*
G04 Aperture macros list*
%AMRoundRect*
0 Rectangle with rounded corners*
0 $1 Rounding radius*
0 $2 $3 $4 $5 $6 $7 $8 $9 X,Y pos of 4 corners*
0 Add a 4 corners polygon primitive as box body*
4,1,4,$2,$3,$4,$5,$6,$7,$8,$9,$2,$3,0*
0 Add four circle primitives for the rounded corners*
1,1,$1+$1,$2,$3*
1,1,$1+$1,$4,$5*
1,1,$1+$1,$6,$7*
1,1,$1+$1,$8,$9*
0 Add four rect primitives between the rounded corners*
20,1,$1+$1,$2,$3,$4,$5,0*
20,1,$1+$1,$4,$5,$6,$7,0*
20,1,$1+$1,$6,$7,$8,$9,0*
20,1,$1+$1,$8,$9,$2,$3,0*%
G04 Aperture macros list end*
%TA.AperFunction,SMDPad,CuDef*%
%ADD10R,3.150000X1.000000*%
%TD*%
%TA.AperFunction,SMDPad,CuDef*%
%ADD11R,1.000000X3.150000*%
%TD*%
%TA.AperFunction,SMDPad,CuDef*%
%ADD12RoundRect,0.135000X-0.135000X-0.185000X0.135000X-0.185000X0.135000X0.185000X-0.135000X0.185000X0*%
%TD*%
%TA.AperFunction,SMDPad,CuDef*%
%ADD13RoundRect,0.135000X0.135000X0.185000X-0.135000X0.185000X-0.135000X-0.185000X0.135000X-0.185000X0*%
%TD*%
%TA.AperFunction,SMDPad,CuDef*%
%ADD14R,5.000000X0.760000*%
%TD*%
%TA.AperFunction,SMDPad,CuDef*%
%ADD15R,4.500000X8.800000*%
%TD*%
%TA.AperFunction,SMDPad,CuDef*%
%ADD16R,1.000000X1.900000*%
%TD*%
%TA.AperFunction,ViaPad*%
%ADD17C,0.600000*%
%TD*%
%TA.AperFunction,Conductor*%
%ADD18C,0.200000*%
%TD*%
%TA.AperFunction,Conductor*%
%ADD19C,0.600000*%
%TD*%
G04 APERTURE END LIST*
D10*
%TO.P,J5,4*%
%TO.N,N/C*%
X3800000Y36000000D03*
%TO.P,J5,3,Pin_3*%
%TO.N,/A3*%
X8850000Y36000000D03*
%TO.P,J5,2,Pin_2*%
%TO.N,+5V*%
X3800000Y33460000D03*
%TO.P,J5,1,Pin_1*%
%TO.N,GND*%
X8850000Y33460000D03*
%TD*%
D11*
%TO.P,J6,4,Pin_4*%
%TO.N,/\u002AD3{slash}SCL*%
X43400000Y30500000D03*
%TO.P,J6,3,Pin_3*%
%TO.N,/D2{slash}SDA*%
X43400000Y25450000D03*
%TO.P,J6,2,Pin_2*%
%TO.N,+5V*%
X40860000Y30500000D03*
%TO.P,J6,1,Pin_1*%
%TO.N,GND*%
X40860000Y25450000D03*
%TD*%
D10*
%TO.P,J2,1,Pin_1*%
%TO.N,GND*%
X8850000Y23920000D03*
%TO.P,J2,2,Pin_2*%
%TO.N,+5V*%
X3800000Y23920000D03*
%TO.P,J2,3,Pin_3*%
%TO.N,/A0*%
X8850000Y26460000D03*
%TO.P,J2,4,Pin_4*%
%TO.N,/A1*%
X3800000Y26460000D03*
%TO.P,J2,5,Pin_5*%
%TO.N,/A2*%
X8850000Y29000000D03*
%TO.P,J2,6*%
%TO.N,N/C*%
X3800000Y29000000D03*
%TD*%
%TO.P,J3,1,Pin_1*%
%TO.N,GND*%
X20800000Y23920000D03*
%TO.P,J3,2,Pin_2*%
%TO.N,+5V*%
X15750000Y23920000D03*
%TO.P,J3,3,Pin_3*%
%TO.N,/A4*%
X20800000Y26460000D03*
%TO.P,J3,4,Pin_4*%
%TO.N,/A5*%
X15750000Y26460000D03*
%TO.P,J3,5,Pin_5*%
%TO.N,/\u002AD11*%
X20800000Y29000000D03*
%TO.P,J3,6*%
%TO.N,N/C*%
X15750000Y29000000D03*
%TD*%
%TO.P,J4,1,Pin_1*%
%TO.N,GND*%
X32850000Y23920000D03*
%TO.P,J4,2,Pin_2*%
%TO.N,+5V*%
X27800000Y23920000D03*
%TO.P,J4,3,Pin_3*%
%TO.N,/A*%
X32850000Y26460000D03*
%TO.P,J4,4,Pin_4*%
%TO.N,/B*%
X27800000Y26460000D03*
%TO.P,J4,5,Pin_5*%
%TO.N,/Z*%
X32850000Y29000000D03*
%TO.P,J4,6*%
%TO.N,N/C*%
X27800000Y29000000D03*
%TD*%
D12*
%TO.P,R4,1*%
%TO.N,+5V*%
X44680000Y12700000D03*
%TO.P,R4,2*%
%TO.N,/\u002AD3{slash}SCL*%
X45700000Y12700000D03*
%TD*%
%TO.P,R3,2*%
%TO.N,/D2{slash}SDA*%
X45700000Y11600000D03*
%TO.P,R3,1*%
%TO.N,+5V*%
X44680000Y11600000D03*
%TD*%
D13*
%TO.P,R2,2*%
%TO.N,/B*%
X32080000Y7710000D03*
%TO.P,R2,1*%
%TO.N,+5V*%
X33100000Y7710000D03*
%TD*%
D12*
%TO.P,R1,1*%
%TO.N,+5V*%
X34690000Y7710000D03*
%TO.P,R1,2*%
%TO.N,/A*%
X35710000Y7710000D03*
%TD*%
D14*
%TO.P,J8,1*%
%TO.N,GND*%
X49470000Y4555000D03*
%TO.P,J8,2*%
X49470000Y5825000D03*
%TO.P,J8,3*%
%TO.N,+5V*%
X49470000Y7095000D03*
%TO.P,J8,4*%
X49470000Y8365000D03*
%TO.P,J8,5*%
%TO.N,/D2{slash}SDA*%
X49470000Y9635000D03*
%TO.P,J8,6*%
X49470000Y10905000D03*
%TO.P,J8,7*%
%TO.N,/\u002AD3{slash}SCL*%
X49470000Y12175000D03*
%TO.P,J8,8*%
X49470000Y13445000D03*
D15*
%TO.P,J8,L*%
%TO.N,N/C*%
X65400000Y9000000D03*
%TD*%
D14*
%TO.P,J7,1*%
%TO.N,GND*%
X49470000Y23755000D03*
%TO.P,J7,2*%
X49470000Y25025000D03*
%TO.P,J7,3*%
%TO.N,+5V*%
X49470000Y26295000D03*
%TO.P,J7,4*%
X49470000Y27565000D03*
%TO.P,J7,5*%
%TO.N,/D2{slash}SDA*%
X49470000Y28835000D03*
%TO.P,J7,6*%
X49470000Y30105000D03*
%TO.P,J7,7*%
%TO.N,/\u002AD3{slash}SCL*%
X49470000Y31375000D03*
%TO.P,J7,8*%
X49470000Y32645000D03*
D15*
%TO.P,J7,L*%
%TO.N,N/C*%
X65400000Y28200000D03*
%TD*%
D16*
%TO.P,J1.1,17,Pin_17*%
%TO.N,/D16{slash}MOSI*%
X43320000Y2000000D03*
%TO.P,J1.1,16,Pin_16*%
%TO.N,/D17{slash}SS*%
X40780000Y5300000D03*
%TO.P,J1.1,15,Pin_15*%
%TO.N,/B*%
X38240000Y2000000D03*
%TO.P,J1.1,14,Pin_14*%
%TO.N,/A*%
X35700000Y5300000D03*
%TO.P,J1.1,13,Pin_13*%
%TO.N,unconnected-(J1.1-Pin_13-Pad13)*%
X33160000Y2000000D03*
%TO.P,J1.1,12,Pin_12*%
%TO.N,GND*%
X30620000Y5300000D03*
%TO.P,J1.1,11,Pin_11*%
%TO.N,/D2{slash}SDA*%
X28080000Y2000000D03*
%TO.P,J1.1,10,Pin_10*%
%TO.N,/\u002AD3{slash}SCL*%
X25540000Y5300000D03*
%TO.P,J1.1,9,Pin_9*%
%TO.N,/D4*%
X23000000Y2000000D03*
%TO.P,J1.1,8,Pin_8*%
%TO.N,/\u002AD5*%
X20460000Y5300000D03*
%TO.P,J1.1,7,Pin_7*%
%TO.N,/\u002AD6*%
X17920000Y2000000D03*
%TO.P,J1.1,6,Pin_6*%
%TO.N,/D7*%
X15380000Y5300000D03*
%TO.P,J1.1,5,Pin_5*%
%TO.N,/D8*%
X12840000Y2000000D03*
%TO.P,J1.1,4,Pin_4*%
%TO.N,/\u002AD9*%
X10300000Y5300000D03*
%TO.P,J1.1,3,Pin_3*%
%TO.N,/\u002AD10*%
X7760000Y2000000D03*
%TO.P,J1.1,2,Pin_2*%
%TO.N,/\u002AD11*%
X5220000Y5300000D03*
%TO.P,J1.1,1,Pin_1*%
%TO.N,/D12*%
X2680000Y2000000D03*
%TD*%
%TO.P,J1.2,17,Pin_17*%
%TO.N,/D15{slash}SCK*%
X43320000Y17240000D03*
%TO.P,J1.2,16,Pin_16*%
%TO.N,/D14{slash}MISO*%
X40780000Y20540000D03*
%TO.P,J1.2,15,Pin_15*%
%TO.N,VCC*%
X38240000Y17240000D03*
%TO.P,J1.2,14,Pin_14*%
%TO.N,GND*%
X35700000Y20540000D03*
%TO.P,J1.2,13,Pin_13*%
%TO.N,/~{RESET}*%
X33160000Y17240000D03*
%TO.P,J1.2,12,Pin_12*%
%TO.N,+5V*%
X30620000Y20540000D03*
%TO.P,J1.2,11,Pin_11*%
%TO.N,unconnected-(J1.2-Pin_11-Pad11)*%
X28080000Y17240000D03*
%TO.P,J1.2,10,Pin_10*%
%TO.N,unconnected-(J1.2-Pin_10-Pad10)*%
X25540000Y20540000D03*
%TO.P,J1.2,9,Pin_9*%
%TO.N,/A5*%
X23000000Y17240000D03*
%TO.P,J1.2,8,Pin_8*%
%TO.N,/A4*%
X20460000Y20540000D03*
%TO.P,J1.2,7,Pin_7*%
%TO.N,/A3*%
X17920000Y17240000D03*
%TO.P,J1.2,6,Pin_6*%
%TO.N,/A2*%
X15380000Y20540000D03*
%TO.P,J1.2,5,Pin_5*%
%TO.N,/A1*%
X12840000Y17240000D03*
%TO.P,J1.2,4,Pin_4*%
%TO.N,/A0*%
X10300000Y20540000D03*
%TO.P,J1.2,3,Pin_3*%
%TO.N,/AREF*%
X7760000Y17240000D03*
%TO.P,J1.2,2,Pin_2*%
%TO.N,+3V3*%
X5220000Y20540000D03*
%TO.P,J1.2,1,Pin_1*%
%TO.N,/\u002AD13*%
X2680000Y17240000D03*
%TD*%
D17*
%TO.N,+5V*%
X33900000Y7710000D03*
X3800000Y33460000D03*
X40860000Y30500000D03*
X27800000Y23920000D03*
X15750000Y23920000D03*
X3800000Y23920000D03*
X44680000Y10700000D03*
X30620000Y20540000D03*
X49470000Y27565000D03*
X49470000Y8365000D03*
%TD*%
D18*
%TO.N,/D2{slash}SDA*%
X44835000Y21665000D02*
X44835000Y28835000D01*
X52500000Y11200000D02*
X52500000Y14000000D01*
X52205000Y10905000D02*
X52500000Y11200000D01*
X52500000Y14000000D02*
X44835000Y21665000D01*
X49470000Y10905000D02*
X52205000Y10905000D01*
X44600000Y9771471D02*
X45700000Y10871471D01*
X44600000Y900000D02*
X44600000Y9771471D01*
X44000000Y300000D02*
X44600000Y900000D01*
X28080000Y920000D02*
X28700000Y300000D01*
X45700000Y10871471D02*
X45700000Y10905000D01*
X28080000Y2000000D02*
X28080000Y920000D01*
X28700000Y300000D02*
X44000000Y300000D01*
%TO.N,/\u002AD3{slash}SCL*%
X42700000Y30500000D02*
X43400000Y30500000D01*
X42200000Y30000000D02*
X42700000Y30500000D01*
X42200000Y12700000D02*
X42200000Y30000000D01*
X42000000Y12500000D02*
X42200000Y12700000D01*
%TO.N,/D2{slash}SDA*%
X43400000Y27400000D02*
X44835000Y28835000D01*
X44835000Y28835000D02*
X49470000Y28835000D01*
X43400000Y25450000D02*
X43400000Y27400000D01*
%TO.N,/\u002AD3{slash}SCL*%
X45000000Y30500000D02*
X45875000Y31375000D01*
X43400000Y30500000D02*
X45000000Y30500000D01*
X45875000Y31375000D02*
X49470000Y31375000D01*
X42945000Y13445000D02*
X45700000Y13445000D01*
X42000000Y12500000D02*
X42945000Y13445000D01*
X42000000Y1800000D02*
X42000000Y12500000D01*
X40900000Y700000D02*
X42000000Y1800000D01*
X29400000Y3000000D02*
X29400000Y1500000D01*
X29400000Y1500000D02*
X30200000Y700000D01*
X27100000Y5300000D02*
X29400000Y3000000D01*
X25540000Y5300000D02*
X27100000Y5300000D01*
X30200000Y700000D02*
X40900000Y700000D01*
%TO.N,/A*%
X35700000Y5300000D02*
X35700000Y7700000D01*
X35700000Y7700000D02*
X35710000Y7710000D01*
X35710000Y10210000D02*
X35710000Y7710000D01*
X37300000Y23900000D02*
X37300000Y11800000D01*
X37300000Y11800000D02*
X35710000Y10210000D01*
X34740000Y26460000D02*
X37300000Y23900000D01*
X32850000Y26460000D02*
X34740000Y26460000D01*
%TO.N,+5V*%
X44680000Y10700000D02*
X44680000Y11600000D01*
%TO.N,/B*%
X32080000Y16620000D02*
X32080000Y8900000D01*
X25700000Y23000000D02*
X32080000Y16620000D01*
X25700000Y26100000D02*
X25700000Y23000000D01*
X26060000Y26460000D02*
X25700000Y26100000D01*
X27800000Y26460000D02*
X26060000Y26460000D01*
X36950000Y2000000D02*
X32080000Y6870000D01*
X32080000Y6870000D02*
X32080000Y8900000D01*
X38240000Y2000000D02*
X36950000Y2000000D01*
%TO.N,+5V*%
X33900000Y7710000D02*
X34690000Y7710000D01*
X33100000Y7710000D02*
X33900000Y7710000D01*
%TO.N,/A5*%
X20060000Y17240000D02*
X23000000Y17240000D01*
X14200000Y22400000D02*
X16165686Y22400000D01*
X18320000Y18980000D02*
X20060000Y17240000D01*
X18320000Y20245686D02*
X18320000Y18980000D01*
X13000000Y25700000D02*
X13000000Y23600000D01*
X13760000Y26460000D02*
X13000000Y25700000D01*
X16165686Y22400000D02*
X18320000Y20245686D01*
X15750000Y26460000D02*
X13760000Y26460000D01*
X13000000Y23600000D02*
X14200000Y22400000D01*
%TO.N,/A3*%
X17920000Y20080000D02*
X17920000Y17240000D01*
X16100000Y21900000D02*
X17920000Y20080000D01*
X14100000Y21900000D02*
X16100000Y21900000D01*
X12500000Y34400000D02*
X12500000Y23500000D01*
X12500000Y23500000D02*
X14100000Y21900000D01*
X10900000Y36000000D02*
X12500000Y34400000D01*
X8850000Y36000000D02*
X10900000Y36000000D01*
%TO.N,/A2*%
X12000000Y23434314D02*
X14894314Y20540000D01*
X12000000Y27800000D02*
X12000000Y23434314D01*
X10800000Y29000000D02*
X12000000Y27800000D01*
X14894314Y20540000D02*
X15380000Y20540000D01*
X8850000Y29000000D02*
X10800000Y29000000D01*
%TO.N,/\u002AD11*%
X5220000Y7220000D02*
X5220000Y5300000D01*
X13600000Y15600000D02*
X5220000Y7220000D01*
X24000000Y15800000D02*
X23800000Y15600000D01*
X23800000Y15600000D02*
X13600000Y15600000D01*
X24000000Y18290000D02*
X24000000Y15800000D01*
X23590000Y18700000D02*
X24000000Y18290000D01*
X19700000Y18700000D02*
X23590000Y18700000D01*
X19100000Y20031372D02*
X19100000Y19300000D01*
X17900000Y21231372D02*
X19100000Y20031372D01*
X17900000Y27900000D02*
X17900000Y21231372D01*
X19100000Y19300000D02*
X19700000Y18700000D01*
X19000000Y29000000D02*
X17900000Y27900000D01*
X20800000Y29000000D02*
X19000000Y29000000D01*
%TO.N,/A4*%
X18400000Y21400000D02*
X19260000Y20540000D01*
X18400000Y25800000D02*
X18400000Y21400000D01*
X19060000Y26460000D02*
X18400000Y25800000D01*
X20800000Y26460000D02*
X19060000Y26460000D01*
X19260000Y20540000D02*
X20460000Y20540000D01*
%TO.N,/A1*%
X11360000Y17240000D02*
X12840000Y17240000D01*
X2145000Y22900000D02*
X5700000Y22900000D01*
X1700000Y23345000D02*
X2145000Y22900000D01*
X3800000Y25300000D02*
X3400000Y24900000D01*
X5700000Y22900000D02*
X11360000Y17240000D01*
X3400000Y24900000D02*
X2105000Y24900000D01*
X3800000Y26460000D02*
X3800000Y25300000D01*
X2105000Y24900000D02*
X1700000Y24495000D01*
X1700000Y24495000D02*
X1700000Y23345000D01*
%TO.N,/A0*%
X10940000Y20540000D02*
X10300000Y20540000D01*
X11500000Y21100000D02*
X10940000Y20540000D01*
X11500000Y25600000D02*
X11500000Y21100000D01*
X10640000Y26460000D02*
X11500000Y25600000D01*
X8850000Y26460000D02*
X10640000Y26460000D01*
%TO.N,/\u002AD3{slash}SCL*%
X45700000Y13445000D02*
X49470000Y13445000D01*
X45700000Y12700000D02*
X45700000Y13445000D01*
%TO.N,/D2{slash}SDA*%
X45700000Y11600000D02*
X45700000Y10905000D01*
X45700000Y10905000D02*
X49470000Y10905000D01*
%TO.N,+5V*%
X44680000Y12100000D02*
X44680000Y11600000D01*
X44680000Y12700000D02*
X44680000Y12100000D01*
%TO.N,/\u002AD3{slash}SCL*%
X49470000Y32645000D02*
X49470000Y31375000D01*
X49470000Y13445000D02*
X49470000Y12175000D01*
D19*
%TO.N,+5V*%
X49470000Y27565000D02*
X49470000Y26295000D01*
X49470000Y7095000D02*
X49470000Y8365000D01*
D18*
%TO.N,/D2{slash}SDA*%
X49470000Y10905000D02*
X49470000Y9635000D01*
X49470000Y30105000D02*
X49470000Y28835000D01*
%TD*%
%TA.AperFunction,Conductor*%
%TO.N,GND*%
G36*
X67943039Y37980315D02*
G01*
X67988794Y37927511D01*
X68000000Y37876000D01*
X68000000Y33190770D01*
X67980315Y33123731D01*
X67927511Y33077976D01*
X67858353Y33068032D01*
X67832666Y33074588D01*
X67759201Y33101990D01*
X67698654Y33108500D01*
X67698638Y33108500D01*
X63101362Y33108500D01*
X63101345Y33108500D01*
X63040797Y33101989D01*
X63040795Y33101989D01*
X62903795Y33050889D01*
X62786739Y32963261D01*
X62699111Y32846205D01*
X62648011Y32709205D01*
X62648011Y32709203D01*
X62641500Y32648655D01*
X62641500Y23751346D01*
X62648011Y23690798D01*
X62648011Y23690796D01*
X62683150Y23596589D01*
X62699111Y23553796D01*
X62786739Y23436739D01*
X62903796Y23349111D01*
X63040799Y23298011D01*
X63068050Y23295082D01*
X63101345Y23291501D01*
X63101362Y23291500D01*
X67698638Y23291500D01*
X67698654Y23291501D01*
X67725692Y23294409D01*
X67759201Y23298011D01*
X67769430Y23301826D01*
X67832665Y23325412D01*
X67902357Y23330398D01*
X67963680Y23296913D01*
X67997166Y23235591D01*
X68000000Y23209231D01*
X68000000Y13990770D01*
X67980315Y13923731D01*
X67927511Y13877976D01*
X67858353Y13868032D01*
X67832666Y13874588D01*
X67759201Y13901990D01*
X67698654Y13908500D01*
X67698638Y13908500D01*
X63101362Y13908500D01*
X63101345Y13908500D01*
X63040797Y13901989D01*
X63040795Y13901989D01*
X62903795Y13850889D01*
X62786739Y13763261D01*
X62699111Y13646205D01*
X62648011Y13509205D01*
X62648011Y13509203D01*
X62641500Y13448655D01*
X62641500Y4551346D01*
X62648011Y4490798D01*
X62648011Y4490796D01*
X62699111Y4353796D01*
X62786739Y4236739D01*
X62903796Y4149111D01*
X63040799Y4098011D01*
X63068050Y4095082D01*
X63101345Y4091501D01*
X63101362Y4091500D01*
X67698638Y4091500D01*
X67698654Y4091501D01*
X67725692Y4094409D01*
X67759201Y4098011D01*
X67832665Y4125413D01*
X67902357Y4130398D01*
X67963680Y4096913D01*
X67997166Y4035591D01*
X68000000Y4009231D01*
X68000000Y1124000D01*
X67980315Y1056961D01*
X67927511Y1011206D01*
X67876000Y1000000D01*
X45332500Y1000000D01*
X45265461Y1019685D01*
X45219706Y1072489D01*
X45208500Y1124000D01*
X45208500Y4127156D01*
X46470000Y4127156D01*
X46476401Y4067628D01*
X46476403Y4067621D01*
X46526645Y3932914D01*
X46526649Y3932907D01*
X46612809Y3817813D01*
X46612812Y3817810D01*
X46727906Y3731650D01*
X46727913Y3731646D01*
X46862620Y3681404D01*
X46862627Y3681402D01*
X46922155Y3675001D01*
X46922172Y3675000D01*
X49220000Y3675000D01*
X49720000Y3675000D01*
X52017828Y3675000D01*
X52017844Y3675001D01*
X52077372Y3681402D01*
X52077379Y3681404D01*
X52212086Y3731646D01*
X52212093Y3731650D01*
X52327187Y3817810D01*
X52327190Y3817813D01*
X52413350Y3932907D01*
X52413354Y3932914D01*
X52463596Y4067621D01*
X52463598Y4067628D01*
X52469999Y4127156D01*
X52470000Y4127173D01*
X52470000Y4305000D01*
X49720000Y4305000D01*
X49720000Y3675000D01*
X49220000Y3675000D01*
X49220000Y4305000D01*
X46470000Y4305000D01*
X46470000Y4127156D01*
X45208500Y4127156D01*
X45208500Y5397156D01*
X46470000Y5397156D01*
X46476401Y5337628D01*
X46476403Y5337618D01*
X46515299Y5233332D01*
X46520283Y5163641D01*
X46515299Y5146668D01*
X46476403Y5042383D01*
X46476401Y5042373D01*
X46470000Y4982845D01*
X46470000Y4805000D01*
X49220000Y4805000D01*
X49720000Y4805000D01*
X52470000Y4805000D01*
X52470000Y4982828D01*
X52469999Y4982845D01*
X52463598Y5042373D01*
X52463597Y5042377D01*
X52424699Y5146666D01*
X52419715Y5216357D01*
X52424699Y5233334D01*
X52463597Y5337624D01*
X52463598Y5337628D01*
X52469999Y5397156D01*
X52470000Y5397173D01*
X52470000Y5575000D01*
X49720000Y5575000D01*
X49720000Y4805000D01*
X49220000Y4805000D01*
X49220000Y5575000D01*
X46470000Y5575000D01*
X46470000Y5397156D01*
X45208500Y5397156D01*
X45208500Y9468060D01*
X45228185Y9535099D01*
X45244819Y9555741D01*
X45949259Y10260181D01*
X46010582Y10293666D01*
X46036940Y10296500D01*
X46353681Y10296500D01*
X46420720Y10276815D01*
X46466475Y10224011D01*
X46476419Y10154853D01*
X46469862Y10129164D01*
X46468010Y10124202D01*
X46461500Y10063655D01*
X46461500Y9206346D01*
X46468011Y9145798D01*
X46468011Y9145797D01*
X46506228Y9043333D01*
X46511212Y8973642D01*
X46506228Y8956667D01*
X46468011Y8854204D01*
X46468011Y8854203D01*
X46461500Y8793655D01*
X46461500Y7936346D01*
X46468011Y7875798D01*
X46468011Y7875797D01*
X46506228Y7773333D01*
X46511212Y7703642D01*
X46506228Y7686667D01*
X46468011Y7584204D01*
X46468011Y7584203D01*
X46461500Y7523655D01*
X46461500Y6666346D01*
X46468011Y6605798D01*
X46468011Y6605796D01*
X46510764Y6491175D01*
X46515749Y6421483D01*
X46510765Y6404506D01*
X46476402Y6312377D01*
X46476401Y6312373D01*
X46470000Y6252845D01*
X46470000Y6075000D01*
X52470000Y6075000D01*
X52470000Y6252828D01*
X52469999Y6252845D01*
X52463598Y6312373D01*
X52463597Y6312377D01*
X52429235Y6404506D01*
X52424251Y6474198D01*
X52429236Y6491175D01*
X52471988Y6605796D01*
X52471988Y6605797D01*
X52471989Y6605799D01*
X52475591Y6639308D01*
X52478499Y6666346D01*
X52478500Y6666363D01*
X52478500Y7523638D01*
X52478499Y7523655D01*
X52475157Y7554730D01*
X52471989Y7584201D01*
X52468474Y7593624D01*
X52453276Y7634372D01*
X52433770Y7686667D01*
X52428785Y7756356D01*
X52433769Y7773329D01*
X52471989Y7875799D01*
X52475591Y7909308D01*
X52478499Y7936346D01*
X52478500Y7936363D01*
X52478500Y8793638D01*
X52478499Y8793655D01*
X52475157Y8824730D01*
X52471989Y8854201D01*
X52433770Y8956667D01*
X52428785Y9026356D01*
X52433769Y9043329D01*
X52471989Y9145799D01*
X52475591Y9179308D01*
X52478499Y9206346D01*
X52478500Y9206363D01*
X52478500Y10063638D01*
X52478499Y10063655D01*
X52475157Y10094730D01*
X52471989Y10124201D01*
X52471987Y10124205D01*
X52471987Y10124208D01*
X52437350Y10217073D01*
X52432365Y10286764D01*
X52465849Y10348088D01*
X52491524Y10367790D01*
X52578627Y10418078D01*
X52986922Y10826373D01*
X53067032Y10965127D01*
X53090581Y11053015D01*
X53108500Y11119889D01*
X53108500Y14080111D01*
X53067032Y14234872D01*
X53067032Y14234873D01*
X53067032Y14234874D01*
X53031709Y14296053D01*
X52986922Y14373627D01*
X45479819Y21880730D01*
X45446334Y21942053D01*
X45443500Y21968411D01*
X45443500Y23327156D01*
X46470000Y23327156D01*
X46476401Y23267628D01*
X46476403Y23267621D01*
X46526645Y23132914D01*
X46526649Y23132907D01*
X46612809Y23017813D01*
X46612812Y23017810D01*
X46727906Y22931650D01*
X46727913Y22931646D01*
X46862620Y22881404D01*
X46862627Y22881402D01*
X46922155Y22875001D01*
X46922172Y22875000D01*
X49220000Y22875000D01*
X49720000Y22875000D01*
X52017828Y22875000D01*
X52017844Y22875001D01*
X52077372Y22881402D01*
X52077379Y22881404D01*
X52212086Y22931646D01*
X52212093Y22931650D01*
X52327187Y23017810D01*
X52327190Y23017813D01*
X52413350Y23132907D01*
X52413354Y23132914D01*
X52463596Y23267621D01*
X52463598Y23267628D01*
X52469999Y23327156D01*
X52470000Y23327173D01*
X52470000Y23505000D01*
X49720000Y23505000D01*
X49720000Y22875000D01*
X49220000Y22875000D01*
X49220000Y23505000D01*
X46470000Y23505000D01*
X46470000Y23327156D01*
X45443500Y23327156D01*
X45443500Y24597156D01*
X46470000Y24597156D01*
X46476401Y24537628D01*
X46476403Y24537618D01*
X46515299Y24433332D01*
X46520283Y24363641D01*
X46515299Y24346668D01*
X46476403Y24242383D01*
X46476401Y24242373D01*
X46470000Y24182845D01*
X46470000Y24005000D01*
X49220000Y24005000D01*
X49720000Y24005000D01*
X52470000Y24005000D01*
X52470000Y24182828D01*
X52469999Y24182845D01*
X52463598Y24242373D01*
X52463597Y24242377D01*
X52424699Y24346666D01*
X52419715Y24416357D01*
X52424699Y24433334D01*
X52463597Y24537624D01*
X52463598Y24537628D01*
X52469999Y24597156D01*
X52470000Y24597173D01*
X52470000Y24775000D01*
X49720000Y24775000D01*
X49720000Y24005000D01*
X49220000Y24005000D01*
X49220000Y24775000D01*
X46470000Y24775000D01*
X46470000Y24597156D01*
X45443500Y24597156D01*
X45443500Y28102500D01*
X45463185Y28169539D01*
X45515989Y28215294D01*
X45567500Y28226500D01*
X46353681Y28226500D01*
X46420720Y28206815D01*
X46466475Y28154011D01*
X46476419Y28084853D01*
X46469862Y28059164D01*
X46468010Y28054202D01*
X46461500Y27993655D01*
X46461500Y27136346D01*
X46468011Y27075798D01*
X46468011Y27075797D01*
X46506228Y26973333D01*
X46511212Y26903642D01*
X46506228Y26886667D01*
X46468011Y26784204D01*
X46468011Y26784203D01*
X46461500Y26723655D01*
X46461500Y25866346D01*
X46468011Y25805798D01*
X46468011Y25805796D01*
X46510764Y25691175D01*
X46515749Y25621483D01*
X46510765Y25604506D01*
X46476402Y25512377D01*
X46476401Y25512373D01*
X46470000Y25452845D01*
X46470000Y25275000D01*
X52470000Y25275000D01*
X52470000Y25452828D01*
X52469999Y25452845D01*
X52463598Y25512373D01*
X52463597Y25512377D01*
X52429235Y25604506D01*
X52424251Y25674198D01*
X52429236Y25691175D01*
X52471988Y25805796D01*
X52471988Y25805797D01*
X52471989Y25805799D01*
X52476827Y25850799D01*
X52478499Y25866346D01*
X52478500Y25866363D01*
X52478500Y26723638D01*
X52478499Y26723655D01*
X52473618Y26769049D01*
X52471989Y26784201D01*
X52465584Y26801372D01*
X52453276Y26834372D01*
X52433770Y26886667D01*
X52428785Y26956356D01*
X52433769Y26973329D01*
X52471989Y27075799D01*
X52477415Y27126270D01*
X52478499Y27136346D01*
X52478500Y27136363D01*
X52478500Y27993638D01*
X52478499Y27993655D01*
X52473511Y28040044D01*
X52471989Y28054201D01*
X52433770Y28156667D01*
X52428785Y28226356D01*
X52433769Y28243329D01*
X52471989Y28345799D01*
X52477474Y28396815D01*
X52478499Y28406346D01*
X52478500Y28406363D01*
X52478500Y29263638D01*
X52478499Y29263655D01*
X52475157Y29294730D01*
X52471989Y29324201D01*
X52433770Y29426667D01*
X52428785Y29496356D01*
X52433769Y29513329D01*
X52471989Y29615799D01*
X52476135Y29654362D01*
X52478499Y29676346D01*
X52478500Y29676363D01*
X52478500Y30533638D01*
X52478499Y30533655D01*
X52475157Y30564730D01*
X52471989Y30594201D01*
X52433770Y30696667D01*
X52428785Y30766356D01*
X52433769Y30783329D01*
X52471989Y30885799D01*
X52475591Y30919308D01*
X52478499Y30946346D01*
X52478500Y30946363D01*
X52478500Y31803638D01*
X52478499Y31803655D01*
X52475157Y31834730D01*
X52471989Y31864201D01*
X52433770Y31966667D01*
X52428785Y32036356D01*
X52433769Y32053329D01*
X52471989Y32155799D01*
X52475591Y32189308D01*
X52478499Y32216346D01*
X52478500Y32216363D01*
X52478500Y33073638D01*
X52478499Y33073655D01*
X52474752Y33108500D01*
X52471989Y33134201D01*
X52420889Y33271204D01*
X52333261Y33388261D01*
X52216204Y33475889D01*
X52079203Y33526989D01*
X52018654Y33533500D01*
X52018638Y33533500D01*
X46921362Y33533500D01*
X46921345Y33533500D01*
X46860797Y33526989D01*
X46860795Y33526989D01*
X46723795Y33475889D01*
X46606739Y33388261D01*
X46519111Y33271205D01*
X46468011Y33134205D01*
X46468011Y33134203D01*
X46461500Y33073655D01*
X46461500Y32216346D01*
X46468010Y32155799D01*
X46469862Y32150836D01*
X46474848Y32081145D01*
X46441364Y32019821D01*
X46380042Y31986334D01*
X46353681Y31983500D01*
X45794889Y31983500D01*
X45640128Y31942032D01*
X45640125Y31942031D01*
X45501376Y31861925D01*
X45501371Y31861921D01*
X44784270Y31144819D01*
X44722947Y31111334D01*
X44696589Y31108500D01*
X44532500Y31108500D01*
X44465461Y31128185D01*
X44419706Y31180989D01*
X44408500Y31232500D01*
X44408500Y32123638D01*
X44408499Y32123655D01*
X44405042Y32155799D01*
X44401989Y32184201D01*
X44389999Y32216346D01*
X44379522Y32244436D01*
X44350889Y32321204D01*
X44263261Y32438261D01*
X44146204Y32525889D01*
X44009203Y32576989D01*
X43948654Y32583500D01*
X43948638Y32583500D01*
X42851362Y32583500D01*
X42851345Y32583500D01*
X42790797Y32576989D01*
X42790795Y32576989D01*
X42653795Y32525889D01*
X42536739Y32438261D01*
X42449111Y32321205D01*
X42398011Y32184205D01*
X42398011Y32184203D01*
X42391500Y32123655D01*
X42391500Y31096115D01*
X42371815Y31029076D01*
X42332813Y30991887D01*
X42332824Y30991872D01*
X42332691Y30991771D01*
X42329502Y30988729D01*
X42326376Y30986925D01*
X42326371Y30986921D01*
X42080181Y30740730D01*
X42018858Y30707245D01*
X41949166Y30712229D01*
X41893233Y30754101D01*
X41868816Y30819565D01*
X41868500Y30828411D01*
X41868500Y32123638D01*
X41868499Y32123655D01*
X41865042Y32155799D01*
X41861989Y32184201D01*
X41849999Y32216346D01*
X41839522Y32244436D01*
X41810889Y32321204D01*
X41723261Y32438261D01*
X41606204Y32525889D01*
X41469203Y32576989D01*
X41408654Y32583500D01*
X41408638Y32583500D01*
X40311362Y32583500D01*
X40311345Y32583500D01*
X40250797Y32576989D01*
X40250795Y32576989D01*
X40113795Y32525889D01*
X39996739Y32438261D01*
X39909111Y32321205D01*
X39858011Y32184205D01*
X39858011Y32184203D01*
X39851500Y32123655D01*
X39851500Y28876346D01*
X39858011Y28815798D01*
X39858011Y28815796D01*
X39903422Y28694049D01*
X39909111Y28678796D01*
X39996739Y28561739D01*
X40113796Y28474111D01*
X40250799Y28423011D01*
X40278050Y28420082D01*
X40311345Y28416501D01*
X40311362Y28416500D01*
X41408638Y28416500D01*
X41408651Y28416501D01*
X41451509Y28421109D01*
X41454243Y28421403D01*
X41523003Y28408999D01*
X41574141Y28361389D01*
X41591500Y28298114D01*
X41591500Y27643300D01*
X41571815Y27576261D01*
X41519011Y27530506D01*
X41454246Y27520010D01*
X41407830Y27525000D01*
X41110000Y27525000D01*
X41110000Y23375000D01*
X41407828Y23375000D01*
X41407842Y23375001D01*
X41454243Y23379990D01*
X41523003Y23367586D01*
X41574141Y23319976D01*
X41591500Y23256701D01*
X41591500Y22095130D01*
X41571815Y22028091D01*
X41519011Y21982336D01*
X41449853Y21972392D01*
X41424167Y21978948D01*
X41389202Y21991989D01*
X41328654Y21998500D01*
X41328638Y21998500D01*
X40231362Y21998500D01*
X40231345Y21998500D01*
X40170797Y21991989D01*
X40170795Y21991989D01*
X40033795Y21940889D01*
X39916739Y21853261D01*
X39829111Y21736205D01*
X39778011Y21599205D01*
X39778011Y21599203D01*
X39771500Y21538655D01*
X39771500Y19541346D01*
X39778011Y19480798D01*
X39778011Y19480796D01*
X39827575Y19347914D01*
X39829111Y19343796D01*
X39916739Y19226739D01*
X40033796Y19139111D01*
X40135835Y19101052D01*
X40165463Y19090001D01*
X40170799Y19088011D01*
X40198050Y19085082D01*
X40231345Y19081501D01*
X40231362Y19081500D01*
X41328638Y19081500D01*
X41328654Y19081501D01*
X41389201Y19088011D01*
X41394536Y19090001D01*
X41424165Y19101053D01*
X41493856Y19106038D01*
X41555180Y19072554D01*
X41588666Y19011231D01*
X41591500Y18984871D01*
X41591500Y13003411D01*
X41571815Y12936372D01*
X41555181Y12915730D01*
X41513080Y12873630D01*
X41513076Y12873624D01*
X41432969Y12734876D01*
X41432968Y12734875D01*
X41424090Y12701738D01*
X41391500Y12580111D01*
X41391500Y6882500D01*
X41371815Y6815461D01*
X41319011Y6769706D01*
X41267500Y6758500D01*
X40231345Y6758500D01*
X40170797Y6751989D01*
X40170795Y6751989D01*
X40033795Y6700889D01*
X39916739Y6613261D01*
X39829111Y6496205D01*
X39778011Y6359205D01*
X39778011Y6359203D01*
X39771500Y6298655D01*
X39771500Y4301346D01*
X39778011Y4240798D01*
X39778011Y4240796D01*
X39827575Y4107914D01*
X39829111Y4103796D01*
X39916739Y3986739D01*
X40033796Y3899111D01*
X40148297Y3856404D01*
X40168498Y3848869D01*
X40170799Y3848011D01*
X40198050Y3845082D01*
X40231345Y3841501D01*
X40231362Y3841500D01*
X41267500Y3841500D01*
X41334539Y3821815D01*
X41380294Y3769011D01*
X41391500Y3717500D01*
X41391500Y2103411D01*
X41371815Y2036372D01*
X41355181Y2015730D01*
X40684270Y1344819D01*
X40622947Y1311334D01*
X40596589Y1308500D01*
X39372500Y1308500D01*
X39305461Y1328185D01*
X39259706Y1380989D01*
X39248500Y1432500D01*
X39248500Y2998638D01*
X39248499Y2998655D01*
X39245157Y3029730D01*
X39241989Y3059201D01*
X39190889Y3196204D01*
X39103261Y3313261D01*
X38986204Y3400889D01*
X38849203Y3451989D01*
X38788654Y3458500D01*
X38788638Y3458500D01*
X37691362Y3458500D01*
X37691345Y3458500D01*
X37630797Y3451989D01*
X37630795Y3451989D01*
X37493795Y3400889D01*
X37376739Y3313261D01*
X37289111Y3196205D01*
X37238011Y3059205D01*
X37238011Y3059203D01*
X37231500Y2998655D01*
X37231500Y2878410D01*
X37211815Y2811371D01*
X37159011Y2765616D01*
X37089853Y2755672D01*
X37026297Y2784697D01*
X37019819Y2790729D01*
X36179455Y3631093D01*
X36145970Y3692416D01*
X36150954Y3762108D01*
X36192826Y3818041D01*
X36253880Y3842063D01*
X36275122Y3844348D01*
X36309201Y3848011D01*
X36311502Y3848869D01*
X36331703Y3856404D01*
X36446204Y3899111D01*
X36563261Y3986739D01*
X36650889Y4103796D01*
X36701989Y4240799D01*
X36705591Y4274308D01*
X36708499Y4301346D01*
X36708500Y4301363D01*
X36708500Y6298638D01*
X36708499Y6298655D01*
X36702791Y6351739D01*
X36701989Y6359201D01*
X36650889Y6496204D01*
X36563261Y6613261D01*
X36446204Y6700889D01*
X36408487Y6714957D01*
X36389165Y6722164D01*
X36333232Y6764036D01*
X36308816Y6829500D01*
X36308500Y6838345D01*
X36308500Y7027091D01*
X36328185Y7094130D01*
X36344816Y7114770D01*
X36357506Y7127459D01*
X36440269Y7267404D01*
X36485629Y7423534D01*
X36488500Y7460011D01*
X36488499Y7959988D01*
X36485629Y7996466D01*
X36440269Y8152596D01*
X36357506Y8292541D01*
X36357504Y8292543D01*
X36357501Y8292547D01*
X36354819Y8295229D01*
X36353388Y8297850D01*
X36352723Y8298707D01*
X36352861Y8298815D01*
X36321334Y8356552D01*
X36318500Y8382910D01*
X36318500Y9906589D01*
X36338185Y9973628D01*
X36354819Y9994270D01*
X37060553Y10700004D01*
X37786922Y11426373D01*
X37867032Y11565128D01*
X37889307Y11648261D01*
X37908500Y11719889D01*
X37908500Y15657500D01*
X37928185Y15724539D01*
X37980989Y15770294D01*
X38032500Y15781500D01*
X38788638Y15781500D01*
X38788654Y15781501D01*
X38815692Y15784409D01*
X38849201Y15788011D01*
X38986204Y15839111D01*
X39103261Y15926739D01*
X39190889Y16043796D01*
X39241989Y16180799D01*
X39246172Y16219706D01*
X39248499Y16241346D01*
X39248500Y16241363D01*
X39248500Y18238638D01*
X39248499Y18238655D01*
X39245157Y18269730D01*
X39241989Y18299201D01*
X39190889Y18436204D01*
X39103261Y18553261D01*
X38986204Y18640889D01*
X38849203Y18691989D01*
X38788654Y18698500D01*
X38788638Y18698500D01*
X38032500Y18698500D01*
X37965461Y18718185D01*
X37919706Y18770989D01*
X37908500Y18822500D01*
X37908500Y23827156D01*
X39860000Y23827156D01*
X39866401Y23767628D01*
X39866403Y23767621D01*
X39916645Y23632914D01*
X39916649Y23632907D01*
X40002809Y23517813D01*
X40002812Y23517810D01*
X40117906Y23431650D01*
X40117913Y23431646D01*
X40252620Y23381404D01*
X40252627Y23381402D01*
X40312155Y23375001D01*
X40312172Y23375000D01*
X40610000Y23375000D01*
X40610000Y25200000D01*
X39860000Y25200000D01*
X39860000Y23827156D01*
X37908500Y23827156D01*
X37908500Y23980109D01*
X37908500Y23980111D01*
X37867032Y24134872D01*
X37804960Y24242383D01*
X37786923Y24273625D01*
X37786918Y24273631D01*
X35113629Y26946920D01*
X35113627Y26946922D01*
X34974873Y27027032D01*
X34972495Y27028405D01*
X34930122Y27072845D01*
X39860000Y27072845D01*
X39860000Y25700000D01*
X40610000Y25700000D01*
X40610000Y27525000D01*
X40312155Y27525000D01*
X40252627Y27518599D01*
X40252620Y27518597D01*
X40117913Y27468355D01*
X40117906Y27468351D01*
X40002812Y27382191D01*
X40002809Y27382188D01*
X39916649Y27267094D01*
X39916645Y27267087D01*
X39866403Y27132380D01*
X39866401Y27132373D01*
X39860000Y27072845D01*
X34930122Y27072845D01*
X34924280Y27078972D01*
X34918314Y27092458D01*
X34905703Y27126270D01*
X34875889Y27206204D01*
X34788261Y27323261D01*
X34671204Y27410889D01*
X34534203Y27461989D01*
X34473654Y27468500D01*
X34473638Y27468500D01*
X31226362Y27468500D01*
X31226345Y27468500D01*
X31165797Y27461989D01*
X31165795Y27461989D01*
X31028795Y27410889D01*
X30911739Y27323261D01*
X30824111Y27206205D01*
X30773011Y27069205D01*
X30773011Y27069203D01*
X30766500Y27008655D01*
X30766500Y25911346D01*
X30773011Y25850798D01*
X30773011Y25850796D01*
X30789796Y25805796D01*
X30824111Y25713796D01*
X30911739Y25596739D01*
X31028796Y25509111D01*
X31165799Y25458011D01*
X31193050Y25455082D01*
X31226345Y25451501D01*
X31226362Y25451500D01*
X34473638Y25451500D01*
X34473654Y25451501D01*
X34504240Y25454790D01*
X34534201Y25458011D01*
X34671204Y25509111D01*
X34676193Y25512846D01*
X34741654Y25537266D01*
X34809928Y25522417D01*
X34838188Y25501263D01*
X36655181Y23684270D01*
X36688666Y23622947D01*
X36691500Y23596589D01*
X36691500Y21994367D01*
X36671815Y21927328D01*
X36619011Y21881573D01*
X36549853Y21871629D01*
X36493190Y21895100D01*
X36442092Y21933351D01*
X36442086Y21933355D01*
X36307379Y21983597D01*
X36307372Y21983599D01*
X36247844Y21990000D01*
X35950000Y21990000D01*
X35950000Y19090000D01*
X36247828Y19090000D01*
X36247844Y19090001D01*
X36307372Y19096402D01*
X36307379Y19096404D01*
X36442086Y19146646D01*
X36442089Y19146648D01*
X36493188Y19184900D01*
X36558653Y19209318D01*
X36626926Y19194467D01*
X36676332Y19145062D01*
X36691500Y19085634D01*
X36691500Y12103411D01*
X36671815Y12036372D01*
X36655181Y12015730D01*
X35223080Y10583630D01*
X35223076Y10583624D01*
X35142967Y10444872D01*
X35142966Y10444871D01*
X35135178Y10415801D01*
X35135178Y10415800D01*
X35101500Y10290111D01*
X35101500Y8649930D01*
X35081815Y8582891D01*
X35029011Y8537136D01*
X34959853Y8527192D01*
X34942908Y8530853D01*
X34926473Y8535628D01*
X34926461Y8535630D01*
X34894177Y8538171D01*
X34889989Y8538500D01*
X34889988Y8538500D01*
X34490022Y8538500D01*
X34490000Y8538499D01*
X34453533Y8535629D01*
X34297408Y8490271D01*
X34297400Y8490268D01*
X34280370Y8480196D01*
X34212646Y8463016D01*
X34176298Y8469888D01*
X34081049Y8503217D01*
X34081041Y8503219D01*
X33900004Y8523616D01*
X33899996Y8523616D01*
X33718954Y8503218D01*
X33718953Y8503218D01*
X33617417Y8467690D01*
X33547638Y8464129D01*
X33513346Y8477998D01*
X33492596Y8490269D01*
X33492591Y8490271D01*
X33336472Y8535628D01*
X33336461Y8535630D01*
X33304177Y8538171D01*
X33299989Y8538500D01*
X33299988Y8538500D01*
X32900022Y8538500D01*
X32900000Y8538499D01*
X32863536Y8535630D01*
X32847091Y8530852D01*
X32777221Y8531054D01*
X32718553Y8568998D01*
X32689712Y8632638D01*
X32688500Y8649930D01*
X32688500Y15657500D01*
X32708185Y15724539D01*
X32760989Y15770294D01*
X32812500Y15781500D01*
X33708638Y15781500D01*
X33708654Y15781501D01*
X33735692Y15784409D01*
X33769201Y15788011D01*
X33906204Y15839111D01*
X34023261Y15926739D01*
X34110889Y16043796D01*
X34161989Y16180799D01*
X34166172Y16219706D01*
X34168499Y16241346D01*
X34168500Y16241363D01*
X34168500Y18238638D01*
X34168499Y18238655D01*
X34165157Y18269730D01*
X34161989Y18299201D01*
X34110889Y18436204D01*
X34023261Y18553261D01*
X33906204Y18640889D01*
X33769203Y18691989D01*
X33708654Y18698500D01*
X33708638Y18698500D01*
X32611362Y18698500D01*
X32611345Y18698500D01*
X32550797Y18691989D01*
X32550795Y18691989D01*
X32413795Y18640889D01*
X32296739Y18553261D01*
X32209111Y18436205D01*
X32158011Y18299205D01*
X32158011Y18299203D01*
X32151500Y18238655D01*
X32151500Y17708411D01*
X32131815Y17641372D01*
X32079011Y17595617D01*
X32009853Y17585673D01*
X31946297Y17614698D01*
X31939819Y17620730D01*
X30690730Y18869819D01*
X30657245Y18931142D01*
X30662229Y19000834D01*
X30704101Y19056767D01*
X30769565Y19081184D01*
X30778411Y19081500D01*
X31168638Y19081500D01*
X31168654Y19081501D01*
X31195692Y19084409D01*
X31229201Y19088011D01*
X31234537Y19090001D01*
X31251703Y19096404D01*
X31366204Y19139111D01*
X31483261Y19226739D01*
X31570889Y19343796D01*
X31621989Y19480799D01*
X31625591Y19514308D01*
X31628499Y19541346D01*
X31628500Y19541363D01*
X31628500Y19542156D01*
X34700000Y19542156D01*
X34706401Y19482628D01*
X34706403Y19482621D01*
X34756645Y19347914D01*
X34756649Y19347907D01*
X34842809Y19232813D01*
X34842812Y19232810D01*
X34957906Y19146650D01*
X34957913Y19146646D01*
X35092620Y19096404D01*
X35092627Y19096402D01*
X35152155Y19090001D01*
X35152172Y19090000D01*
X35450000Y19090000D01*
X35450000Y20290000D01*
X34700000Y20290000D01*
X34700000Y19542156D01*
X31628500Y19542156D01*
X31628500Y21537845D01*
X34700000Y21537845D01*
X34700000Y20790000D01*
X35450000Y20790000D01*
X35450000Y21990000D01*
X35152155Y21990000D01*
X35092627Y21983599D01*
X35092620Y21983597D01*
X34957913Y21933355D01*
X34957906Y21933351D01*
X34842812Y21847191D01*
X34842809Y21847188D01*
X34756649Y21732094D01*
X34756645Y21732087D01*
X34706403Y21597380D01*
X34706401Y21597373D01*
X34700000Y21537845D01*
X31628500Y21537845D01*
X31628500Y21538638D01*
X31628499Y21538655D01*
X31625157Y21569730D01*
X31621989Y21599201D01*
X31570889Y21736204D01*
X31483261Y21853261D01*
X31366204Y21940889D01*
X31363083Y21942053D01*
X31229203Y21991989D01*
X31168654Y21998500D01*
X31168638Y21998500D01*
X30071362Y21998500D01*
X30071345Y21998500D01*
X30010797Y21991989D01*
X30010795Y21991989D01*
X29873795Y21940889D01*
X29756739Y21853261D01*
X29669111Y21736205D01*
X29618011Y21599205D01*
X29618011Y21599203D01*
X29611500Y21538655D01*
X29611500Y20248411D01*
X29591815Y20181372D01*
X29539011Y20135617D01*
X29469853Y20125673D01*
X29406297Y20154698D01*
X29399819Y20160730D01*
X26860730Y22699819D01*
X26827245Y22761142D01*
X26832229Y22830834D01*
X26874101Y22886767D01*
X26939565Y22911184D01*
X26948411Y22911500D01*
X29423638Y22911500D01*
X29423654Y22911501D01*
X29450692Y22914409D01*
X29484201Y22918011D01*
X29489537Y22920001D01*
X29520768Y22931650D01*
X29621204Y22969111D01*
X29738261Y23056739D01*
X29825889Y23173796D01*
X29876989Y23310799D01*
X29881773Y23355294D01*
X29883499Y23371346D01*
X29883500Y23371363D01*
X29883500Y23372156D01*
X30775000Y23372156D01*
X30781401Y23312628D01*
X30781403Y23312621D01*
X30831645Y23177914D01*
X30831649Y23177907D01*
X30917809Y23062813D01*
X30917812Y23062810D01*
X31032906Y22976650D01*
X31032913Y22976646D01*
X31167620Y22926404D01*
X31167627Y22926402D01*
X31227155Y22920001D01*
X31227172Y22920000D01*
X32600000Y22920000D01*
X33100000Y22920000D01*
X34472828Y22920000D01*
X34472844Y22920001D01*
X34532372Y22926402D01*
X34532379Y22926404D01*
X34667086Y22976646D01*
X34667093Y22976650D01*
X34782187Y23062810D01*
X34782190Y23062813D01*
X34868350Y23177907D01*
X34868354Y23177914D01*
X34918596Y23312621D01*
X34918598Y23312628D01*
X34924999Y23372156D01*
X34925000Y23372173D01*
X34925000Y23670000D01*
X33100000Y23670000D01*
X33100000Y22920000D01*
X32600000Y22920000D01*
X32600000Y23670000D01*
X30775000Y23670000D01*
X30775000Y23372156D01*
X29883500Y23372156D01*
X29883500Y24467845D01*
X30775000Y24467845D01*
X30775000Y24170000D01*
X32600000Y24170000D01*
X33100000Y24170000D01*
X34925000Y24170000D01*
X34925000Y24467828D01*
X34924999Y24467845D01*
X34918598Y24527373D01*
X34918596Y24527380D01*
X34868354Y24662087D01*
X34868350Y24662094D01*
X34782190Y24777188D01*
X34782187Y24777191D01*
X34667093Y24863351D01*
X34667086Y24863355D01*
X34532379Y24913597D01*
X34532372Y24913599D01*
X34472844Y24920000D01*
X33100000Y24920000D01*
X33100000Y24170000D01*
X32600000Y24170000D01*
X32600000Y24920000D01*
X31227155Y24920000D01*
X31167627Y24913599D01*
X31167620Y24913597D01*
X31032913Y24863355D01*
X31032906Y24863351D01*
X30917812Y24777191D01*
X30917809Y24777188D01*
X30831649Y24662094D01*
X30831645Y24662087D01*
X30781403Y24527380D01*
X30781401Y24527373D01*
X30775000Y24467845D01*
X29883500Y24467845D01*
X29883500Y24468638D01*
X29883499Y24468655D01*
X29880157Y24499730D01*
X29876989Y24529201D01*
X29873847Y24537624D01*
X29851636Y24597173D01*
X29825889Y24666204D01*
X29738261Y24783261D01*
X29621204Y24870889D01*
X29607386Y24876043D01*
X29484203Y24921989D01*
X29423654Y24928500D01*
X29423638Y24928500D01*
X26432500Y24928500D01*
X26365461Y24948185D01*
X26319706Y25000989D01*
X26308500Y25052500D01*
X26308500Y25327500D01*
X26328185Y25394539D01*
X26380989Y25440294D01*
X26432500Y25451500D01*
X29423638Y25451500D01*
X29423654Y25451501D01*
X29454240Y25454790D01*
X29484201Y25458011D01*
X29621204Y25509111D01*
X29738261Y25596739D01*
X29825889Y25713796D01*
X29876989Y25850799D01*
X29880591Y25884308D01*
X29883499Y25911346D01*
X29883500Y25911363D01*
X29883500Y27008638D01*
X29883499Y27008655D01*
X29879071Y27049831D01*
X29876989Y27069201D01*
X29876565Y27070337D01*
X29835155Y27181360D01*
X29825889Y27206204D01*
X29738261Y27323261D01*
X29621204Y27410889D01*
X29484203Y27461989D01*
X29423654Y27468500D01*
X29423638Y27468500D01*
X26176362Y27468500D01*
X26176345Y27468500D01*
X26115797Y27461989D01*
X26115795Y27461989D01*
X25978795Y27410889D01*
X25861739Y27323261D01*
X25774111Y27206205D01*
X25723011Y27069205D01*
X25723011Y27069204D01*
X25717369Y27016734D01*
X25690630Y26952184D01*
X25681761Y26942311D01*
X25213080Y26473630D01*
X25213078Y26473627D01*
X25132968Y26334873D01*
X25114790Y26267032D01*
X25091500Y26180111D01*
X25091500Y22919889D01*
X25100334Y22886921D01*
X25132968Y22765127D01*
X25213078Y22626373D01*
X25213080Y22626371D01*
X25629270Y22210181D01*
X25662755Y22148858D01*
X25657771Y22079166D01*
X25615899Y22023233D01*
X25550435Y21998816D01*
X25541589Y21998500D01*
X24991345Y21998500D01*
X24930797Y21991989D01*
X24930795Y21991989D01*
X24793795Y21940889D01*
X24676739Y21853261D01*
X24589111Y21736205D01*
X24538011Y21599205D01*
X24538011Y21599203D01*
X24531500Y21538655D01*
X24531500Y19541346D01*
X24538011Y19480798D01*
X24538011Y19480796D01*
X24587575Y19347914D01*
X24589111Y19343796D01*
X24676739Y19226739D01*
X24793796Y19139111D01*
X24895835Y19101052D01*
X24925463Y19090001D01*
X24930799Y19088011D01*
X24958050Y19085082D01*
X24991345Y19081501D01*
X24991362Y19081500D01*
X26088638Y19081500D01*
X26088654Y19081501D01*
X26115692Y19084409D01*
X26149201Y19088011D01*
X26154537Y19090001D01*
X26171703Y19096404D01*
X26286204Y19139111D01*
X26403261Y19226739D01*
X26490889Y19343796D01*
X26541989Y19480799D01*
X26545591Y19514308D01*
X26548499Y19541346D01*
X26548500Y19541363D01*
X26548500Y20991589D01*
X26568185Y21058628D01*
X26620989Y21104383D01*
X26690147Y21114327D01*
X26753703Y21085302D01*
X26760181Y21079270D01*
X29081345Y18758106D01*
X29105523Y18713827D01*
X29134734Y18702932D01*
X29148105Y18691346D01*
X31435181Y16404270D01*
X31468666Y16342947D01*
X31471500Y16316589D01*
X31471500Y8382910D01*
X31451815Y8315871D01*
X31435181Y8295229D01*
X31432498Y8292547D01*
X31432492Y8292539D01*
X31349730Y8152595D01*
X31349729Y8152592D01*
X31304372Y7996474D01*
X31304370Y7996462D01*
X31301500Y7959995D01*
X31301500Y7460023D01*
X31301501Y7460001D01*
X31304371Y7423534D01*
X31304371Y7423533D01*
X31349729Y7267409D01*
X31349730Y7267406D01*
X31349731Y7267404D01*
X31432494Y7127459D01*
X31435177Y7124776D01*
X31436608Y7122155D01*
X31437277Y7121293D01*
X31437138Y7121186D01*
X31468665Y7063456D01*
X31471500Y7037091D01*
X31471500Y6831139D01*
X31451815Y6764100D01*
X31399011Y6718345D01*
X31329853Y6708401D01*
X31304167Y6714957D01*
X31227379Y6743597D01*
X31227372Y6743599D01*
X31167844Y6750000D01*
X30870000Y6750000D01*
X30870000Y5550000D01*
X31620000Y5550000D01*
X31620000Y6170090D01*
X31639685Y6237129D01*
X31692489Y6282884D01*
X31761647Y6292828D01*
X31825203Y6263803D01*
X31831667Y6257784D01*
X34053861Y4035591D01*
X36458738Y1630714D01*
X36458748Y1630703D01*
X36463078Y1626373D01*
X36463079Y1626372D01*
X36569271Y1520180D01*
X36602755Y1458859D01*
X36597771Y1389167D01*
X36555900Y1333233D01*
X36490436Y1308816D01*
X36481589Y1308500D01*
X34292500Y1308500D01*
X34225461Y1328185D01*
X34179706Y1380989D01*
X34168500Y1432500D01*
X34168500Y2998638D01*
X34168499Y2998655D01*
X34165157Y3029730D01*
X34161989Y3059201D01*
X34110889Y3196204D01*
X34023261Y3313261D01*
X33906204Y3400889D01*
X33769203Y3451989D01*
X33708654Y3458500D01*
X33708638Y3458500D01*
X32611362Y3458500D01*
X32611345Y3458500D01*
X32550797Y3451989D01*
X32550795Y3451989D01*
X32413795Y3400889D01*
X32296739Y3313261D01*
X32209111Y3196205D01*
X32158011Y3059205D01*
X32158011Y3059203D01*
X32151500Y2998655D01*
X32151500Y1432500D01*
X32131815Y1365461D01*
X32079011Y1319706D01*
X32027500Y1308500D01*
X30503411Y1308500D01*
X30436372Y1328185D01*
X30415730Y1344819D01*
X30044819Y1715730D01*
X30011334Y1777053D01*
X30008500Y1803411D01*
X30008500Y3080109D01*
X30008500Y3080111D01*
X29967032Y3234872D01*
X29967032Y3234873D01*
X29886921Y3373628D01*
X28958393Y4302156D01*
X29620000Y4302156D01*
X29626401Y4242628D01*
X29626403Y4242621D01*
X29676645Y4107914D01*
X29676649Y4107907D01*
X29762809Y3992813D01*
X29762812Y3992810D01*
X29877906Y3906650D01*
X29877913Y3906646D01*
X30012620Y3856404D01*
X30012627Y3856402D01*
X30072155Y3850001D01*
X30072172Y3850000D01*
X30370000Y3850000D01*
X30870000Y3850000D01*
X31167828Y3850000D01*
X31167844Y3850001D01*
X31227372Y3856402D01*
X31227379Y3856404D01*
X31362086Y3906646D01*
X31362093Y3906650D01*
X31477187Y3992810D01*
X31477190Y3992813D01*
X31563350Y4107907D01*
X31563354Y4107914D01*
X31613596Y4242621D01*
X31613598Y4242628D01*
X31619999Y4302156D01*
X31620000Y4302173D01*
X31620000Y5050000D01*
X30870000Y5050000D01*
X30870000Y3850000D01*
X30370000Y3850000D01*
X30370000Y5050000D01*
X29620000Y5050000D01*
X29620000Y4302156D01*
X28958393Y4302156D01*
X27473627Y5786922D01*
X27334873Y5867032D01*
X27257491Y5887766D01*
X27257490Y5887767D01*
X27200844Y5902945D01*
X27180111Y5908500D01*
X27180110Y5908500D01*
X26672500Y5908500D01*
X26605461Y5928185D01*
X26559706Y5980989D01*
X26548500Y6032500D01*
X26548500Y6297845D01*
X29620000Y6297845D01*
X29620000Y5550000D01*
X30370000Y5550000D01*
X30370000Y6750000D01*
X30072155Y6750000D01*
X30012627Y6743599D01*
X30012620Y6743597D01*
X29877913Y6693355D01*
X29877906Y6693351D01*
X29762812Y6607191D01*
X29762809Y6607188D01*
X29676649Y6492094D01*
X29676645Y6492087D01*
X29626403Y6357380D01*
X29626401Y6357373D01*
X29620000Y6297845D01*
X26548500Y6297845D01*
X26548500Y6298638D01*
X26548499Y6298655D01*
X26542791Y6351739D01*
X26541989Y6359201D01*
X26490889Y6496204D01*
X26403261Y6613261D01*
X26286204Y6700889D01*
X26248487Y6714957D01*
X26149203Y6751989D01*
X26088654Y6758500D01*
X26088638Y6758500D01*
X24991362Y6758500D01*
X24991345Y6758500D01*
X24930797Y6751989D01*
X24930795Y6751989D01*
X24793795Y6700889D01*
X24676739Y6613261D01*
X24589111Y6496205D01*
X24538011Y6359205D01*
X24538011Y6359203D01*
X24531500Y6298655D01*
X24531500Y4301346D01*
X24538011Y4240798D01*
X24538011Y4240796D01*
X24587575Y4107914D01*
X24589111Y4103796D01*
X24676739Y3986739D01*
X24793796Y3899111D01*
X24908297Y3856404D01*
X24928498Y3848869D01*
X24930799Y3848011D01*
X24958050Y3845082D01*
X24991345Y3841501D01*
X24991362Y3841500D01*
X26088638Y3841500D01*
X26088654Y3841501D01*
X26115692Y3844409D01*
X26149201Y3848011D01*
X26151502Y3848869D01*
X26171703Y3856404D01*
X26286204Y3899111D01*
X26403261Y3986739D01*
X26490889Y4103796D01*
X26541989Y4240799D01*
X26545591Y4274308D01*
X26548499Y4301346D01*
X26548500Y4301363D01*
X26548500Y4567500D01*
X26568185Y4634539D01*
X26620989Y4680294D01*
X26672500Y4691500D01*
X26796589Y4691500D01*
X26863628Y4671815D01*
X26884270Y4655181D01*
X27869270Y3670181D01*
X27902755Y3608858D01*
X27897771Y3539166D01*
X27855899Y3483233D01*
X27790435Y3458816D01*
X27781589Y3458500D01*
X27531345Y3458500D01*
X27470797Y3451989D01*
X27470795Y3451989D01*
X27333795Y3400889D01*
X27216739Y3313261D01*
X27129111Y3196205D01*
X27078011Y3059205D01*
X27078011Y3059203D01*
X27071500Y2998655D01*
X27071500Y1124000D01*
X27051815Y1056961D01*
X26999011Y1011206D01*
X26947500Y1000000D01*
X24132500Y1000000D01*
X24065461Y1019685D01*
X24019706Y1072489D01*
X24008500Y1124000D01*
X24008500Y2998638D01*
X24008499Y2998655D01*
X24005157Y3029730D01*
X24001989Y3059201D01*
X23950889Y3196204D01*
X23863261Y3313261D01*
X23746204Y3400889D01*
X23609203Y3451989D01*
X23548654Y3458500D01*
X23548638Y3458500D01*
X22451362Y3458500D01*
X22451345Y3458500D01*
X22390797Y3451989D01*
X22390795Y3451989D01*
X22253795Y3400889D01*
X22136739Y3313261D01*
X22049111Y3196205D01*
X21998011Y3059205D01*
X21998011Y3059203D01*
X21991500Y2998655D01*
X21991500Y1124000D01*
X21971815Y1056961D01*
X21919011Y1011206D01*
X21867500Y1000000D01*
X19052500Y1000000D01*
X18985461Y1019685D01*
X18939706Y1072489D01*
X18928500Y1124000D01*
X18928500Y2998638D01*
X18928499Y2998655D01*
X18925157Y3029730D01*
X18921989Y3059201D01*
X18870889Y3196204D01*
X18783261Y3313261D01*
X18666204Y3400889D01*
X18529203Y3451989D01*
X18468654Y3458500D01*
X18468638Y3458500D01*
X17371362Y3458500D01*
X17371345Y3458500D01*
X17310797Y3451989D01*
X17310795Y3451989D01*
X17173795Y3400889D01*
X17056739Y3313261D01*
X16969111Y3196205D01*
X16918011Y3059205D01*
X16918011Y3059203D01*
X16911500Y2998655D01*
X16911500Y1124000D01*
X16891815Y1056961D01*
X16839011Y1011206D01*
X16787500Y1000000D01*
X13972500Y1000000D01*
X13905461Y1019685D01*
X13859706Y1072489D01*
X13848500Y1124000D01*
X13848500Y2998638D01*
X13848499Y2998655D01*
X13845157Y3029730D01*
X13841989Y3059201D01*
X13790889Y3196204D01*
X13703261Y3313261D01*
X13586204Y3400889D01*
X13449203Y3451989D01*
X13388654Y3458500D01*
X13388638Y3458500D01*
X12291362Y3458500D01*
X12291345Y3458500D01*
X12230797Y3451989D01*
X12230795Y3451989D01*
X12093795Y3400889D01*
X11976739Y3313261D01*
X11889111Y3196205D01*
X11838011Y3059205D01*
X11838011Y3059203D01*
X11831500Y2998655D01*
X11831500Y1124000D01*
X11811815Y1056961D01*
X11759011Y1011206D01*
X11707500Y1000000D01*
X8892500Y1000000D01*
X8825461Y1019685D01*
X8779706Y1072489D01*
X8768500Y1124000D01*
X8768500Y2998638D01*
X8768499Y2998655D01*
X8765157Y3029730D01*
X8761989Y3059201D01*
X8710889Y3196204D01*
X8623261Y3313261D01*
X8506204Y3400889D01*
X8369203Y3451989D01*
X8308654Y3458500D01*
X8308638Y3458500D01*
X7211362Y3458500D01*
X7211345Y3458500D01*
X7150797Y3451989D01*
X7150795Y3451989D01*
X7013795Y3400889D01*
X6896739Y3313261D01*
X6809111Y3196205D01*
X6758011Y3059205D01*
X6758011Y3059203D01*
X6751500Y2998655D01*
X6751500Y1124000D01*
X6731815Y1056961D01*
X6679011Y1011206D01*
X6627500Y1000000D01*
X3812500Y1000000D01*
X3745461Y1019685D01*
X3699706Y1072489D01*
X3688500Y1124000D01*
X3688500Y2998638D01*
X3688499Y2998655D01*
X3685157Y3029730D01*
X3681989Y3059201D01*
X3630889Y3196204D01*
X3543261Y3313261D01*
X3426204Y3400889D01*
X3289203Y3451989D01*
X3228654Y3458500D01*
X3228638Y3458500D01*
X2131362Y3458500D01*
X2131345Y3458500D01*
X2070797Y3451989D01*
X2070795Y3451989D01*
X1933795Y3400889D01*
X1816739Y3313261D01*
X1729111Y3196205D01*
X1678011Y3059205D01*
X1678011Y3059203D01*
X1671500Y2998655D01*
X1671500Y1124000D01*
X1651815Y1056961D01*
X1599011Y1011206D01*
X1547500Y1000000D01*
X1124000Y1000000D01*
X1056961Y1019685D01*
X1011206Y1072489D01*
X1000000Y1124000D01*
X1000000Y18238655D01*
X1671500Y18238655D01*
X1671500Y16241346D01*
X1678011Y16180798D01*
X1678011Y16180796D01*
X1729111Y16043796D01*
X1816739Y15926739D01*
X1933796Y15839111D01*
X2070799Y15788011D01*
X2098050Y15785082D01*
X2131345Y15781501D01*
X2131362Y15781500D01*
X3228638Y15781500D01*
X3228654Y15781501D01*
X3255692Y15784409D01*
X3289201Y15788011D01*
X3426204Y15839111D01*
X3543261Y15926739D01*
X3630889Y16043796D01*
X3681989Y16180799D01*
X3686172Y16219706D01*
X3688499Y16241346D01*
X3688500Y16241363D01*
X3688500Y18238638D01*
X3688499Y18238655D01*
X6751500Y18238655D01*
X6751500Y16241346D01*
X6758011Y16180798D01*
X6758011Y16180796D01*
X6809111Y16043796D01*
X6896739Y15926739D01*
X7013796Y15839111D01*
X7150799Y15788011D01*
X7178050Y15785082D01*
X7211345Y15781501D01*
X7211362Y15781500D01*
X8308638Y15781500D01*
X8308654Y15781501D01*
X8335692Y15784409D01*
X8369201Y15788011D01*
X8506204Y15839111D01*
X8623261Y15926739D01*
X8710889Y16043796D01*
X8761989Y16180799D01*
X8766172Y16219706D01*
X8768499Y16241346D01*
X8768500Y16241363D01*
X8768500Y18238638D01*
X8768499Y18238655D01*
X8765157Y18269730D01*
X8761989Y18299201D01*
X8710889Y18436204D01*
X8623261Y18553261D01*
X8506204Y18640889D01*
X8369203Y18691989D01*
X8308654Y18698500D01*
X8308638Y18698500D01*
X7211362Y18698500D01*
X7211345Y18698500D01*
X7150797Y18691989D01*
X7150795Y18691989D01*
X7013795Y18640889D01*
X6896739Y18553261D01*
X6809111Y18436205D01*
X6758011Y18299205D01*
X6758011Y18299203D01*
X6751500Y18238655D01*
X3688499Y18238655D01*
X3685157Y18269730D01*
X3681989Y18299201D01*
X3630889Y18436204D01*
X3543261Y18553261D01*
X3426204Y18640889D01*
X3289203Y18691989D01*
X3228654Y18698500D01*
X3228638Y18698500D01*
X2131362Y18698500D01*
X2131345Y18698500D01*
X2070797Y18691989D01*
X2070795Y18691989D01*
X1933795Y18640889D01*
X1816739Y18553261D01*
X1729111Y18436205D01*
X1678011Y18299205D01*
X1678011Y18299203D01*
X1671500Y18238655D01*
X1000000Y18238655D01*
X1000000Y22885089D01*
X1019685Y22952128D01*
X1072489Y22997883D01*
X1141647Y23007827D01*
X1205203Y22978802D01*
X1211681Y22972770D01*
X1213078Y22971373D01*
X1658077Y22526374D01*
X1658079Y22526372D01*
X1771372Y22413079D01*
X1771373Y22413078D01*
X1771375Y22413077D01*
X1808745Y22391502D01*
X1808747Y22391500D01*
X1808748Y22391500D01*
X1910127Y22332968D01*
X1987508Y22312234D01*
X2064889Y22291500D01*
X2064890Y22291500D01*
X2225110Y22291500D01*
X5396589Y22291500D01*
X5463628Y22271815D01*
X5484270Y22255181D01*
X5529270Y22210181D01*
X5562755Y22148858D01*
X5557771Y22079166D01*
X5515899Y22023233D01*
X5450435Y21998816D01*
X5441589Y21998500D01*
X4671345Y21998500D01*
X4610797Y21991989D01*
X4610795Y21991989D01*
X4473795Y21940889D01*
X4356739Y21853261D01*
X4269111Y21736205D01*
X4218011Y21599205D01*
X4218011Y21599203D01*
X4211500Y21538655D01*
X4211500Y19541346D01*
X4218011Y19480798D01*
X4218011Y19480796D01*
X4267575Y19347914D01*
X4269111Y19343796D01*
X4356739Y19226739D01*
X4473796Y19139111D01*
X4575835Y19101052D01*
X4605463Y19090001D01*
X4610799Y19088011D01*
X4638050Y19085082D01*
X4671345Y19081501D01*
X4671362Y19081500D01*
X5768638Y19081500D01*
X5768654Y19081501D01*
X5795692Y19084409D01*
X5829201Y19088011D01*
X5834537Y19090001D01*
X5851703Y19096404D01*
X5966204Y19139111D01*
X6083261Y19226739D01*
X6170889Y19343796D01*
X6221989Y19480799D01*
X6225591Y19514308D01*
X6228499Y19541346D01*
X6228500Y19541363D01*
X6228500Y21211589D01*
X6248185Y21278628D01*
X6300989Y21324383D01*
X6370147Y21334327D01*
X6433703Y21305302D01*
X6440181Y21299270D01*
X10986373Y16753078D01*
X10986375Y16753077D01*
X10986379Y16753074D01*
X11078114Y16700111D01*
X11078115Y16700111D01*
X11125128Y16672968D01*
X11279889Y16631500D01*
X11279890Y16631500D01*
X11440110Y16631500D01*
X11707500Y16631500D01*
X11774539Y16611815D01*
X11820294Y16559011D01*
X11831500Y16507500D01*
X11831500Y16241346D01*
X11838011Y16180798D01*
X11838011Y16180796D01*
X11889111Y16043796D01*
X11976739Y15926739D01*
X12093796Y15839111D01*
X12230799Y15788011D01*
X12258050Y15785082D01*
X12291345Y15781501D01*
X12291362Y15781500D01*
X12621589Y15781500D01*
X12688628Y15761815D01*
X12734383Y15709011D01*
X12744327Y15639853D01*
X12715302Y15576297D01*
X12709270Y15569819D01*
X4733080Y7593630D01*
X4733076Y7593624D01*
X4652967Y7454874D01*
X4652968Y7454874D01*
X4652968Y7454873D01*
X4611500Y7300111D01*
X4611500Y6838345D01*
X4591815Y6771306D01*
X4539011Y6725551D01*
X4530835Y6722164D01*
X4473795Y6700889D01*
X4356739Y6613261D01*
X4269111Y6496205D01*
X4218011Y6359205D01*
X4218011Y6359203D01*
X4211500Y6298655D01*
X4211500Y4301346D01*
X4218011Y4240798D01*
X4218011Y4240796D01*
X4267575Y4107914D01*
X4269111Y4103796D01*
X4356739Y3986739D01*
X4473796Y3899111D01*
X4588297Y3856404D01*
X4608498Y3848869D01*
X4610799Y3848011D01*
X4638050Y3845082D01*
X4671345Y3841501D01*
X4671362Y3841500D01*
X5768638Y3841500D01*
X5768654Y3841501D01*
X5795692Y3844409D01*
X5829201Y3848011D01*
X5831502Y3848869D01*
X5851703Y3856404D01*
X5966204Y3899111D01*
X6083261Y3986739D01*
X6170889Y4103796D01*
X6221989Y4240799D01*
X6225591Y4274308D01*
X6228499Y4301346D01*
X6228500Y4301363D01*
X6228500Y6298638D01*
X6228499Y6298655D01*
X9291500Y6298655D01*
X9291500Y4301346D01*
X9298011Y4240798D01*
X9298011Y4240796D01*
X9347575Y4107914D01*
X9349111Y4103796D01*
X9436739Y3986739D01*
X9553796Y3899111D01*
X9668297Y3856404D01*
X9688498Y3848869D01*
X9690799Y3848011D01*
X9718050Y3845082D01*
X9751345Y3841501D01*
X9751362Y3841500D01*
X10848638Y3841500D01*
X10848654Y3841501D01*
X10875692Y3844409D01*
X10909201Y3848011D01*
X10911502Y3848869D01*
X10931703Y3856404D01*
X11046204Y3899111D01*
X11163261Y3986739D01*
X11250889Y4103796D01*
X11301989Y4240799D01*
X11305591Y4274308D01*
X11308499Y4301346D01*
X11308500Y4301363D01*
X11308500Y6298638D01*
X11308499Y6298655D01*
X14371500Y6298655D01*
X14371500Y4301346D01*
X14378011Y4240798D01*
X14378011Y4240796D01*
X14427575Y4107914D01*
X14429111Y4103796D01*
X14516739Y3986739D01*
X14633796Y3899111D01*
X14748297Y3856404D01*
X14768498Y3848869D01*
X14770799Y3848011D01*
X14798050Y3845082D01*
X14831345Y3841501D01*
X14831362Y3841500D01*
X15928638Y3841500D01*
X15928654Y3841501D01*
X15955692Y3844409D01*
X15989201Y3848011D01*
X15991502Y3848869D01*
X16011703Y3856404D01*
X16126204Y3899111D01*
X16243261Y3986739D01*
X16330889Y4103796D01*
X16381989Y4240799D01*
X16385591Y4274308D01*
X16388499Y4301346D01*
X16388500Y4301363D01*
X16388500Y6298638D01*
X16388499Y6298655D01*
X19451500Y6298655D01*
X19451500Y4301346D01*
X19458011Y4240798D01*
X19458011Y4240796D01*
X19507575Y4107914D01*
X19509111Y4103796D01*
X19596739Y3986739D01*
X19713796Y3899111D01*
X19828297Y3856404D01*
X19848498Y3848869D01*
X19850799Y3848011D01*
X19878050Y3845082D01*
X19911345Y3841501D01*
X19911362Y3841500D01*
X21008638Y3841500D01*
X21008654Y3841501D01*
X21035692Y3844409D01*
X21069201Y3848011D01*
X21071502Y3848869D01*
X21091703Y3856404D01*
X21206204Y3899111D01*
X21323261Y3986739D01*
X21410889Y4103796D01*
X21461989Y4240799D01*
X21465591Y4274308D01*
X21468499Y4301346D01*
X21468500Y4301363D01*
X21468500Y6298638D01*
X21468499Y6298655D01*
X21462791Y6351739D01*
X21461989Y6359201D01*
X21410889Y6496204D01*
X21323261Y6613261D01*
X21206204Y6700889D01*
X21168487Y6714957D01*
X21069203Y6751989D01*
X21008654Y6758500D01*
X21008638Y6758500D01*
X19911362Y6758500D01*
X19911345Y6758500D01*
X19850797Y6751989D01*
X19850795Y6751989D01*
X19713795Y6700889D01*
X19596739Y6613261D01*
X19509111Y6496205D01*
X19458011Y6359205D01*
X19458011Y6359203D01*
X19451500Y6298655D01*
X16388499Y6298655D01*
X16382791Y6351739D01*
X16381989Y6359201D01*
X16330889Y6496204D01*
X16243261Y6613261D01*
X16126204Y6700889D01*
X16088487Y6714957D01*
X15989203Y6751989D01*
X15928654Y6758500D01*
X15928638Y6758500D01*
X14831362Y6758500D01*
X14831345Y6758500D01*
X14770797Y6751989D01*
X14770795Y6751989D01*
X14633795Y6700889D01*
X14516739Y6613261D01*
X14429111Y6496205D01*
X14378011Y6359205D01*
X14378011Y6359203D01*
X14371500Y6298655D01*
X11308499Y6298655D01*
X11302791Y6351739D01*
X11301989Y6359201D01*
X11250889Y6496204D01*
X11163261Y6613261D01*
X11046204Y6700889D01*
X11008487Y6714957D01*
X10909203Y6751989D01*
X10848654Y6758500D01*
X10848638Y6758500D01*
X9751362Y6758500D01*
X9751345Y6758500D01*
X9690797Y6751989D01*
X9690795Y6751989D01*
X9553795Y6700889D01*
X9436739Y6613261D01*
X9349111Y6496205D01*
X9298011Y6359205D01*
X9298011Y6359203D01*
X9291500Y6298655D01*
X6228499Y6298655D01*
X6222791Y6351739D01*
X6221989Y6359201D01*
X6170889Y6496204D01*
X6083261Y6613261D01*
X5966204Y6700889D01*
X5928487Y6714957D01*
X5909165Y6722164D01*
X5853232Y6764036D01*
X5828816Y6829500D01*
X5828500Y6838345D01*
X5828500Y6916589D01*
X5848185Y6983628D01*
X5864819Y7004270D01*
X13815730Y14955181D01*
X13877053Y14988666D01*
X13903411Y14991500D01*
X23880109Y14991500D01*
X23880110Y14991500D01*
X23880111Y14991500D01*
X23957491Y15012234D01*
X24034873Y15032968D01*
X24173627Y15113078D01*
X24486922Y15426373D01*
X24567032Y15565128D01*
X24597841Y15680110D01*
X24608500Y15719889D01*
X24608500Y18238655D01*
X27071500Y18238655D01*
X27071500Y16241346D01*
X27078011Y16180798D01*
X27078011Y16180796D01*
X27129111Y16043796D01*
X27216739Y15926739D01*
X27333796Y15839111D01*
X27470799Y15788011D01*
X27498050Y15785082D01*
X27531345Y15781501D01*
X27531362Y15781500D01*
X28628638Y15781500D01*
X28628654Y15781501D01*
X28655692Y15784409D01*
X28689201Y15788011D01*
X28826204Y15839111D01*
X28943261Y15926739D01*
X29030889Y16043796D01*
X29081989Y16180799D01*
X29086172Y16219706D01*
X29088499Y16241346D01*
X29088500Y16241363D01*
X29088500Y18238638D01*
X29088499Y18238655D01*
X29085157Y18269730D01*
X29081989Y18299201D01*
X29030889Y18436204D01*
X28961156Y18529356D01*
X28950447Y18558067D01*
X28934237Y18561593D01*
X28919353Y18571158D01*
X28826204Y18640889D01*
X28689203Y18691989D01*
X28628654Y18698500D01*
X28628638Y18698500D01*
X27531362Y18698500D01*
X27531345Y18698500D01*
X27470797Y18691989D01*
X27470795Y18691989D01*
X27333795Y18640889D01*
X27216739Y18553261D01*
X27129111Y18436205D01*
X27078011Y18299205D01*
X27078011Y18299203D01*
X27071500Y18238655D01*
X24608500Y18238655D01*
X24608500Y18370111D01*
X24567032Y18524872D01*
X24519978Y18606372D01*
X24486922Y18663627D01*
X23963627Y19186922D01*
X23824873Y19267032D01*
X23747491Y19287766D01*
X23747490Y19287767D01*
X23690844Y19302945D01*
X23670111Y19308500D01*
X23670110Y19308500D01*
X21576319Y19308500D01*
X21509280Y19328185D01*
X21463525Y19380989D01*
X21453581Y19450147D01*
X21460138Y19475836D01*
X21461989Y19480799D01*
X21468499Y19541346D01*
X21468500Y19541363D01*
X21468500Y21538638D01*
X21468499Y21538655D01*
X21465157Y21569730D01*
X21461989Y21599201D01*
X21410889Y21736204D01*
X21323261Y21853261D01*
X21206204Y21940889D01*
X21203083Y21942053D01*
X21069203Y21991989D01*
X21008654Y21998500D01*
X21008638Y21998500D01*
X19911362Y21998500D01*
X19911345Y21998500D01*
X19850797Y21991989D01*
X19850795Y21991989D01*
X19713795Y21940889D01*
X19596739Y21853261D01*
X19509111Y21736205D01*
X19458011Y21599205D01*
X19458011Y21599203D01*
X19451500Y21538655D01*
X19451500Y21508411D01*
X19431815Y21441372D01*
X19379011Y21395617D01*
X19309853Y21385673D01*
X19246297Y21414698D01*
X19239819Y21420730D01*
X19044819Y21615730D01*
X19011334Y21677053D01*
X19008500Y21703411D01*
X19008500Y22800089D01*
X19028185Y22867128D01*
X19080989Y22912883D01*
X19145760Y22923378D01*
X19177165Y22920001D01*
X19177172Y22920000D01*
X20550000Y22920000D01*
X21050000Y22920000D01*
X22422828Y22920000D01*
X22422844Y22920001D01*
X22482372Y22926402D01*
X22482379Y22926404D01*
X22617086Y22976646D01*
X22617093Y22976650D01*
X22732187Y23062810D01*
X22732190Y23062813D01*
X22818350Y23177907D01*
X22818354Y23177914D01*
X22868596Y23312621D01*
X22868598Y23312628D01*
X22874999Y23372156D01*
X22875000Y23372173D01*
X22875000Y23670000D01*
X21050000Y23670000D01*
X21050000Y22920000D01*
X20550000Y22920000D01*
X20550000Y24170000D01*
X21050000Y24170000D01*
X22875000Y24170000D01*
X22875000Y24467828D01*
X22874999Y24467845D01*
X22868598Y24527373D01*
X22868596Y24527380D01*
X22818354Y24662087D01*
X22818350Y24662094D01*
X22732190Y24777188D01*
X22732187Y24777191D01*
X22617093Y24863351D01*
X22617086Y24863355D01*
X22482379Y24913597D01*
X22482372Y24913599D01*
X22422844Y24920000D01*
X21050000Y24920000D01*
X21050000Y24170000D01*
X20550000Y24170000D01*
X20550000Y24920000D01*
X19177155Y24920000D01*
X19145756Y24916623D01*
X19076996Y24929028D01*
X19025859Y24976638D01*
X19008500Y25039912D01*
X19008500Y25331501D01*
X19028185Y25398540D01*
X19080989Y25444295D01*
X19145756Y25454790D01*
X19176345Y25451501D01*
X19176362Y25451500D01*
X22423638Y25451500D01*
X22423654Y25451501D01*
X22454240Y25454790D01*
X22484201Y25458011D01*
X22621204Y25509111D01*
X22738261Y25596739D01*
X22825889Y25713796D01*
X22876989Y25850799D01*
X22880591Y25884308D01*
X22883499Y25911346D01*
X22883500Y25911363D01*
X22883500Y27008638D01*
X22883499Y27008655D01*
X22879071Y27049831D01*
X22876989Y27069201D01*
X22876565Y27070337D01*
X22835155Y27181360D01*
X22825889Y27206204D01*
X22738261Y27323261D01*
X22621204Y27410889D01*
X22484203Y27461989D01*
X22423654Y27468500D01*
X22423638Y27468500D01*
X19176362Y27468500D01*
X19176345Y27468500D01*
X19115797Y27461989D01*
X19115795Y27461989D01*
X18978795Y27410889D01*
X18861739Y27323261D01*
X18774111Y27206205D01*
X18748681Y27138025D01*
X18706809Y27082092D01*
X18641345Y27057676D01*
X18573072Y27072528D01*
X18523667Y27121934D01*
X18508500Y27181360D01*
X18508500Y27596590D01*
X18528185Y27663629D01*
X18544815Y27684267D01*
X18872093Y28011546D01*
X18933414Y28045029D01*
X19003102Y28040046D01*
X19115799Y27998011D01*
X19143050Y27995082D01*
X19176345Y27991501D01*
X19176362Y27991500D01*
X22423638Y27991500D01*
X22423654Y27991501D01*
X22450692Y27994409D01*
X22484201Y27998011D01*
X22621204Y28049111D01*
X22738261Y28136739D01*
X22825889Y28253796D01*
X22876989Y28390799D01*
X22880591Y28424308D01*
X22883499Y28451346D01*
X22883500Y28451363D01*
X22883500Y29548638D01*
X22883499Y29548655D01*
X25716500Y29548655D01*
X25716500Y28451346D01*
X25723011Y28390798D01*
X25723011Y28390796D01*
X25757581Y28298114D01*
X25774111Y28253796D01*
X25861739Y28136739D01*
X25978796Y28049111D01*
X26115799Y27998011D01*
X26143050Y27995082D01*
X26176345Y27991501D01*
X26176362Y27991500D01*
X29423638Y27991500D01*
X29423654Y27991501D01*
X29450692Y27994409D01*
X29484201Y27998011D01*
X29621204Y28049111D01*
X29738261Y28136739D01*
X29825889Y28253796D01*
X29876989Y28390799D01*
X29880591Y28424308D01*
X29883499Y28451346D01*
X29883500Y28451363D01*
X29883500Y29548638D01*
X29883499Y29548655D01*
X30766500Y29548655D01*
X30766500Y28451346D01*
X30773011Y28390798D01*
X30773011Y28390796D01*
X30807581Y28298114D01*
X30824111Y28253796D01*
X30911739Y28136739D01*
X31028796Y28049111D01*
X31165799Y27998011D01*
X31193050Y27995082D01*
X31226345Y27991501D01*
X31226362Y27991500D01*
X34473638Y27991500D01*
X34473654Y27991501D01*
X34500692Y27994409D01*
X34534201Y27998011D01*
X34671204Y28049111D01*
X34788261Y28136739D01*
X34875889Y28253796D01*
X34926989Y28390799D01*
X34930591Y28424308D01*
X34933499Y28451346D01*
X34933500Y28451363D01*
X34933500Y29548638D01*
X34933499Y29548655D01*
X34928457Y29595546D01*
X34926989Y29609201D01*
X34926379Y29610836D01*
X34901939Y29676363D01*
X34875889Y29746204D01*
X34788261Y29863261D01*
X34671204Y29950889D01*
X34534203Y30001989D01*
X34473654Y30008500D01*
X34473638Y30008500D01*
X31226362Y30008500D01*
X31226345Y30008500D01*
X31165797Y30001989D01*
X31165795Y30001989D01*
X31028795Y29950889D01*
X30911739Y29863261D01*
X30824111Y29746205D01*
X30773011Y29609205D01*
X30773011Y29609203D01*
X30766500Y29548655D01*
X29883499Y29548655D01*
X29878457Y29595546D01*
X29876989Y29609201D01*
X29876379Y29610836D01*
X29851939Y29676363D01*
X29825889Y29746204D01*
X29738261Y29863261D01*
X29621204Y29950889D01*
X29484203Y30001989D01*
X29423654Y30008500D01*
X29423638Y30008500D01*
X26176362Y30008500D01*
X26176345Y30008500D01*
X26115797Y30001989D01*
X26115795Y30001989D01*
X25978795Y29950889D01*
X25861739Y29863261D01*
X25774111Y29746205D01*
X25723011Y29609205D01*
X25723011Y29609203D01*
X25716500Y29548655D01*
X22883499Y29548655D01*
X22878457Y29595546D01*
X22876989Y29609201D01*
X22876379Y29610836D01*
X22851939Y29676363D01*
X22825889Y29746204D01*
X22738261Y29863261D01*
X22621204Y29950889D01*
X22484203Y30001989D01*
X22423654Y30008500D01*
X22423638Y30008500D01*
X19176362Y30008500D01*
X19176345Y30008500D01*
X19115797Y30001989D01*
X19115795Y30001989D01*
X18978795Y29950889D01*
X18861739Y29863261D01*
X18774111Y29746205D01*
X18723011Y29609205D01*
X18722123Y29600944D01*
X18695381Y29536395D01*
X18660838Y29506822D01*
X18626370Y29486921D01*
X18045181Y28905731D01*
X17983858Y28872246D01*
X17914166Y28877230D01*
X17858233Y28919102D01*
X17833816Y28984566D01*
X17833500Y28993412D01*
X17833500Y29548638D01*
X17833499Y29548655D01*
X17828457Y29595546D01*
X17826989Y29609201D01*
X17826379Y29610836D01*
X17801939Y29676363D01*
X17775889Y29746204D01*
X17688261Y29863261D01*
X17571204Y29950889D01*
X17434203Y30001989D01*
X17373654Y30008500D01*
X17373638Y30008500D01*
X14126362Y30008500D01*
X14126345Y30008500D01*
X14065797Y30001989D01*
X14065795Y30001989D01*
X13928795Y29950889D01*
X13811739Y29863261D01*
X13724111Y29746205D01*
X13673011Y29609205D01*
X13673011Y29609203D01*
X13666500Y29548655D01*
X13666500Y28451346D01*
X13673011Y28390798D01*
X13673011Y28390796D01*
X13707581Y28298114D01*
X13724111Y28253796D01*
X13811739Y28136739D01*
X13928796Y28049111D01*
X14065799Y27998011D01*
X14093050Y27995082D01*
X14126345Y27991501D01*
X14126362Y27991500D01*
X17167500Y27991500D01*
X17234539Y27971815D01*
X17280294Y27919011D01*
X17291500Y27867500D01*
X17291500Y27592500D01*
X17271815Y27525461D01*
X17219011Y27479706D01*
X17167500Y27468500D01*
X14126345Y27468500D01*
X14065797Y27461989D01*
X14065795Y27461989D01*
X13928795Y27410889D01*
X13811739Y27323261D01*
X13724111Y27206205D01*
X13694296Y27126270D01*
X13652424Y27070337D01*
X13610210Y27049831D01*
X13525127Y27027033D01*
X13386372Y26946921D01*
X13386369Y26946919D01*
X13320181Y26880730D01*
X13258858Y26847245D01*
X13189166Y26852229D01*
X13133233Y26894101D01*
X13108816Y26959565D01*
X13108500Y26968411D01*
X13108500Y34480109D01*
X13108500Y34480111D01*
X13067032Y34634872D01*
X12986921Y34773628D01*
X12873628Y34886921D01*
X11273627Y36486922D01*
X11134873Y36567032D01*
X11057491Y36587766D01*
X11057490Y36587767D01*
X11006029Y36601556D01*
X10983128Y36607692D01*
X10923469Y36644056D01*
X10899042Y36684129D01*
X10875889Y36746204D01*
X10788261Y36863261D01*
X10671204Y36950889D01*
X10534203Y37001989D01*
X10473654Y37008500D01*
X10473638Y37008500D01*
X7226362Y37008500D01*
X7226345Y37008500D01*
X7165797Y37001989D01*
X7165795Y37001989D01*
X7028795Y36950889D01*
X6911739Y36863261D01*
X6824111Y36746205D01*
X6773011Y36609205D01*
X6773011Y36609203D01*
X6766500Y36548655D01*
X6766500Y35451346D01*
X6773011Y35390798D01*
X6773011Y35390796D01*
X6824111Y35253796D01*
X6911739Y35136739D01*
X7028796Y35049111D01*
X7165799Y34998011D01*
X7193050Y34995082D01*
X7226345Y34991501D01*
X7226362Y34991500D01*
X10473638Y34991500D01*
X10473654Y34991501D01*
X10500692Y34994409D01*
X10534201Y34998011D01*
X10671204Y35049111D01*
X10671204Y35049112D01*
X10671206Y35049112D01*
X10671207Y35049113D01*
X10713959Y35081118D01*
X10767698Y35121347D01*
X10833162Y35145764D01*
X10901435Y35130913D01*
X10929690Y35109761D01*
X11855181Y34184270D01*
X11888666Y34122947D01*
X11891500Y34096589D01*
X11891500Y29068411D01*
X11871815Y29001372D01*
X11819011Y28955617D01*
X11749853Y28945673D01*
X11686297Y28974698D01*
X11679819Y28980730D01*
X11173629Y29486920D01*
X11173627Y29486922D01*
X11034873Y29567032D01*
X10994232Y29577922D01*
X10934572Y29614286D01*
X10910145Y29654360D01*
X10875889Y29746204D01*
X10788261Y29863261D01*
X10671204Y29950889D01*
X10534203Y30001989D01*
X10473654Y30008500D01*
X10473638Y30008500D01*
X7226362Y30008500D01*
X7226345Y30008500D01*
X7165797Y30001989D01*
X7165795Y30001989D01*
X7028795Y29950889D01*
X6911739Y29863261D01*
X6824111Y29746205D01*
X6773011Y29609205D01*
X6773011Y29609203D01*
X6766500Y29548655D01*
X6766500Y28451346D01*
X6773011Y28390798D01*
X6773011Y28390796D01*
X6807581Y28298114D01*
X6824111Y28253796D01*
X6911739Y28136739D01*
X7028796Y28049111D01*
X7165799Y27998011D01*
X7193050Y27995082D01*
X7226345Y27991501D01*
X7226362Y27991500D01*
X10473638Y27991500D01*
X10473654Y27991501D01*
X10500692Y27994409D01*
X10534201Y27998011D01*
X10671204Y28049111D01*
X10710509Y28078536D01*
X10775971Y28102953D01*
X10844244Y28088103D01*
X10872501Y28066950D01*
X11355181Y27584270D01*
X11388666Y27522947D01*
X11391500Y27496589D01*
X11391500Y26868411D01*
X11371815Y26801372D01*
X11319011Y26755617D01*
X11249853Y26745673D01*
X11186297Y26774698D01*
X11179819Y26780730D01*
X11013629Y26946920D01*
X11013628Y26946921D01*
X11013627Y26946922D01*
X11013624Y26946924D01*
X11013621Y26946926D01*
X10989824Y26960666D01*
X10941610Y27011234D01*
X10928538Y27054795D01*
X10928173Y27058184D01*
X10926989Y27069201D01*
X10926565Y27070337D01*
X10885155Y27181360D01*
X10875889Y27206204D01*
X10788261Y27323261D01*
X10671204Y27410889D01*
X10534203Y27461989D01*
X10473654Y27468500D01*
X10473638Y27468500D01*
X7226362Y27468500D01*
X7226345Y27468500D01*
X7165797Y27461989D01*
X7165795Y27461989D01*
X7028795Y27410889D01*
X6911739Y27323261D01*
X6824111Y27206205D01*
X6773011Y27069205D01*
X6773011Y27069203D01*
X6766500Y27008655D01*
X6766500Y25911346D01*
X6773011Y25850798D01*
X6773011Y25850796D01*
X6789796Y25805796D01*
X6824111Y25713796D01*
X6911739Y25596739D01*
X7028796Y25509111D01*
X7165799Y25458011D01*
X7193050Y25455082D01*
X7226345Y25451501D01*
X7226362Y25451500D01*
X10473638Y25451500D01*
X10473654Y25451501D01*
X10504240Y25454790D01*
X10534201Y25458011D01*
X10639610Y25497328D01*
X10709299Y25502313D01*
X10770620Y25468831D01*
X10770624Y25468827D01*
X10855181Y25384270D01*
X10888666Y25322947D01*
X10891500Y25296589D01*
X10891500Y24943082D01*
X10871815Y24876043D01*
X10819011Y24830288D01*
X10749853Y24820344D01*
X10693190Y24843815D01*
X10667093Y24863351D01*
X10667086Y24863355D01*
X10532379Y24913597D01*
X10532372Y24913599D01*
X10472844Y24920000D01*
X9100000Y24920000D01*
X9100000Y22920000D01*
X10472828Y22920000D01*
X10472844Y22920001D01*
X10532372Y22926402D01*
X10532379Y22926404D01*
X10667086Y22976646D01*
X10667089Y22976648D01*
X10693188Y22996185D01*
X10758652Y23020603D01*
X10826925Y23005752D01*
X10876331Y22956348D01*
X10891500Y22896919D01*
X10891500Y22122500D01*
X10871815Y22055461D01*
X10819011Y22009706D01*
X10767500Y21998500D01*
X9751345Y21998500D01*
X9690797Y21991989D01*
X9690795Y21991989D01*
X9553795Y21940889D01*
X9436739Y21853261D01*
X9349111Y21736205D01*
X9298011Y21599205D01*
X9298011Y21599203D01*
X9291500Y21538655D01*
X9291500Y20468411D01*
X9271815Y20401372D01*
X9219011Y20355617D01*
X9149853Y20345673D01*
X9086297Y20374698D01*
X9079819Y20380730D01*
X6088393Y23372156D01*
X6775000Y23372156D01*
X6781401Y23312628D01*
X6781403Y23312621D01*
X6831645Y23177914D01*
X6831649Y23177907D01*
X6917809Y23062813D01*
X6917812Y23062810D01*
X7032906Y22976650D01*
X7032913Y22976646D01*
X7167620Y22926404D01*
X7167627Y22926402D01*
X7227155Y22920001D01*
X7227172Y22920000D01*
X8600000Y22920000D01*
X8600000Y23670000D01*
X6775000Y23670000D01*
X6775000Y23372156D01*
X6088393Y23372156D01*
X6073629Y23386920D01*
X6073627Y23386922D01*
X5945498Y23460898D01*
X5897284Y23511464D01*
X5883500Y23568284D01*
X5883500Y24467845D01*
X6775000Y24467845D01*
X6775000Y24170000D01*
X8600000Y24170000D01*
X8600000Y24920000D01*
X7227155Y24920000D01*
X7167627Y24913599D01*
X7167620Y24913597D01*
X7032913Y24863355D01*
X7032906Y24863351D01*
X6917812Y24777191D01*
X6917809Y24777188D01*
X6831649Y24662094D01*
X6831645Y24662087D01*
X6781403Y24527380D01*
X6781401Y24527373D01*
X6775000Y24467845D01*
X5883500Y24467845D01*
X5883500Y24468638D01*
X5883499Y24468655D01*
X5880157Y24499730D01*
X5876989Y24529201D01*
X5873847Y24537624D01*
X5851636Y24597173D01*
X5825889Y24666204D01*
X5738261Y24783261D01*
X5621204Y24870889D01*
X5607386Y24876043D01*
X5484203Y24921989D01*
X5423654Y24928500D01*
X5423638Y24928500D01*
X4492022Y24928500D01*
X4424983Y24948185D01*
X4379228Y25000989D01*
X4369284Y25070147D01*
X4372244Y25084580D01*
X4408500Y25219889D01*
X4408500Y25327500D01*
X4428185Y25394539D01*
X4480989Y25440294D01*
X4532500Y25451500D01*
X5423638Y25451500D01*
X5423654Y25451501D01*
X5454240Y25454790D01*
X5484201Y25458011D01*
X5621204Y25509111D01*
X5738261Y25596739D01*
X5825889Y25713796D01*
X5876989Y25850799D01*
X5880591Y25884308D01*
X5883499Y25911346D01*
X5883500Y25911363D01*
X5883500Y27008638D01*
X5883499Y27008655D01*
X5879071Y27049831D01*
X5876989Y27069201D01*
X5876565Y27070337D01*
X5835155Y27181360D01*
X5825889Y27206204D01*
X5738261Y27323261D01*
X5621204Y27410889D01*
X5484203Y27461989D01*
X5423654Y27468500D01*
X5423638Y27468500D01*
X2176362Y27468500D01*
X2176345Y27468500D01*
X2115797Y27461989D01*
X2115795Y27461989D01*
X1978795Y27410889D01*
X1861739Y27323261D01*
X1774111Y27206205D01*
X1723011Y27069205D01*
X1723011Y27069203D01*
X1716500Y27008655D01*
X1716500Y25911346D01*
X1723011Y25850798D01*
X1723011Y25850796D01*
X1739796Y25805796D01*
X1774111Y25713796D01*
X1848342Y25614635D01*
X1872759Y25549172D01*
X1857907Y25480899D01*
X1811075Y25432938D01*
X1731375Y25386924D01*
X1731369Y25386919D01*
X1211681Y24867230D01*
X1150358Y24833745D01*
X1080666Y24838729D01*
X1024733Y24880601D01*
X1000316Y24946065D01*
X1000000Y24954911D01*
X1000000Y29548655D01*
X1716500Y29548655D01*
X1716500Y28451346D01*
X1723011Y28390798D01*
X1723011Y28390796D01*
X1757581Y28298114D01*
X1774111Y28253796D01*
X1861739Y28136739D01*
X1978796Y28049111D01*
X2115799Y27998011D01*
X2143050Y27995082D01*
X2176345Y27991501D01*
X2176362Y27991500D01*
X5423638Y27991500D01*
X5423654Y27991501D01*
X5450692Y27994409D01*
X5484201Y27998011D01*
X5621204Y28049111D01*
X5738261Y28136739D01*
X5825889Y28253796D01*
X5876989Y28390799D01*
X5880591Y28424308D01*
X5883499Y28451346D01*
X5883500Y28451363D01*
X5883500Y29548638D01*
X5883499Y29548655D01*
X5878457Y29595546D01*
X5876989Y29609201D01*
X5876379Y29610836D01*
X5851939Y29676363D01*
X5825889Y29746204D01*
X5738261Y29863261D01*
X5621204Y29950889D01*
X5484203Y30001989D01*
X5423654Y30008500D01*
X5423638Y30008500D01*
X2176362Y30008500D01*
X2176345Y30008500D01*
X2115797Y30001989D01*
X2115795Y30001989D01*
X1978795Y29950889D01*
X1861739Y29863261D01*
X1774111Y29746205D01*
X1723011Y29609205D01*
X1723011Y29609203D01*
X1716500Y29548655D01*
X1000000Y29548655D01*
X1000000Y34008655D01*
X1716500Y34008655D01*
X1716500Y32911346D01*
X1723011Y32850798D01*
X1723011Y32850796D01*
X1772575Y32717914D01*
X1774111Y32713796D01*
X1861739Y32596739D01*
X1978796Y32509111D01*
X2093297Y32466404D01*
X2110463Y32460001D01*
X2115799Y32458011D01*
X2143050Y32455082D01*
X2176345Y32451501D01*
X2176362Y32451500D01*
X5423638Y32451500D01*
X5423654Y32451501D01*
X5450692Y32454409D01*
X5484201Y32458011D01*
X5489537Y32460001D01*
X5506703Y32466404D01*
X5621204Y32509111D01*
X5738261Y32596739D01*
X5825889Y32713796D01*
X5876989Y32850799D01*
X5880591Y32884308D01*
X5883499Y32911346D01*
X5883500Y32911363D01*
X5883500Y32912156D01*
X6775000Y32912156D01*
X6781401Y32852628D01*
X6781403Y32852621D01*
X6831645Y32717914D01*
X6831649Y32717907D01*
X6917809Y32602813D01*
X6917812Y32602810D01*
X7032906Y32516650D01*
X7032913Y32516646D01*
X7167620Y32466404D01*
X7167627Y32466402D01*
X7227155Y32460001D01*
X7227172Y32460000D01*
X8600000Y32460000D01*
X9100000Y32460000D01*
X10472828Y32460000D01*
X10472844Y32460001D01*
X10532372Y32466402D01*
X10532379Y32466404D01*
X10667086Y32516646D01*
X10667093Y32516650D01*
X10782187Y32602810D01*
X10782190Y32602813D01*
X10868350Y32717907D01*
X10868354Y32717914D01*
X10918596Y32852621D01*
X10918598Y32852628D01*
X10924999Y32912156D01*
X10925000Y32912173D01*
X10925000Y33210000D01*
X9100000Y33210000D01*
X9100000Y32460000D01*
X8600000Y32460000D01*
X8600000Y33210000D01*
X6775000Y33210000D01*
X6775000Y32912156D01*
X5883500Y32912156D01*
X5883500Y34007845D01*
X6775000Y34007845D01*
X6775000Y33710000D01*
X8600000Y33710000D01*
X9100000Y33710000D01*
X10925000Y33710000D01*
X10925000Y34007828D01*
X10924999Y34007845D01*
X10918598Y34067373D01*
X10918596Y34067380D01*
X10868354Y34202087D01*
X10868350Y34202094D01*
X10782190Y34317188D01*
X10782187Y34317191D01*
X10667093Y34403351D01*
X10667086Y34403355D01*
X10532379Y34453597D01*
X10532372Y34453599D01*
X10472844Y34460000D01*
X9100000Y34460000D01*
X9100000Y33710000D01*
X8600000Y33710000D01*
X8600000Y34460000D01*
X7227155Y34460000D01*
X7167627Y34453599D01*
X7167620Y34453597D01*
X7032913Y34403355D01*
X7032906Y34403351D01*
X6917812Y34317191D01*
X6917809Y34317188D01*
X6831649Y34202094D01*
X6831645Y34202087D01*
X6781403Y34067380D01*
X6781401Y34067373D01*
X6775000Y34007845D01*
X5883500Y34007845D01*
X5883500Y34008638D01*
X5883499Y34008655D01*
X5880157Y34039730D01*
X5876989Y34069201D01*
X5825889Y34206204D01*
X5738261Y34323261D01*
X5621204Y34410889D01*
X5484203Y34461989D01*
X5423654Y34468500D01*
X5423638Y34468500D01*
X2176362Y34468500D01*
X2176345Y34468500D01*
X2115797Y34461989D01*
X2115795Y34461989D01*
X1978795Y34410889D01*
X1861739Y34323261D01*
X1774111Y34206205D01*
X1723011Y34069205D01*
X1723011Y34069203D01*
X1716500Y34008655D01*
X1000000Y34008655D01*
X1000000Y36548655D01*
X1716500Y36548655D01*
X1716500Y35451346D01*
X1723011Y35390798D01*
X1723011Y35390796D01*
X1774111Y35253796D01*
X1861739Y35136739D01*
X1978796Y35049111D01*
X2115799Y34998011D01*
X2143050Y34995082D01*
X2176345Y34991501D01*
X2176362Y34991500D01*
X5423638Y34991500D01*
X5423654Y34991501D01*
X5450692Y34994409D01*
X5484201Y34998011D01*
X5621204Y35049111D01*
X5738261Y35136739D01*
X5825889Y35253796D01*
X5876989Y35390799D01*
X5880591Y35424308D01*
X5883499Y35451346D01*
X5883500Y35451363D01*
X5883500Y36548638D01*
X5883499Y36548655D01*
X5877064Y36608500D01*
X5876989Y36609201D01*
X5825889Y36746204D01*
X5738261Y36863261D01*
X5621204Y36950889D01*
X5484203Y37001989D01*
X5423654Y37008500D01*
X5423638Y37008500D01*
X2176362Y37008500D01*
X2176345Y37008500D01*
X2115797Y37001989D01*
X2115795Y37001989D01*
X1978795Y36950889D01*
X1861739Y36863261D01*
X1774111Y36746205D01*
X1723011Y36609205D01*
X1723011Y36609203D01*
X1716500Y36548655D01*
X1000000Y36548655D01*
X1000000Y37876000D01*
X1019685Y37943039D01*
X1072489Y37988794D01*
X1124000Y38000000D01*
X67876000Y38000000D01*
X67943039Y37980315D01*
G37*
%TD.AperFunction*%
%TD*%
M02*
